<?xml version="1.0" encoding="UTF-8" standalone="yes"?><svg xmlns="http://www.w3.org/2000/svg" xmlns:xlink="http://www.w3.org/1999/xlink" version="1.2" baseProfile="tiny" x="0" y="0" width="200" height="200" viewBox="0 0 1024 1024"><defs/><path fill="#62a531" fill-opacity="1" stroke="none" stroke-width="1" stroke-linejoin="miter" stroke-linecap="butt" stroke-miterlimit="4" d="M 513.004 67.4348 C 266.922 67.4348 67.4348 266.922 67.4348 513.004 C 67.4348 759.086 266.922 958.573 513.004 958.573 C 759.086 958.573 958.573 759.076 958.573 513.004 C 958.573 266.932 759.076 67.4348 513.004 67.4348 M 686.666 554.794 C 686.276 556.935 685.698 559.038 684.938 561.078 C 663.958 632.199 599.131 684.398 521.266 684.398 C 426.514 684.42 349.684 607.626 349.662 512.874 C 349.662 512.857 349.662 512.841 349.662 512.824 C 349.662 419.594 424.16 344.107 516.82 341.67 C 517.6 341.6 522.994 341.14 523.494 341.21 C 526.031 341.638 528.491 342.436 530.797 343.578 C 545.033 348.455 554.621 361.808 554.694 376.856 C 554.694 395.837 537.78 411.412 519.038 412.511 C 462.429 412.39 416.439 458.182 416.318 514.792 C 416.196 571.402 461.989 617.391 518.598 617.513 C 567.32 617.617 609.382 583.411 619.211 535.692 C 623.767 521.256 636.794 510.566 652.739 510.566 C 671.381 510.566 686.207 525.032 687.795 543.215 C 687.795 543.255 687.615 551.017 686.666 554.794 M 825.012 278.341 L 581.298 506.69 C 581.388 507.989 581.448 509.288 581.448 510.606 C 581.442 542.608 555.494 568.545 523.493 568.539 C 491.491 568.533 465.554 542.586 465.56 510.584 C 465.566 478.583 491.513 452.645 523.515 452.651 C 526.942 452.652 530.361 452.957 533.734 453.561 L 776.339 226.281 C 790.565 212.978 812.882 213.726 826.185 227.952 C 826.19 227.958 826.196 227.964 826.201 227.97 L 826.701 228.469 C 840.007 242.692 839.263 265.009 825.04 278.315 C 825.031 278.324 825.022 278.332 825.012 278.341"/></svg>
