<?xml version="1.0" encoding="UTF-8" standalone="yes"?><svg id="图层_1" xmlns="http://www.w3.org/2000/svg" xmlns:xlink="http://www.w3.org/1999/xlink" version="1.2" baseProfile="tiny" x="0" y="0" width="256" height="256" viewBox="0 0 256 256"><defs/><defs/><g transform="matrix(0.277914,0,0,0.277914,-14.2922,-14.3019)"><path fill="#37474f" d="M 961.61 949 L 944.23 947.28 L 934 874.41 C 933.202 868.732 928.344 864.509 922.61 864.51 L 922.54 864.51 C 842.54 864.85 780.77 844.06 725.54 825.64 C 683.45 811.64 646.93 799.47 614.05 801.45 C 581.94 803.36 556.05 814 536.85 828.71 C 543 815.88 551.09 805.6 561.5 798 C 609.41 763.13 699.61 787.07 779.19 808.19 C 826.56 820.75 871.3 832.75 905.89 832.34 C 912.241 832.315 917.37 827.146 917.345 820.795 C 917.32 814.444 912.151 809.315 905.8 809.34 C 905.39 809.34 905.06 809.34 904.68 809.34 C 873.21 809.37 830.4 798 785.1 786 C 700.57 763.57 604.78 738.12 547.98 779.43 C 537.665 787.034 528.937 796.583 522.29 807.54 C 525.263 795.503 530.667 784.201 538.17 774.33 C 574.66 726.84 657.07 721.57 736.76 716.47 C 785.68 713.34 831.88 710.39 865.82 697.47 C 871.455 695.02 874.168 688.572 871.98 682.83 C 869.793 677.087 863.477 674.08 857.64 676 C 826.94 687.68 782.42 690.53 735.3 693.55 C 654.42 698.73 562.78 704.55 519.93 760.35 C 514.599 767.374 510.124 775.007 506.6 783.09 C 507.666 778.574 509.002 774.126 510.6 769.77 C 539.06 692.65 649.05 644.77 737.41 606.29 C 769.05 592.51 798.95 579.5 822.26 566.46 C 825.935 564.499 828.263 560.705 828.348 556.54 C 828.432 552.376 826.26 548.49 822.669 546.381 C 819.077 544.272 814.626 544.267 811.03 546.37 C 788.71 558.87 759.33 571.65 728.24 585.2 C 635.86 625.43 520.89 675.48 489.02 761.8 C 481.687 781.787 479.013 803.183 481.2 824.36 C 462.67 811.97 438.81 803.2 409.95 801.49 C 377.05 799.49 340.55 811.66 298.46 825.68 C 243.72 843.92 181.78 864.56 103.75 864.56 L 101.35 864.56 C 95.6479 864.575 90.8181 868.767 90 874.41 L 79.77 947.32 L 62.39 949 C 56.0387 949.304 51.1362 954.699 51.44 961.05 C 51.7438 967.401 57.1387 972.304 63.49 972 C 63.87 972 64.25 972 64.63 971.94 L 90.69 969.36 L 91.4 969.3 L 462.69 932.59 C 468.11 955.654 488.677 971.964 512.369 971.985 C 536.062 972.007 556.659 955.734 562.12 932.68 L 932.59 969.3 L 933.31 969.36 L 959.37 971.94 C 959.75 971.94 960.13 972 960.51 972 C 966.861 972.304 972.256 967.401 972.56 961.05 C 972.864 954.699 967.961 949.304 961.61 949 M 615.37 824.41 C 644.09 822.72 678.37 834.18 718.25 847.46 C 770.16 864.77 834.25 886.13 912.6 887.46 L 914.87 903.57 C 853.1 902 795 888.23 743.37 875.84 C 657 855.12 581.14 837 524.2 885.92 C 529.7 857.27 563.3 827.5 615.37 824.41 M 305.75 847.46 C 345.66 834.18 380.09 822.72 408.64 824.41 C 447.33 826.71 475.64 843.84 490.1 864.2 C 492.3 870.81 494.92 877.49 497.9 884.2 C 441.18 837.3 365.99 855.32 280.64 875.8 C 229.05 888.23 170.9 902 109.13 903.56 L 111.4 887.45 C 189.71 886.12 253.84 864.77 305.75 847.46 M 105.89 926.65 C 171.49 925.54 232.22 911.11 286 898.2 C 374.16 877.04 440.1 861.39 488.55 906.91 L 103.31 945 L 105.89 926.65 M 512.43 949 C 500.582 948.942 490.046 941.451 486.1 930.28 L 512 927.72 L 538.72 930.36 C 534.749 941.484 524.242 948.934 512.43 949 M 535.43 906.93 C 583.91 861.4 649.88 877 738 898.2 C 791.78 911.11 852.5 925.54 918.11 926.65 L 920.69 945 L 535.43 906.93"/><path fill="#7cb342" d="M 512.43 949 C 500.582 948.942 490.046 941.451 486.1 930.28 L 512 927.72 L 538.72 930.36 C 534.749 941.484 524.242 948.934 512.43 949 Z"/><path fill="#7cb342" d="M 615.37 824.41 C 644.09 822.72 678.37 834.18 718.25 847.46 C 770.16 864.77 834.25 886.13 912.6 887.46 L 914.87 903.57 C 853.1 902 795 888.23 743.37 875.84 C 657 855.12 581.14 837 524.2 885.92 C 529.7 857.27 563.3 827.5 615.37 824.41 Z"/><path fill="#7cb342" d="M 305.75 847.46 C 345.66 834.18 380.09 822.72 408.64 824.41 C 447.33 826.71 475.64 843.84 490.1 864.2 C 492.3 870.81 494.92 877.49 497.9 884.2 C 441.18 837.3 365.99 855.32 280.64 875.8 C 229.05 888.23 170.9 902 109.13 903.56 L 111.4 887.45 C 189.71 886.12 253.84 864.77 305.75 847.46 Z"/><path fill="#7cb342" d="M 105.89 926.65 C 171.49 925.54 232.22 911.11 286 898.2 C 374.16 877.04 440.1 861.39 488.55 906.91 L 103.31 945 L 105.89 926.65 Z"/><path fill="#7cb342" d="M 535.45 906.92 C 583.91 861.4 649.88 877 738 898.2 C 791.78 911.11 852.5 925.54 918.11 926.65 L 920.69 945 L 535.45 906.92 Z"/><path fill="#37474f" d="M 299.66 784.91 C 300.321 785.022 300.99 785.078 301.66 785.08 C 307.263 785.096 312.057 781.063 313 775.54 C 313.32 773.77 331.19 675.73 387.95 546.32 C 396.867 548.89 406.1 550.199 415.38 550.21 C 452.38 550.21 491.59 530.43 524.83 492.93 C 540.47 475.27 556.22 455.82 571.74 435.43 C 572.268 434.866 572.737 434.25 573.14 433.59 C 601.55 396.077 627.822 356.992 651.83 316.52 C 652.613 315.594 653.241 314.547 653.69 313.42 C 703.5 228.7 737.94 145.62 733.53 98.85 C 732 83.6 726.56 72.18 717.22 65 C 702.78 53.81 682.63 49.86 657.3 53.21 C 568 65.06 431.68 166 369.44 248.2 C 367.391 250.918 366.659 254.407 367.44 257.72 L 385.52 336.25 L 353.52 301.64 C 350.928 298.829 347.109 297.491 343.329 298.068 C 339.55 298.646 336.304 301.064 334.67 304.52 C 281.78 416.18 309.31 499.99 360.06 533.52 C 362.25 534.97 364.56 536.06 366.81 537.32 C 308.81 669.58 290.62 769.82 290.32 771.63 C 289.238 777.875 293.417 783.817 299.66 784.91 M 372.72 514.32 C 333.87 488.64 311.25 420.89 348.51 330.11 L 397.94 383.68 C 401.476 387.515 407.151 388.489 411.763 386.053 C 416.376 383.618 418.772 378.383 417.6 373.3 L 391 257.84 C 456.9 173.49 586.25 85.84 660.32 75.97 C 679.32 73.44 693.67 75.87 703.13 83.16 C 707.24 86.34 709.74 92.34 710.54 101 C 714.26 140.47 683.05 217.9 634.84 300.34 L 516.92 350 C 511.066 352.469 508.321 359.216 510.79 365.07 C 513.259 370.924 520.006 373.669 525.86 371.2 L 614.42 333.95 C 596.42 362.43 576.81 390.89 556.1 418.19 L 482.1 437.64 C 478.042 438.607 474.826 441.695 473.696 445.71 C 472.565 449.725 473.698 454.038 476.655 456.98 C 479.612 459.922 483.931 461.031 487.94 459.88 L 532.63 448.14 C 524.38 458.26 516.05 468.2 507.63 477.72 C 473.44 516.3 432.78 532.79 397.73 524.65 C 444.88 422.11 516 303.05 621.07 197.11 C 625.544 192.606 625.519 185.329 621.015 180.855 C 616.511 176.381 609.234 176.406 604.76 180.91 C 497.16 289.37 424.49 411.3 376.31 516.15 C 375.14 515.47 373.87 515.08 372.72 514.32"/><path fill="#4dd0e1" d="M 372.72 514.32 C 333.87 488.64 311.25 420.89 348.51 330.11 L 397.94 383.68 C 401.476 387.515 407.151 388.489 411.763 386.053 C 416.376 383.618 418.772 378.383 417.6 373.3 L 391 257.84 C 456.9 173.49 586.25 85.84 660.32 75.97 C 679.32 73.44 693.67 75.87 703.13 83.16 C 707.24 86.34 709.74 92.34 710.54 101 C 714.26 140.47 683.05 217.9 634.84 300.34 L 516.92 350 C 511.066 352.469 508.321 359.216 510.79 365.07 C 513.259 370.924 520.006 373.669 525.86 371.2 L 614.42 333.95 C 596.42 362.43 576.81 390.89 556.1 418.19 L 482.1 437.64 C 478.042 438.607 474.826 441.695 473.696 445.71 C 472.565 449.725 473.698 454.038 476.655 456.98 C 479.612 459.922 483.931 461.031 487.94 459.88 L 532.63 448.14 C 524.38 458.26 516.05 468.2 507.63 477.72 C 473.44 516.3 432.78 532.79 397.73 524.65 C 444.88 422.11 516 303.05 621.07 197.11 C 625.544 192.606 625.519 185.329 621.015 180.855 C 616.511 176.381 609.234 176.406 604.76 180.91 C 497.16 289.37 424.49 411.3 376.31 516.15 C 375.14 515.47 373.87 515.08 372.72 514.32 Z"/></g></svg>
