<?xml version="1.0" standalone="no"?><!DOCTYPE svg PUBLIC "-//W3C//DTD SVG 1.1//EN" "http://www.w3.org/Graphics/SVG/1.1/DTD/svg11.dtd"><svg t="1768890202479" class="icon" viewBox="0 0 1024 1024" version="1.1" xmlns="http://www.w3.org/2000/svg" p-id="2459" xmlns:xlink="http://www.w3.org/1999/xlink" width="200" height="200"><path d="M740.8 471.3a154.2 154.2 0 0 1 216.9 0 151.5 151.5 0 0 1 0 215.3L725.3 917.3 492.9 686.6a151.5 151.5 0 0 1 0-215.3 154.2 154.2 0 0 1 216.9 0l15.5 15.4 15.5-15.4zM821 203a255.8 255.8 0 0 1 72.1 142.4 239.5 239.5 0 0 0-167.8 30.4 239.7 239.7 0 0 0-292.5 34.9 236.8 236.8 0 0 0-7.6 328.6l7.6 7.9 103.3 102.6-66.8 66.9-361.8-362.3a256 256 0 0 1 361.9-361.1 255.9 255.9 0 0 1 351.7 9.7z" p-id="2460" fill="#ffffff"></path></svg>