<?xml version='1.0' encoding='utf-8'?>
<!-- Generator: Adobe Illustrator 23.0.0, SVG Export Plug-In . SVG Version: 6.00 Build 0)  -->
<svg x="0px" xml:space="preserve" id="图层_15" xmlns="http://www.w3.org/2000/svg" width="256" xmlns:xlink="http://www.w3.org/1999/xlink" style="enable-background:new 0 0 1024 1024;" version="1.1" y="0px" viewBox="0 0 256 256" height="256">
    <style type="text/css">&#xd;
	.st0{fill:#E5E5F9;}&#xd;
	.st1{fill:#FF9357;}&#xd;
	.st2{fill:#66CC00;}&#xd;
	.st3{fill:#8484F7;}&#xd;
	.st4{fill:#6146E8;}&#xd;
	.st5{fill:#4E3ADD;}&#xd;
	.st6{fill:#FFD16C;}&#xd;
	.st7{fill:#FFB41D;}&#xd;
	.st8{fill:#F29F0C;}&#xd;
	.st9{fill:#F99BB9;}&#xd;
	.st10{fill:#FF6687;}&#xd;
	.st11{fill:#EF4B76;}&#xd;
	.st12{fill:#7575F2;}&#xd;
	.st13{fill:#FF80A1;}&#xd;
	.st14{fill:#FFC127;}&#xd;
	.st15{fill:#215BEA;}&#xd;
</style>
    <g transform="matrix(0.2931074,0,0,0.2931074,-23.067552,-19.62354)">
        <path class="st0" d="M179.2,575.9c15.1-112.3-190.1-263.2,56-383.5s504.3,35.5,485.3,242.8c-19.1,207.3,131.3,141.4,216.3,240&#xd;&#xa;&#x9;S603.5,960.4,364.6,841.5C228.9,774,164.1,688.3,179.2,575.9z"/>
        <circle class="st1" r="20.2" cy="164.2" cx="606.3"/>
        <circle class="st2" r="25.1" cy="751.3" cx="192.1"/>
        <polygon class="st3" points="627.1,325.7 321.2,515.1 78.7,307.5 152.1,262.5 385.4,119.5 554,263.3 "/>
        <polygon class="st4" points="78.7,307.5 321.2,515.1 321.2,776.4 78.7,580.2 "/>
        <polygon class="st5" points="321.2,515.1 321.2,776.4 627.1,581.2 627.1,325.7 "/>
        <polygon class="st6" points="950.7,435.2 799.9,529 679.7,426.2 710.5,407.3 831.5,333.1 923.1,411.5 "/>
        <polygon class="st7" points="679.7,426.2 799.9,529 799.5,658.3 679.7,561.2 "/>
        <polygon class="st8" points="799.9,529 799.5,658.3 952.1,561.7 950.7,435.2 "/>
        <polygon class="st9" points="666.1,664.7 515.3,758.4 395.1,655.7 420.9,639.8 546.9,562.6 642.5,644.5 "/>
        <polygon class="st10" points="395.1,655.7 515.3,758.4 514.9,887.8 395.1,790.6 "/>
        <polygon class="st11" points="515.3,758.4 514.9,887.8 666.1,791.1 666.1,664.7 "/>
        <path class="st12" d="M627.1,325.7L321.2,515.1L78.7,307.5l73.5-45.1c47.4,40.8,120.5,93.8,180,93.3c64.3-0.5,163-55.7,221.8-92.6&#xd;&#xa;&#x9;L627.1,325.7z"/>
        <path class="st13" d="M666.1,664.7l-150.8,93.7L395.1,655.7l25.8-15.8c19.5,19.7,56.6,50.6,94.4,46.6c37.9-4,95.3-27.6,127.2-42&#xd;&#xa;&#x9;L666.1,664.7z"/>
        <path class="st14" d="M950.7,435.2L799.9,529L679.7,426.2l30.8-18.9c21.3,15.6,62.7,42.2,94.9,40.5c35.8-1.8,94.7-26.3,117.7-36.4&#xd;&#xa;&#x9;L950.7,435.2z"/>
        <circle class="st15" r="20.2" cy="758.4" cx="815.2"/>
    </g>
</svg>
