<?xml version='1.0' encoding='UTF-8'?>
<svg height="256" xmlns="http://www.w3.org/2000/svg" version="1.1" width="256" viewBox="0 0 256 256" xmlns:xlink="http://www.w3.org/1999/xlink">
    <!-- Generator: Sketch 52.2 (67145) - http://www.bohemiancoding.com/sketch -->
    <title>潜在用户</title>
    <desc>Created with Sketch.</desc>
    <g transform="matrix(10.220241,0,0,10.220241,-30.660723,-40.758178)">
        <g stroke="none" id="Page-1" fill="none" fill-rule="evenodd" stroke-width="1">
            <g id="分组-169" fill="#262626" transform="translate(2.000000, -126.000000)">
                <g id="xinzengyonghu-copy-4" transform="translate(1.000000, 130.000000)">
                    <path id="形状" d="M18.7568614,23.6705278 L0.414012247,23.6705278 C0.0984566848,23.6705278 -0.0588766277,23.4340833 0.0202344661,23.1976389 C0.0202344661,20.3603055 1.75356781,19.8083055 4.5126789,19.2571944 C7.7446789,18.46875 9.32156778,16.5771944 9.55712337,16.2616389 C9.79356781,15.8678611 9.79356781,15.3158611 9.79356781,14.8429722 C9.79356781,14.6065278 9.71445668,14.3700833 9.63623447,14.1336389 L9.55712337,13.9754167 C9.47801225,13.7389722 9.00601225,12.9514167 8.7686789,12.3203056 C8.7686789,12.1629722 8.61134556,11.8474167 8.45401225,11.6891944 C8.21756781,11.5318611 7.7446789,11.2954167 7.42912337,10.6651944 C6.71979003,9.56208331 6.9562345,8.61630556 7.66556781,7.98519444 L7.66556781,7.82786113 C7.19267893,6.80297225 7.03445668,5.62075 7.11445668,4.04386113 C7.19179003,2.38875 8.84779003,0.0243055625 12.6300122,0.0243055625 C16.4140122,0.0243055625 17.91179,2.46786113 17.9900122,3.96563888 C18.0691234,5.54163888 17.7535678,6.80297222 17.5171234,7.74875 L17.5171234,7.90608334 C18.0682345,8.30075 18.5420122,9.40386113 17.7535678,10.5078611 C17.2806789,11.0589723 16.9660122,11.3745278 16.7286789,11.5318611 C16.5713456,11.8474167 16.4140122,12.0838611 16.4140122,12.1629722 C16.0984567,12.7140833 15.7046789,13.66075 15.6255678,13.8180833 L15.5464567,13.9754167 C15.4682345,14.2118611 15.3891233,14.5274167 15.3891234,14.68475 C15.3891234,15.23675 15.3891234,15.78875 15.6255678,16.1043056 C15.8679574,16.4675485 16.8540504,17.5744949 18.7272677,18.4260348 C18.2658251,19.1832331 18,20.072726 18,21.0243056 C18,21.9960471 18.277209,22.9030431 18.7568614,23.6705278 Z" fill-rule="nonzero"/>
                    <path id="？" d="M22.8683333,17.72 C23.5183333,17.72 24.0483334,17.89 24.4483334,18.25 C24.8483333,18.6 25.0483334,19.08 25.0483334,19.69 C25.0483334,20.19 24.9183334,20.6 24.6783333,20.92 C24.5883334,21.02 24.2983334,21.29 23.8183334,21.71 C23.6383333,21.86 23.5083334,22.03 23.4183334,22.21 C23.3183334,22.41 23.2683333,22.62 23.2683333,22.86 L23.2683333,23 L22.1183333,23 L22.1183333,22.86 C22.1183333,22.48 22.1783333,22.15 22.3183334,21.88 C22.4483334,21.61 22.8383334,21.19 23.4883334,20.61 L23.6083334,20.47 C23.7883333,20.25 23.8783334,20.01 23.8783334,19.76 C23.8783334,19.43 23.7783334,19.17 23.5983333,18.98 C23.4083333,18.79 23.1383333,18.7 22.7983334,18.7 C22.3583334,18.7 22.0483334,18.83 21.8583334,19.11 C21.6883333,19.34 21.6083334,19.67 21.6083334,20.09 L20.4683334,20.09 C20.4683334,19.35 20.6783333,18.77 21.1183333,18.35 C21.5483334,17.93 22.1283334,17.72 22.8683333,17.72 Z M22.6883333,23.49 C22.9083333,23.49 23.0983333,23.56 23.2483333,23.7 C23.3883333,23.84 23.4683334,24.02 23.4683334,24.24 C23.4683334,24.46 23.3883333,24.65 23.2383334,24.79 C23.0883334,24.93 22.9083333,25 22.6883333,25 C22.4683334,25 22.2883333,24.92 22.1383333,24.78 C21.9883334,24.64 21.9183334,24.46 21.9183334,24.24 C21.9183334,24.02 21.9883334,23.84 22.1383333,23.7 C22.2883333,23.56 22.4683334,23.49 22.6883333,23.49 Z"/>
                </g>
            </g>
            <g id="IIIII-Copy-26" transform="translate(0.000000, -128.000000)"/>
        </g>
    </g>
</svg>
