<?xml version="1.0" encoding="UTF-8" standalone="yes"?><svg xmlns="http://www.w3.org/2000/svg" xmlns:xlink="http://www.w3.org/1999/xlink" version="1.2" baseProfile="tiny" x="0" y="0" width="255" height="255" viewBox="0 0 256 256"><defs><linearGradient id="wps{1509350e-a02a-4a02-b176-6c9fd354213e}_solid@Accent1_0.00@Accent1_0.00" x1="0" y1="0.5" x2="1" y2="0.5" spreadMethod="pad" gradientUnits="userSpaceOnUse"><stop offset="0" stop-color="#62a430" stop-opacity="1"/><stop offset="1" stop-color="#62a430" stop-opacity="1"/></linearGradient></defs><defs/><g fill="none" fill-rule="evenodd" stroke="#000000" stroke-width="1" stroke-linejoin="bevel" stroke-linecap="square"><g fill="none" font-family="微软雅黑" font-size="12" font-style="normal" font-weight="400" stroke="#000000" stroke-width="1" stroke-linejoin="bevel" stroke-linecap="square" stroke-opacity="1" transform="matrix(0.0666667,0,0,0.0666667,0.933333,0.933333)"/><g fill="none" font-family="微软雅黑" font-size="12" font-style="normal" font-weight="400" stroke="#000000" stroke-width="1" stroke-linejoin="bevel" stroke-linecap="square" stroke-opacity="1" transform="matrix(0.0666667,0,0,0.0666667,0,0)"/><g fill="none" font-family="微软雅黑" font-size="12" font-style="normal" font-weight="400" stroke="#000000" stroke-width="1" stroke-linejoin="bevel" stroke-linecap="square" stroke-opacity="1" transform="matrix(0.0666667,0,0,0.0666667,0,0)"/><g fill="none" font-family="微软雅黑" font-size="12" font-style="normal" font-weight="400" stroke="#000000" stroke-width="1" stroke-linejoin="bevel" stroke-linecap="square" stroke-opacity="1" transform="matrix(0.0666667,0,0,0.0666667,0,0)"/><g fill="none" font-family="微软雅黑" font-size="12" font-style="normal" font-weight="400" stroke="#000000" stroke-width="1" stroke-linejoin="bevel" stroke-linecap="square" stroke-opacity="1" transform="matrix(0.0666667,0,0,0.0666667,0,0)"/><g fill="none" font-family="微软雅黑" font-size="12" font-style="normal" font-weight="400" stroke="#000000" stroke-width="1" stroke-linejoin="bevel" stroke-linecap="square" stroke-opacity="1" transform="matrix(0.0666667,0,0,0.0666667,0,0)"/><g fill="#333333" fill-opacity="1" font-family="Arial" font-size="16" font-style="normal" font-weight="400" stroke="none" transform="matrix(0.18281,0,0,-0.18281,-8.44424,264.623)"><path fill="url(#wps{1509350e-a02a-4a02-b176-6c9fd354213e}_solid@Accent1_0.00@Accent1_0.00)" vector-effect="none" d="M 1422.04 896.238 C 1442.15 887.668 1451.54 864.449 1443.08 844.297 L 1181.99 228.039 C 1173.42 207.93 1150.18 198.551 1130.1 206.961 L 832.605 333.039 L 832.605 333.059 L 905.254 333.059 L 1112.3 245.371 C 1131.14 237.391 1152.85 245.91 1160.73 264.578 L 1402.03 834.145 C 1409.92 852.695 1400.99 874.34 1382.13 882.207 L 1163.26 974.965 L 1163.26 974.988 L 1163.26 1005.89 L 1422.04 896.238 Z"/></g><g fill="#333333" fill-opacity="1" font-family="Arial" font-size="16" font-style="normal" font-weight="400" stroke="none" transform="matrix(0.18281,0,0,-0.18281,-8.44424,264.623)"><path fill="url(#wps{1509350e-a02a-4a02-b176-6c9fd354213e}_solid@Accent1_0.00@Accent1_0.00)" vector-effect="none" d="M 1129.79 989.172 L 851.34 1107.18 L 924.121 1107.18 L 1129.79 1020.05 L 1129.79 1020.02 L 1129.79 989.172 Z"/></g><g fill="#333333" fill-opacity="1" font-family="Arial" font-size="16" font-style="normal" font-weight="400" stroke="none" transform="matrix(0.18281,0,0,-0.18281,-8.44424,264.623)"><path fill="url(#wps{1509350e-a02a-4a02-b176-6c9fd354213e}_solid@Accent1_0.00@Accent1_0.00)" vector-effect="none" d="M 924.121 1107.18 L 1090.17 1107.18 C 1112.03 1107.18 1129.79 1089.48 1129.79 1067.67 L 1129.79 1020.05 L 924.121 1107.18 Z"/></g><g fill="#333333" fill-opacity="1" font-family="Arial" font-size="16" font-style="normal" font-weight="400" stroke="none" transform="matrix(0.18281,0,0,-0.18281,-8.44424,264.623)"><path fill="url(#wps{1509350e-a02a-4a02-b176-6c9fd354213e}_solid@Accent1_0.00@Accent1_0.00)" vector-effect="none" d="M 886.184 453.57 C 868.074 453.57 853.379 466.879 853.379 483.238 L 853.379 539.492 C 853.379 555.891 868.074 569.109 886.184 569.109 L 1022.13 569.109 C 1040.21 569.109 1054.86 555.891 1054.86 539.492 L 1054.86 483.238 C 1054.86 466.879 1040.21 453.57 1022.13 453.57 L 886.184 453.57 Z"/></g><g fill="#333333" fill-opacity="1" font-family="Arial" font-size="16" font-style="normal" font-weight="400" stroke="none" transform="matrix(0.18281,0,0,-0.18281,-8.44424,264.623)"><path fill="url(#wps{1509350e-a02a-4a02-b176-6c9fd354213e}_solid@Accent1_0.00@Accent1_0.00)" vector-effect="none" d="M 872.234 1129.16 L 799.543 1129.16 L 799.543 1129.12 L 514.91 1249.73 C 496.051 1257.7 474.363 1249.07 466.484 1230.51 L 423.559 1129.16 L 386.902 1129.16 L 445.32 1267.04 C 453.832 1287.11 477.094 1296.58 497.168 1288.05 L 872.234 1129.16 Z"/></g><g fill="#333333" fill-opacity="1" font-family="Arial" font-size="16" font-style="normal" font-weight="400" stroke="none" transform="matrix(0.18281,0,0,-0.18281,-8.44424,264.623)"><path fill="url(#wps{1509350e-a02a-4a02-b176-6c9fd354213e}_solid@Accent1_0.00@Accent1_0.00)" vector-effect="none" d="M 364.039 988.551 L 364.039 988.594 L 380.316 1027 L 380.316 953.453 L 364.039 988.551 Z"/></g><g fill="#333333" fill-opacity="1" font-family="Arial" font-size="16" font-style="normal" font-weight="400" stroke="none" transform="matrix(0.18281,0,0,-0.18281,-8.44424,264.623)"><path fill="url(#wps{1509350e-a02a-4a02-b176-6c9fd354213e}_solid@Accent1_0.00@Accent1_0.00)" vector-effect="none" d="M 383.219 1033.87 L 380.316 1033.87 L 380.316 1027 L 364.039 988.594 L 344.906 1029.9 L 377.605 1107.18 L 414.234 1107.18 L 383.219 1033.87 Z"/></g><g fill="#333333" fill-opacity="1" font-family="Arial" font-size="16" font-style="normal" font-weight="400" stroke="none" transform="matrix(0.18281,0,0,-0.18281,-8.44424,264.623)"><path fill="url(#wps{1509350e-a02a-4a02-b176-6c9fd354213e}_solid@Accent1_0.00@Accent1_0.00)" vector-effect="none" d="M 343.328 939.723 L 343.328 968.336 L 349.645 954.668 L 349.645 954.648 L 343.328 939.723 Z"/></g><g fill="#333333" fill-opacity="1" font-family="Arial" font-size="16" font-style="normal" font-weight="400" stroke="none" transform="matrix(0.18281,0,0,-0.18281,-8.44424,264.623)"><path fill="url(#wps{1509350e-a02a-4a02-b176-6c9fd354213e}_solid@Accent1_0.00@Accent1_0.00)" vector-effect="none" d="M 1075.7 473.93 L 1075.7 548.809 C 1075.7 570.715 1058 588.406 1036.2 588.406 L 872.07 588.406 C 850.273 588.406 832.605 570.715 832.605 548.809 L 832.605 473.93 C 832.605 452.059 850.273 434.352 872.07 434.352 L 1036.2 434.352 C 1058 434.352 1075.7 452.059 1075.7 473.93 M 380.316 888.477 L 409.188 888.477 L 409.188 1033.87 L 383.219 1033.87 L 414.234 1107.18 L 414.277 1107.18 L 851.27 1107.18 L 851.34 1107.18 L 1129.79 989.172 L 1129.79 398.238 C 1129.79 376.469 1112.03 358.73 1090.17 358.73 L 844.734 358.73 L 245.078 612.715 C 226.195 620.801 217.395 642.273 225.25 660.852 L 321.633 888.477 L 343.328 888.477 L 343.328 939.68 L 343.328 939.723 L 349.645 954.648 L 380.316 888.477 M 1064.95 936.949 L 562.273 936.949 C 559.32 936.949 556.621 935.715 554.684 933.793 C 552.719 931.852 551.504 929.141 551.504 926.137 C 551.504 920.168 556.344 915.348 562.273 915.348 L 1064.95 915.348 C 1070.92 915.348 1075.7 920.168 1075.7 926.137 C 1075.7 932.109 1070.92 936.949 1064.95 936.949 M 1064.95 996.379 L 562.273 996.379 C 559.32 996.379 556.621 995.18 554.684 993.262 C 552.719 991.324 551.504 988.594 551.504 985.629 C 551.504 979.613 556.344 974.797 562.273 974.797 L 1064.95 974.797 C 1070.92 974.797 1075.7 979.613 1075.7 985.629 C 1075.7 991.602 1070.92 996.379 1064.95 996.379 M 496.754 978.977 L 532.875 1033.87 L 492.168 1033.87 L 460.195 978.953 L 460.195 1033.87 L 429.629 1033.87 L 429.629 888.477 L 460.195 888.477 L 460.195 923.961 L 475.941 948.207 L 496.785 888.477 L 534.496 888.477 L 496.754 978.977"/></g><g fill="#333333" fill-opacity="1" font-family="Arial" font-size="16" font-style="normal" font-weight="400" stroke="none" transform="matrix(0.18281,0,0,-0.18281,-8.44424,264.623)"><path fill="url(#wps{1509350e-a02a-4a02-b176-6c9fd354213e}_solid@Accent1_0.00@Accent1_0.00)" vector-effect="none" d="M 844.734 358.73 L 771.953 358.73 L 205.227 598.84 C 185.09 607.344 175.66 630.586 184.254 650.676 L 284.977 888.477 L 304.563 888.477 L 297.207 917.309 L 297.207 917.328 L 314.539 958.297 L 314.539 888.477 L 321.633 888.477 L 225.25 660.852 C 217.395 642.273 226.195 620.801 245.078 612.715 L 844.734 358.73 Z"/></g><g fill="#333333" fill-opacity="1" font-family="Arial" font-size="16" font-style="normal" font-weight="400" stroke="none" transform="matrix(0.18281,0,0,-0.18281,-8.44424,264.623)"><path fill="url(#wps{1509350e-a02a-4a02-b176-6c9fd354213e}_solid@Accent1_0.00@Accent1_0.00)" vector-effect="none" d="M 250.453 996.16 L 261.34 943.902 L 239.645 943.902 L 250.453 996.16 Z"/></g><g fill="#333333" fill-opacity="1" font-family="Arial" font-size="16" font-style="normal" font-weight="400" stroke="none" transform="matrix(0.18281,0,0,-0.18281,-8.44424,264.623)"><path fill="url(#wps{1509350e-a02a-4a02-b176-6c9fd354213e}_solid@Accent1_0.00@Accent1_0.00)" vector-effect="none" d="M 101.711 888.477 L 154.59 888.477 C 156.809 888.477 161.316 889.117 168.207 890.438 C 173.391 891.402 177.27 892.996 179.773 895.133 C 183.965 898.672 187.262 903.445 189.574 909.504 C 192.008 915.52 193.152 922.281 193.152 929.844 C 193.152 939.02 191.578 946.777 188.23 952.875 C 184.82 959.02 179.613 963.344 172.496 965.883 C 177.172 968.188 180.73 971.449 183.145 975.586 C 186.781 981.73 188.613 989.043 188.613 997.68 C 188.613 1007.91 186.012 1016.57 181 1023.56 C 175.82 1030.41 168.473 1033.87 159.047 1033.87 L 101.711 1033.87 L 101.711 888.477 M 85.7891 358.73 C 63.9023 358.73 46.1914 376.469 46.1914 398.238 L 46.1914 1067.67 C 46.1914 1089.48 63.9023 1107.18 85.7891 1107.18 L 377.605 1107.18 L 344.906 1029.9 L 343.063 1033.87 L 314.539 1033.87 L 314.539 958.316 L 314.539 958.297 L 297.207 917.328 L 267.473 1033.87 L 234.109 1033.87 L 196.891 888.477 L 228.148 888.477 L 232.949 912.445 L 267.641 912.445 L 272.59 888.477 L 284.977 888.477 L 184.254 650.676 C 175.66 630.586 185.09 607.344 205.227 598.84 L 771.953 358.73 L 85.7891 358.73"/></g><g fill="#333333" fill-opacity="1" font-family="Arial" font-size="16" font-style="normal" font-weight="400" stroke="none" transform="matrix(0.18281,0,0,-0.18281,-8.44424,264.623)"><path fill="url(#wps{1509350e-a02a-4a02-b176-6c9fd354213e}_solid@Accent1_0.00@Accent1_0.00)" vector-effect="none" d="M 155.816 1000.86 C 157.715 998.469 158.613 995.18 158.613 990.941 C 158.613 986.441 157.715 982.898 155.816 980.469 C 154.004 978.063 150.668 976.848 145.891 976.848 L 132.637 976.848 L 132.637 1004.39 L 146.086 1004.39 C 150.742 1004.39 154.004 1003.27 155.816 1000.86 Z"/></g><g fill="#333333" fill-opacity="1" font-family="Arial" font-size="16" font-style="normal" font-weight="400" stroke="none" transform="matrix(0.18281,0,0,-0.18281,-8.44424,264.623)"><path fill="url(#wps{1509350e-a02a-4a02-b176-6c9fd354213e}_solid@Accent1_0.00@Accent1_0.00)" vector-effect="none" d="M 162.566 934.879 C 162.566 930.211 161.445 926.52 159.336 923.832 C 157.129 921.086 153.438 919.719 148.16 919.719 L 132.637 919.719 L 132.637 949.164 L 148.102 949.164 C 153.438 949.164 157.191 947.805 159.336 945.219 C 161.48 942.641 162.566 939.188 162.566 934.879 Z"/></g><g fill="none" font-family="微软雅黑" font-size="12" font-style="normal" font-weight="400" stroke="#000000" stroke-width="1" stroke-linejoin="bevel" stroke-linecap="square" stroke-opacity="1" transform="matrix(0.0666667,0,0,0.0666667,0,0)"/><g fill="none" font-family="微软雅黑" font-size="12" font-style="normal" font-weight="400" stroke="#000000" stroke-width="1" stroke-linejoin="bevel" stroke-linecap="square" stroke-opacity="1" transform="matrix(0.0666667,0,0,0.0666667,0,0)"/><g fill="none" font-family="微软雅黑" font-size="12" font-style="normal" font-weight="400" stroke="#000000" stroke-width="1" stroke-linejoin="bevel" stroke-linecap="square" stroke-opacity="1" transform="matrix(0.0666667,0,0,0.0666667,0,0)"/><g fill="none" font-family="微软雅黑" font-size="12" font-style="normal" font-weight="400" stroke="#000000" stroke-width="1" stroke-linejoin="bevel" stroke-linecap="square" stroke-opacity="1" transform="matrix(0.0666667,0,0,0.0666667,0,0)"/><g fill="none" font-family="微软雅黑" font-size="12" font-style="normal" font-weight="400" stroke="#000000" stroke-width="1" stroke-linejoin="bevel" stroke-linecap="square" stroke-opacity="1" transform="matrix(0.0666667,0,0,0.0666667,0,0)"/><g fill="none" font-family="微软雅黑" font-size="12" font-style="normal" font-weight="400" stroke="#000000" stroke-width="1" stroke-linejoin="bevel" stroke-linecap="square" stroke-opacity="1" transform="matrix(0.0666667,0,0,0.0666667,0,0)"/><g fill="none" font-family="微软雅黑" font-size="12" font-style="normal" font-weight="400" stroke="#000000" stroke-width="1" stroke-linejoin="bevel" stroke-linecap="square" stroke-opacity="1" transform="matrix(0.0666667,0,0,0.0666667,0.933333,0.933333)"/></g></svg>
