<svg viewBox="0 0 200 200" xmlns="http://www.w3.org/2000/svg" xmlns:xlink="http://www.w3.org/1999/xlink" id="图层_1" overflow="hidden"><style>
.MsftOfcThm_Accent3_Fill_v2 {
 fill:#AFCB3D; 
}
</style>
<g><path d="M195.8 56.6C195.8 47 187.8 39 178.2 39 173.8 39 169.7 40.7 166.6 43.5L102.6 6.5C101 5.4 98.9 5.4 97.3 6.5L33.4 43.5C30.3 40.7 26.1 39.1 21.6 39.1 12 39.1 4 47.1 4 56.6 4 64.1 8.9 70.3 15.7 72.7L15.7 141.9C15.7 143.9 16.7 145.7 18.4 146.7L83.6 183.9C86.2 190.4 92.6 195.1 100 195.1 107.4 195.1 113.8 190.4 116.4 183.9L181.6 146.7C183.3 145.7 184.3 143.9 184.3 141.9L184.3 73.2C190.9 70.7 195.8 64.2 195.8 56.6ZM21.6 50.3C25.3 50.3 28 53 28 56.7 28 60.4 24.8 63.1 21.6 63.1L21.6 63.1C17.9 63.1 15.2 60.4 15.2 56.7 15.2 53 17.9 50.3 21.6 50.3ZM99.9 184C96.2 184 93.5 181.3 93.5 177.6 93.5 174.4 96.2 171.2 99.9 171.2 103.6 171.2 106.3 173.9 106.3 177.6 106.3 180.8 103.1 184 99.9 184ZM116.3 171.3C113.7 164.8 107.3 160 99.9 160 93.8 160 88.4 163.2 85.2 168.1 85 168.1 84.7 168.2 84.5 168.3 83.4 168.7 82.6 169.6 82.3 170.6L26.9 138.7 26.9 72.8C33.9 70.5 39 64 39.2 56.3L39.9 56.4C40 56.4 40.2 56.4 40.3 56.4 42.1 56.4 43.6 55 43.9 53.2 44 52.2 43.7 51.2 43.1 50.5L100 17.7 161 53C160.7 54.2 160.6 55.4 160.6 56.6 160.6 63.6 164.9 69.8 171 72.6 171.1 73.8 171.8 74.9 172.8 75.4L172.8 138.6 116.3 171.3ZM178.2 63.1 178.2 63.1C174.5 63.1 171.8 60.4 171.8 56.7 171.8 53 174.5 50.3 178.2 50.3 181.9 50.3 184.6 53 184.6 56.7 184.6 60.4 182 63.1 178.2 63.1Z" class="MsftOfcThm_Accent3_Fill_v2" stroke="none" stroke-width="0.999846" stroke-linecap="butt" stroke-linejoin="miter" stroke-miterlimit="4" fill="#AFCB3D" fill-opacity="1"/><path d="M61.3 59C63.1 59 64.6 57.6 64.9 55.8 65.1 53.8 63.7 52.1 61.8 51.8L51.3 50.5C51.2 50.5 51.2 50.5 51.1 50.5 49.1 50.3 47.4 51.7 47.2 53.7 47 55.7 48.4 57.4 50.4 57.6L60.9 59C61 59 61.2 59 61.3 59Z" class="MsftOfcThm_Accent3_Fill_v2" stroke="none" stroke-width="0.999846" stroke-linecap="butt" stroke-linejoin="miter" stroke-miterlimit="4" fill="#AFCB3D" fill-opacity="1"/><path d="M164.8 77.7 157.7 85.5C157.1 86.2 156.8 87 156.8 87.9 156.8 89.9 158.4 91.5 160.4 91.5 161.4 91.5 162.4 91.1 163 90.3L170.1 82.5C170.1 82.5 170.2 82.4 170.2 82.4 171.5 80.9 171.4 78.6 169.9 77.3 168.4 76.1 166.2 76.2 164.8 77.7Z" class="MsftOfcThm_Accent3_Fill_v2" stroke="none" stroke-width="0.999846" stroke-linecap="butt" stroke-linejoin="miter" stroke-miterlimit="4" fill="#AFCB3D" fill-opacity="1"/><path d="M150.6 93.3 143.5 101.1C142.9 101.8 142.6 102.6 142.6 103.5 142.6 105.5 144.2 107.1 146.2 107.1 147.2 107.1 148.2 106.7 148.8 105.9L155.9 98.1C157 96.7 156.9 94.7 155.7 93.4 154.3 92 152.1 91.9 150.6 93.3Z" class="MsftOfcThm_Accent3_Fill_v2" stroke="none" stroke-width="0.999846" stroke-linecap="butt" stroke-linejoin="miter" stroke-miterlimit="4" fill="#AFCB3D" fill-opacity="1"/><path d="M80.3 146.7C79.6 144.8 77.5 143.9 75.7 144.6 73.8 145.3 72.9 147.4 73.6 149.2L78 161C78.5 162.4 79.9 163.3 81.4 163.3 81.8 163.3 82.2 163.2 82.6 163.1 84.5 162.4 85.4 160.4 84.7 158.5L80.3 146.7Z" class="MsftOfcThm_Accent3_Fill_v2" stroke="none" stroke-width="0.999846" stroke-linecap="butt" stroke-linejoin="miter" stroke-miterlimit="4" fill="#AFCB3D" fill-opacity="1"/><path d="M142.5 99.5C142.5 99.5 142.5 99.5 142.5 99.5 142.5 76.1 123.6 57.2 100.3 57 99.8 56.7 99.3 56.4 98.7 56.4L93.4 55.8C93.3 55.8 93.3 55.8 93.2 55.8 91.4 55.6 89.9 56.8 89.4 58.4 88.1 58.7 86.9 59.1 85.6 59.6 85.7 59.3 85.9 58.9 85.9 58.6 86.1 56.6 84.7 54.9 82.8 54.6L72.3 53.3C72.2 53.3 72.2 53.3 72.1 53.3 70.1 53.1 68.4 54.6 68.2 56.5 68 58.4 69.5 60.2 71.4 60.4L81 61.6C67 68.6 57.4 83 57.4 99.7 57.4 108.5 60.1 116.7 64.7 123.5 64.5 124.2 64.5 125 64.8 125.7L69.2 137.5C69.7 138.9 71.1 139.8 72.6 139.8L72.6 139.8C73 139.8 73.4 139.7 73.8 139.6 75.7 138.9 76.6 136.8 75.9 135L75.8 134.6C82.7 139.4 91 142.2 100 142.2 117.4 142.2 132.3 131.8 138.9 116.9L141.7 113.8C143 112.4 142.9 110.1 141.5 108.8 142.2 105.7 142.5 102.6 142.5 99.5ZM100 133.3 100 133.3C81.3 133.3 66.2 118.2 66.2 99.5 66.2 80.8 81.3 65.7 100 65.7 118.7 65.7 133.8 80.9 133.8 99.5 133.8 118.2 118.7 133.3 100 133.3Z" class="MsftOfcThm_Accent3_Fill_v2" stroke="none" stroke-width="0.999846" stroke-linecap="butt" stroke-linejoin="miter" stroke-miterlimit="4" fill="#AFCB3D" fill-opacity="1"/></g><path d="M100 70C103 70 105.4 72.1 105.4 74.7L105.4 106.3C105.4 108.9 103 111 100 111 97 111 94.6 108.9 94.6 106.3L94.6 74.7C94.6 72.1 97 70 100 70L100 70Z" class="MsftOfcThm_Accent3_Fill_v2" stroke="none" stroke-width="0.999846" stroke-linecap="butt" stroke-linejoin="miter" stroke-miterlimit="4" fill="#AFCB3D" fill-opacity="1"/><circle cx="100" cy="121.4" r="5.4" class="MsftOfcThm_Accent3_Fill_v2" stroke="none" stroke-width="0.999846" stroke-linecap="butt" stroke-linejoin="miter" stroke-miterlimit="4" fill="#AFCB3D" fill-opacity="1"/></svg>