<?xml version="1.0" encoding="UTF-8" standalone="yes"?><svg xmlns="http://www.w3.org/2000/svg" xmlns:xlink="http://www.w3.org/1999/xlink" version="1.2" baseProfile="tiny" x="0" y="0" width="255" height="255" viewBox="0 0 256 256"><defs><linearGradient id="wps{7a8cc2f3-d1db-4912-8c4b-39fd084206b4}_solid@Accent1_0.00@Accent1_0.00" x1="0" y1="0.5" x2="1" y2="0.5" spreadMethod="pad" gradientUnits="userSpaceOnUse"><stop offset="0" stop-color="#62a430" stop-opacity="1"/><stop offset="1" stop-color="#62a430" stop-opacity="1"/></linearGradient></defs><defs/><defs/><defs/><g fill="none" fill-rule="evenodd" stroke="#000000" stroke-width="1" stroke-linejoin="bevel" stroke-linecap="square"><g fill="none" font-family="微软雅黑" font-size="12" font-style="normal" font-weight="400" stroke="#000000" stroke-width="1" stroke-linejoin="bevel" stroke-linecap="square" stroke-opacity="1" transform="matrix(0.0666667,0,0,0.0666667,0.933333,0.933333)"/><g fill="none" font-family="微软雅黑" font-size="12" font-style="normal" font-weight="400" stroke="#000000" stroke-width="1" stroke-linejoin="bevel" stroke-linecap="square" stroke-opacity="1" transform="matrix(0.0666667,0,0,0.0666667,0,0)"/><g fill="none" font-family="微软雅黑" font-size="12" font-style="normal" font-weight="400" stroke="#000000" stroke-width="1" stroke-linejoin="bevel" stroke-linecap="square" stroke-opacity="1" transform="matrix(0.0666667,0,0,0.0666667,0,0)"/><g fill="none" font-family="微软雅黑" font-size="12" font-style="normal" font-weight="400" stroke="#000000" stroke-width="1" stroke-linejoin="bevel" stroke-linecap="square" stroke-opacity="1" transform="matrix(0.0666667,0,0,0.0666667,0,0)"/><g fill="none" font-family="微软雅黑" font-size="12" font-style="normal" font-weight="400" stroke="#000000" stroke-width="1" stroke-linejoin="bevel" stroke-linecap="square" stroke-opacity="1" transform="matrix(0.0666667,0,0,0.0666667,0,0)"/><g fill="none" font-family="微软雅黑" font-size="12" font-style="normal" font-weight="400" stroke="#000000" stroke-width="1" stroke-linejoin="bevel" stroke-linecap="square" stroke-opacity="1" transform="matrix(0.0666667,0,0,0.0666667,0,0)"/><g fill="#333333" fill-opacity="1" font-family="Arial" font-size="16" font-style="normal" font-weight="400" stroke="none" transform="matrix(0.748407,0,0,0.748407,-0.0599937,13.7986)"><path fill="#62a531" fill-opacity="1" vector-effect="none" d="M 315.157 110.623 L 316.479 110.704 L 317.962 110.784 L 319.365 111.024 L 320.688 111.265 L 322.01 111.585 L 323.253 112.026 L 324.576 112.427 L 325.778 112.988 L 326.94 113.509 L 328.183 114.231 L 329.265 114.912 L 330.347 115.714 L 331.469 116.555 L 332.471 117.397 L 333.393 118.359 L 334.355 119.361 L 335.197 120.363 L 336.079 121.445 L 336.84 122.568 L 337.602 123.73 L 338.243 124.972 L 338.884 126.135 L 339.486 127.457 L 339.967 128.78 L 340.528 130.103 L 340.808 131.506 L 341.289 132.908 L 341.53 134.391 L 341.85 135.794 L 342.011 137.277 L 342.051 138.84 L 342.051 140.404 L 342.051 305.016 L 197.238 305.016 L 197.238 260.005 L 327.261 260.005 L 327.261 239.363 L 219.082 239.363 L 315.157 110.623 M 291.429 110.623 L 197.439 235.275 L 197.439 157.278 L 123.089 247.46 L 122.327 248.422 L 121.686 249.263 L 120.924 250.025 L 120.123 250.827 L 119.361 251.508 L 118.479 252.069 L 117.718 252.67 L 116.876 253.151 L 115.994 253.632 L 115.153 253.993 L 114.231 254.394 L 113.349 254.634 L 111.585 255.155 L 109.782 255.396 L 107.978 255.476 L 106.215 255.316 L 104.491 255.075 L 102.687 254.634 L 101.004 253.993 L 99.3607 253.392 L 97.7975 252.47 L 96.2344 251.508 L 94.9117 250.346 L 93.589 249.103 L 92.4267 247.7 L 91.2643 246.217 L 90.4226 244.774 L 89.621 243.131 L 89.1 241.488 L 88.5388 239.724 L 88.3785 237.921 L 88.2983 236.999 L 88.2983 236.037 L 88.2983 235.035 L 88.4587 234.033 L 88.619 233.111 L 88.7793 232.109 L 89.1 231.147 L 89.4206 230.145 L 89.8615 229.223 L 90.2623 228.141 L 90.8234 227.139 L 91.3445 226.097 L 92.0659 225.095 L 92.7473 224.173 L 171.065 121.966 L 172.108 120.724 L 173.19 119.401 L 174.432 118.239 L 175.595 117.237 L 176.997 116.235 L 178.32 115.233 L 179.803 114.351 L 181.366 113.67 L 182.889 112.988 L 184.453 112.347 L 186.176 111.866 L 187.899 111.505 L 189.663 111.185 L 191.627 110.864 L 193.471 110.784 L 195.435 110.704 L 291.429 110.623 M 18.3972 110.102 L 29.4996 110.102 L 29.4996 259.845 L 177.639 259.845 L 177.639 286.418 L 177.559 288.222 L 177.318 289.946 L 176.997 291.669 L 176.436 293.312 L 175.835 294.876 L 175.074 296.439 L 174.192 297.922 L 173.19 299.244 L 171.947 300.487 L 170.705 301.609 L 169.222 302.611 L 167.578 303.413 L 166.817 303.854 L 165.895 304.094 L 165.013 304.335 L 164.091 304.655 L 163.17 304.816 L 162.168 304.976 L 161.125 305.016 L 160.043 305.016 L 47.055 305.016 L 46.053 305.016 L 45.051 304.976 L 44.049 304.816 L 43.087 304.655 L 42.085 304.335 L 41.2433 304.094 L 40.3214 303.774 L 39.5198 303.413 L 37.9567 302.531 L 36.5137 301.609 L 35.1911 300.407 L 34.0287 299.164 L 32.9866 297.842 L 32.0648 296.359 L 31.3032 294.715 L 30.6619 293.152 L 30.221 291.429 L 29.8202 289.705 L 29.5797 288.062 L 29.4996 286.178 L 29.4996 259.845 L 18.0765 259.845 L 16.4733 259.765 L 14.7498 259.604 L 13.1466 259.123 L 11.5032 258.682 L 9.98016 258.041 L 8.417 257.28 L 7.05425 256.318 L 5.73158 255.236 L 4.56923 253.993 L 3.40688 252.75 L 2.48502 251.187 L 1.64332 249.624 L 0.961943 247.861 L 0.721457 246.979 L 0.561133 246.057 L 0.40081 245.055 L 0.240486 244.053 L 0.0801619 242.931 L 0.0801619 241.848 L 0.0801619 127.978 L 0.0801619 126.896 L 0.240486 125.894 L 0.40081 124.892 L 0.561133 123.81 L 0.801619 122.848 L 1.12227 122.006 L 1.32267 121.085 L 1.72348 120.203 L 2.48502 118.559 L 3.48704 117.157 L 4.64939 115.834 L 5.81174 114.672 L 7.21457 113.589 L 8.57732 112.668 L 10.0603 111.866 L 11.6636 111.265 L 13.3069 110.704 L 14.9903 110.343 L 16.6336 110.183 L 18.3972 110.102 M 212.189 38.1971 L 294.675 38.1971 L 294.675 58.3579 L 294.635 60.6024 L 294.475 62.8068 L 294.234 64.8911 L 293.753 67.0153 L 293.312 69.0996 L 292.751 71.0234 L 292.07 72.9073 L 291.268 74.8712 L 290.427 76.6348 L 289.505 78.4384 L 288.503 80.0817 L 287.421 81.7651 L 286.178 83.2481 L 284.935 84.7311 L 283.693 86.2141 L 282.29 87.5368 L 280.807 88.8595 L 279.404 90.0218 L 277.881 91.2643 L 276.238 92.2663 L 274.595 93.3085 L 272.911 94.2303 L 271.188 94.9919 L 269.424 95.7935 L 267.621 96.4748 L 265.857 97.036 L 263.973 97.557 L 262.049 97.9578 L 260.206 98.2785 L 258.322 98.519 L 256.478 98.6392 L 254.514 98.6392 L 252.51 98.6392 L 250.586 98.519 L 248.622 98.2785 L 246.778 97.9578 L 244.814 97.557 L 242.971 97.036 L 241.167 96.4748 L 239.404 95.7935 L 237.68 95.072 L 235.997 94.2303 L 234.273 93.3085 L 232.75 92.3465 L 231.107 91.2643 L 229.704 90.102 L 228.221 88.9396 L 226.858 87.617 L 225.536 86.2943 L 224.373 84.8915 L 223.131 83.4886 L 222.048 81.9255 L 220.966 80.2821 L 219.924 78.6789 L 219.082 76.9554 L 218.241 75.1518 L 217.599 73.3081 L 216.918 71.5044 L 216.357 69.5004 L 215.996 67.5364 L 215.515 65.5324 L 215.275 63.4081 L 215.195 61.3239 L 215.114 59.1595 L 195.595 59.1595 L 212.189 38.1971 M 191.226 0.0801619 L 294.675 0.0801619 L 294.675 28.9785 L 211.307 28.9785 L 191.226 0.0801619"/></g><g fill="none" font-family="微软雅黑" font-size="12" font-style="normal" font-weight="400" stroke="#000000" stroke-width="1" stroke-linejoin="bevel" stroke-linecap="square" stroke-opacity="1" transform="matrix(0.0666667,0,0,0.0666667,0,0)"/><g fill="none" font-family="微软雅黑" font-size="12" font-style="normal" font-weight="400" stroke="#000000" stroke-width="1" stroke-linejoin="bevel" stroke-linecap="square" stroke-opacity="1" transform="matrix(0.0666667,0,0,0.0666667,0,0)"/><g fill="none" font-family="微软雅黑" font-size="12" font-style="normal" font-weight="400" stroke="#000000" stroke-width="1" stroke-linejoin="bevel" stroke-linecap="square" stroke-opacity="1" transform="matrix(0.0666667,0,0,0.0666667,0,0)"/><g fill="none" font-family="微软雅黑" font-size="12" font-style="normal" font-weight="400" stroke="#000000" stroke-width="1" stroke-linejoin="bevel" stroke-linecap="square" stroke-opacity="1" transform="matrix(0.0666667,0,0,0.0666667,0,0)"/><g fill="none" font-family="微软雅黑" font-size="12" font-style="normal" font-weight="400" stroke="#000000" stroke-width="1" stroke-linejoin="bevel" stroke-linecap="square" stroke-opacity="1" transform="matrix(0.0666667,0,0,0.0666667,0,0)"/><g fill="none" font-family="微软雅黑" font-size="12" font-style="normal" font-weight="400" stroke="#000000" stroke-width="1" stroke-linejoin="bevel" stroke-linecap="square" stroke-opacity="1" transform="matrix(0.0666667,0,0,0.0666667,0,0)"/><g fill="none" font-family="微软雅黑" font-size="12" font-style="normal" font-weight="400" stroke="#000000" stroke-width="1" stroke-linejoin="bevel" stroke-linecap="square" stroke-opacity="1" transform="matrix(0.0666667,0,0,0.0666667,0.933333,0.933333)"/></g></svg>
