<?xml version="1.0" encoding="UTF-8" standalone="yes"?><svg xmlns="http://www.w3.org/2000/svg" xmlns:xlink="http://www.w3.org/1999/xlink" version="1.2" baseProfile="tiny" x="0" y="0" width="256" height="256" viewBox="0 0 256 256"><defs><linearGradient id="wps{5c4f1096-47f5-4718-a27c-afc248edbed7}_solid@Accent1_0.00@Accent1_0.00" x1="0" y1="0.5" x2="1" y2="0.5" spreadMethod="pad" gradientUnits="userSpaceOnUse"><stop offset="0" stop-color="#62a430" stop-opacity="1"/><stop offset="1" stop-color="#62a430" stop-opacity="1"/></linearGradient><linearGradient id="wps{a9361219-35ab-4548-a8ff-60e887a582a7}@Accent4_0.75@Accent4_0.00@Accent4_-0.15" x1="0" y1="0.5" x2="1" y2="0.5" spreadMethod="pad" gradientUnits="objectBoundingBox" gradientTransform="matrix(0,1,-1,0,1,0)"><stop offset="0" stop-color="#f3fadc" stop-opacity="1"/><stop offset="0.5" stop-color="#ceec71" stop-opacity="1"/><stop offset="0.99999" stop-color="#bee643" stop-opacity="1"/></linearGradient></defs><defs/><defs><clipPath id="clip1" clipPathUnits="userSpaceOnUse"><path d="M 91 0 L 133.102 0 L 133.102 33 L 91 33 L 91 0 M 91 0 Z"/></clipPath><clipPath id="clip2" clipPathUnits="userSpaceOnUse"><path d="M 91 38 L 133.102 38 L 133.102 71 L 91 71 L 91 38 M 91 38 Z"/></clipPath><clipPath id="clip3" clipPathUnits="userSpaceOnUse"><path d="M 91 77 L 133.102 77 L 133.102 109.238 L 91 109.238 L 91 77 M 91 77 Z"/></clipPath></defs><g transform="matrix(1.92334,0,0,1.92334,0,22.9449)"><g id="surface1"><path fill="#bfdc98" fill-opacity="1" stroke="url(#wps{5c4f1096-47f5-4718-a27c-afc248edbed7}_solid@Accent1_0.00@Accent1_0.00)" stroke-width="1" stroke-opacity="1" d="M 32.1289 54.6211 C 15.6523 54.6211 2.29297 50.1016 2.29297 44.5234 L 2.29297 62.8789 C 2.29297 68.457 15.6523 72.9766 32.1289 72.9766 C 48.6055 72.9766 61.9609 68.457 61.9609 62.8789 L 61.9609 44.5234 C 61.9609 50.1016 48.6055 54.6211 32.1289 54.6211 Z"/><path fill="#bfdc98" fill-opacity="1" stroke="url(#wps{5c4f1096-47f5-4718-a27c-afc248edbed7}_solid@Accent1_0.00@Accent1_0.00)" stroke-width="1" stroke-opacity="1" d="M 32.1289 18.3633 C 15.3164 18.3633 4.58984 22.9883 4.58984 26.168 C 4.58984 29.3516 15.3164 33.9727 32.1289 33.9727 C 48.9375 33.9727 59.668 29.3516 59.668 26.168 C 59.668 22.9883 48.9375 18.3633 32.1289 18.3633 M 32.1289 38.5625 C 16.1641 38.5625 0 34.3047 0 26.168 C 0 18.0313 16.1641 13.7773 32.1289 13.7773 C 48.0938 13.7773 64.2578 18.0313 64.2578 26.168 C 64.2578 34.3047 48.0938 38.5625 32.1289 38.5625"/><path fill="#bfdc98" fill-opacity="1" stroke="url(#wps{5c4f1096-47f5-4718-a27c-afc248edbed7}_solid@Accent1_0.00@Accent1_0.00)" stroke-width="1" stroke-opacity="1" d="M 32.1289 56.918 C 16.1641 56.918 0 52.6602 0 44.5234 L 0 26.168 L 4.58984 26.168 L 4.58984 44.5234 C 4.58984 47.707 15.3164 52.3281 32.1289 52.3281 C 48.9375 52.3281 59.668 47.707 59.668 44.5234 L 59.668 26.168 L 64.2578 26.168 L 64.2578 44.5234 C 64.2578 52.6602 48.0938 56.918 32.1289 56.918 Z"/><path fill="#bfdc98" fill-opacity="1" stroke="url(#wps{5c4f1096-47f5-4718-a27c-afc248edbed7}_solid@Accent1_0.00@Accent1_0.00)" stroke-width="1" stroke-opacity="1" d="M 32.1289 75.2734 C 16.1641 75.2734 0 71.0156 0 62.8789 L 0 44.5234 L 4.58984 44.5234 L 4.58984 62.8789 C 4.58984 66.0625 15.3164 70.6836 32.1289 70.6836 C 48.9375 70.6836 59.668 66.0625 59.668 62.8789 L 59.668 44.5234 L 64.2578 44.5234 L 64.2578 62.8789 C 64.2578 71.0156 48.0938 75.2734 32.1289 75.2734 Z"/><path fill="#bfdc98" fill-opacity="1" stroke="url(#wps{5c4f1096-47f5-4718-a27c-afc248edbed7}_solid@Accent1_0.00@Accent1_0.00)" stroke-width="1" stroke-opacity="1" d="M 32.1289 93.6289 C 16.1641 93.6289 0 89.3711 0 81.2344 L 0 62.8789 L 4.58984 62.8789 L 4.58984 81.2344 C 4.58984 84.418 15.3164 89.0391 32.1289 89.0391 C 48.9375 89.0391 59.668 84.418 59.668 81.2344 L 59.668 62.8789 L 64.2578 62.8789 L 64.2578 81.2344 C 64.2578 89.3711 48.0938 93.6289 32.1289 93.6289 Z"/><path fill="#bfdc98" fill-opacity="1" stroke="url(#wps{5c4f1096-47f5-4718-a27c-afc248edbed7}_solid@Accent1_0.00@Accent1_0.00)" stroke-width="1" stroke-opacity="1" d="M 25.2422 47.7422 L 20.6523 47.7422 L 20.6523 43.1523 L 25.2422 43.1523 L 25.2422 47.7422 Z"/><path fill="#bfdc98" fill-opacity="1" stroke="url(#wps{5c4f1096-47f5-4718-a27c-afc248edbed7}_solid@Accent1_0.00@Accent1_0.00)" stroke-width="1" stroke-opacity="1" d="M 34.4219 47.7422 L 29.832 47.7422 L 29.832 43.1523 L 34.4219 43.1523 L 34.4219 47.7422 Z"/><path fill="#bfdc98" fill-opacity="1" stroke="url(#wps{5c4f1096-47f5-4718-a27c-afc248edbed7}_solid@Accent1_0.00@Accent1_0.00)" stroke-width="1" stroke-opacity="1" d="M 43.6016 47.7422 L 39.0117 47.7422 L 39.0117 43.1523 L 43.6016 43.1523 L 43.6016 47.7422 Z"/><path fill="#bfdc98" fill-opacity="1" stroke="url(#wps{5c4f1096-47f5-4718-a27c-afc248edbed7}_solid@Accent1_0.00@Accent1_0.00)" stroke-width="1" stroke-opacity="1" d="M 25.2422 66.0977 L 20.6523 66.0977 L 20.6523 61.5078 L 25.2422 61.5078 L 25.2422 66.0977 Z"/><path fill="#bfdc98" fill-opacity="1" stroke="url(#wps{5c4f1096-47f5-4718-a27c-afc248edbed7}_solid@Accent1_0.00@Accent1_0.00)" stroke-width="1" stroke-opacity="1" d="M 34.4219 66.0977 L 29.832 66.0977 L 29.832 61.5078 L 34.4219 61.5078 L 34.4219 66.0977 Z"/><path fill="#bfdc98" fill-opacity="1" stroke="url(#wps{5c4f1096-47f5-4718-a27c-afc248edbed7}_solid@Accent1_0.00@Accent1_0.00)" stroke-width="1" stroke-opacity="1" d="M 43.6016 66.0977 L 39.0117 66.0977 L 39.0117 61.5078 L 43.6016 61.5078 L 43.6016 66.0977 Z"/><path fill="#bfdc98" fill-opacity="1" stroke="url(#wps{5c4f1096-47f5-4718-a27c-afc248edbed7}_solid@Accent1_0.00@Accent1_0.00)" stroke-width="1" stroke-opacity="1" d="M 25.2422 84.4531 L 20.6523 84.4531 L 20.6523 79.8633 L 25.2422 79.8633 L 25.2422 84.4531 Z"/><path fill="#bfdc98" fill-opacity="1" stroke="url(#wps{5c4f1096-47f5-4718-a27c-afc248edbed7}_solid@Accent1_0.00@Accent1_0.00)" stroke-width="1" stroke-opacity="1" d="M 34.4219 84.4531 L 29.832 84.4531 L 29.832 79.8633 L 34.4219 79.8633 L 34.4219 84.4531 Z"/><path fill="#bfdc98" fill-opacity="1" stroke="url(#wps{5c4f1096-47f5-4718-a27c-afc248edbed7}_solid@Accent1_0.00@Accent1_0.00)" stroke-width="1" stroke-opacity="1" d="M 43.6016 84.4531 L 39.0117 84.4531 L 39.0117 79.8633 L 43.6016 79.8633 L 43.6016 84.4531 Z"/><path fill="#bfdc98" fill-opacity="1" stroke="url(#wps{5c4f1096-47f5-4718-a27c-afc248edbed7}_solid@Accent1_0.00@Accent1_0.00)" stroke-width="1" stroke-opacity="1" d="M 78.0234 75.2852 L 68.8477 75.2852 L 68.8477 70.6953 L 78.0234 70.6953 L 78.0234 75.2852 Z"/><path fill="#bfdc98" fill-opacity="1" stroke="url(#wps{5c4f1096-47f5-4718-a27c-afc248edbed7}_solid@Accent1_0.00@Accent1_0.00)" stroke-width="1" stroke-opacity="1" d="M 78.0234 38.5625 L 68.8477 38.5625 L 68.8477 33.9727 L 78.0234 33.9727 L 78.0234 38.5625 Z"/><path fill="#bfdc98" fill-opacity="1" stroke="url(#wps{5c4f1096-47f5-4718-a27c-afc248edbed7}_solid@Accent1_0.00@Accent1_0.00)" stroke-width="1" stroke-opacity="1" d="M 87.2031 56.9219 L 78.0234 56.9219 L 78.0234 52.332 L 87.2031 52.332 L 87.2031 56.9219 Z"/><path fill="#bfdc98" fill-opacity="1" stroke="url(#wps{5c4f1096-47f5-4718-a27c-afc248edbed7}_solid@Accent1_0.00@Accent1_0.00)" stroke-width="1" stroke-opacity="1" d="M 87.2031 95.4805 L 75.7305 95.4805 L 75.7305 13.7773 L 87.2031 13.7773 L 87.2031 18.3633 L 80.3203 18.3633 L 80.3203 90.8906 L 87.2031 90.8906 L 87.2031 95.4805 Z"/><path fill="#bfdc98" fill-opacity="1" stroke="url(#wps{5c4f1096-47f5-4718-a27c-afc248edbed7}_solid@Accent1_0.00@Accent1_0.00)" stroke-width="1" stroke-opacity="1" d="M 130.809 22.9531 L 94.0898 22.9531 L 94.0898 9.1875 L 130.809 9.1875 L 130.809 22.9531 Z"/><path fill="#bfdc98" fill-opacity="1" stroke="url(#wps{5c4f1096-47f5-4718-a27c-afc248edbed7}_solid@Accent1_0.00@Accent1_0.00)" stroke-width="1" stroke-opacity="1" d="M 105.566 18.3633 L 100.973 18.3633 L 100.973 13.7773 L 105.566 13.7773 L 105.566 18.3633 Z"/><path fill="#bfdc98" fill-opacity="1" stroke="url(#wps{5c4f1096-47f5-4718-a27c-afc248edbed7}_solid@Accent1_0.00@Accent1_0.00)" stroke-width="1" stroke-opacity="1" d="M 114.746 18.3633 L 110.152 18.3633 L 110.152 13.7773 L 114.746 13.7773 L 114.746 18.3633 Z"/><path fill="#bfdc98" fill-opacity="1" stroke="url(#wps{5c4f1096-47f5-4718-a27c-afc248edbed7}_solid@Accent1_0.00@Accent1_0.00)" stroke-width="1" stroke-opacity="1" d="M 130.809 18.3633 L 119.336 18.3633 L 119.336 13.7773 L 130.809 13.7773 L 130.809 18.3633 Z"/><g clip-path="url(#clip1)" clip-rule="nonzero"><path fill="#bfdc98" fill-opacity="1" stroke="url(#wps{5c4f1096-47f5-4718-a27c-afc248edbed7}_solid@Accent1_0.00@Accent1_0.00)" stroke-width="1" stroke-opacity="1" d="M 96.3867 4.59375 L 96.3867 27.5469 L 128.512 27.543 C 128.516 27.543 128.516 27.543 128.516 27.543 L 128.512 4.59375 L 96.3867 4.59375 M 128.512 32.1328 L 96.3867 32.1328 C 95.1563 32.1328 94.0039 31.6563 93.1406 30.793 C 92.2734 29.9258 91.7969 28.7734 91.7969 27.5469 L 91.7969 4.59375 C 91.7969 3.36719 92.2734 2.21484 93.1406 1.34766 C 94.0078 0.480469 95.1602 0.00390625 96.3867 0.00390625 L 128.512 0.00390625 C 129.738 0.00390625 130.891 0.480469 131.758 1.34766 C 132.625 2.21484 133.102 3.36719 133.102 4.59375 L 133.102 27.5469 C 133.102 28.7734 132.625 29.9258 131.758 30.793 C 130.891 31.6563 129.742 32.1328 128.512 32.1328"/></g><path fill="#bfdc98" fill-opacity="1" stroke="url(#wps{5c4f1096-47f5-4718-a27c-afc248edbed7}_solid@Accent1_0.00@Accent1_0.00)" stroke-width="1" stroke-opacity="1" d="M 130.809 61.5117 L 94.0898 61.5117 L 94.0898 47.7422 L 130.809 47.7422 L 130.809 61.5117 Z"/><path fill="#bfdc98" fill-opacity="1" stroke="url(#wps{5c4f1096-47f5-4718-a27c-afc248edbed7}_solid@Accent1_0.00@Accent1_0.00)" stroke-width="1" stroke-opacity="1" d="M 105.566 56.918 L 100.973 56.918 L 100.973 52.3281 L 105.566 52.3281 L 105.566 56.918 Z"/><path fill="#bfdc98" fill-opacity="1" stroke="url(#wps{5c4f1096-47f5-4718-a27c-afc248edbed7}_solid@Accent1_0.00@Accent1_0.00)" stroke-width="1" stroke-opacity="1" d="M 114.746 56.918 L 110.152 56.918 L 110.152 52.3281 L 114.746 52.3281 L 114.746 56.918 Z"/><path fill="#bfdc98" fill-opacity="1" stroke="url(#wps{5c4f1096-47f5-4718-a27c-afc248edbed7}_solid@Accent1_0.00@Accent1_0.00)" stroke-width="1" stroke-opacity="1" d="M 130.809 56.918 L 119.336 56.918 L 119.336 52.3281 L 130.809 52.3281 L 130.809 56.918 Z"/><g clip-path="url(#clip2)" clip-rule="nonzero"><path fill="#bfdc98" fill-opacity="1" stroke="url(#wps{5c4f1096-47f5-4718-a27c-afc248edbed7}_solid@Accent1_0.00@Accent1_0.00)" stroke-width="1" stroke-opacity="1" d="M 96.3867 43.1445 L 96.3867 66.0977 L 128.512 66.0977 C 128.512 66.0977 128.516 66.0977 128.516 66.0977 L 128.512 43.1484 L 96.3867 43.1445 M 128.512 70.6875 L 96.3867 70.6875 C 95.1602 70.6875 94.0078 70.2109 93.1406 69.3438 C 92.2734 68.4766 91.7969 67.3242 91.7969 66.0977 L 91.7969 43.1484 C 91.7969 41.9219 92.2734 40.7695 93.1406 39.9023 C 94.0117 39.0313 95.1602 38.5547 96.3867 38.5547 L 128.512 38.5547 C 129.734 38.5547 130.887 39.0313 131.754 39.8984 C 132.625 40.7695 133.102 41.9219 133.102 43.1484 L 133.102 66.0977 C 133.102 67.3242 132.625 68.4766 131.758 69.3438 C 130.891 70.2109 129.738 70.6875 128.512 70.6875"/></g><path fill="#bfdc98" fill-opacity="1" stroke="url(#wps{5c4f1096-47f5-4718-a27c-afc248edbed7}_solid@Accent1_0.00@Accent1_0.00)" stroke-width="1" stroke-opacity="1" d="M 130.809 100.059 L 94.0898 100.059 L 94.0898 86.2891 L 130.809 86.2891 L 130.809 100.059 Z"/><path fill="#bfdc98" fill-opacity="1" stroke="url(#wps{5c4f1096-47f5-4718-a27c-afc248edbed7}_solid@Accent1_0.00@Accent1_0.00)" stroke-width="1" stroke-opacity="1" d="M 105.566 95.4688 L 100.973 95.4688 L 100.973 90.8789 L 105.566 90.8789 L 105.566 95.4688 Z"/><path fill="#bfdc98" fill-opacity="1" stroke="url(#wps{5c4f1096-47f5-4718-a27c-afc248edbed7}_solid@Accent1_0.00@Accent1_0.00)" stroke-width="1" stroke-opacity="1" d="M 114.746 95.4688 L 110.152 95.4688 L 110.152 90.8789 L 114.746 90.8789 L 114.746 95.4688 Z"/><path fill="#bfdc98" fill-opacity="1" stroke="url(#wps{5c4f1096-47f5-4718-a27c-afc248edbed7}_solid@Accent1_0.00@Accent1_0.00)" stroke-width="1" stroke-opacity="1" d="M 130.809 95.4688 L 119.336 95.4688 L 119.336 90.8789 L 130.809 90.8789 L 130.809 95.4688 Z"/><g clip-path="url(#clip3)" clip-rule="nonzero"><path fill="#bfdc98" fill-opacity="1" stroke="url(#wps{5c4f1096-47f5-4718-a27c-afc248edbed7}_solid@Accent1_0.00@Accent1_0.00)" stroke-width="1" stroke-opacity="1" d="M 96.3867 81.6992 L 96.3867 104.648 L 128.512 104.648 C 128.516 104.648 128.516 104.648 128.516 104.648 L 128.512 81.6992 L 96.3867 81.6992 M 128.512 109.238 L 96.3867 109.238 C 95.1602 109.238 94.0117 108.766 93.1406 107.898 C 92.2695 107.023 91.7969 105.871 91.7969 104.648 L 91.7969 81.6992 C 91.7969 80.4766 92.2734 79.3203 93.1406 78.457 C 94.0078 77.5898 95.1602 77.1094 96.3867 77.1094 L 128.512 77.1094 C 129.738 77.1094 130.891 77.5898 131.758 78.457 C 132.625 79.3203 133.102 80.4766 133.102 81.6992 L 133.102 104.648 C 133.102 105.871 132.625 107.023 131.762 107.895 C 130.887 108.766 129.738 109.238 128.512 109.238"/></g></g></g></svg>
