<?xml version="1.0" encoding="UTF-8" standalone="yes"?><svg id="svg2" xmlns="http://www.w3.org/2000/svg" xmlns:xlink="http://www.w3.org/1999/xlink" version="1.2" baseProfile="tiny" x="0" y="0" width="256" height="256" viewBox="0 0 256 256"><defs><linearGradient id="wps{3637686e-68e1-44c1-a289-193dc3164a2e}_solid@Text1_0.00@Text1_0.00" x1="0" y1="0.5" x2="1" y2="0.5" spreadMethod="pad" gradientUnits="userSpaceOnUse"><stop offset="0" stop-color="#000000" stop-opacity="1"/><stop offset="1" stop-color="#000000" stop-opacity="1"/></linearGradient></defs><defs id="defs6"/><g transform="matrix(1.37142,0,0,1.37142,-10.2065,-10.1545)"><g id="g10" transform="matrix(1.33333,0,0,-1.33333,0,200)"><g id="g12" transform="matrix(0.1,0,0,0.1,0,0)"><path id="path14" fill="url(#wps{3637686e-68e1-44c1-a289-193dc3164a2e}_solid@Text1_0.00@Text1_0.00)" stroke="none" d="M 728.656 393.488 C 728.656 341.461 708.895 289.371 669.121 249.641 C 629.434 209.898 577.262 190.059 525.18 190.059 C 473.098 190.059 421.016 209.898 381.277 249.641 C 341.594 289.371 321.742 341.461 321.742 393.488 L 321.742 435.039 L 728.656 435.039 L 728.656 393.488 Z"/><path id="path16" fill="url(#wps{3637686e-68e1-44c1-a289-193dc3164a2e}_solid@Text1_0.00@Text1_0.00)" stroke="none" d="M 525.18 229.141 C 481.238 229.141 439.906 246.301 408.922 277.32 C 400.473 285.809 400.473 299.551 408.969 308 C 417.461 316.488 431.195 316.488 439.688 308 C 462.438 285.121 492.852 272.559 525.18 272.559 C 537.141 272.559 546.84 262.852 546.84 250.852 C 546.84 238.852 537.141 229.141 525.18 229.141 Z"/><path id="path18" fill="url(#wps{3637686e-68e1-44c1-a289-193dc3164a2e}_solid@Text1_0.00@Text1_0.00)" stroke="none" d="M 1189.9 393.488 C 1189.9 341.461 1170.06 289.371 1130.32 249.641 C 1090.63 209.898 1038.55 190.102 986.465 190.102 C 934.387 190.102 882.219 209.898 842.527 249.641 C 802.754 289.371 782.988 341.461 782.988 393.488 L 782.988 435.039 L 1189.9 435.039 L 1189.9 393.488 Z"/><path id="path20" fill="url(#wps{3637686e-68e1-44c1-a289-193dc3164a2e}_solid@Text1_0.00@Text1_0.00)" stroke="none" d="M 986.465 229.141 C 942.527 229.141 901.199 246.25 870.215 277.32 C 861.68 285.809 861.68 299.551 870.215 308 C 878.711 316.488 892.441 316.461 900.938 308 C 923.73 285.121 954.141 272.559 986.465 272.559 C 998.43 272.559 1008.17 262.852 1008.17 250.852 C 1008.17 238.852 998.43 229.141 986.465 229.141 Z"/><path id="path22" fill="url(#wps{3637686e-68e1-44c1-a289-193dc3164a2e}_solid@Text1_0.00@Text1_0.00)" stroke="none" d="M 1224.66 447.48 C 1224.66 461.781 1212.91 473.52 1198.61 473.52 L 313.035 473.52 C 298.734 473.52 286.996 461.781 286.996 447.48 C 286.996 433.129 298.734 421.441 313.035 421.441 L 1198.61 421.441 C 1212.91 421.441 1224.66 433.129 1224.66 447.48 Z"/><path id="path24" fill="url(#wps{3637686e-68e1-44c1-a289-193dc3164a2e}_solid@Text1_0.00@Text1_0.00)" stroke="none" d="M 755.824 908.254 L 84.8164 796.371 C 70.2578 793.902 58.3008 782.289 56.1328 766.777 C 54.0508 751.352 62.457 736.887 75.8477 730.637 L 315.289 618.938 C 449.18 556.453 598.32 521.23 755.824 521.23 C 913.281 521.23 1062.47 556.453 1196.36 618.938 L 1435.71 730.637 C 1449.19 736.887 1457.55 751.352 1455.52 766.777 C 1453.4 782.289 1441.39 793.902 1426.83 796.371 L 755.824 908.254 Z"/><path id="path26" fill="url(#wps{3637686e-68e1-44c1-a289-193dc3164a2e}_solid@Text1_0.00@Text1_0.00)" stroke="none" d="M 1189.9 1103.58 L 1189.9 777.953 L 321.742 777.953 L 321.742 1103.58 C 321.742 1211.52 409.141 1298.87 517.035 1298.87 C 560.535 1298.87 600.793 1284.66 633.113 1260.61 C 635.105 1259 637.055 1257.45 639.094 1256.02 C 671.547 1231.58 711.973 1217.23 755.824 1217.23 C 799.414 1217.23 839.492 1231.45 871.992 1255.58 C 872.168 1255.71 872.383 1255.8 872.559 1256.02 C 874.59 1257.45 876.543 1259 878.535 1260.61 C 878.621 1260.69 878.711 1260.82 878.711 1260.82 C 911.199 1284.74 951.199 1298.87 994.609 1298.87 C 1102.51 1298.87 1189.9 1211.52 1189.9 1103.58 Z"/><path id="path28" fill="url(#wps{3637686e-68e1-44c1-a289-193dc3164a2e}_solid@Text1_0.00@Text1_0.00)" stroke="none" d="M 1189.9 777.953 C 1189.9 733.242 995.527 696.934 755.824 696.934 C 516.121 696.934 321.742 733.242 321.742 777.953 C 321.742 822.715 516.121 859.027 755.824 859.027 C 995.527 859.027 1189.9 822.715 1189.9 777.953 Z"/><path id="path30" fill="url(#wps{3637686e-68e1-44c1-a289-193dc3164a2e}_solid@Text1_0.00@Text1_0.00)" stroke="none" d="M 755.824 819.902 C 516.121 819.902 321.742 856.254 321.742 900.93 L 321.742 777.953 C 321.742 733.242 516.121 696.934 755.824 696.934 C 995.527 696.934 1189.9 733.242 1189.9 777.953 L 1189.9 900.93 C 1189.9 856.254 995.527 819.902 755.824 819.902 Z"/></g></g></g></svg>
