<svg width="255" height="255" viewBox="0 0 256 256" xmlns="http://www.w3.org/2000/svg" xmlns:xlink="http://www.w3.org/1999/xlink" overflow="hidden"><style>
.MsftOfcThm_Accent1_Fill_v2 {
 fill:#62A430; 
}
</style>
<defs></defs><defs></defs><g stroke="#000000" stroke-width="1" stroke-linecap="square" stroke-linejoin="bevel" fill="none" fill-rule="evenodd"><g stroke="#000000" stroke-width="1" stroke-linecap="square" stroke-linejoin="bevel" stroke-opacity="1" fill="none" font-family="微软雅黑" font-style="normal" font-weight="400" font-size="12" transform="matrix(0.0666667 0 0 0.0666667 0.933333 0.933333)"></g><g stroke="#000000" stroke-width="1" stroke-linecap="square" stroke-linejoin="bevel" stroke-opacity="1" fill="none" font-family="微软雅黑" font-style="normal" font-weight="400" font-size="12" transform="scale(0.0666667 0.0666667)"></g><g stroke="#000000" stroke-width="1" stroke-linecap="square" stroke-linejoin="bevel" stroke-opacity="1" fill="none" font-family="微软雅黑" font-style="normal" font-weight="400" font-size="12" transform="scale(0.0666667 0.0666667)"></g><g stroke="#000000" stroke-width="1" stroke-linecap="square" stroke-linejoin="bevel" stroke-opacity="1" fill="none" font-family="微软雅黑" font-style="normal" font-weight="400" font-size="12" transform="scale(0.0666667 0.0666667)"></g><g stroke="#000000" stroke-width="1" stroke-linecap="square" stroke-linejoin="bevel" stroke-opacity="1" fill="none" font-family="微软雅黑" font-style="normal" font-weight="400" font-size="12" transform="scale(0.0666667 0.0666667)"></g><g stroke="#000000" stroke-width="1" stroke-linecap="square" stroke-linejoin="bevel" stroke-opacity="1" fill="none" font-family="微软雅黑" font-style="normal" font-weight="400" font-size="12" transform="scale(0.0666667 0.0666667)"></g><g stroke="none" fill="#333333" fill-opacity="1" font-family="Arial" font-style="normal" font-weight="400" font-size="16" transform="matrix(9.15715 0 0 9.15715 26.6596 -2.42532e-13)"><path d="M19.7972 20.962 14.3726 20.962C14.3726 20.962 12.81 21.2239 12.81 22.5121L12.81 27.949 2.32908 27.949C1.21914 27.949 0 26.7237 0 25.6199L0 4.65815C0 3.55445 1.21911 2.32908 2.32908 2.32908L17.4682 2.32908C18.5792 2.32908 19.7972 3.55445 19.7972 4.65819L19.7972 20.962M2.91251 8.48147C2.59092 8.48147 2.33023 8.74216 2.33023 9.06375 2.33023 9.38533 2.59092 9.64602 2.91251 9.64602L16.887 9.64602C17.2086 9.64602 17.4693 9.38533 17.4693 9.06375 17.4693 8.74216 17.2086 8.48147 16.887 8.48147L2.91251 8.48147M2.91251 11.9751C2.59092 11.9751 2.33023 12.2358 2.33023 12.5574 2.33023 12.879 2.59092 13.1397 2.91251 13.1397L16.887 13.1397C17.2086 13.1397 17.4693 12.879 17.4693 12.5574 17.4693 12.2358 17.2086 11.9751 16.887 11.9751L2.91251 11.9751M2.91251 15.4688C2.59092 15.4688 2.33023 15.7295 2.33023 16.051 2.33023 16.3726 2.59092 16.6333 2.91251 16.6333L16.887 16.6333C17.2086 16.6333 17.4693 16.3726 17.4693 16.051 17.4693 15.7295 17.2086 15.4688 16.887 15.4688L2.91251 15.4688M2.33023 19.5447C2.33023 19.8663 2.59092 20.1269 2.91251 20.1269L9.89977 20.1269C10.2214 20.1269 10.482 19.8663 10.482 19.5447 10.482 19.2231 10.2214 18.9624 9.89977 18.9624L2.91251 18.9624C2.59092 18.9624 2.33023 19.2231 2.33023 19.5447M19.6327 23.0728 14.9745 27.731C14.3562 28.2516 13.81 27.5767 13.81 26.5665L13.81 23.0728C13.81 22.105 14.9745 21.9083 14.9745 21.9083L18.4682 21.9083C19.9465 21.8771 19.6327 23.0728 19.6327 23.0728M19.7972 0C19.7972 0 22.1263 0.330368 22.1263 2.32908L22.1263 24.9618C22.1263 24.9618 21.9682 26.1263 20.9618 26.1263L20.9618 3.49363C20.9618 3.49363 20.6763 1.16455 18.6327 1.16455L3.4936 1.16455C3.4936 1.16455 3.46405 0 4.65815 0L19.7972 0" class="MsftOfcThm_Accent1_Fill_v2" stroke="none" stroke-width="1" stroke-linecap="square" stroke-linejoin="bevel" stroke-miterlimit="4" fill="#62A430" fill-opacity="1"/></g><g stroke="#000000" stroke-width="1" stroke-linecap="square" stroke-linejoin="bevel" stroke-opacity="1" fill="none" font-family="微软雅黑" font-style="normal" font-weight="400" font-size="12" transform="scale(0.0666667 0.0666667)"></g><g stroke="#000000" stroke-width="1" stroke-linecap="square" stroke-linejoin="bevel" stroke-opacity="1" fill="none" font-family="微软雅黑" font-style="normal" font-weight="400" font-size="12" transform="scale(0.0666667 0.0666667)"></g><g stroke="#000000" stroke-width="1" stroke-linecap="square" stroke-linejoin="bevel" stroke-opacity="1" fill="none" font-family="微软雅黑" font-style="normal" font-weight="400" font-size="12" transform="scale(0.0666667 0.0666667)"></g><g stroke="#000000" stroke-width="1" stroke-linecap="square" stroke-linejoin="bevel" stroke-opacity="1" fill="none" font-family="微软雅黑" font-style="normal" font-weight="400" font-size="12" transform="scale(0.0666667 0.0666667)"></g><g stroke="#000000" stroke-width="1" stroke-linecap="square" stroke-linejoin="bevel" stroke-opacity="1" fill="none" font-family="微软雅黑" font-style="normal" font-weight="400" font-size="12" transform="scale(0.0666667 0.0666667)"></g><g stroke="#000000" stroke-width="1" stroke-linecap="square" stroke-linejoin="bevel" stroke-opacity="1" fill="none" font-family="微软雅黑" font-style="normal" font-weight="400" font-size="12" transform="scale(0.0666667 0.0666667)"></g><g stroke="#000000" stroke-width="1" stroke-linecap="square" stroke-linejoin="bevel" stroke-opacity="1" fill="none" font-family="微软雅黑" font-style="normal" font-weight="400" font-size="12" transform="matrix(0.0666667 0 0 0.0666667 0.933333 0.933333)"></g></g></svg>