<?xml version="1.0" encoding="UTF-8" standalone="yes"?><svg xmlns="http://www.w3.org/2000/svg" xmlns:xlink="http://www.w3.org/1999/xlink" version="1.2" baseProfile="tiny" x="0" y="0" width="200" height="200" viewBox="0 0 1024 1024"><defs/><defs/><path fill="#e7b775" fill-opacity="1" stroke="none" stroke-width="1" stroke-dashoffset="1" d="M 512.047 1008.48 C 500.42 1008.5 488.996 1005.44 478.937 999.61 L 222.642 850.696 L 219.695 853.333 C 174.905 893.1 106.358 889.028 66.5917 844.238 C 66.3732 843.992 66.1557 843.745 65.9394 843.497 C 26.2051 798.068 30.5959 728.824 75.745 688.826 C 86.5557 679.245 99.1667 671.914 112.842 667.26 L 116.581 665.988 L 116.581 368.175 C 116.616 344.405 129.238 322.433 149.752 310.427 L 409.755 159.403 L 408.545 155.198 C 405.736 145.406 404.311 135.27 404.309 125.083 C 404.34 64.5275 453.136 15.4841 513.303 15.5152 C 573.471 15.5462 622.22 64.6361 622.189 125.176 C 622.189 135.727 620.668 146.246 617.674 156.362 L 616.417 160.582 L 874.341 310.412 C 894.833 322.437 907.443 344.399 907.497 368.159 L 907.497 665.988 L 911.22 667.276 C 968.192 686.685 998.726 748.885 979.425 806.198 C 960.124 863.511 898.281 894.231 841.34 874.822 C 827.715 870.176 815.148 862.872 804.368 853.333 L 801.42 850.68 L 545.187 999.595 C 535.091 1005.38 523.665 1008.43 512.031 1008.47 L 512.047 1008.48 M 253.983 745.519 L 254.774 749.366 C 257.626 763.597 257.626 778.252 254.774 792.483 L 253.999 796.331 L 512.093 946.331 L 770.188 796.61 L 769.412 792.669 C 766.548 778.471 766.548 763.844 769.412 749.646 L 770.188 745.705 L 679.021 692.72 L 527.779 780.304 C 518.148 785.909 506.257 785.945 496.593 780.397 L 345.166 692.426 L 253.983 745.519 M 876.234 724.108 C 850.51 724.17 829.688 745.208 829.766 771.103 C 829.749 796.912 850.657 817.849 876.466 817.866 C 902.206 817.804 923.012 796.765 922.95 770.87 C 922.967 745.146 902.191 724.244 876.466 724.108 L 876.234 724.108 M 147.797 724.108 C 122.058 724.17 101.252 745.208 101.314 771.103 C 101.297 796.912 122.205 817.849 148.015 817.866 C 173.754 817.804 194.56 796.765 194.498 770.886 C 194.532 745.149 173.751 724.229 148.015 724.092 L 147.797 724.092 L 147.797 724.108 M 376.367 480.551 L 376.367 638.262 L 512.078 717.157 L 647.773 638.262 L 647.773 480.551 L 512.078 401.656 L 376.367 480.551 M 577.071 213.954 C 567.946 220.668 557.812 225.89 547.049 229.423 L 543.232 230.617 L 543.232 347.4 L 694.427 435.169 C 704.241 440.734 710.286 451.163 710.237 462.445 L 710.237 638.278 L 801.466 691.262 L 804.414 688.625 C 815.185 679.128 827.722 671.847 841.309 667.198 L 845.064 665.91 L 845.064 365.878 L 579.956 211.828 L 577.071 213.938 L 577.071 213.954 M 179.076 365.894 L 179.076 665.817 L 182.831 667.105 C 196.428 671.712 208.967 678.991 219.71 688.516 L 222.689 691.169 L 313.918 638.185 L 313.918 462.336 C 313.946 451.189 319.864 440.886 329.48 435.247 L 480.908 347.276 L 480.908 229.857 L 477.2 228.492 C 466.896 224.92 457.212 219.764 448.496 213.209 L 445.595 211.006 L 179.076 365.878 L 179.076 365.894 M 513.272 78.1964 C 487.446 78.2648 466.565 99.2566 466.634 125.083 C 466.539 150.909 487.399 171.922 513.225 172.016 C 513.225 172.016 513.225 172.016 513.226 172.016 C 539.052 171.956 559.94 150.971 559.88 125.145 C 559.88 125.14 559.88 125.135 559.88 125.129 L 559.88 125.068 C 559.906 99.27 539.054 78.3145 513.257 78.2119 L 513.288 78.2119 L 513.272 78.1964"/></svg>
