<svg height="256" width="256" xmlns="http://www.w3.org/2000/svg" id="设计" viewBox="0 0 256 256">
    <defs>
        <style>.cls-1{fill:#ffa041;}.cls-2{fill:#222;}.cls-3{fill:#ffcebf;}.cls-4{fill:#ffbe00;}.cls-5{fill:#ffa096;}.cls-6{fill:#f0d2aa;}.cls-7{fill:#dcbe82;}.cls-8{fill:#6ed228;}</style>
    </defs>
    <title>3-人物人像-转形状</title>
    <g transform="matrix(0.27624608,0,0,0.27624608,-20.067897,-15.826139)">
        <path d="M512,768V976H209.1L208,942.61C208,810.83,344.11,704,512,704S816,810.83,816,942.61L814.9,976H512V944" class="cls-1"/>
        <path d="M814.9,984H209.1a8,8,0,0,1-8-7.74L200,942.87v-.26c0-66.24,32.71-128.4,92.1-175C350.92,721.43,429,696,512,696s161.08,25.43,219.9,71.59c59.39,46.62,92.1,108.78,92.1,175v.26l-1.11,33.39A8,8,0,0,1,814.9,984ZM520,968H807.16l.84-25.52C807.9,815.38,675.16,712,512,712S216.1,815.38,216,942.48l.84,25.52H504V768a8,8,0,0,1,16,0Z" class="cls-2"/>
        <path d="M560,624H464v90s0,54,48,54,48-54,48-54Z" class="cls-3"/>
        <path d="M512,776c-29.09,0-42.87-17.27-49.31-31.75A82.54,82.54,0,0,1,456,714V616H568v98a82.54,82.54,0,0,1-6.69,30.25C554.87,758.73,541.09,776,512,776ZM472,632v82c0,1.86.69,46,40,46,16.69,0,28-7.28,34.69-22.25A67.2,67.2,0,0,0,552,714V632Z" class="cls-2"/>
        <polygon points="448 816 400 720 448 704 512 768 448 816" class="cls-1"/>
        <path d="M448,824a8.24,8.24,0,0,1-1.84-.21,8,8,0,0,1-5.32-4.21l-48-96a8,8,0,0,1,4.63-11.17l48-16a8,8,0,0,1,8.19,1.93l64,64a8,8,0,0,1-.86,12.06l-64,48A8,8,0,0,1,448,824Zm-36.72-99.33,39.59,79.18,48.95-36.72-54-54Z" class="cls-2"/>
        <polygon points="576 816 624 720 576 704 512 768 576 816" class="cls-1"/>
        <path d="M576,824a8,8,0,0,1-4.8-1.6l-64-48a8,8,0,0,1-.86-12.06l64-64a8,8,0,0,1,8.19-1.93l48,16a8,8,0,0,1,4.63,11.17l-48,96a8,8,0,0,1-5.32,4.21A8.24,8.24,0,0,1,576,824Zm-51.82-56.87,49,36.72,39.59-79.18-34.56-11.52Z" class="cls-2"/>
        <polygon points="864 576 800 528 800 464 864 512 864 576" class="cls-4"/>
        <path d="M872,592l-80-60V448l80,60Zm-64-68,48,36V516l-48-36Z" class="cls-2"/>
        <polygon points="864 640 800 592 800 528 864 576 864 640" class="cls-4"/>
        <path d="M872,656l-80-60V512l80,60Zm-64-68,48,36V580l-48-36Z" class="cls-2"/>
        <polygon points="864 704 800 656 800 592 864 640 864 704" class="cls-4"/>
        <path d="M872,720l-80-60V576l80,60Zm-64-68,48,36V644l-48-36Z" class="cls-2"/>
        <polygon points="864 544 928 496 928 432 864 480 864 544" class="cls-4"/>
        <path d="M856,560V476l80-60v84Zm16-76v44l48-36V448Z" class="cls-2"/>
        <polygon points="864 608 928 560 928 496 864 544 864 608" class="cls-4"/>
        <path d="M856,624V540l80-60v84Zm16-76v44l48-36V512Z" class="cls-2"/>
        <polygon points="864 672 928 624 928 560 864 608 864 672" class="cls-4"/>
        <path d="M856,688V604l80-60v84Zm16-76v44l48-36V576Z" class="cls-2"/>
        <path d="M864,968a8,8,0,0,1-8-8V656a8,8,0,0,1,16,0V960A8,8,0,0,1,864,968Z"/>
        <rect height="48" width="160" y="784" x="800" class="cls-3"/>
        <path d="M968,840H792V776H968ZM808,824H952V792H808Z" class="cls-2"/>
        <rect height="48" width="160" y="832" x="800" class="cls-3"/>
        <path d="M968,888H792V824H968ZM808,872H952V840H808Z" class="cls-2"/>
        <rect height="48" width="160" y="880" x="800" class="cls-3"/>
        <path d="M968,936H792V872H968ZM808,920H952V888H808Z" class="cls-2"/>
        <rect height="48" width="160" y="928" x="800" class="cls-3"/>
        <path d="M968,984H792V920H968ZM808,968H952V936H808Z" class="cls-2"/>
        <rect height="48" width="96" transform="translate(1608 56) rotate(90)" y="808" x="728" class="cls-3"/>
        <path d="M808,888H744V776h64Zm-48-16h32V792H760Z" class="cls-2"/>
        <circle cx="282.14" cy="411.81" r="58.14" class="cls-3"/>
        <path d="M282.14,478a66.15,66.15,0,1,1,66.15-66.14A66.21,66.21,0,0,1,282.14,478Zm0-116.29a50.15,50.15,0,1,0,50.15,50.15A50.2,50.2,0,0,0,282.14,361.66Z" class="cls-2"/>
        <circle cx="741.86" cy="411.81" r="58.14" class="cls-3"/>
        <path d="M741.86,478A66.15,66.15,0,1,1,808,411.81,66.22,66.22,0,0,1,741.86,478Zm0-116.29A50.15,50.15,0,1,0,792,411.81,50.21,50.21,0,0,0,741.86,361.66Z" class="cls-2"/>
        <path d="M746.3,312.57l.84,111.69C747.14,561.08,643,672,514.57,672S282,561.08,282,424.26l.84-111.69S322.57,96,514.57,96,746.3,312.57,746.3,312.57Z" class="cls-3"/>
        <path d="M514.57,680c-64.35,0-124.83-26.67-170.28-75.09S274,492.48,274,424.26l.85-112.45.12-.68c.42-2.27,10.61-56.28,45-111.09,20.31-32.41,44.88-58.28,73-76.88C428.26,99.83,469.18,88,514.57,88s86.31,11.83,121.62,35.16c28.14,18.6,52.71,44.47,73,76.88,34.36,54.81,44.54,108.82,45,111.09l.12.68v.7l.84,111.69c0,68.28-25,132.43-70.28,180.71S578.93,680,514.57,680ZM290.84,313.38,290,424.32C290,556.45,390.74,664,514.57,664S739.14,556.45,739.14,424.26l-.83-110.88c-1.26-6.21-12-56.13-42.91-105.26C651.94,139,591.1,104,514.57,104S377.21,139,333.75,208.12C302.84,257.25,292.09,307.17,290.84,313.38Z" class="cls-2"/>
        <ellipse rx="37" cx="340.14" cy="469.95" class="cls-5" ry="21.14"/>
        <ellipse rx="37" cx="689" cy="469.95" class="cls-5" ry="21.14"/>
        <path d="M683.71,378.57H667.13a31.7,31.7,0,0,0-51.4,0H599.14a8,8,0,0,0,0,16h10.69c-.07.85-.12,1.71-.12,2.57a31.72,31.72,0,1,0,63.43,0c0-.86,0-1.72-.11-2.57h10.68a8,8,0,0,0,0-16Z" class="cls-2"/>
        <path d="M430,378.57H413.42a31.71,31.71,0,0,0-51.41,0H345.43a8,8,0,0,0,0,16h10.68c-.07.85-.11,1.71-.11,2.57a31.72,31.72,0,1,0,63.43,0c0-.86-.05-1.72-.11-2.57H430a8,8,0,0,0,0-16Z" class="cls-2"/>
        <path d="M430,576.86s28.19,10.57,84.57,10.57,84.57-10.57,84.57-10.57" class="cls-3"/>
        <path d="M514.57,595.43c-57.17,0-86.17-10.63-87.38-11.08a8,8,0,0,1,5.6-15h0c.27.1,27.87,10.07,81.78,10.07,54.3,0,81.5-10,81.76-10.06a8,8,0,0,1,5.62,15C600.75,584.8,571.75,595.43,514.57,595.43Z" class="cls-2"/>
        <path d="M753.55,307.44c0-65.12-484.3-65.12-484.3,0C269.25,173.71,377.67,65.3,511.4,65.3S753.55,173.71,753.55,307.44Z" class="cls-6"/>
        <path d="M753.55,315.44a8,8,0,0,1-8-8c0-7.55-18.09-19.61-69.08-28.75C633,270.89,574.38,266.6,511.4,266.6s-121.6,4.29-165.06,12.09c-51,9.14-69.09,21.2-69.09,28.75a8,8,0,1,1-16,0,250.15,250.15,0,0,1,500.3,0A8,8,0,0,1,753.55,315.44ZM511.4,73.3c-120.92,0-220.73,92.13-232.9,209.89,13.54-8.19,35.13-14.9,65-20.25,44.37-8,104-12.34,167.89-12.34S634.92,255,679.29,262.94c29.88,5.35,51.47,12.06,65,20.25C732.13,165.43,632.32,73.3,511.4,73.3Z" class="cls-2"/>
        <path d="M512,176c-220.91,0-400,64.47-400,144,0,39.21,41.38,74.76,112,100.73-1.41-4.17,0-8.42,0-12.73,0-57.44,128.94-104,288-104s288,46.56,288,104c0,4.31,1.41,8.56,0,12.73,70.62-26,112-61.52,112-100.73C912,240.47,732.91,176,512,176Z" class="cls-7"/>
        <path d="M800,428.73a8,8,0,0,1-7.58-10.56c.37-1.1.17-2.9-.06-5A46.82,46.82,0,0,1,792,408c0-23.81-28.82-47.87-79.07-66C659.38,322.65,588,312,512,312s-147.38,10.65-200.93,30C260.82,360.13,232,384.19,232,408a46.82,46.82,0,0,1-.36,5.19c-.23,2.08-.43,3.88-.06,5a8,8,0,0,1-10.34,10.07C145.64,400.43,104,362,104,320s43.49-80.92,122.45-109.35C302.84,183.15,404.26,168,512,168s209.16,15.15,285.55,42.65C876.51,239.08,920,277.91,920,320s-41.64,80.43-117.24,108.24A8,8,0,0,1,800,428.73ZM512,296c77.83,0,151.12,11,206.36,30.94C776.17,347.81,808,376.6,808,408c0,.34,0,.7,0,1.08,29.43-11.75,52.65-25.09,69.13-39.73C895,353.53,904,336.93,904,320c0-34.33-40.77-68.7-111.87-94.3C717.43,198.81,617.94,184,512,184s-205.43,14.81-280.13,41.7C160.77,251.3,120,285.67,120,320c0,16.93,9,33.53,26.83,49.35,16.48,14.64,39.7,28,69.13,39.73,0-.38,0-.74,0-1.08,0-31.4,31.83-60.19,89.64-81.06C360.88,307,434.17,296,512,296Z" class="cls-2"/>
        <polyline points="864 784 960 784 960 976 864 976" class="cls-3"/>
        <polygon points="968 984 864 984 864 968 952 968 952 792 864 792 864 776 968 776 968 984" class="cls-2"/>
        <polygon points="720 976 304 976 304 752 368 720 368 912 656 912 656 720 720 752 720 976" class="cls-8"/>
        <path d="M728,984H296V747.06l80-40V904H648V707.06l80,40ZM312,968H712V756.94l-48-24V920H360V732.94l-48,24Z" class="cls-2"/>
    </g>
</svg>
