<?xml version="1.0" encoding="UTF-8" standalone="yes"?><svg xmlns="http://www.w3.org/2000/svg" xmlns:xlink="http://www.w3.org/1999/xlink" version="1.2" baseProfile="tiny" x="0" y="0" width="200" height="200" viewBox="0 0 1024 1024"><defs/><defs/><path fill="#61a431" fill-opacity="1" stroke="none" stroke-width="1" stroke-dashoffset="1" d="M 1012.22 885.248 L 1012.22 918.528 C 1012.22 971.264 969.216 1013.76 916.992 1013.76 L 110.592 1013.76 C 58.368 1013.76 15.36 970.752 15.36 918.528 L 15.36 885.248 C 15.36 874.496 24.064 865.792 34.816 865.792 L 58.368 865.792 L 58.368 477.184 C 58.368 416.768 107.52 367.104 168.448 367.104 L 176.64 367.104 L 128 330.24 C 123.392 326.656 120.32 321.024 120.32 314.88 L 120.32 216.576 C 89.088 207.872 66.048 179.2 66.048 145.408 C 66.048 104.448 99.328 71.68 139.776 71.68 C 180.224 71.68 213.504 104.96 213.504 145.408 C 213.504 179.2 190.464 208.384 158.72 216.576 L 158.72 305.152 L 411.136 499.712 C 415.744 503.296 418.816 508.928 418.816 515.072 L 418.816 591.36 C 423.424 589.824 428.032 588.288 432.64 587.264 L 432.64 549.888 C 432.64 539.136 441.344 530.432 452.096 530.432 L 493.568 530.432 L 493.568 486.4 L 330.24 358.4 C 325.632 354.816 322.56 349.184 322.56 343.04 L 322.56 295.424 C 296.448 287.232 277.504 262.656 277.504 233.472 C 277.504 197.632 306.688 168.448 342.528 168.448 C 378.368 168.448 407.552 197.632 407.552 233.472 C 407.552 262.656 388.096 287.232 361.984 295.424 L 361.984 333.312 L 494.592 437.248 L 494.592 291.328 C 494.592 280.576 503.296 271.872 514.048 271.872 C 524.8 271.872 533.504 280.576 533.504 291.328 L 533.504 368.128 L 667.136 299.52 L 667.136 249.344 C 657.408 246.272 648.192 241.152 640.512 232.96 C 615.424 207.872 615.424 166.4 640.512 140.8 C 666.112 115.2 707.072 115.2 732.672 140.8 C 758.272 166.4 758.272 207.36 732.672 232.96 C 724.992 240.64 716.288 245.76 706.56 248.832 L 706.56 311.296 C 706.56 318.464 702.464 325.12 695.808 328.704 L 534.016 411.648 L 534.016 530.432 L 575.488 530.432 C 586.24 530.432 594.944 539.136 594.944 549.888 L 594.944 587.264 C 606.208 590.336 617.472 593.92 628.736 598.528 L 628.736 448 C 628.736 440.832 632.832 434.176 638.976 431.104 L 869.376 304.64 L 869.376 266.752 C 869.376 256 878.08 247.296 888.832 247.296 C 899.584 247.296 908.288 256 908.288 266.752 L 908.288 315.904 C 908.288 323.072 904.192 329.728 898.048 332.8 L 834.56 367.616 L 859.648 367.616 C 920.576 367.616 969.728 416.768 969.728 477.696 L 969.728 866.304 L 993.28 866.304 C 1003.52 865.792 1012.22 874.496 1012.22 885.248 M 667.648 205.824 C 677.888 216.064 694.272 216.064 704.512 205.824 C 714.752 195.584 714.752 179.2 704.512 168.96 C 699.392 163.84 692.736 161.28 686.08 161.28 C 679.424 161.28 672.768 163.84 667.648 168.96 C 657.408 178.688 657.408 195.584 667.648 205.824 M 368.64 233.472 C 368.64 219.136 356.864 207.36 342.528 207.36 C 328.192 207.36 316.416 219.136 316.416 233.472 C 316.416 247.808 328.192 259.584 342.528 259.584 C 356.864 259.584 368.64 247.808 368.64 233.472 M 139.776 180.736 C 159.232 180.736 174.592 164.864 174.592 145.92 C 174.592 126.464 158.72 111.104 139.776 111.104 C 120.832 111.104 104.96 126.976 104.96 145.92 C 104.96 164.864 120.832 180.736 139.776 180.736 M 666.624 459.264 L 666.624 617.472 C 666.624 617.472 667.136 617.472 667.136 617.984 L 693.76 591.36 C 701.44 583.68 713.728 583.68 721.408 591.36 L 807.424 677.376 C 811.008 680.96 813.056 686.08 813.056 691.2 C 813.056 696.32 811.008 701.44 807.424 705.024 L 780.8 731.648 C 794.112 754.688 804.352 779.264 811.008 804.864 L 848.384 804.864 C 859.136 804.864 867.84 813.568 867.84 824.32 L 867.84 865.792 L 930.304 865.792 L 930.304 477.184 C 930.304 438.272 898.56 406.016 859.136 406.016 L 763.392 406.016 L 666.624 459.264 M 407.552 637.952 C 393.728 643.584 380.928 650.752 368.128 658.944 C 360.448 664.064 350.208 663.04 343.552 656.384 L 320 632.832 L 261.632 691.2 L 285.184 714.752 C 291.84 721.408 292.864 731.136 287.744 739.328 C 270.336 766.464 257.536 796.672 250.88 828.416 C 248.832 837.632 241.152 843.776 231.936 843.776 L 198.656 843.776 L 198.656 865.792 L 355.328 865.792 C 365.056 786.944 432.64 725.504 514.048 725.504 C 595.456 725.504 663.04 786.944 672.768 865.792 L 829.44 865.792 L 829.44 843.776 L 796.16 843.776 C 786.944 843.776 779.264 837.12 777.216 828.416 C 770.56 796.672 758.272 766.976 740.352 739.328 C 735.232 731.648 736.256 721.408 742.912 714.752 L 766.464 691.2 L 708.096 632.832 L 684.544 656.384 C 677.888 663.04 668.16 664.064 660.48 658.944 C 653.312 654.336 646.144 650.24 638.976 646.656 L 638.464 646.656 C 617.472 635.392 594.944 627.712 571.392 622.592 C 562.176 620.544 556.032 612.864 556.032 603.648 L 556.032 570.368 L 472.064 570.368 L 472.064 603.648 C 472.064 612.864 465.92 621.056 456.704 622.592 C 439.808 626.176 423.424 631.296 407.552 637.952 C 408.064 637.952 407.552 637.952 407.552 637.952 M 632.832 865.792 C 623.616 808.448 573.44 764.416 513.536 764.416 C 453.632 764.416 403.456 808.448 394.24 865.792 L 632.832 865.792 M 440.832 904.704 C 443.392 913.92 452.096 920.064 461.824 920.064 L 565.76 920.064 C 575.488 920.064 584.192 913.408 586.752 904.704 L 440.832 904.704 M 97.28 865.792 L 159.744 865.792 L 159.744 824.32 C 159.744 813.568 168.448 804.864 179.2 804.864 L 216.576 804.864 C 223.744 779.264 233.472 754.688 246.784 731.648 L 220.16 705.024 C 216.576 701.44 214.528 696.32 214.528 691.2 C 214.528 686.08 216.576 680.96 220.16 677.376 L 306.176 591.36 C 313.856 583.68 326.144 583.68 333.824 591.36 L 360.448 617.984 C 367.104 614.4 373.76 610.816 380.928 607.232 L 380.928 524.8 L 226.816 406.528 L 168.448 406.528 C 129.024 406.528 97.28 438.272 97.28 477.696 L 97.28 865.792 M 973.312 904.704 L 626.688 904.704 C 623.616 935.424 597.504 958.976 566.272 958.976 L 461.824 958.976 C 430.592 958.976 404.48 934.912 401.408 904.704 L 54.272 904.704 L 54.272 918.528 C 54.272 949.76 79.872 974.848 110.592 974.848 L 916.48 974.848 C 947.712 974.848 972.8 949.248 972.8 918.528 L 972.8 904.704 L 973.312 904.704 M 532.992 223.232 C 532.992 228.352 530.944 233.472 527.36 237.056 C 523.776 240.64 518.656 242.688 513.536 242.688 C 508.416 242.688 503.296 240.64 499.712 237.056 C 496.128 233.472 494.08 228.352 494.08 223.232 C 494.08 218.112 496.128 212.992 499.712 209.408 C 503.296 205.824 508.416 203.776 513.536 203.776 C 518.656 203.776 523.776 205.824 527.36 209.408 C 530.944 212.992 532.992 218.112 532.992 223.232 M 587.776 91.136 C 587.776 132.096 554.496 164.864 514.048 164.864 C 473.088 164.864 439.808 131.584 439.808 91.136 C 439.808 50.688 473.088 17.408 514.048 17.408 C 554.496 16.896 587.776 50.176 587.776 91.136 M 548.864 91.136 C 548.864 71.68 532.992 56.32 514.048 56.32 C 494.592 56.32 478.72 72.192 478.72 91.136 C 478.72 110.592 494.592 125.952 514.048 125.952 C 532.992 125.952 548.864 110.08 548.864 91.136 M 906.752 196.096 C 906.752 201.216 904.704 206.336 901.12 209.92 C 897.536 213.504 892.416 215.552 887.296 215.552 C 882.176 215.552 877.056 213.504 873.472 209.92 C 869.888 206.336 867.84 201.216 867.84 196.096 C 867.84 190.976 869.888 185.856 873.472 182.272 C 877.056 178.688 882.176 176.64 887.296 176.64 C 892.416 176.64 897.536 178.688 901.12 182.272 C 904.704 185.856 906.752 190.976 906.752 196.096 M 933.376 128 C 920.576 140.8 904.192 146.944 887.296 146.944 C 870.912 146.944 854.016 140.8 841.216 128 C 815.616 102.4 815.616 61.44 841.216 35.84 C 866.816 10.24 907.776 10.24 933.376 35.84 C 958.976 61.44 958.464 102.4 933.376 128 M 905.728 63.488 C 900.608 58.368 893.952 55.808 887.296 55.808 C 880.64 55.808 873.984 58.368 868.864 63.488 C 858.624 73.728 858.624 90.112 868.864 100.352 C 879.104 110.592 895.488 110.592 905.728 100.352 C 915.968 90.112 915.968 73.728 905.728 63.488"/></svg>
