<svg width="255" height="255" viewBox="0 0 256 256" xmlns="http://www.w3.org/2000/svg" xmlns:xlink="http://www.w3.org/1999/xlink" overflow="hidden"><style>
.MsftOfcThm_Accent1_Fill_v2 {
 fill:#62A430; 
}
</style>
<defs></defs><defs></defs><g stroke="#000000" stroke-width="1" stroke-linecap="square" stroke-linejoin="bevel" fill="none" fill-rule="evenodd"><g stroke="#000000" stroke-width="1" stroke-linecap="square" stroke-linejoin="bevel" stroke-opacity="1" fill="none" font-family="微软雅黑" font-style="normal" font-weight="400" font-size="12" transform="matrix(0.0666667 0 0 0.0666667 0.933333 0.933333)"></g><g stroke="#000000" stroke-width="1" stroke-linecap="square" stroke-linejoin="bevel" stroke-opacity="1" fill="none" font-family="微软雅黑" font-style="normal" font-weight="400" font-size="12" transform="scale(0.0666667 0.0666667)"></g><g stroke="#000000" stroke-width="1" stroke-linecap="square" stroke-linejoin="bevel" stroke-opacity="1" fill="none" font-family="微软雅黑" font-style="normal" font-weight="400" font-size="12" transform="scale(0.0666667 0.0666667)"></g><g stroke="#000000" stroke-width="1" stroke-linecap="square" stroke-linejoin="bevel" stroke-opacity="1" fill="none" font-family="微软雅黑" font-style="normal" font-weight="400" font-size="12" transform="scale(0.0666667 0.0666667)"></g><g stroke="#000000" stroke-width="1" stroke-linecap="square" stroke-linejoin="bevel" stroke-opacity="1" fill="none" font-family="微软雅黑" font-style="normal" font-weight="400" font-size="12" transform="scale(0.0666667 0.0666667)"></g><g stroke="#000000" stroke-width="1" stroke-linecap="square" stroke-linejoin="bevel" stroke-opacity="1" fill="none" font-family="微软雅黑" font-style="normal" font-weight="400" font-size="12" transform="scale(0.0666667 0.0666667)"></g><g stroke="none" fill="#333333" fill-opacity="1" font-family="Arial" font-style="normal" font-weight="400" font-size="16" transform="matrix(10.0793 0 0 10.0793 -0.309936 22.1266)"><path d="M4.04675 20.9967C3.64675 20.9967 3.32675 20.6767 3.32675 20.2928L3.32675 18.9327C3.32675 15.0928 5.64675 11.6847 9.24675 10.2607L9.64675 10.1007 9.29475 9.82875C7.95075 8.77275 7.16675 7.18875 7.16675 5.50875 7.16675 2.46875 9.64675 0.00475 12.7027 0.00475 15.7587 0.00475 18.2387 2.46875 18.2387 5.50875 18.2387 7.20475 17.4707 8.78875 16.1107 9.82875L15.7587 10.1007 16.1588 10.2607C19.7587 11.6847 22.0787 15.0928 22.0787 18.9327L22.0787 20.2928C22.0787 20.6767 21.7587 20.9967 21.3588 20.9967L4.04675 20.9967M12.7348 11.0288 11.0708 11.0288 12.1747 12.1327 11.0708 17.6687 12.7348 19.3328 14.3987 17.6687 13.2948 12.1327 14.3987 11.0288 12.7348 11.0288M0.73475 18.2288C0.35075 18.2288 0.03075 17.9088 0.03075 17.5248L0.03075 16.0527C0.03075 13.2848 1.55075 10.7888 4.01475 9.52475L4.30275 9.38075 4.07875 9.14075C3.31075 8.30875 2.79875 7.17275 2.79875 6.05275 2.79875 3.66875 4.83075 1.74875 7.21475 1.62075 6.84675 2.13275 6.86275 2.14875 6.65475 2.72475 5.43875 3.14075 3.88675 4.74075 3.88675 6.03675 3.88675 7.25275 5.02275 8.42075 6.14275 8.93275 6.44675 9.04475 6.63875 9.30075 6.63875 9.58875 6.63875 9.87675 5.88675 10.1487 5.56675 10.2447L5.40675 10.2767C2.75075 10.9488 1.13475 13.2688 1.13475 15.9887L1.13475 17.0927 2.23875 17.0927C2.15875 17.5568 2.25475 17.7327 2.23875 18.1968 2.23875 18.2288 0.73475 18.2288 0.73475 18.2288M23.2308 18.2288C23.2147 17.7647 23.3107 17.5888 23.2308 17.1247L24.3347 17.1247 24.3347 16.0207C24.3347 13.3008 22.7188 10.9648 20.0628 10.3087L19.8708 10.2607C19.5828 10.1647 18.8307 9.89275 18.8307 9.60475 18.8307 9.31675 19.0227 9.07675 19.3107 8.96475 20.4307 8.45275 21.5667 7.28475 21.5667 6.06875 21.5667 4.77275 20.0467 3.18875 18.7987 2.75675 18.6227 2.19675 18.6227 2.14875 18.2387 1.65275 20.6227 1.76475 22.6547 3.70075 22.6547 6.08475 22.6547 7.20475 22.1268 8.34075 21.3747 9.17275L21.1507 9.41275 21.4387 9.55675C23.8867 10.8208 25.4228 13.2688 25.4228 16.0368L25.4228 17.5407C25.4228 17.9247 25.1028 18.2447 24.7188 18.2447L23.2308 18.2447 23.2308 18.2288" class="MsftOfcThm_Accent1_Fill_v2" stroke="none" stroke-width="1" stroke-linecap="square" stroke-linejoin="bevel" stroke-miterlimit="4" fill="#62A430" fill-opacity="1"/></g><g stroke="#000000" stroke-width="1" stroke-linecap="square" stroke-linejoin="bevel" stroke-opacity="1" fill="none" font-family="微软雅黑" font-style="normal" font-weight="400" font-size="12" transform="scale(0.0666667 0.0666667)"></g><g stroke="#000000" stroke-width="1" stroke-linecap="square" stroke-linejoin="bevel" stroke-opacity="1" fill="none" font-family="微软雅黑" font-style="normal" font-weight="400" font-size="12" transform="scale(0.0666667 0.0666667)"></g><g stroke="#000000" stroke-width="1" stroke-linecap="square" stroke-linejoin="bevel" stroke-opacity="1" fill="none" font-family="微软雅黑" font-style="normal" font-weight="400" font-size="12" transform="scale(0.0666667 0.0666667)"></g><g stroke="#000000" stroke-width="1" stroke-linecap="square" stroke-linejoin="bevel" stroke-opacity="1" fill="none" font-family="微软雅黑" font-style="normal" font-weight="400" font-size="12" transform="scale(0.0666667 0.0666667)"></g><g stroke="#000000" stroke-width="1" stroke-linecap="square" stroke-linejoin="bevel" stroke-opacity="1" fill="none" font-family="微软雅黑" font-style="normal" font-weight="400" font-size="12" transform="scale(0.0666667 0.0666667)"></g><g stroke="#000000" stroke-width="1" stroke-linecap="square" stroke-linejoin="bevel" stroke-opacity="1" fill="none" font-family="微软雅黑" font-style="normal" font-weight="400" font-size="12" transform="scale(0.0666667 0.0666667)"></g><g stroke="#000000" stroke-width="1" stroke-linecap="square" stroke-linejoin="bevel" stroke-opacity="1" fill="none" font-family="微软雅黑" font-style="normal" font-weight="400" font-size="12" transform="matrix(0.0666667 0 0 0.0666667 0.933333 0.933333)"></g></g></svg>