<svg version="1.1" width="200.000000" height="200.000000" viewBox="0.000000 0.000000 1024.000000 1024.000000" xmlns="http://www.w3.org/2000/svg" xmlns:xlink="http://www.w3.org/1999/xlink" overflow="hidden"><style>
.MsftOfcThm_Background1_Fill {
 fill:#FFFFFF; 
}
</style>
<path d=" M 756.394653 104.277336 C 757.961304 106.628700 759.290466 109.129868 760.362671 111.744003 L 876.842651 394.666656 C 884.198242 412.473328 878.708130 433.000214 863.445312 444.757324 C 795.050659 497.322662 711.039978 525.823975 611.413330 530.176025 C 519.893311 534.186646 441.600006 558.506653 376.447998 603.221313 L 453.333344 890.069336 C 459.530884 912.803894 446.124969 936.257996 423.390411 942.455505 C 400.655853 948.653015 377.201782 935.247131 371.004242 912.512573 C 370.969330 912.384521 370.935028 912.256348 370.901337 912.127991 L 172.117340 170.325333 C 166.014221 147.562363 179.519699 124.161781 202.282669 118.058662 C 225.045639 111.955551 248.446228 125.461029 254.549332 148.223999 L 256.384003 154.837326 C 336.938660 137.258667 412.629333 134.357330 483.370667 146.175995 C 554.624023 158.037338 625.919983 140.202667 697.216003 92.543999 C 716.798584 79.446121 743.290833 84.698738 756.394653 104.277328 Z" class="MsftOfcThm_Background1_Fill" stroke="none" stroke-width="1.000000" stroke-dasharray="" stroke-dashoffset="1.000000" fill="#FFFFFF" fill-opacity="1.000000"/></svg>