<?xml version="1.0" encoding="UTF-8" standalone="yes"?><svg xmlns="http://www.w3.org/2000/svg" xmlns:xlink="http://www.w3.org/1999/xlink" version="1.2" baseProfile="tiny" x="0" y="0" width="255" height="255" viewBox="0 0 256 256"><defs><linearGradient id="wps{4b9b8e39-8734-4cc5-bb99-62d1adeebb9b}_solid@Accent1_0.00@Accent1_0.00" x1="0" y1="0.5" x2="1" y2="0.5" spreadMethod="pad" gradientUnits="userSpaceOnUse"><stop offset="0" stop-color="#62a430" stop-opacity="1"/><stop offset="1" stop-color="#62a430" stop-opacity="1"/></linearGradient></defs><defs/><defs/><g fill="none" fill-rule="evenodd" stroke="#000000" stroke-width="1" stroke-linejoin="bevel" stroke-linecap="square"><g fill="none" font-family="微软雅黑" font-size="12" font-style="normal" font-weight="400" stroke="#000000" stroke-width="1" stroke-linejoin="bevel" stroke-linecap="square" stroke-opacity="1" transform="matrix(0.0666667,0,0,0.0666667,0.933333,0.933333)"/><g fill="none" font-family="微软雅黑" font-size="12" font-style="normal" font-weight="400" stroke="#000000" stroke-width="1" stroke-linejoin="bevel" stroke-linecap="square" stroke-opacity="1" transform="matrix(0.0666667,0,0,0.0666667,0,0)"/><g fill="none" font-family="微软雅黑" font-size="12" font-style="normal" font-weight="400" stroke="#000000" stroke-width="1" stroke-linejoin="bevel" stroke-linecap="square" stroke-opacity="1" transform="matrix(0.0666667,0,0,0.0666667,0,0)"/><g fill="none" font-family="微软雅黑" font-size="12" font-style="normal" font-weight="400" stroke="#000000" stroke-width="1" stroke-linejoin="bevel" stroke-linecap="square" stroke-opacity="1" transform="matrix(0.0666667,0,0,0.0666667,0,0)"/><g fill="none" font-family="微软雅黑" font-size="12" font-style="normal" font-weight="400" stroke="#000000" stroke-width="1" stroke-linejoin="bevel" stroke-linecap="square" stroke-opacity="1" transform="matrix(0.0666667,0,0,0.0666667,0,0)"/><g fill="none" font-family="微软雅黑" font-size="12" font-style="normal" font-weight="400" stroke="#000000" stroke-width="1" stroke-linejoin="bevel" stroke-linecap="square" stroke-opacity="1" transform="matrix(0.0666667,0,0,0.0666667,0,0)"/><g fill="#333333" fill-opacity="1" font-family="Arial" font-size="16" font-style="normal" font-weight="400" stroke="none" transform="matrix(0.333247,0,0,0.333247,-42.6556,-45.3215)"><path fill="#bfdc98" fill-opacity="1" vector-effect="none" d="M 206.883 678.87 L 206.883 675.153 C 198.849 600.865 261.661 600.865 261.661 600.865 C 331.779 606.436 316.439 678.87 316.439 678.87 L 206.883 678.87 M 456.129 678.87 L 456.129 675.153 C 448.096 600.865 510.907 600.865 510.907 600.865 C 581.025 606.436 565.686 678.87 565.686 678.87 L 456.129 678.87 M 701.356 678.87 L 701.356 675.153 C 693.317 600.865 756.135 600.865 756.135 600.865 C 826.252 606.436 810.912 678.87 810.912 678.87 L 701.356 678.87 M 861.306 789.187 L 883.186 789.187 C 890.263 789.187 896 794.924 896 802.001 C 896 809.078 890.263 814.815 883.186 814.815 L 861.306 814.815 L 861.306 845.091 C 861.306 864.371 845.677 880 826.397 880 L 688.057 880 C 668.777 880 653.148 864.371 653.148 845.091 L 653.148 814.815 L 616.079 814.815 L 616.079 845.091 C 616.079 864.371 600.449 880 581.169 880 L 442.829 880 C 423.55 880 407.92 864.371 407.92 845.091 L 407.92 814.815 L 366.838 814.815 L 366.838 845.091 C 366.838 864.371 351.208 880 331.928 880 L 193.584 880 C 174.304 880 158.674 864.371 158.674 845.091 L 158.674 814.815 L 140.814 814.815 C 133.737 814.815 128 809.078 128 802.001 C 128 794.924 133.737 789.187 140.814 789.187 L 158.674 789.187 L 158.674 732.357 C 161.961 701.709 194.284 693.91 194.284 693.91 L 326.302 693.91 C 359.716 695.027 366.838 731.796 366.838 731.796 L 366.838 789.187 L 407.92 789.187 L 407.92 732.357 C 411.208 701.709 443.53 693.91 443.53 693.91 L 575.547 693.91 C 608.959 695.027 616.079 731.796 616.079 731.796 L 616.079 789.187 L 653.152 789.187 L 653.152 732.357 C 656.435 701.709 688.753 693.91 688.753 693.91 L 820.77 693.91 C 854.185 695.027 861.306 731.796 861.306 731.796 L 861.306 789.187 M 254.003 211.815 C 254.003 183.197 276.811 160 304.947 160 C 333.084 160 355.893 183.197 355.893 211.815 C 355.893 240.433 333.084 263.63 304.947 263.63 C 276.811 263.63 254.003 240.433 254.003 211.815 M 731.344 212.032 C 750.671 212.032 766.395 228.024 766.395 247.681 L 766.395 388.524 C 766.395 408.181 750.671 424.173 731.344 424.173 L 514.565 424.173 C 495.234 424.173 479.515 408.181 479.515 388.524 L 479.515 314.82 L 467.966 317.829 L 438.803 325.43 C 438.803 329.146 435.79 332.159 432.074 332.159 L 382.927 332.159 L 346.401 310.431 L 346.401 556.619 C 346.401 566.199 338.635 573.964 329.056 573.964 C 319.464 573.964 311.675 566.212 311.629 556.62 L 311.165 459.751 C 311.165 459.751 305.142 446.937 299.664 459.191 L 300.129 556.708 C 300.129 556.735 300.129 556.762 300.129 556.79 C 300.129 566.275 292.44 573.964 282.955 573.964 C 273.418 573.964 265.681 566.245 265.659 556.708 L 265.152 337.735 C 265.152 337.735 259.291 327.149 254.003 337.735 L 254.003 396.859 C 254.003 404.823 247.547 411.279 239.583 411.279 C 231.619 411.279 225.162 404.823 225.162 396.859 L 225.162 299.29 C 225.162 299.29 227.903 273.101 250.363 273.101 L 341.293 273.101 L 382.927 298.173 L 425.48 298.173 C 432.836 298.173 438.798 304.136 438.798 311.491 L 479.515 304.243 L 479.515 247.681 C 479.515 228.024 495.234 212.032 514.56 212.032 L 731.344 212.032 M 742.133 388.519 L 742.133 247.681 C 742.133 241.629 737.294 236.704 731.344 236.704 L 514.56 236.704 C 508.61 236.704 503.772 241.629 503.772 247.681 L 503.772 299.925 C 505.906 299.545 507.974 300.87 508.521 302.968 C 509.1 305.189 507.769 307.458 505.548 308.037 L 503.772 308.5 L 503.772 388.519 C 503.772 394.576 508.61 399.497 514.56 399.497 L 731.344 399.497 C 737.294 399.497 742.133 394.576 742.133 388.519 M 735.064 430.776 C 743.681 430.776 750.666 437.761 750.666 446.377 L 750.666 447.156 C 750.666 455.342 744.029 461.979 735.842 461.979 C 734.857 461.979 733.875 462.107 732.922 462.359 C 726.831 463.972 723.2 470.217 724.813 476.309 L 746.788 559.317 C 747.046 560.291 747.177 561.294 747.177 562.301 C 747.177 568.742 741.955 573.964 735.514 573.964 L 733.45 573.964 C 725.694 573.964 718.868 568.846 716.695 561.401 L 691.337 474.542 C 689.164 467.097 682.338 461.979 674.582 461.979 L 576.369 461.979 C 568.664 461.979 561.87 467.031 559.653 474.41 L 533.469 561.533 C 531.252 568.912 524.458 573.964 516.753 573.964 L 511.657 573.964 C 510.372 573.964 509.093 573.781 507.859 573.421 C 500.674 571.323 496.55 563.798 498.647 556.612 L 521.694 477.671 C 522.019 476.555 522.185 475.398 522.185 474.236 C 522.185 467.467 516.697 461.979 509.928 461.979 L 509.183 461.979 C 500.567 461.979 493.582 454.994 493.582 446.377 C 493.582 437.761 500.567 430.776 509.183 430.776 L 735.064 430.776 M 555.638 265.213 L 695.275 265.213 C 700.095 265.213 704.003 269.12 704.003 273.94 L 704.003 274.009 C 704.003 278.829 700.095 282.737 695.275 282.737 L 555.638 282.737 C 550.818 282.737 546.911 278.829 546.911 274.009 L 546.911 273.94 C 546.911 269.12 550.818 265.213 555.638 265.213 M 555.638 300.261 L 695.275 300.261 C 700.095 300.261 704.003 304.168 704.003 308.988 L 704.003 309.057 C 704.003 313.877 700.095 317.784 695.275 317.784 L 555.638 317.784 C 550.818 317.784 546.911 313.877 546.911 309.057 L 546.911 308.988 C 546.911 304.168 550.818 300.261 555.638 300.261 M 555.638 335.308 L 695.275 335.308 C 700.095 335.308 704.003 339.216 704.003 344.036 L 704.003 344.105 C 704.003 348.925 700.095 352.832 695.275 352.832 L 555.638 352.832 C 550.818 352.832 546.911 348.925 546.911 344.105 L 546.911 344.036 C 546.911 339.216 550.818 335.308 555.638 335.308"/></g><g fill="none" font-family="微软雅黑" font-size="12" font-style="normal" font-weight="400" stroke="#000000" stroke-width="1" stroke-linejoin="bevel" stroke-linecap="square" stroke-opacity="1" transform="matrix(0.0666667,0,0,0.0666667,0,0)"/><g fill="none" font-family="微软雅黑" font-size="12" font-style="normal" font-weight="400" stroke="#000000" stroke-width="1" stroke-linejoin="bevel" stroke-linecap="square" stroke-opacity="1" transform="matrix(0.0666667,0,0,0.0666667,0,0)"/><g fill="none" font-family="微软雅黑" font-size="12" font-style="normal" font-weight="400" stroke="#000000" stroke-width="1" stroke-linejoin="bevel" stroke-linecap="square" stroke-opacity="1" transform="matrix(0.0666667,0,0,0.0666667,0,0)"/><g fill="none" font-family="微软雅黑" font-size="12" font-style="normal" font-weight="400" stroke="#000000" stroke-width="1" stroke-linejoin="bevel" stroke-linecap="square" stroke-opacity="1" transform="matrix(0.0666667,0,0,0.0666667,0,0)"/><g fill="none" font-family="微软雅黑" font-size="12" font-style="normal" font-weight="400" stroke="#000000" stroke-width="1" stroke-linejoin="bevel" stroke-linecap="square" stroke-opacity="1" transform="matrix(0.0666667,0,0,0.0666667,0,0)"/><g fill="none" font-family="微软雅黑" font-size="12" font-style="normal" font-weight="400" stroke="#000000" stroke-width="1" stroke-linejoin="bevel" stroke-linecap="square" stroke-opacity="1" transform="matrix(0.0666667,0,0,0.0666667,0,0)"/><g fill="none" font-family="微软雅黑" font-size="12" font-style="normal" font-weight="400" stroke="#000000" stroke-width="1" stroke-linejoin="bevel" stroke-linecap="square" stroke-opacity="1" transform="matrix(0.0666667,0,0,0.0666667,0.933333,0.933333)"/></g></svg>
