<?xml version="1.0" encoding="UTF-8" standalone="yes"?><svg xmlns="http://www.w3.org/2000/svg" xmlns:xlink="http://www.w3.org/1999/xlink" version="1.2" baseProfile="tiny" x="0" y="0" width="200" height="200" viewBox="0 0 1024 1024"><defs/><defs/><defs/><path fill="#e7b775" fill-opacity="1" stroke="none" stroke-width="1" stroke-dashoffset="1" d="M 596.745 67.0897 C 443.145 67.0897 314.262 185.379 303.669 338.979 L 303.669 342.51 L 171.255 342.51 C 148.303 342.51 130.648 360.166 130.648 383.117 L 130.648 919.834 C 130.648 941.021 150.069 958.676 171.255 956.91 L 734.455 956.91 C 757.407 956.91 775.062 939.255 775.062 916.303 L 775.062 617.931 C 819.2 556.138 891.586 441.379 891.586 361.931 C 891.586 199.503 759.172 67.0897 596.745 67.0897 M 718.565 902.179 L 187.145 902.179 L 187.145 397.241 L 307.2 397.241 L 307.2 400.772 C 330.152 503.172 437.848 647.945 522.593 753.876 L 594.979 836.855 L 616.166 815.669 C 649.71 780.359 679.724 745.048 707.972 706.207 L 716.8 695.614 L 718.565 902.179 M 718.565 602.041 C 681.49 649.71 642.648 700.91 603.807 745.048 L 600.276 748.579 L 568.497 713.269 C 377.821 487.283 358.4 390.179 358.4 360.166 C 354.869 227.752 459.034 116.524 593.214 112.993 C 725.628 109.462 836.855 213.628 840.386 347.807 L 840.386 360.166 C 836.855 425.49 771.531 527.89 718.565 602.041"/><path fill="#e7b775" fill-opacity="1" stroke="none" stroke-width="1" stroke-dashoffset="1" d="M 432.552 764.469 L 280.717 764.469 C 266.593 766.234 256 778.593 257.766 794.483 C 259.531 806.841 268.359 815.669 280.717 817.435 L 432.552 817.435 C 446.676 815.669 457.269 803.31 455.503 787.421 C 455.503 775.062 444.91 766.234 432.552 764.469 M 596.745 229.517 C 524.359 229.517 464.331 287.779 462.566 360.166 C 462.566 430.786 519.062 489.048 591.448 490.814 L 596.745 490.814 C 669.131 490.814 729.159 432.552 729.159 360.166 C 729.159 287.779 670.897 229.517 598.51 229.517 L 596.745 229.517 M 596.745 434.317 C 554.372 434.317 519.062 400.772 519.062 358.4 L 519.062 356.634 C 517.297 316.028 550.841 280.717 591.448 278.952 L 596.745 278.952 C 637.352 277.186 672.662 308.966 674.428 351.338 L 674.428 356.634 C 674.428 399.007 640.883 434.317 598.51 434.317 L 596.745 434.317 M 280.717 709.738 L 347.807 709.738 C 361.931 709.738 374.29 697.379 374.29 683.255 C 374.29 669.131 361.931 656.772 347.807 656.772 L 280.717 656.772 C 266.593 656.772 254.234 669.131 254.234 683.255 C 254.234 697.379 266.593 709.738 280.717 709.738"/></svg>
