<svg width="255" height="255" viewBox="0 0 256 256" xmlns="http://www.w3.org/2000/svg" xmlns:xlink="http://www.w3.org/1999/xlink" overflow="hidden"><style>
.MsftOfcThm_Accent1_Fill_v2 {
 fill:#62A430; 
}
</style>
<defs></defs><defs></defs><g stroke="#000000" stroke-width="1" stroke-linecap="square" stroke-linejoin="bevel" fill="none" fill-rule="evenodd"><g stroke="#000000" stroke-width="1" stroke-linecap="square" stroke-linejoin="bevel" stroke-opacity="1" fill="none" font-family="微软雅黑" font-style="normal" font-weight="400" font-size="12" transform="matrix(0.0666667 0 0 0.0666667 0.933333 0.933333)"></g><g stroke="#000000" stroke-width="1" stroke-linecap="square" stroke-linejoin="bevel" stroke-opacity="1" fill="none" font-family="微软雅黑" font-style="normal" font-weight="400" font-size="12" transform="scale(0.0666667 0.0666667)"></g><g stroke="#000000" stroke-width="1" stroke-linecap="square" stroke-linejoin="bevel" stroke-opacity="1" fill="none" font-family="微软雅黑" font-style="normal" font-weight="400" font-size="12" transform="scale(0.0666667 0.0666667)"></g><g stroke="#000000" stroke-width="1" stroke-linecap="square" stroke-linejoin="bevel" stroke-opacity="1" fill="none" font-family="微软雅黑" font-style="normal" font-weight="400" font-size="12" transform="scale(0.0666667 0.0666667)"></g><g stroke="#000000" stroke-width="1" stroke-linecap="square" stroke-linejoin="bevel" stroke-opacity="1" fill="none" font-family="微软雅黑" font-style="normal" font-weight="400" font-size="12" transform="scale(0.0666667 0.0666667)"></g><g stroke="#000000" stroke-width="1" stroke-linecap="square" stroke-linejoin="bevel" stroke-opacity="1" fill="none" font-family="微软雅黑" font-style="normal" font-weight="400" font-size="12" transform="scale(0.0666667 0.0666667)"></g><g stroke="none" fill="#333333" fill-opacity="1" font-family="Arial" font-style="normal" font-weight="400" font-size="16" transform="matrix(0.298052 0 0 0.298052 -24.658 -24.6133)"><path d="M304 720.9C277.2 714.4 260.9 722.5 245.2 735.6 218.5 757.8 185.8 759.6 156.3 742.3 131.4 727.7 114.6 692.7 120 662.7 123.1 645.7 122 629.8 117.6 613.2 104.7 564.4 96.1 515.3 103.3 464.2 104.8 453.4 97.4 440.2 91.4 429.6 73 396.8 84.5 359.5 120.1 345.9 134.6 340.4 143.9 332 150.9 318.7 174.4 274.5 207.2 237.7 245.7 206.1 260.9 193.6 270.1 181.8 267.8 159.7 264.4 127.6 286.1 106.5 311.2 91.6 334.3 77.9 359.5 80.9 383.1 94 386 95.6 389.2 97.3 391.2 99.9 408.5 121.4 429.6 122.9 456.1 119.4 512.3 112 568.1 117.7 621.2 139.4 635.5 145.2 647 144.9 660.4 134.4 700.8 102.9 739 128.6 755.6 165.2 759 172.7 757.3 183.5 755.2 192.1 751.5 206.9 755.4 217.5 766.3 228 796 256.6 820.8 289.3 840.5 325.5 847 337.4 856 341.3 868.7 342.4 914.8 346.5 943.5 381.6 941.3 427.6 940 453.5 923.8 469.4 905.8 482.5 889.7 494.3 883.8 506.8 883.2 526.4 882.1 559.8 878.9 593.3 865.2 624.6 857.5 642.1 856.6 659.5 864.2 678.1 872.8 699.3 863.6 724.2 843.9 740.5 823.8 757.1 799.9 758.3 776.2 743.9 756.6 732 742 706.6 750.3 686.1 766.2 647.1 739.6 620.6 727.2 589.9 723.1 579.9 713 578.5 703.6 583.4 697.7 586.4 692.8 591.1 687.2 594.8 681.7 598.4 676.2 602.7 670.1 604.8 656.6 609.3 643.8 604.7 639.5 595.1 635 585 638.9 572.3 649.9 564.5 660.1 557.2 671.2 551.2 681.2 543.6 693.3 534.5 693.7 529 684.7 516.4 644.6 460.5 602.1 406.9 551.9 359.5 528.9 337.8 520.9 337.6 496.9 358.4 426.8 419.3 367.9 489.5 319.1 568.4 305.9 589.7 291.3 610.3 279.2 632.2 264.6 658.7 275 673.9 305 673.1 315.8 672.8 326.8 672.7 337.3 674.6 346.7 676.2 356 682.6 355 692.7 354.3 699.5 347.9 708.9 341.7 711.5 328.1 717 313.1 718.8 304 720.9M434.7 353.5C433.7 351.1 432.6 348.7 431.6 346.3 423.8 346.7 415.9 346.6 408.2 347.7 349.9 355.9 294.2 373.6 239.1 393.3 219.4 400.3 201.6 410.2 191 430.7 186.4 439.5 175.9 445.9 167 451.7 156.4 458.7 149.3 467.5 148.4 479.9 145.5 516.1 149.8 551.7 158.6 586.8 161.4 598 168.6 602.5 181 601.4 194.8 600.3 209 601 222.8 602.8 236.1 604.5 245.6 601.1 252.5 589.6 260.2 576.8 268.1 564 276.1 551.4 318.1 484.8 364.2 421.4 422.8 368 427.4 363.9 430.8 358.4 434.7 353.5M463.2 295.4C464.2 293 465.3 290.6 466.3 288.2 460.4 281.9 455.2 274.5 448.4 269.4 435 259.4 420 251.6 406.9 241.3 395.2 232.2 383.6 229.4 369.6 234.3 350.7 241 332.2 241.1 313.8 231.5 300.7 224.7 288.6 227.4 277 237.5 243.4 266.9 213.2 298.9 191.2 338.1 187.5 344.7 181.6 352.2 189.5 357.9 193.6 360.9 202.2 360.1 207.8 358.2 227.5 351.4 246.6 343.1 266.2 336 322.2 315.6 379.8 302.1 439.4 297.9 447.3 297.3 455.2 296.2 463.2 295.4M502.2 162.1C479.8 164.4 457.3 165.7 435.2 169.5 429.5 170.5 422 178.3 420.9 184 419.8 189.6 424.3 198.6 429.2 202.5 456.2 223.5 484.2 243.3 511.8 263.5 522.5 271.3 533 271.5 544.3 264.3 570.4 247.8 597 232.2 622.8 215.3 628.3 211.7 633.4 204.3 634.2 198.2 634.6 195 625.5 189.6 619.8 186.9 582.7 169.2 542.8 165.7 502.2 162.1M582.2 297C594.2 300.2 598.7 302.2 603.5 302.6 647.2 306.6 688.4 319.8 728.5 336.6 746.1 344 762.8 353.4 780.4 360.5 786.5 362.9 794.3 360.8 801.4 360.8 800.6 354.7 801.9 347 798.7 342.6 776.9 313.2 755.8 283 731 256.1 708.7 231.8 690.2 231.2 660.9 246.3 642.3 255.8 623.8 265.5 605.9 276.1 598.7 280.4 593 287.4 582.2 297M614.4 351.9C619.3 361.5 620.7 367.3 624.4 371 660.8 408.1 693.4 448.1 721.4 491.9 729.3 504.3 736.7 505 748.5 495.7 758.4 488 767.8 479.6 776.9 471 796.1 452.9 795.1 424.9 773.6 408.9 763 401 750.9 394.4 738.6 389.7 705.9 377.2 672.7 365.7 639.5 354.5 633.1 352.4 625.8 353 614.4 351.9M840 530.5C838.8 530.2 837.6 530 836.4 529.7 837 522.2 838.7 514.6 837.9 507.3 837.3 502.2 834.6 495 830.7 493.1 826.9 491.3 819.2 493.4 815.3 496.5 799.6 508.8 784.3 521.7 769.5 535.1 757.8 545.6 757.6 553.9 765.8 568.3 772 579.1 777.6 590.2 783.3 601.2 786.7 607.9 789 615.2 793 621.4 795.9 625.9 802.1 632.8 804.7 632 810 630.3 814 624.3 818.1 619.7 819.6 618 820.1 615.1 820.7 612.7 827.2 585.3 833.6 557.9 840 530.5M197 645C180.4 644.9 164.4 660.4 164.5 676.5 164.6 690.3 181.1 706.8 195.5 707.3 209.9 707.9 228.9 690.7 229.7 676.3 230.5 660.9 213.9 645.1 197 645M346.9 191.8C363.6 191.1 377.9 176.9 377.3 161.3 376.7 144.4 361.4 130.2 344.1 130.5 327.2 130.9 312.3 147.1 313.7 163.6 315 179 330.9 192.4 346.9 191.8M895 420.1C895.5 402.4 881.8 388.1 864 387.5 847.2 387 831.9 402.1 832 419.2 832.1 435.1 846.6 448.9 863 448.7 880.4 448.5 894.6 435.8 895 420.1M716.1 183.2C707.8 175.5 703.7 168.8 699.3 168.4 694.6 168.1 689.4 173.8 684.4 176.9 687.9 181.6 690.6 188.7 695.1 190.2 699.3 191.7 705.5 187.1 716.1 183.2M142.6 381.9C136.1 390.2 129.4 395.1 129.9 399.1 130.5 403.8 137.4 410.8 141.8 410.9 146.1 411 153.3 404.4 154.2 399.7 155 395.9 148.6 390.6 142.6 381.9M807.6 707.1C811.9 702 817.8 697.5 817 695.6 815.4 691.3 810.3 688.3 806.7 684.7 803.8 688.1 798.8 691.4 798.7 694.9 798.6 698.2 803.5 701.8 807.6 707.1" class="MsftOfcThm_Accent1_Fill_v2" stroke="none" stroke-width="1" stroke-linecap="square" stroke-linejoin="bevel" stroke-miterlimit="4" fill="#62A430" fill-opacity="1"/></g><g stroke="none" fill="#333333" fill-opacity="1" font-family="Arial" font-style="normal" font-weight="400" font-size="16" transform="matrix(0.298052 0 0 0.298052 -24.658 -24.6133)"><path d="M493.1 941.2C436.2 941.2 379.3 941.2 322.4 941.2 283.9 941.2 265.8 923 265.6 884 265.5 874.8 265.4 865.5 266.8 856.4 269.6 837.3 277.1 821.9 297.2 814.1 322.9 804.1 347.7 792 372.9 780.8 377.5 778.8 382.2 777 386.7 774.7 422.1 757 422.5 755 403.5 721.3 395.3 706.8 386.7 692.1 381.1 676.5 377.4 666 377.7 653.7 378.1 642.3 378.7 626.5 382.1 610.8 382.5 595.1 384.5 515 458.8 466 534.7 493 580.9 509.4 606.3 549.2 604.5 594.6 603.9 610.9 607.1 627.7 610.6 643.8 613.3 656.1 612.1 666.9 606.4 677.7 596.6 696.2 586.8 714.7 577 733.1 567.2 751.5 566.6 754.4 585 765.1 606.5 777.6 629.7 787.4 652.3 798 666.7 804.8 681.3 811 695.9 817.3 712.4 824.5 719.7 837.6 720 855.1 720.2 868.5 720.5 881.9 719.9 895.3 718.8 923.8 700.4 941 671.3 941 611.9 941 552.4 941 493 941 493.1 941.1 493.1 941.2 493.1 941.2M493.9 895.3C493.9 895 493.9 894.6 493.9 894.3 545.8 894.3 597.7 893.4 649.6 894.7 673.5 895.3 678.6 880.5 672.4 864.8 669.7 858 662.1 851.6 655.2 848.3 637.2 839.6 617.8 833.7 599.9 824.8 576.1 813 550.7 803.4 533 781.8 515.8 760.8 515.4 745.8 529.6 722.7 540.5 705 549.8 686.2 559.1 667.5 561.6 662.5 563.9 655.3 562.2 650.8 553.9 629.5 557.9 607.8 557.5 586.1 557.3 571.4 554.2 557.7 541.4 548.3 517.1 530.5 490.8 528.4 462.9 538.6 435 548.8 430.3 571.9 429.4 597.3 429.3 599.8 429.4 602.3 429.1 604.8 427.7 618.7 425.8 632.6 424.9 646.6 424.5 653 424.4 660.3 427.1 665.7 436.8 685 447.4 703.9 458.4 722.5 472.3 745.8 469.9 771 448.3 787.2 429.8 801.1 409.4 813 388.7 823.7 369.5 833.7 348.5 840.3 328.9 849.5 315 856 309.2 868.3 312.3 879.9 315.3 890.8 324.1 895.3 340.4 895.2 391.8 895.2 442.9 895.3 493.9 895.3" class="MsftOfcThm_Accent1_Fill_v2" stroke="none" stroke-width="1" stroke-linecap="square" stroke-linejoin="bevel" stroke-miterlimit="4" fill="#62A430" fill-opacity="1"/></g><g stroke="#000000" stroke-width="1" stroke-linecap="square" stroke-linejoin="bevel" stroke-opacity="1" fill="none" font-family="微软雅黑" font-style="normal" font-weight="400" font-size="12" transform="scale(0.0666667 0.0666667)"></g><g stroke="#000000" stroke-width="1" stroke-linecap="square" stroke-linejoin="bevel" stroke-opacity="1" fill="none" font-family="微软雅黑" font-style="normal" font-weight="400" font-size="12" transform="scale(0.0666667 0.0666667)"></g><g stroke="#000000" stroke-width="1" stroke-linecap="square" stroke-linejoin="bevel" stroke-opacity="1" fill="none" font-family="微软雅黑" font-style="normal" font-weight="400" font-size="12" transform="scale(0.0666667 0.0666667)"></g><g stroke="#000000" stroke-width="1" stroke-linecap="square" stroke-linejoin="bevel" stroke-opacity="1" fill="none" font-family="微软雅黑" font-style="normal" font-weight="400" font-size="12" transform="scale(0.0666667 0.0666667)"></g><g stroke="#000000" stroke-width="1" stroke-linecap="square" stroke-linejoin="bevel" stroke-opacity="1" fill="none" font-family="微软雅黑" font-style="normal" font-weight="400" font-size="12" transform="scale(0.0666667 0.0666667)"></g><g stroke="#000000" stroke-width="1" stroke-linecap="square" stroke-linejoin="bevel" stroke-opacity="1" fill="none" font-family="微软雅黑" font-style="normal" font-weight="400" font-size="12" transform="scale(0.0666667 0.0666667)"></g><g stroke="#000000" stroke-width="1" stroke-linecap="square" stroke-linejoin="bevel" stroke-opacity="1" fill="none" font-family="微软雅黑" font-style="normal" font-weight="400" font-size="12" transform="matrix(0.0666667 0 0 0.0666667 0.933333 0.933333)"></g></g></svg>