<?xml version='1.0' encoding='utf-8'?>
<!-- Generator: Adobe Illustrator 21.0.0, SVG Export Plug-In . SVG Version: 6.00 Build 0)  -->
<svg xmlns="http://www.w3.org/2000/svg" width="256" style="enable-background:new 0 0 1024 1024;" id="图层_1" y="0px" xml:space="preserve" version="1.1" xmlns:xlink="http://www.w3.org/1999/xlink" viewBox="0 0 256 256" x="0px" height="256">
    <style type="text/css">
	.st0{opacity:0.32;fill:#72BA1E;}
	.st1{fill:#34C63C;}
	.st2{opacity:0.5;fill:#FFFFFF;}
	.st3{fill:#FCCA2A;}
	.st4{fill:#FFFFFF;}
</style>
    <g transform="matrix(0.29090909,0,0,0.29090909,-20.945455,-20.96)">
        <g>
            <path d="M952,726.1c0,103.8-197,188-440,188s-440-84.2-440-188s197-336,440-336S952,622.2,952,726.1z" class="st0"/>
            <g>
                <path d="M620.1,794.1H167.9c-26.3,0-47.5-21.4-47.5-47.5V157.5c0-26.3,21.4-47.5,47.5-47.5h452.2&#xa;&#x9;&#x9;&#x9;c26.3,0,47.5,21.4,47.5,47.5v589.1C667.8,772.8,646.4,794.1,620.1,794.1L620.1,794.1z M620.1,794.1" class="st1"/>
                <path d="M539.3,288.9H242c-14.9,0-27-12.1-27-27.1c0-14.9,12.1-27.1,27-27.1h297.3c14.9,0,27.1,12.1,27.1,27.1&#xa;&#x9;&#x9;&#x9;C566.4,276.8,554.2,288.9,539.3,288.9L539.3,288.9z M471.7,424.1H242c-14.9,0-27-12.1-27-27.1c0-14.9,12.1-27.1,27-27.1h229.8&#xa;&#x9;&#x9;&#x9;c14.9,0,27.1,12.1,27.1,27.1C498.9,411.9,486.6,424.1,471.7,424.1L471.7,424.1z M471.7,545.8H242c-14.9,0-27-12.1-27-27.1&#xa;&#x9;&#x9;&#x9;c0-14.9,12.1-27,27-27h229.8c14.9,0,27.1,12.1,27.1,27C498.9,533.7,486.6,545.8,471.7,545.8L471.7,545.8z M471.7,667.4H242&#xa;&#x9;&#x9;&#x9;c-14.9,0-27-12.1-27-27.1c0-14.9,12.1-27.1,27-27.1h229.8c14.9,0,27.1,12.1,27.1,27.1C498.9,655.3,486.6,667.4,471.7,667.4&#xa;&#x9;&#x9;&#x9;L471.7,667.4z M471.7,667.4" class="st2"/>
                <g>
                    <circle cx="655.6" cy="582.1" r="248" class="st3"/>
                </g>
                <path d="M803.6,542.9h-93.4l58.1-53.5c9.8-9,10.4-24.2,1.4-33.9c-9-9.8-24.2-10.4-33.9-1.4l-71.4,65.7l-96.6-61.5&#xa;&#x9;&#x9;&#x9;c-11.2-7.1-26-3.8-33.1,7.4c-7.1,11.2-3.8,26,7.4,33.1l69.3,44.1h-86.4c-13.3,0-24,10.7-24,24s10.7,24,24,24h115.3v33.6h-66.1&#xa;&#x9;&#x9;&#x9;c-13.3,0-24,10.7-24,24s10.7,24,24,24h66.1v44c0,13.3,10.7,24,24,24s24-10.7,24-24v-44h66.1c13.3,0,24-10.7,24-24s-10.7-24-24-24&#xa;&#x9;&#x9;&#x9;h-66.1v-33.6h115.3c13.3,0,24-10.7,24-24S816.9,542.9,803.6,542.9z" class="st4"/>
            </g>
        </g>
    </g>
</svg>
