<svg viewBox="0 0 200 179.2" xmlns="http://www.w3.org/2000/svg" xmlns:xlink="http://www.w3.org/1999/xlink" id="图层_1" overflow="hidden"><style>
.MsftOfcThm_Accent1_Fill_v2 {
 fill:#62A430; 
}
</style>
<path d="M22 174.3C9.8 174.3 0 164.4 0 152.3L0 22C0 9.9 9.9 0 22 0L152.2 0C164.4 0 174.2 9.9 174.2 22L174.2 79.4C174.2 81.6 172.4 83.4 170.2 83.4 168 83.4 166.2 81.6 166.2 79.4L166.2 22C166.2 14.3 159.9 8 152.2 8L22 8C14.3 8 8 14.3 8 22L8 152.2C8 159.9 14.3 166.2 22 166.2L74.1 166.2C76.3 166.2 78.1 168 78.1 170.2 78.1 172.4 76.3 174.2 74.1 174.2L22 174.2 22 174.3Z" class="MsftOfcThm_Accent1_Fill_v2" stroke="none" stroke-width="0.999746" stroke-linecap="butt" stroke-linejoin="miter" stroke-miterlimit="4" fill="#62A430" fill-opacity="1"/><path d="M37.5 97.4C34.3 97.4 31.7 94.7 31.7 91.5 31.7 90.1 32.3 88.7 33.2 87.6L62.1 56.2C64 54.1 67.2 53.7 69.6 55.3L87.1 67 114.7 36.5C116.8 34.1 120.5 33.8 122.9 35.9 125.3 38 125.6 41.7 123.5 44.1 123.4 44.2 123.4 44.3 123.3 44.3L92.3 78.6C90.4 80.7 87.1 81.1 84.7 79.5L67.3 67.9 41.7 95.5C40.7 96.7 39.1 97.4 37.5 97.4L37.5 97.4Z" class="MsftOfcThm_Accent1_Fill_v2" stroke="none" stroke-width="0.999746" stroke-linecap="butt" stroke-linejoin="miter" stroke-miterlimit="4" fill="#62A430" fill-opacity="1"/><path d="M120.7 79.5C117.5 79.5 114.9 76.9 114.9 73.7 114.9 73.7 114.9 73.7 114.9 73.7L114.9 44.5 85.8 44.5C82.6 44.5 80 41.9 80 38.7 80 35.5 82.6 32.9 85.8 32.9L120.8 32.9C124 32.9 126.6 35.5 126.6 38.7 126.6 38.7 126.6 38.7 126.6 38.7L126.6 73.7C126.6 76.9 124 79.5 120.7 79.5 120.7 79.5 120.7 79.5 120.7 79.5L120.7 79.5Z" class="MsftOfcThm_Accent1_Fill_v2" stroke="none" stroke-width="0.999746" stroke-linecap="butt" stroke-linejoin="miter" stroke-miterlimit="4" fill="#62A430" fill-opacity="1"/><path d="M81.3 105.2C81.4 105.7 81.5 106.1 81.5 106.4 81.6 106.9 81.9 108.2 82.3 110 79.6 111.9 77.7 115.1 77.7 118.8 77.7 145.7 89.5 169.2 123.8 173.5 123.8 173.5 135.2 174.8 158 170.6 158.1 170.5 158.2 170.5 158.3 170.4 160.9 169.8 163.3 169 165.2 168.1L193.4 155C195.5 154 195.4 153.2 193 153.2L170.7 153.2C174.9 146.7 177.3 138.9 177.3 130.6 177.3 108 159.6 89.7 137.8 89.7 117 89.7 99.9 106.3 98.4 127.5 97.7 124.7 97.4 121.8 97.4 118.8 97.4 114.9 95.3 111.4 92.3 109.7 93.1 106.4 94.8 99.6 95.4 96.9 95.4 96.9 95.4 96.9 95.4 96.9 97.3 96.9 98.8 95.3 98.8 93.2 98.8 91.2 97.3 89.5 95.4 89.5 93.5 89.5 92 91.1 92 93.2 92 94.3 92.5 95.4 93.2 96 92.5 97.7 88.6 105.8 87.4 108.3 86.5 108.3 85.7 108.4 84.9 108.7 84.4 107.6 84 106.8 83.8 106.4 83.6 105.9 83.2 105.2 82.7 104.5 83.5 103.8 84.1 102.8 84.1 101.6 84.1 99.6 82.6 97.9 80.7 97.9 78.8 97.9 77.3 99.5 77.3 101.6 77.3 103.6 78.8 105.3 80.7 105.3 80.9 105.3 81.1 105.3 81.3 105.2L81.3 105.2ZM130.4 101.1C130.4 101.1 130.5 101.1 130.8 101 130.9 101 131.1 101 131.3 100.9 131.5 100.9 131.7 100.8 132 100.8 132.5 100.8 133.2 100.7 134 100.7 134.2 100.7 134.4 100.7 134.6 100.7 134.8 100.7 135 100.7 135.3 100.7 135.6 100.7 135.8 100.7 136 100.7 136.2 100.7 136.5 100.7 136.8 100.8 137.1 100.8 137.3 100.8 137.6 100.9 137.9 100.9 138.1 101 138.4 101 139 101.1 139.6 101.2 140.2 101.3 140.5 101.4 141 101.5 141.1 101.5 141.2 101.5 141.4 101.6 141.6 101.6 141.8 101.6 141.9 101.7 142.1 101.7 142.4 101.8 142.8 101.9 143.1 102 143.4 102.1 143.8 102.2 144.1 102.4 145.5 102.9 146.9 103.6 148.3 104.4 149.7 105.2 151.2 106.3 152.5 107.5 153.9 108.7 155.2 110.1 156.4 111.7 157.6 113.3 158.7 115 159.6 117 160.5 118.9 161.2 121 161.7 123.2 161.8 123.5 161.8 123.8 161.9 124 161.9 124.3 162 124.6 162 124.8 162.1 125.4 162.2 125.9 162.2 126.5L162.3 126.9 162.3 127.4C162.3 127.7 162.3 127.9 162.4 128.2 162.4 128.8 162.4 129.4 162.4 130 162.4 131.2 162.2 132.4 162 133.6 161.8 134.8 161.5 136 161 137.1 160.9 137.4 160.8 137.7 160.7 138 160.6 138.3 160.5 138.6 160.3 138.9 160 139.5 159.8 140 159.5 140.6 158.9 141.7 158.2 142.8 157.5 143.8 156.7 144.8 155.9 145.8 155 146.7 154.1 147.6 153.1 148.4 152.1 149.2 150 150.7 147.7 151.8 145.2 152.6L144.7 152.7C144.5 152.7 144.4 152.8 144.2 152.8L143.3 153C143 153.1 142.7 153.1 142.4 153.2 142.2 153.2 142.1 153.3 141.9 153.3L141.4 153.4C140.8 153.5 140.1 153.6 139.5 153.6 139.5 153.6 139.5 153.6 139.4 153.6L138.5 153.6 138.1 153.6 137.6 153.6C135 153.5 132.4 152.9 130 151.9 128.8 151.4 127.7 150.7 126.6 150 125.6 149.3 124.6 148.4 123.7 147.5 121.9 145.7 120.5 143.6 119.6 141.3 119.1 140.2 118.8 139 118.5 137.9 118.4 137.6 118.4 137.3 118.3 137L118.2 136.6 118.1 136.2C118.1 135.9 118 135.6 118 135.3L118 134.9 118 134.7 118 134.6C118 134.6 118 134.5 118 134.5L118 134.4 118 134 118 133.8 118 133.6C118 133.3 118 133 118 132.7 118 132.4 118 132.1 118.1 131.8L118.2 131.4C118.2 131.3 118.3 131.1 118.3 131 118.5 129.9 118.8 128.8 119.3 127.7 120.2 125.6 121.4 123.8 122.9 122.3 124.4 120.8 126.1 119.7 127.9 119 129.7 118.3 131.5 117.9 133.2 117.9L133.3 117.9 133.3 117.9C133.4 117.9 133.3 117.9 133.4 117.9L133.5 117.9C133.6 117.9 133.7 117.9 133.8 117.9 133.9 117.9 134 117.9 134.1 117.9 134.2 117.9 134.3 117.9 134.4 117.9 134.8 117.9 135.2 118 135.6 118 136.4 118.1 137.2 118.3 137.9 118.6 138.6 118.9 139.3 119.2 139.9 119.6 140.5 120 141.1 120.4 141.6 120.8 142.1 121.2 142.5 121.7 142.9 122.1 143.3 122.6 143.6 123 143.9 123.5 144.5 124.4 144.8 125.3 145.1 126 145.4 126.8 145.5 127.5 145.6 128 145.6 128.3 145.7 128.5 145.7 128.7 145.7 128.9 145.7 129.1 145.7 129.2 145.7 129.5 145.7 129.6 145.7 129.6 145.7 129.6 145.7 129.5 145.6 129.2 145.6 129.1 145.5 128.9 145.5 128.7 145.5 128.5 145.4 128.3 145.3 128 145.1 127.5 144.9 126.9 144.6 126.2 144.5 126 144.4 125.8 144.3 125.7 144.2 125.6 144.2 125.5 144.1 125.4 144 125.3 144 125.2 143.9 125.1 143.7 124.7 143.4 124.3 143.1 124 142.8 123.6 142.4 123.2 142 122.9 141.6 122.5 141.2 122.2 140.7 121.9 139.7 121.2 138.6 120.7 137.3 120.4 136.7 120.2 136 120.1 135.3 120.1 135 120.1 134.6 120.1 134.3 120.1 134.2 120.1 134.1 120.1 134 120.1 133.9 120.1 133.8 120.1 133.7 120.1 133.6 120.1 133.5 120.1 133.4 120.1L133.3 120.1C133.3 120.1 133.2 120.1 133.3 120.1L133.2 120.1C131.7 120.3 130.2 120.7 128.8 121.4 127.4 122.1 126 123.1 124.9 124.4 124.3 125 123.8 125.7 123.4 126.5 123 127.2 122.6 128 122.3 128.9 122 129.7 121.8 130.6 121.7 131.5 121.7 131.6 121.7 131.7 121.7 131.8L121.7 132.1C121.7 132.3 121.7 132.6 121.7 132.8 121.7 132.9 121.7 133 121.7 133.1L121.7 133.4C121.7 133.5 121.7 133.5 121.7 133.6L121.7 134.2 121.7 134.3C121.7 134.4 121.7 134.3 121.7 134.3L121.7 134.3 121.7 134.5 121.7 134.9C121.7 135.1 121.8 135.4 121.8 135.6L121.9 136 122 136.3C122.1 136.5 122.1 136.8 122.2 137 122.4 137.9 122.8 138.8 123.2 139.7 124 141.5 125.2 143.1 126.6 144.5 127.3 145.2 128.1 145.8 128.9 146.4 129.7 147 130.6 147.4 131.5 147.8 132.4 148.2 133.4 148.5 134.4 148.7 134.9 148.8 135.4 148.9 135.9 148.9L136.3 148.9C136.4 148.9 136.6 148.9 136.7 148.9L137.1 148.9C137.2 148.9 137.4 148.9 137.5 148.9L137.9 148.9 138.1 148.9 138.2 148.9 139.1 148.9C139 148.9 139.1 148.9 139.1 148.9 139.6 148.8 140.1 148.8 140.7 148.7L141.1 148.6C141.2 148.6 141.4 148.5 141.5 148.5 141.8 148.4 142 148.4 142.3 148.3L143.1 148.1C143.4 148 143.6 147.9 143.9 147.9 145.9 147.3 147.8 146.3 149.5 145.2 150.3 144.6 151.2 143.9 151.9 143.2 152.7 142.5 153.4 141.7 154 140.9 154.2 140.7 154.3 140.5 154.5 140.3L154.9 139.7C155.2 139.3 155.5 138.8 155.7 138.4 156 138 156.2 137.5 156.4 137 156.5 136.8 156.6 136.5 156.7 136.3 156.8 136.1 156.9 135.8 157 135.6 157.4 134.6 157.7 133.7 157.9 132.7L158 132.3 158.1 131.9C158.1 131.7 158.2 131.4 158.2 131.2 158.2 131 158.3 130.7 158.3 130.5 158.3 130.4 158.3 130.3 158.3 130.1L158.3 129.7C158.4 129.2 158.3 128.7 158.4 128.3 158.4 128 158.4 127.8 158.4 127.5L158.4 127.1 158.4 126.7C158.4 126.2 158.3 125.7 158.3 125.2 158.3 125 158.2 124.7 158.2 124.5 158.2 124.3 158.1 124 158.1 123.8 157.8 121.9 157.2 120 156.5 118.2 155.8 116.4 154.9 114.8 153.9 113.3 152.9 111.8 151.8 110.5 150.6 109.3 148.3 106.9 145.7 105.1 143.2 103.9 142.9 103.7 142.6 103.6 142.3 103.4 142 103.3 141.5 103.1 141.4 103 141.3 102.9 141.1 102.9 141 102.8 140.9 102.7 140.7 102.7 140.6 102.6 140.3 102.5 140 102.4 139.7 102.3 139.1 102.1 138.6 101.9 138 101.8 137.7 101.7 137.5 101.7 137.2 101.6 136.9 101.5 136.7 101.5 136.4 101.4 134.4 101 132.8 100.8 131.8 100.7 131.5 100.7 131.3 100.7 131.1 100.7 130.9 100.7 130.7 100.7 130.6 100.7 130.6 101.1 130.5 101.1 130.4 101.1L130.4 101.1Z" class="MsftOfcThm_Accent1_Fill_v2" stroke="none" stroke-width="0.999746" stroke-linecap="butt" stroke-linejoin="miter" stroke-miterlimit="4" fill="#62A430" fill-opacity="1"/></svg>