<svg viewBox="0 0 200 197.5" xmlns="http://www.w3.org/2000/svg" xmlns:xlink="http://www.w3.org/1999/xlink" id="图层_1" overflow="hidden"><style>
.MsftOfcThm_Accent1_Fill_v2 {
 fill:#62A430; 
}
</style>
<path d="M116 58.5 83.2 58.5 66.8 30.2 83.2 1.9 116 1.9 132.4 30.2 116 58.5ZM89 49.4 111.2 49.4 122.3 30.3 111.2 11.2 89 11.2 77.9 30.2 89 49.4ZM51.2 168.4 18.4 168.4 2 140.1 18.4 111.8 51.2 111.8 67.6 140.1 51.2 168.4ZM24 159.3 46.2 159.3 57.3 140.2 46.2 121 24 121 12.9 140.1 24 159.3ZM180.8 168.4 148 168.4 131.6 140.1 148 111.8 180.8 111.8 197.2 140.1 180.8 168.4ZM153.9 159.3 176.1 159.3 187.2 140.2 176.1 121 153.9 121 142.8 140.1 153.9 159.3ZM6.5 104.3C3.4 104.3 1 101.8 0.9 98.7 0.9 66.5 16.7 36.3 43.2 17.8 45.7 16 49.2 16.7 51 19.2 52.8 21.7 52.1 25.2 49.6 27L49.6 27C26.2 43.4 12.2 70.2 12.1 98.8 12.1 101.9 9.6 104.3 6.5 104.3 6.5 104.3 6.5 104.3 6.5 104.3L6.5 104.3ZM100.1 197.5C85.6 197.5 71.3 194.3 58.2 188.3 55.4 187 54.2 183.7 55.5 180.9 56.8 178.1 60.1 176.9 62.9 178.2 86.5 189.2 113.7 189.2 137.3 178.2 140.1 176.9 143.4 178.1 144.7 180.9 146 183.7 144.8 187 142 188.3 128.9 194.3 114.5 197.5 100.1 197.5L100.1 197.5ZM193.7 104.3C190.6 104.3 188.2 101.8 188.1 98.7 188.2 75.4 178.9 53.1 162.3 36.7 158.2 32.6 153.8 29 149 25.8 146.4 24.1 145.7 20.7 147.3 18.1 149 15.5 152.4 14.8 155 16.4 155.1 16.4 155.1 16.5 155.2 16.5 171.7 27.5 184.5 43.1 192 61.4 196.8 73.2 199.3 85.8 199.3 98.6 199.2 101.8 196.7 104.3 193.7 104.3 193.6 104.3 193.6 104.3 193.7 104.3L193.7 104.3ZM30.8 104.3C27.7 104.3 25.3 101.8 25.2 98.7 25.2 78.9 33.1 59.9 47.1 45.9 50.2 42.8 53.5 40 57.1 37.5 59.6 35.7 63.1 36.4 64.9 38.9 66.7 41.4 66 44.9 63.5 46.7L63.5 46.7C60.5 48.8 57.6 51.2 55 53.8 43 65.7 36.3 81.8 36.3 98.7 36.3 101.8 33.9 104.3 30.8 104.3 30.8 104.3 30.8 104.3 30.8 104.3L30.8 104.3ZM100.1 173.3C89.2 173.3 78.4 170.9 68.5 166.3 65.8 164.9 64.7 161.5 66.1 158.8 67.4 156.2 70.5 155.1 73.2 156.2 90.3 164.1 110 164.1 127.1 156.2 129.9 154.9 133.2 156.1 134.5 158.9 135.8 161.7 134.6 165 131.8 166.3 121.8 170.9 111 173.3 100.1 173.3L100.1 173.3ZM169.4 104.3C166.3 104.3 163.9 101.8 163.8 98.7 163.8 81.8 157.1 65.7 145.1 53.8 142.5 51.2 139.6 48.8 136.6 46.7 134.1 44.9 133.5 41.5 135.2 38.9 136.9 36.3 140.4 35.8 143 37.5 146.6 40 149.9 42.8 153 45.9 167.1 59.8 175 78.8 174.9 98.7 175 101.8 172.6 104.3 169.4 104.3 169.5 104.3 169.4 104.3 169.4 104.3L169.4 104.3Z" class="MsftOfcThm_Accent1_Fill_v2" stroke="none" stroke-width="1" stroke-linecap="butt" stroke-linejoin="miter" stroke-miterlimit="4" fill="#62A430" fill-opacity="1"/><path d="M128.7 79.6C120.9 73.4 111.1 69.8 100.5 69.8 90.7 69.8 81.2 73.1 73.4 79.1 72.3 79.8 69.4 81.9 69.4 84.9L69.4 98.1C69.4 118.5 82.6 135.9 100.5 141.8 118.5 135.8 131.6 118.5 131.6 97.9L131.6 84.7C131.7 82.7 131 81.5 128.7 79.6ZM94.6 82.4C94.6 80 97 78 100 78 103 78 105.4 79.9 105.4 82.4L105.4 111.4C105.4 113.8 102.9 115.8 100 115.8 97.1 115.8 94.6 113.9 94.6 111.4L94.6 82.4ZM100.5 132.8C96.8 132.8 93.8 129.8 93.8 126.1 93.8 122.4 96.8 119.4 100.5 119.4 104.2 119.4 107.2 122.4 107.2 126.1 107.2 129.7 104.2 132.8 100.5 132.8Z" class="MsftOfcThm_Accent1_Fill_v2" stroke="none" stroke-width="1" stroke-linecap="butt" stroke-linejoin="miter" stroke-miterlimit="4" fill="#62A430" fill-opacity="1"/></svg>