<?xml version="1.0" encoding="UTF-8" standalone="yes"?><svg xmlns="http://www.w3.org/2000/svg" xmlns:xlink="http://www.w3.org/1999/xlink" version="1.2" baseProfile="tiny" x="0" y="0" width="255" height="255" viewBox="0 0 256 256"><defs><linearGradient id="wps{7a34d87c-c45c-4584-965e-ef520fe2be70}_solid@Accent1_0.00@Accent1_0.00" x1="0" y1="0.5" x2="1" y2="0.5" spreadMethod="pad" gradientUnits="userSpaceOnUse"><stop offset="0" stop-color="#62a430" stop-opacity="1"/><stop offset="1" stop-color="#62a430" stop-opacity="1"/></linearGradient></defs><defs/><defs/><g fill="none" fill-rule="evenodd" stroke="#000000" stroke-width="1" stroke-linejoin="bevel" stroke-linecap="square"><g fill="none" font-family="微软雅黑" font-size="12" font-style="normal" font-weight="400" stroke="#000000" stroke-width="1" stroke-linejoin="bevel" stroke-linecap="square" stroke-opacity="1" transform="matrix(0.0666667,0,0,0.0666667,0.933333,0.933333)"/><g fill="none" font-family="微软雅黑" font-size="12" font-style="normal" font-weight="400" stroke="#000000" stroke-width="1" stroke-linejoin="bevel" stroke-linecap="square" stroke-opacity="1" transform="matrix(0.0666667,0,0,0.0666667,0,0)"/><g fill="none" font-family="微软雅黑" font-size="12" font-style="normal" font-weight="400" stroke="#000000" stroke-width="1" stroke-linejoin="bevel" stroke-linecap="square" stroke-opacity="1" transform="matrix(0.0666667,0,0,0.0666667,0,0)"/><g fill="none" font-family="微软雅黑" font-size="12" font-style="normal" font-weight="400" stroke="#000000" stroke-width="1" stroke-linejoin="bevel" stroke-linecap="square" stroke-opacity="1" transform="matrix(0.0666667,0,0,0.0666667,0,0)"/><g fill="none" font-family="微软雅黑" font-size="12" font-style="normal" font-weight="400" stroke="#000000" stroke-width="1" stroke-linejoin="bevel" stroke-linecap="square" stroke-opacity="1" transform="matrix(0.0666667,0,0,0.0666667,0,0)"/><g fill="none" font-family="微软雅黑" font-size="12" font-style="normal" font-weight="400" stroke="#000000" stroke-width="1" stroke-linejoin="bevel" stroke-linecap="square" stroke-opacity="1" transform="matrix(0.0666667,0,0,0.0666667,0,0)"/><g fill="#333333" fill-opacity="1" font-family="Arial" font-size="16" font-style="normal" font-weight="400" stroke="none" transform="matrix(0.278188,0,0,0.278188,-14.4644,-14.4658)"><path fill="#bfdc98" fill-opacity="1" vector-effect="none" d="M 512 52 C 299.32 52 102.7 109.2 102.7 164.36 C 102.7 219.52 299.32 276.71 512 276.71 C 724.68 276.71 921.3 219.51 921.3 164.36 C 921.3 109.21 724.67 52 512 52 Z"/></g><g fill="#333333" fill-opacity="1" font-family="Arial" font-size="16" font-style="normal" font-weight="400" stroke="none" transform="matrix(0.278188,0,0,0.278188,-14.4644,-14.4658)"><path fill="#bfdc98" fill-opacity="1" vector-effect="none" d="M 921.3 164.36 L 921.3 314.17 C 921.3 369.32 724.67 426.52 512 426.52 C 299.33 426.52 102.7 369.32 102.7 314.17 L 102.7 164.36 C 102.7 219.51 299.32 276.71 512 276.71 C 724.68 276.71 921.3 219.51 921.3 164.36 M 909.51 314.17 L 909.51 203.66 C 847.19 254.11 672 288.5 512 288.5 C 352 288.5 176.81 254.11 114.5 203.66 L 114.5 314.17 C 114.5 353.72 285.2 414.73 512 414.73 C 738.8 414.73 909.51 353.72 909.51 314.17"/></g><g fill="#333333" fill-opacity="1" font-family="Arial" font-size="16" font-style="normal" font-weight="400" stroke="none" transform="matrix(0.278188,0,0,0.278188,-14.4644,-14.4658)"><path fill="#bfdc98" fill-opacity="1" vector-effect="none" d="M 878.74 391.71 C 788.8 434.57 631.23 455.07 512 455.07 C 392.77 455.07 235.2 434.57 145.25 391.71 C 118.47 406.15 102.69 421.71 102.69 437.1 C 102.69 492.25 299.31 549.45 511.99 549.45 C 724.67 549.45 921.29 492.25 921.29 437.1 C 921.3 421.68 905.52 406.15 878.74 391.71 Z"/></g><g fill="#333333" fill-opacity="1" font-family="Arial" font-size="16" font-style="normal" font-weight="400" stroke="none" transform="matrix(0.278188,0,0,0.278188,-14.4644,-14.4658)"><path fill="#bfdc98" fill-opacity="1" vector-effect="none" d="M 921.3 437.1 L 921.3 586.9 C 921.3 642.06 724.67 699.26 512 699.26 C 299.33 699.26 102.7 642.06 102.7 586.9 L 102.7 437.1 C 102.7 492.25 299.32 549.45 512 549.45 C 724.68 549.45 921.3 492.25 921.3 437.1 M 909.51 586.9 L 909.51 476.39 C 847.19 526.86 672 561.25 512 561.25 C 352 561.25 176.81 526.86 114.5 476.39 L 114.5 586.9 C 114.5 626.46 285.2 687.47 512 687.47 C 738.8 687.47 909.51 626.46 909.51 586.9"/></g><g fill="#333333" fill-opacity="1" font-family="Arial" font-size="16" font-style="normal" font-weight="400" stroke="none" transform="matrix(0.278188,0,0,0.278188,-14.4644,-14.4658)"><path fill="#bfdc98" fill-opacity="1" vector-effect="none" d="M 878.73 664.44 C 788.79 707.29 631.23 727.8 512 727.8 C 392.77 727.8 235.21 707.29 145.25 664.44 C 118.47 678.89 102.69 694.44 102.69 709.83 C 102.7 765 299.32 822.19 512 822.19 C 724.68 822.19 921.3 765 921.3 709.83 C 921.3 694.42 905.51 678.89 878.73 664.44 Z"/></g><g fill="#333333" fill-opacity="1" font-family="Arial" font-size="16" font-style="normal" font-weight="400" stroke="none" transform="matrix(0.278188,0,0,0.278188,-14.4644,-14.4658)"><path fill="#bfdc98" fill-opacity="1" vector-effect="none" d="M 921.3 709.83 L 921.3 859.65 C 921.3 914.8 724.67 972 512 972 C 299.33 972 102.7 914.8 102.7 859.65 L 102.7 709.83 C 102.7 765 299.32 822.19 512 822.19 C 724.68 822.19 921.3 765 921.3 709.83 M 909.51 859.65 L 909.51 749.14 C 847.19 799.59 672 834 512 834 C 352 834 176.81 799.61 114.5 749.16 L 114.5 859.65 C 114.5 899.2 285.2 960.2 512 960.2 C 738.8 960.2 909.51 899.2 909.51 859.65"/></g><g fill="none" font-family="微软雅黑" font-size="12" font-style="normal" font-weight="400" stroke="#000000" stroke-width="1" stroke-linejoin="bevel" stroke-linecap="square" stroke-opacity="1" transform="matrix(0.0666667,0,0,0.0666667,0,0)"/><g fill="none" font-family="微软雅黑" font-size="12" font-style="normal" font-weight="400" stroke="#000000" stroke-width="1" stroke-linejoin="bevel" stroke-linecap="square" stroke-opacity="1" transform="matrix(0.0666667,0,0,0.0666667,0,0)"/><g fill="none" font-family="微软雅黑" font-size="12" font-style="normal" font-weight="400" stroke="#000000" stroke-width="1" stroke-linejoin="bevel" stroke-linecap="square" stroke-opacity="1" transform="matrix(0.0666667,0,0,0.0666667,0,0)"/><g fill="none" font-family="微软雅黑" font-size="12" font-style="normal" font-weight="400" stroke="#000000" stroke-width="1" stroke-linejoin="bevel" stroke-linecap="square" stroke-opacity="1" transform="matrix(0.0666667,0,0,0.0666667,0,0)"/><g fill="none" font-family="微软雅黑" font-size="12" font-style="normal" font-weight="400" stroke="#000000" stroke-width="1" stroke-linejoin="bevel" stroke-linecap="square" stroke-opacity="1" transform="matrix(0.0666667,0,0,0.0666667,0,0)"/><g fill="none" font-family="微软雅黑" font-size="12" font-style="normal" font-weight="400" stroke="#000000" stroke-width="1" stroke-linejoin="bevel" stroke-linecap="square" stroke-opacity="1" transform="matrix(0.0666667,0,0,0.0666667,0,0)"/><g fill="none" font-family="微软雅黑" font-size="12" font-style="normal" font-weight="400" stroke="#000000" stroke-width="1" stroke-linejoin="bevel" stroke-linecap="square" stroke-opacity="1" transform="matrix(0.0666667,0,0,0.0666667,0.933333,0.933333)"/></g></svg>
