<?xml version='1.0' encoding='utf-8'?>
<!-- Generator: Adobe Illustrator 23.0.0, SVG Export Plug-In . SVG Version: 6.00 Build 0)  -->
<svg style="enable-background:new 0 0 1024 1024;" xml:space="preserve" id="图层_1" xmlns="http://www.w3.org/2000/svg" x="0px" viewBox="0 0 256 256" xmlns:xlink="http://www.w3.org/1999/xlink" y="0px" width="256" height="256" version="1.1">
    <style type="text/css">&#xd;
	.st0{fill-rule:evenodd;clip-rule:evenodd;fill:#95573A;}&#xd;
	.st1{fill:#271202;}&#xd;
	.st2{fill-rule:evenodd;clip-rule:evenodd;fill:#FAC7A2;}&#xd;
	.st3{fill-rule:evenodd;clip-rule:evenodd;fill:#93D5F0;}&#xd;
	.st4{fill-rule:evenodd;clip-rule:evenodd;fill:#4BB9E6;}&#xd;
	.st5{fill-rule:evenodd;clip-rule:evenodd;fill:#EAEAEA;}&#xd;
	.st6{fill-rule:evenodd;clip-rule:evenodd;fill:#271202;}&#xd;
	.st7{fill-rule:evenodd;clip-rule:evenodd;fill:#FFB72E;}&#xd;
	.st8{fill-rule:evenodd;clip-rule:evenodd;fill:#D9D9D9;}&#xd;
	.st9{fill-rule:evenodd;clip-rule:evenodd;fill:#1C97C9;}&#xd;
	.st10{fill-rule:evenodd;clip-rule:evenodd;fill:#BFBFBF;}&#xd;
	.st11{fill-rule:evenodd;clip-rule:evenodd;fill:#D3D3D3;}&#xd;
</style>
    <g transform="matrix(0.31067961,0,0,0.31067961,-32.372396,-31.067961)">
        <g>
            <g>
                <path class="st0" d="M395.2,104h30.6c90.7,0,164.2,73.4,164.2,164v368H231V268C231,177.4,304.5,104,395.2,104z"/>
            </g>
            <g>
                <path class="st1" d="M590,640H231c-2.2,0-4-1.8-4-4V268c0-92.7,75.5-168,168.2-168h30.6c92.8,0,168.2,75.4,168.2,168v368&#xd;&#xa;&#x9;&#x9;&#x9;C594,638.2,592.2,640,590,640z M235,632h351V268c0-88.3-71.9-160.1-160.2-160.1h-30.6C306.9,108,235,179.8,235,268V632z"/>
            </g>
            <g>
                <path class="st2" d="M358.5,478h103.9v45.6c0,10.2,6.2,19,15.1,22.8l4.5,1.4V602H339v-54.2l4.5-1.4c8.9-3.8,15.1-12.5,15.1-22.8&#xd;&#xa;&#x9;&#x9;&#x9;V478z"/>
            </g>
            <g>
                <path class="st1" d="M482,606H339c-2.2,0-4-1.8-4-4v-54.2c0-1.8,1.1-3.3,2.8-3.8l4.3-1.3c7.6-3.3,12.5-10.7,12.5-19V478&#xd;&#xa;&#x9;&#x9;&#x9;c0-2.2,1.8-4,4-4h103.9c2.2,0,4,1.8,4,4v45.6c0,8.3,4.9,15.7,12.5,19l4.3,1.3c1.7,0.5,2.8,2.1,2.8,3.8V602&#xd;&#xa;&#x9;&#x9;&#x9;C486,604.2,484.2,606,482,606z M343,598h135v-47.3l-1.7-0.5c-0.1,0-0.3-0.1-0.4-0.1c-10.6-4.5-17.5-14.9-17.5-26.4V482h-95.9v41.6&#xd;&#xa;&#x9;&#x9;&#x9;c0,11.6-6.9,21.9-17.5,26.4c-0.1,0.1-0.2,0.1-0.4,0.1l-1.7,0.5V598z M343.5,546.4L343.5,546.4L343.5,546.4z"/>
            </g>
            <g>
                <path class="st3" d="M329,565h13.4l66.5,66.9l66.5-66.9H489l123.5,29.2c31.5,7.5,53.5,33.6,53.5,63.5v258.3c0,2.2-1.9,3.9-4.3,3.9&#xd;&#xa;&#x9;&#x9;&#x9;H156.3c-2.4,0-4.3-1.8-4.3-3.9V657.7c0-29.9,22-56,53.5-63.5L329,565z"/>
            </g>
            <g>
                <path class="st4" d="M638.5,604l7.7,5.6c14.2,12.1,22.8,29.3,22.8,48v258.4c0,2.2-1.9,3.9-4.3,3.9H158.3c-2.4,0-4.3-1.8-4.3-3.9&#xd;&#xa;&#x9;&#x9;&#x9;v-8.7h496c2.4,0,4.3-1.8,4.3-3.9V645c0-15-5.5-29-15-40.2L638.5,604z"/>
            </g>
            <g>
                <path class="st1" d="M661.7,924H156.3c-4.6,0-8.3-3.6-8.3-7.9V657.7c0-31.8,23.3-59.5,56.6-67.4l123.5-29.2&#xd;&#xa;&#x9;&#x9;&#x9;c0.3-0.1,0.6-0.1,0.9-0.1h13.4c1.1,0,2.1,0.4,2.8,1.2l63.7,64l63.7-64c0.8-0.8,1.8-1.2,2.8-1.2H489c0.3,0,0.6,0,0.9,0.1&#xd;&#xa;&#x9;&#x9;&#x9;l123.5,29.2c33.3,7.9,56.6,35.6,56.6,67.4v258.3C670,920.4,666.3,924,661.7,924z M156,915.9c0.1,0,0.1,0.1,0.3,0.1h505.4&#xd;&#xa;&#x9;&#x9;&#x9;c0.1,0,0.2,0,0.3-0.1V657.7c0-28.1-20.7-52.6-50.4-59.6L488.5,569h-11.3l-65.4,65.7c-0.8,0.8-1.8,1.2-2.8,1.2s-2.1-0.4-2.8-1.2&#xd;&#xa;&#x9;&#x9;&#x9;L340.8,569h-11.3l-123.1,29.1c-29.7,7-50.4,31.5-50.4,59.6V915.9z"/>
            </g>
            <g>
                <path class="st1" d="M241,921.7c-2.2,0-4-1.8-4-4V702c0-2.2,1.8-4,4-4s4,1.8,4,4v215.7C245,919.9,243.2,921.7,241,921.7z"/>
            </g>
            <g>
                <path class="st1" d="M578,921.7c-2.2,0-4-1.8-4-4V702c0-2.2,1.8-4,4-4s4,1.8,4,4v215.7C582,919.9,580.2,921.7,578,921.7z"/>
            </g>
            <g>
                <path class="st5" d="M386,607c0-4.4,3.6-8,8-8h32c4.4,0,8,3.6,8,8v98c0,4.4-3.6,8-8,8h-32c-4.4,0-8-3.6-8-8V607z"/>
            </g>
            <g>
                <path class="st1" d="M426,717h-32c-6.6,0-12-5.4-12-12v-98c0-6.6,5.4-12,12-12h32c6.6,0,12,5.4,12,12v98&#xd;&#xa;&#x9;&#x9;&#x9;C438,711.6,432.6,717,426,717z M394,603c-2.2,0-4,1.8-4,4v98c0,2.2,1.8,4,4,4h32c2.2,0,4-1.8,4-4v-98c0-2.2-1.8-4-4-4H394z"/>
            </g>
            <g>
                <path class="st5" d="M307.2,567.4c-1.7-1.8-1.6-4.7,0.2-6.4l31.2-29.3c1.8-1.7,4.7-1.6,6.4,0.2l60,64.1c1.7,1.8,1.6,4.7-0.2,6.4&#xd;&#xa;&#x9;&#x9;&#x9;l-31.2,29.3c-1.8,1.7-4.7,1.6-6.4-0.2L307.2,567.4z"/>
            </g>
            <g>
                <path class="st5" d="M513.6,567.4c1.7-1.8,1.6-4.7-0.2-6.4l-31.2-29.3c-1.8-1.7-4.7-1.6-6.4,0.2l-60,64.1&#xd;&#xa;&#x9;&#x9;&#x9;c-1.7,1.8-1.6,4.7,0.2,6.4l31.2,29.3c1.8,1.7,4.7,1.6,6.4-0.2L513.6,567.4z"/>
            </g>
            <g>
                <path class="st1" d="M370.5,636.9c-0.1,0-0.2,0-0.3,0c-2.3-0.1-4.4-1-5.9-2.7l-60-64.1c0,0,0,0,0,0c-3.2-3.4-3-8.8,0.4-12&#xd;&#xa;&#x9;&#x9;&#x9;l31.2-29.3c1.7-1.6,3.8-2.4,6.1-2.3c2.3,0.1,4.4,1,5.9,2.7l60,64.1c1.6,1.7,2.4,3.8,2.3,6.1c-0.1,2.3-1,4.4-2.7,5.9l-31.2,29.3&#xd;&#xa;&#x9;&#x9;&#x9;C374.8,636,372.7,636.9,370.5,636.9z M310.1,564.6l60,64.1c0.1,0.1,0.2,0.2,0.4,0.2c0.1,0,0.3,0,0.4-0.1l31.2-29.3&#xd;&#xa;&#x9;&#x9;&#x9;c0.1-0.1,0.2-0.2,0.2-0.4c0-0.1,0-0.3-0.1-0.4l-60-64.1c-0.1-0.1-0.2-0.2-0.4-0.2c-0.1,0-0.3,0-0.4,0.1l-31.2,29.3&#xd;&#xa;&#x9;&#x9;&#x9;C309.9,564.1,309.9,564.4,310.1,564.6L310.1,564.6z"/>
            </g>
            <g>
                <path class="st1" d="M450.3,636.9c-2.1,0-4.2-0.8-5.8-2.3l-31.2-29.3c-3.4-3.2-3.6-8.6-0.4-12l60-64.1c3.2-3.4,8.6-3.6,12-0.4&#xd;&#xa;&#x9;&#x9;&#x9;l31.2,29.3c3.4,3.2,3.6,8.6,0.4,12l0,0l-60,64.1C454.8,636,452.5,636.9,450.3,636.9z M479.1,534.5c-0.1,0-0.3,0.1-0.4,0.2&#xd;&#xa;&#x9;&#x9;&#x9;l-60,64.1c-0.2,0.2-0.2,0.5,0,0.7l31.2,29.3c0.2,0.2,0.5,0.2,0.7,0l60-64.1c0.2-0.2,0.2-0.5,0-0.7l-31.2-29.3&#xd;&#xa;&#x9;&#x9;&#x9;C479.3,534.5,479.2,534.5,479.1,534.5z M513.6,567.4L513.6,567.4L513.6,567.4z"/>
            </g>
            <g>
                <path class="st6" d="M403,664c0-3.9,3.1-7,7-7s7,3.1,7,7s-3.1,7-7,7S403,667.9,403,664z"/>
            </g>
            <g>
                <path class="st6" d="M403,687c0-3.9,3.1-7,7-7s7,3.1,7,7s-3.1,7-7,7S403,690.9,403,687z"/>
            </g>
            <g>
                <path class="st7" d="M275,689.5c0-2.5,2-4.5,4.5-4.5h65c2.5,0,4.5,2,4.5,4.5v18c0,2.5-2,4.5-4.5,4.5h-65c-2.5,0-4.5-2-4.5-4.5&#xd;&#xa;&#x9;&#x9;&#x9;V689.5z"/>
            </g>
            <g>
                <path class="st1" d="M344.5,716h-65c-4.7,0-8.5-3.8-8.5-8.5v-18c0-4.7,3.8-8.5,8.5-8.5h65c4.7,0,8.5,3.8,8.5,8.5v18&#xd;&#xa;&#x9;&#x9;&#x9;C353,712.2,349.2,716,344.5,716z M279.5,689c-0.3,0-0.5,0.2-0.5,0.5v18c0,0.3,0.2,0.5,0.5,0.5h65c0.3,0,0.5-0.2,0.5-0.5v-18&#xd;&#xa;&#x9;&#x9;&#x9;c0-0.3-0.2-0.5-0.5-0.5H279.5z"/>
            </g>
            <g>
                <path class="st2" d="M477,238l10.4,2.6c14.5,4.3,27.7,9.9,39.2,16.7l6.5,4.3l0.1,0.2c3.8,12.1,5.8,24.9,5.8,38.3&#xd;&#xa;&#x9;&#x9;&#x9;c0,26.7,0,53.5,0,80.2c0,71.1-57.5,128.7-128.5,128.7l0,0c-71,0-128.5-57.6-128.5-128.7V313l24.5,1.3&#xd;&#xa;&#x9;&#x9;&#x9;c83.5,0,153.1-30.8,169.2-71.8L477,238z"/>
            </g>
            <g>
                <path class="st1" d="M410.5,513C337.4,513,278,453.5,278,380.3V313c0-1.1,0.5-2.1,1.2-2.9c0.8-0.8,1.9-1.2,3-1.1l24.4,1.3&#xd;&#xa;&#x9;&#x9;&#x9;c80,0,149.4-29.1,165.3-69.1l1.2-4.2c0.6-2.1,2.7-3.3,4.8-2.8l10.4,2.6c0,0,0.1,0,0.1,0c14.8,4.3,28.3,10.1,40.1,17.1&#xd;&#xa;&#x9;&#x9;&#x9;c0.1,0,0.1,0.1,0.2,0.1l6.5,4.3c0.7,0.5,1.3,1.2,1.6,2l0.1,0.2c0,0.1,0,0.1,0.1,0.2c4,12.7,6,26,6,39.4v80.2&#xd;&#xa;&#x9;&#x9;&#x9;C543,453.5,483.6,513,410.5,513z M286,317.2v63.2c0,68.7,55.9,124.7,124.5,124.7S535,449.1,535,380.3v-80.2&#xd;&#xa;&#x9;&#x9;&#x9;c0-12.2-1.8-24.3-5.2-35.9l-5.3-3.5c-11.2-6.6-24-12.1-38.1-16.3l-6.6-1.7l-0.2,0.7c0,0.1-0.1,0.2-0.1,0.3&#xd;&#xa;&#x9;&#x9;&#x9;c-8.3,21-30.1,40-61.5,53.5c-31.3,13.5-70.9,20.9-111.4,20.9c-0.1,0-0.1,0-0.2,0L286,317.2z M475.7,242.4L475.7,242.4L475.7,242.4&#xd;&#xa;&#x9;&#x9;&#x9;z"/>
            </g>
            <g>
                <path class="st8" d="M411,125c89.5,0,162,72.7,162,162.3v9.7h-19.1v-5.4c0-79.1-64-143.2-142.9-143.2s-142.9,64.1-142.9,143.2v5.4&#xd;&#xa;&#x9;&#x9;&#x9;H249v-9.7C249,197.7,321.5,125,411,125z"/>
            </g>
            <g>
                <path class="st1" d="M573,301h-19.1c-2.2,0-4-1.8-4-4v-5.4c0-76.7-62.3-139.2-138.9-139.2c-76.6,0-138.9,62.4-138.9,139.2v5.4&#xd;&#xa;&#x9;&#x9;&#x9;c0,2.2-1.8,4-4,4H249c-2.2,0-4-1.8-4-4v-9.7c0-91.7,74.5-166.3,166-166.3s166,74.6,166,166.3v9.7C577,299.2,575.2,301,573,301z&#xd;&#xa;&#x9;&#x9;&#x9; M557.9,293H569v-5.7C569,200,498.1,129,411,129s-158,71-158,158.3v5.7h11.1v-1.4c0-81.1,65.9-147.2,146.9-147.2&#xd;&#xa;&#x9;&#x9;&#x9;c81,0,146.9,66,146.9,147.2V293z"/>
            </g>
            <g>
                <path class="st4" d="M223.7,326h5.3v66h-5.3c-12.5,0-22.7-10.3-22.7-23v-20C201,336.3,211.2,326,223.7,326z"/>
            </g>
            <g>
                <path class="st9" d="M219.6,322h3.4v67h-5.4c-6.4,0-12.2-2.6-16.4-6.8l-2.2-3.3l6.1,4.2c2.8,1.2,5.8,1.8,9,1.8h0.8&#xd;&#xa;&#x9;&#x9;&#x9;c2.5,0,4.6-2.1,4.6-4.6V322z"/>
            </g>
            <g>
                <path class="st1" d="M229,396h-5.3c-14.7,0-26.7-12.1-26.7-27v-20c0-14.9,12-27,26.7-27h5.3c2.2,0,4,1.8,4,4v66&#xd;&#xa;&#x9;&#x9;&#x9;C233,394.2,231.2,396,229,396z M223.7,330c-10.3,0-18.7,8.5-18.7,19v20c0,10.5,8.4,19,18.7,19h1.3v-58H223.7z"/>
            </g>
            <g>
                <path class="st4" d="M226,308c0-5.5,4.5-10,10-10h40c5.5,0,10,4.5,10,10v102c0,5.5-4.5,10-10,10h-40c-5.5,0-10-4.5-10-10V308z"/>
            </g>
            <g>
                <path class="st9" d="M277.7,296l2.4,1.6c1.8,1.8,2.9,4.3,2.9,7.1V408c0,5.5-4.5,10-10,10h-39.8c-4.1,0-7.7-2.5-9.2-6.1l-0.1-0.3&#xd;&#xa;&#x9;&#x9;&#x9;l0.8,0.5c1.2,0.5,2.5,0.8,3.9,0.8h39.8c5.5,0,10-4.5,10-10V299.6L277.7,296z"/>
            </g>
            <g>
                <path class="st1" d="M276,424h-40c-7.7,0-14-6.3-14-14V308c0-7.7,6.3-14,14-14h40c7.7,0,14,6.3,14,14v102&#xd;&#xa;&#x9;&#x9;&#x9;C290,417.7,283.7,424,276,424z M236,302c-3.3,0-6,2.7-6,6v102c0,3.3,2.7,6,6,6h40c3.3,0,6-2.7,6-6V308c0-3.3-2.7-6-6-6H236z"/>
            </g>
            <g>
                <path class="st4" d="M599.3,329H594v66h5.3c12.5,0,22.7-10.3,22.7-23v-20C622,339.3,611.8,329,599.3,329z"/>
            </g>
            <g>
                <path class="st9" d="M609.9,334l1.5,1c4.1,4.2,6.7,10,6.7,16.4v20.3c0,12.8-10.2,23.3-22.7,23.3H590v-3.4h2.3&#xd;&#xa;&#x9;&#x9;&#x9;c12.5,0,22.7-10.4,22.7-23.3v-20.3c0-3.2-0.6-6.3-1.8-9.1L609.9,334z"/>
            </g>
            <g>
                <path class="st1" d="M599.3,399H594c-2.2,0-4-1.8-4-4v-66c0-2.2,1.8-4,4-4h5.3c14.7,0,26.7,12.1,26.7,27v20&#xd;&#xa;&#x9;&#x9;&#x9;C626,386.9,614,399,599.3,399z M598,391h1.3c10.3,0,18.7-8.5,18.7-19v-20c0-10.5-8.4-19-18.7-19H598V391z"/>
            </g>
            <g>
                <path class="st4" d="M597,311c0-5.5-4.5-10-10-10h-40c-5.5,0-10,4.5-10,10v102c0,5.5,4.5,10,10,10h40c5.5,0,10-4.5,10-10V311z"/>
            </g>
            <g>
                <path class="st9" d="M588.7,300l2.4,1.6c1.8,1.8,2.9,4.3,2.9,7v102.5c0,5.5-4.5,9.9-10,9.9h-39.8c-4.1,0-7.7-2.5-9.2-6l-0.1-0.3&#xd;&#xa;&#x9;&#x9;&#x9;l0.8,0.5c1.2,0.5,2.5,0.8,3.9,0.8h39.8c5.5,0,10-4.4,10-9.9V303.5L588.7,300z"/>
            </g>
            <g>
                <path class="st1" d="M587,427h-40c-7.7,0-14-6.3-14-14V311c0-7.7,6.3-14,14-14h40c7.7,0,14,6.3,14,14v102&#xd;&#xa;&#x9;&#x9;&#x9;C601,420.7,594.7,427,587,427z M547,305c-3.3,0-6,2.7-6,6v102c0,3.3,2.7,6,6,6h40c3.3,0,6-2.7,6-6V311c0-3.3-2.7-6-6-6H547z"/>
            </g>
            <g>
                <path class="st1" d="M431,507c-1.9,0-3.6-1.4-3.9-3.3c-0.4-2.2,1-4.3,3.2-4.7l114.4-20.9c8.9-1.6,15.3-9.4,15.3-18.5V424&#xd;&#xa;&#x9;&#x9;&#x9;c0-2.2,1.8-4,4-4s4,1.8,4,4v35.7c0,13-9.2,24-21.9,26.4l-114.4,20.9C431.5,507,431.2,507,431,507z"/>
            </g>
            <g>
                <path class="st10" d="M403.9,507.8c-1.3-7,3.4-13.8,10.4-15l18.8-3.4c7-1.3,13.8,3.4,15,10.4l0,0c1.3,7-3.4,13.8-10.4,15&#xd;&#xa;&#x9;&#x9;&#x9;l-18.8,3.4C411.9,519.5,405.1,514.8,403.9,507.8z"/>
            </g>
            <g>
                <path class="st1" d="M416.5,522.4c-3.4,0-6.7-1-9.6-3c-3.7-2.6-6.2-6.4-7-10.9c0,0,0,0,0,0c-1.7-9.2,4.4-18,13.6-19.7l18.8-3.4&#xd;&#xa;&#x9;&#x9;&#x9;c4.4-0.8,8.9,0.2,12.7,2.7c3.7,2.6,6.2,6.4,7,10.9c1.7,9.2-4.4,18-13.6,19.7l-18.8,3.4C418.6,522.3,417.6,522.4,416.5,522.4z&#xd;&#xa;&#x9;&#x9;&#x9; M407.8,507.1c0.4,2.3,1.7,4.4,3.7,5.7c2,1.4,4.3,1.9,6.7,1.4l18.8-3.4c4.8-0.9,8.1-5.5,7.2-10.4c-0.4-2.3-1.7-4.4-3.7-5.7&#xd;&#xa;&#x9;&#x9;&#x9;c-2-1.4-4.3-1.9-6.7-1.4l-18.8,3.4C410.1,497.6,406.9,502.2,407.8,507.1L407.8,507.1z"/>
            </g>
            <g>
                <path class="st6" d="M333,360c0-7.7,6.3-14,14-14s14,6.3,14,14s-6.3,14-14,14S333,367.7,333,360z"/>
            </g>
            <g>
                <path class="st1" d="M347,378c-9.9,0-18-8.1-18-18s8.1-18,18-18s18,8.1,18,18S356.9,378,347,378z M347,350c-5.5,0-10,4.5-10,10&#xd;&#xa;&#x9;&#x9;&#x9;s4.5,10,10,10s10-4.5,10-10S352.5,350,347,350z"/>
            </g>
            <g>
                <path class="st6" d="M460,360c0-7.7,6.3-14,14-14s14,6.3,14,14s-6.3,14-14,14S460,367.7,460,360z"/>
            </g>
            <g>
                <path class="st1" d="M474,378c-9.9,0-18-8.1-18-18s8.1-18,18-18s18,8.1,18,18S483.9,378,474,378z M474,350c-5.5,0-10,4.5-10,10&#xd;&#xa;&#x9;&#x9;&#x9;s4.5,10,10,10s10-4.5,10-10S479.5,350,474,350z"/>
            </g>
            <g>
                <path class="st1" d="M410.5,457c-18.2,0-34.7-7.8-41.9-19.9c-1.1-1.9-0.5-4.4,1.4-5.5s4.4-0.5,5.5,1.4&#xd;&#xa;&#x9;&#x9;&#x9;c5.8,9.8,19.6,16.1,35.1,16.1s29.2-6.3,35.1-16.1c1.1-1.9,3.6-2.5,5.5-1.4c1.9,1.1,2.5,3.6,1.4,5.5&#xd;&#xa;&#x9;&#x9;&#x9;C445.2,449.2,428.7,457,410.5,457z"/>
            </g>
            <g>
                <path class="st5" d="M825.5,615.1c-2-0.2-3.5-0.2-4.5,0.2c-2.6,0.6-6.9,5.5-12.9,14.8c-1.8,2.5-4.3,6.1-7.5,10.7&#xd;&#xa;&#x9;&#x9;&#x9;c-3.2,4.6-6.1,8.8-8.8,12.6c-2.7,3.8-5.2,7.3-7.7,10.6c-0.5,0.5-1.9,2.1-4.2,4.9c-2.4,2.7-4.1,5.1-5.3,7c-1.2,1.9-1.9,3.9-2.1,5.8&#xd;&#xa;&#x9;&#x9;&#x9;c-0.3,2.8,1.3,6.5,4.9,11.2c3.5,4.6,7.5,9,11.8,13c4.3,4,8.3,8.2,11.9,12.6c3.6,4.4,5.2,7.8,5,10.3c-0.1,1.3-0.7,2.8-1.6,4.6&#xd;&#xa;&#x9;&#x9;&#x9;c-0.9,1.8-1.7,3.2-2.2,4.1c-0.6,0.9-1.7,2.5-3.5,4.7c-1.7,2.2-2.7,3.5-2.9,3.7c-12.7,18.1-26.7,33.3-41.9,45.6&#xd;&#xa;&#x9;&#x9;&#x9;c-15.2,12.3-33,22.7-53.4,31.4c-0.3,0.1-1.7,0.8-4.3,2c-2.5,1.2-4.3,2-5.4,2.4c-1,0.4-2.5,0.8-4.5,1.3c-2,0.5-3.6,0.7-4.9,0.6&#xd;&#xa;&#x9;&#x9;&#x9;c-2.5-0.3-5.5-2.6-9-7c-3.5-4.4-6.8-9.2-9.8-14.3c-3-5.1-6.4-9.8-10.2-14.3c-3.8-4.5-7.1-6.8-9.9-7.1c-2-0.2-4,0.1-6.2,0.8&#xd;&#xa;&#x9;&#x9;&#x9;c-2.1,0.8-4.8,2-8,3.7c-3.2,1.7-5,2.7-5.7,3.1c-3.7,1.7-7.7,3.5-12,5.3c-4.2,1.8-9,3.8-14.2,6c-5.2,2.1-9.2,3.8-12,5.1&#xd;&#xa;&#x9;&#x9;&#x9;c-10.3,3.9-16.1,7-17.2,9.5c-0.5,1-0.9,2.4-1.1,4.4c-0.4,3.8-0.2,8.8,0.5,15.1c0.8,6.3,1.7,11.2,2.9,14.9c2.2,7.3,10,15.7,23.3,25&#xd;&#xa;&#x9;&#x9;&#x9;c12.4,8.6,25.1,13.5,38,14.9c3.8,0.4,7.5,0.5,11.1,0.4c3.6-0.1,7.8-0.6,12.4-1.3c4.6-0.8,8.1-1.5,10.3-2c2.3-0.6,6.3-1.6,12.1-3.1&#xd;&#xa;&#x9;&#x9;&#x9;c5.9-1.5,9.4-2.4,10.7-2.7c14.3-3.4,27.2-8,38.7-13.6c19.1-9.2,39.3-22.3,60.5-39.5c21.2-17.1,38.3-34.1,51.3-50.9&#xd;&#xa;&#x9;&#x9;&#x9;c7.9-10.1,15-21.8,21.4-35c0.6-1.2,2.2-4.5,4.9-9.9c2.7-5.4,4.6-9.1,5.6-11.2c1-2.1,2.4-5.3,4.1-9.7c1.7-4.4,3-8.3,3.9-11.8&#xd;&#xa;&#x9;&#x9;&#x9;c0.9-3.5,1.5-7.2,1.9-11c1.4-12.9-0.8-26.4-6.6-40.3c-6.3-15-12.9-24.4-19.6-28.1c-3.4-1.9-8-3.9-14-6&#xd;&#xa;&#x9;&#x9;&#x9;C834.2,616.7,829.3,615.5,825.5,615.1z"/>
            </g>
            <g>
                <path class="st1" d="M741.8,652.6c-2,0-3.7-1.4-4-3.4c-1.9-13.9,1.6-27.7,10.1-38.9c8.4-11.2,20.7-18.4,34.6-20.4&#xd;&#xa;&#x9;&#x9;&#x9;c2.4-0.3,4.9-0.5,7.4-0.5c2.2,0,4,1.8,4,4c0,2.2-1.8,4-4,4c0,0-0.1,0-0.1,0c-2.1,0-4.1,0.1-6.2,0.4c-11.8,1.6-22.2,7.8-29.4,17.3&#xd;&#xa;&#x9;&#x9;&#x9;c-7.2,9.5-10.2,21.2-8.6,33c0.3,2.2-1.2,4.2-3.4,4.5C742.2,652.6,742,652.6,741.8,652.6z"/>
            </g>
            <g>
                <path class="st1" d="M721.4,652c-2,0-3.7-1.4-4-3.4c-5.2-37.6,21-72.4,58.6-77.6c3.2-0.4,6.5-0.7,9.7-0.7c2.2,0,4,1.8,4,4&#xd;&#xa;&#x9;&#x9;&#x9;c0,2.2-1.8,4-4,4c-0.1,0-0.1,0-0.2,0c-2.8,0-5.6,0.2-8.4,0.6c-33.2,4.6-56.4,35.4-51.8,68.6c0.3,2.2-1.2,4.2-3.4,4.5&#xd;&#xa;&#x9;&#x9;&#x9;C721.8,652,721.6,652,721.4,652z"/>
            </g>
            <g>
                <path class="st1" d="M766,650.1c-2,0-3.7-1.4-4-3.4c-2.3-16.8,9.4-32.4,26.2-34.8c1.4-0.2,2.9-0.3,4.3-0.3c2.2,0,4,1.8,4,4&#xd;&#xa;&#x9;&#x9;&#x9;c0,2.2-1.8,4-4,4c0,0-0.1,0-0.1,0c-1,0-2.1,0.1-3.1,0.2c-12.4,1.7-21.2,13.3-19.4,25.7c0.3,2.2-1.2,4.2-3.4,4.5&#xd;&#xa;&#x9;&#x9;&#x9;C766.4,650,766.2,650.1,766,650.1z"/>
            </g>
            <g>
                <path class="st11" d="M643.4,786.1l0.9,0.2c2.3,1,4.9,3.2,7.7,6.5c3.8,4.4,7.2,9.2,10.2,14.3c3,5.1,6.3,9.8,9.8,14.3l0.3,0.3&#xd;&#xa;&#x9;&#x9;&#x9;l-1.6-0.5c-2.1-1-4.4-3.1-7.1-6.4c-3.5-4.4-6.8-9.2-9.8-14.3c-3-5.1-6.4-9.8-10.2-14.3L643.4,786.1z M851.7,623.1l1.8,0.9&#xd;&#xa;&#x9;&#x9;&#x9;c6.7,3.7,13.2,13.1,19.6,28.1c5.8,14,8,27.4,6.6,40.3c-0.4,3.8-1.1,7.5-1.9,11c-0.9,3.5-2.2,7.5-3.9,11.8&#xd;&#xa;&#x9;&#x9;&#x9;c-1.8,4.4-3.1,7.6-4.1,9.7c-1,2.1-2.9,5.8-5.6,11.2c-2.7,5.4-4.3,8.7-4.9,9.9c-6.4,13.2-13.5,24.9-21.4,35&#xd;&#xa;&#x9;&#x9;&#x9;c-13,16.8-30.1,33.7-51.3,50.9c-21.2,17.1-41.4,30.3-60.5,39.5c-11.5,5.6-24.4,10.1-38.7,13.6c-1.3,0.3-4.9,1.2-10.7,2.7&#xd;&#xa;&#x9;&#x9;&#x9;c-5.8,1.5-9.9,2.5-12.1,3.1c-2.3,0.5-5.7,1.2-10.3,2c-4.6,0.8-8.8,1.2-12.4,1.3c-3.6,0.1-7.4,0-11.1-0.4&#xd;&#xa;&#x9;&#x9;&#x9;c-12.9-1.4-25.6-6.4-38-14.9c-3.3-2.3-6.3-4.6-9-6.8l-1.2-1.1l1.8,1.3c12.4,8.6,25.1,13.5,38,14.9c3.8,0.4,7.5,0.5,11.1,0.4&#xd;&#xa;&#x9;&#x9;&#x9;c3.6-0.1,7.8-0.6,12.4-1.3c4.6-0.8,8.1-1.5,10.3-2c2.3-0.6,6.3-1.6,12.1-3.1c5.9-1.5,9.4-2.4,10.7-2.7c14.3-3.4,27.2-8,38.7-13.6&#xd;&#xa;&#x9;&#x9;&#x9;c19.1-9.2,39.3-22.3,60.5-39.5c21.2-17.1,38.3-34.1,51.3-50.9c7.9-10.1,15-21.8,21.4-35c0.6-1.2,2.2-4.5,4.9-9.9&#xd;&#xa;&#x9;&#x9;&#x9;c2.7-5.4,4.6-9.1,5.6-11.2c1-2.1,2.4-5.3,4.1-9.7c1.7-4.4,3-8.3,3.9-11.8c0.9-3.5,1.5-7.2,1.9-11c1.4-12.9-0.8-26.4-6.6-40.3&#xd;&#xa;&#x9;&#x9;&#x9;c-3.2-7.5-6.4-13.6-9.7-18.3L851.7,623.1z"/>
            </g>
            <g>
                <path class="st1" d="M639.9,898.8c-3,0-6.1-0.2-9.2-0.5c-13.5-1.4-26.9-6.7-39.9-15.6c-14.3-10-22.4-18.9-24.9-27.2&#xd;&#xa;&#x9;&#x9;&#x9;c-1.2-3.8-2.2-8.9-3-15.6c-0.8-6.6-1-11.8-0.5-16c0.3-2.5,0.7-4.3,1.5-5.7c1.3-2.7,4.6-5.9,19.3-11.4c2.9-1.3,7-3,12-5.1&#xd;&#xa;&#x9;&#x9;&#x9;c5.7-2.4,10.1-4.2,14.1-5.9c4.5-1.9,8.3-3.6,11.7-5.2c0.7-0.4,2-1.2,5.6-3.1c3.2-1.8,6.1-3.1,8.5-4c2.8-1,5.4-1.3,7.9-1.1&#xd;&#xa;&#x9;&#x9;&#x9;c3.9,0.4,8,3.2,12.5,8.5c3.9,4.6,7.5,9.6,10.6,14.8c3,5,6.1,9.6,9.5,13.8c4,5.1,6,5.5,6.3,5.5c0.5,0,1.5,0.1,3.4-0.5&#xd;&#xa;&#x9;&#x9;&#x9;c2.2-0.6,3.5-1,4.1-1.2c0.7-0.2,2-0.8,5-2.3c3.4-1.7,4.2-2,4.5-2.1c19.9-8.4,37.5-18.8,52.4-30.8c14.9-12,28.7-27.1,41.1-44.7&#xd;&#xa;&#x9;&#x9;&#x9;c0.2-0.3,0.7-1,3-4c1.6-2.1,2.7-3.6,3.2-4.4c0.4-0.6,1-1.7,2-3.8c0.9-1.8,1.1-2.8,1.2-3.3c0-0.4,0-2.4-4.1-7.4&#xd;&#xa;&#x9;&#x9;&#x9;c-3.4-4.1-7.3-8.2-11.5-12.2c-4.5-4.1-8.6-8.7-12.3-13.5c-4.2-5.5-6.1-10.1-5.7-14c0.3-2.5,1.2-5,2.7-7.5c1.4-2.2,3.3-4.7,5.7-7.5&#xd;&#xa;&#x9;&#x9;&#x9;c2.6-3.1,3.7-4.3,4.2-4.8c2.2-3,4.7-6.3,7.5-10.3c2.8-3.9,5.9-8.3,8.8-12.5c3.1-4.5,5.6-8.1,7.5-10.7&#xd;&#xa;&#x9;&#x9;&#x9;c8.4-13.2,12.3-15.7,15.2-16.4c1.6-0.4,3.5-0.5,5.9-0.3l0,0c4.2,0.4,9.2,1.7,15.5,3.9c6.3,2.2,11.1,4.2,14.6,6.3&#xd;&#xa;&#x9;&#x9;&#x9;c7.5,4.1,14.5,14,21.3,30c6,14.6,8.3,28.8,6.9,42.3c-0.4,3.9-1.1,7.8-2,11.5c-0.9,3.7-2.2,7.7-4.1,12.4c-1.8,4.5-3.2,7.7-4.2,9.9&#xd;&#xa;&#x9;&#x9;&#x9;c-1.2,2.5-3.3,6.6-5.6,11.3c-3.3,6.6-4.4,8.9-4.8,9.8c0,0,0,0.1,0,0.1c-6.5,13.4-13.8,25.4-21.9,35.7c-13.2,17-30.6,34.3-52,51.5&#xd;&#xa;&#x9;&#x9;&#x9;c-21.3,17.2-41.9,30.7-61.3,39.9c-11.8,5.7-25.1,10.4-39.5,13.8c0,0-0.1,0-0.1,0c-0.9,0.2-3.4,0.8-10.6,2.6&#xd;&#xa;&#x9;&#x9;&#x9;c-6.9,1.8-10.6,2.7-12.2,3.1c-2.4,0.6-5.8,1.2-10.6,2.1c-4.9,0.8-9.2,1.3-13,1.4C641.6,898.8,640.8,898.8,639.9,898.8z&#xd;&#xa;&#x9;&#x9;&#x9; M571.1,821.7c0,0.1-0.1,0.1-0.1,0.2c-0.1,0.1-0.4,0.8-0.6,2.9c-0.4,3.5-0.2,8.3,0.5,14.2c0.7,6,1.7,10.8,2.7,14.2&#xd;&#xa;&#x9;&#x9;&#x9;c1.3,4.5,6.2,12,21.8,23c11.8,8.1,24,12.9,36.2,14.2c3.5,0.4,7.1,0.5,10.6,0.4c3.4-0.1,7.3-0.5,11.9-1.3c4.5-0.8,7.9-1.4,10.1-1.9&#xd;&#xa;&#x9;&#x9;&#x9;c2.6-0.6,7-1.8,12.1-3.1c5.8-1.5,9.4-2.4,10.8-2.7c13.9-3.3,26.6-7.8,37.9-13.3c18.8-9,38.9-22.1,59.8-39&#xd;&#xa;&#x9;&#x9;&#x9;c20.8-16.8,37.9-33.7,50.7-50.2c7.7-9.9,14.8-21.4,21-34.2c0.6-1.4,2.3-4.7,4.9-10c2.3-4.6,4.3-8.7,5.6-11.2c0.9-2,2.3-5.2,4-9.4&#xd;&#xa;&#x9;&#x9;&#x9;c1.7-4.3,2.9-8,3.7-11.3c0.8-3.4,1.4-6.9,1.8-10.4c1.3-12.2-0.8-25.1-6.3-38.4c-7.4-17.5-13.8-23.9-17.8-26.1&#xd;&#xa;&#x9;&#x9;&#x9;c-3.1-1.8-7.6-3.7-13.3-5.7c-5.6-1.9-10.2-3.1-13.7-3.5c0,0,0,0,0,0c-2-0.2-2.8,0-2.9,0c-0.1,0-0.1,0-0.2,0.1&#xd;&#xa;&#x9;&#x9;&#x9;c-0.4,0.2-3.2,1.7-10.5,13.1c0,0.1-0.1,0.1-0.1,0.2c-1.9,2.6-4.4,6.2-7.5,10.6c-3,4.3-6.1,8.7-8.9,12.6c-2.9,4.1-5.5,7.6-7.8,10.7&#xd;&#xa;&#x9;&#x9;&#x9;c-0.1,0.1-0.2,0.3-0.3,0.4c-0.4,0.4-1.7,2-4.1,4.7c-2.2,2.5-3.9,4.7-5,6.5c-0.9,1.4-1.4,2.8-1.5,4.1c-0.1,0.6,0,3,4.1,8.3&#xd;&#xa;&#x9;&#x9;&#x9;c3.4,4.5,7.2,8.7,11.4,12.5c4.5,4.2,8.6,8.5,12.3,13c4.4,5.3,6.3,9.6,5.9,13.3c-0.2,1.8-0.8,3.8-2,6c-0.9,1.9-1.7,3.4-2.4,4.5&#xd;&#xa;&#x9;&#x9;&#x9;c-0.6,1-1.8,2.6-3.7,5c-2.3,2.9-2.7,3.5-2.7,3.5c0,0,0,0-0.1,0.1c-12.8,18.3-27.2,33.9-42.7,46.4c-15.5,12.5-33.8,23.2-54.4,31.9&#xd;&#xa;&#x9;&#x9;&#x9;c-0.1,0-0.1,0-0.2,0.1c0,0,0,0,0,0c0,0-0.6,0.3-3.9,1.9c-2.7,1.3-4.5,2.1-5.7,2.6c-1.2,0.4-2.9,0.9-4.9,1.4&#xd;&#xa;&#x9;&#x9;&#x9;c-2.4,0.6-4.5,0.8-6.3,0.7c-3.7-0.4-7.5-3.1-11.8-8.5c-3.5-4.5-6.9-9.4-10.1-14.7c-2.9-4.9-6.2-9.5-9.8-13.7&#xd;&#xa;&#x9;&#x9;&#x9;c-4.3-5.1-6.6-5.7-7.3-5.8c-1.3-0.1-2.8,0.1-4.4,0.6c-2,0.7-4.5,1.9-7.4,3.5c-3.1,1.7-5,2.7-5.4,3c-0.1,0.1-0.3,0.2-0.5,0.2&#xd;&#xa;&#x9;&#x9;&#x9;c-3.5,1.6-7.4,3.4-12.1,5.4c-4,1.7-8.4,3.6-14.2,6c-5.1,2.1-9.1,3.8-12,5.1c-0.1,0-0.1,0.1-0.2,0.1&#xd;&#xa;&#x9;&#x9;&#x9;C573.4,819,571.3,821.4,571.1,821.7z M571.1,821.7C571.1,821.7,571.1,821.7,571.1,821.7C571.1,821.7,571.1,821.7,571.1,821.7z&#xd;&#xa;&#x9;&#x9;&#x9; M859.9,746.8L859.9,746.8L859.9,746.8z M821.9,619.2C821.9,619.2,821.9,619.2,821.9,619.2C821.9,619.2,821.9,619.2,821.9,619.2z"/>
            </g>
        </g>
    </g>
</svg>
