<?xml version='1.0' encoding='iso-8859-1'?>
<!-- Generator: Adobe Illustrator 22.0.0, SVG Export Plug-In . SVG Version: 6.00 Build 0)  -->
<svg xmlns="http://www.w3.org/2000/svg" xmlns:xlink="http://www.w3.org/1999/xlink" x="0px" height="256" version="1.1" style="enable-background:new 0 0 1024 1024;" width="256" y="0px" xml:space="preserve" viewBox="0 0 256 256">
    <g transform="matrix(0.28444444,0,0,0.28444444,-17.635556,-17.635556)">
        <g id="&#x8bbe;&#x8ba1;">
            <g>
                <g>
                    <g>
                        <path style="fill:#AAAFB9;" d="M560,960H96c-17.673,0-32-14.327-32-32V96c0-17.673,14.327-32,32-32h464&#xd;&#xa;&#x9;&#x9;&#x9;&#x9;&#x9;c17.673,0,32,14.327,32,32v832C592,945.673,577.673,960,560,960z"/>
                        <path style="fill:#1E1E1E;" d="M560,962H96c-18.748,0-34-15.252-34-34V96c0-18.748,15.252-34,34-34h464&#xd;&#xa;&#x9;&#x9;&#x9;&#x9;&#x9;c18.748,0,34,15.252,34,34v832C594,946.748,578.748,962,560,962z M96,66c-16.542,0-30,13.458-30,30v832&#xd;&#xa;&#x9;&#x9;&#x9;&#x9;&#x9;c0,16.542,13.458,30,30,30h464c16.542,0,30-13.458,30-30V96c0-16.542-13.458-30-30-30H96z"/>
                    </g>
                    <g>
                        <rect x="96" height="736" style="fill:#EBF6FA;" width="464" y="128"/>
                        <path style="fill:#1E1E1E;" d="M562,866H94V126h468V866z M98,862h460V130H98V862z"/>
                    </g>
                    <g>
                        <circle r="32" cy="912" style="fill:#EBF6FA;" cx="328"/>
                        <path style="fill:#1E1E1E;" d="M328,946c-18.748,0-34-15.252-34-34s15.252-34,34-34s34,15.252,34,34S346.748,946,328,946z&#xd;&#xa;&#x9;&#x9;&#x9;&#x9;&#x9; M328,882c-16.542,0-30,13.458-30,30s13.458,30,30,30s30-13.458,30-30S344.542,882,328,882z"/>
                    </g>
                    <g>
                        <rect x="256" height="4" style="fill:#1E1E1E;" width="144" y="94"/>
                    </g>
                </g>
                <g>
                    <g>
                        <g>
                            <polygon points="960,736 448,736 448,480 704,288 960,480 &#x9;&#x9;&#x9;&#x9;&#x9;" style="fill:#82E1E6;"/>
                            <path style="fill:#1E1E1E;" d="M960,738H448c-1.104,0-2-0.896-2-2V480c0-0.629,0.297-1.222,0.8-1.6l256-192&#xd;&#xa;&#x9;&#x9;&#x9;&#x9;&#x9;&#x9;c0.711-0.533,1.689-0.533,2.4,0l256,192c0.503,0.378,0.8,0.971,0.8,1.6v256C962,737.104,961.104,738,960,738z M450,734h508V481&#xd;&#xa;&#x9;&#x9;&#x9;&#x9;&#x9;&#x9;L704,290.5L450,481V734z"/>
                        </g>
                        <g>
                            <polygon points="786.581,736 448,736 448,480 &#x9;&#x9;&#x9;&#x9;&#x9;" style="fill:#C8F0F0;"/>
                            <path style="fill:#1E1E1E;" d="M786.581,738H448c-1.104,0-2-0.896-2-2V480c0-0.759,0.43-1.453,1.109-1.791&#xd;&#xa;&#x9;&#x9;&#x9;&#x9;&#x9;&#x9;c0.681-0.338,1.492-0.261,2.097,0.195l338.581,256c0.686,0.518,0.964,1.417,0.69,2.231S787.44,738,786.581,738z M450,734&#xd;&#xa;&#x9;&#x9;&#x9;&#x9;&#x9;&#x9;h330.62L450,484.02V734z"/>
                        </g>
                        <g>
                            <polygon points="621.419,736 960,736 960,480 &#x9;&#x9;&#x9;&#x9;&#x9;" style="fill:#C8F0F0;"/>
                            <path style="fill:#1E1E1E;" d="M960,738H621.419c-0.859,0-1.623-0.549-1.896-1.364s0.005-1.713,0.69-2.231l338.581-256&#xd;&#xa;&#x9;&#x9;&#x9;&#x9;&#x9;&#x9;c0.604-0.458,1.416-0.535,2.097-0.195c0.68,0.338,1.109,1.032,1.109,1.791v256C962,737.104,961.104,738,960,738z M627.38,734&#xd;&#xa;&#x9;&#x9;&#x9;&#x9;&#x9;&#x9;H958V484.02L627.38,734z"/>
                        </g>
                        <g>
                            <polygon points="960,736 448,736 448,719.484 646.194,570.839 761.806,570.839 960,719.484 &#x9;&#x9;&#x9;&#x9;&#x9;" style="fill:#C8F0F0;"/>
                            <path style="fill:#1E1E1E;" d="M960,738H448c-1.104,0-2-0.896-2-2v-16.516c0-0.629,0.297-1.222,0.8-1.6l198.193-148.645&#xd;&#xa;&#x9;&#x9;&#x9;&#x9;&#x9;&#x9;c0.347-0.26,0.768-0.4,1.2-0.4h115.613c0.433,0,0.854,0.14,1.2,0.4L961.2,717.884c0.503,0.378,0.8,0.971,0.8,1.6V736&#xd;&#xa;&#x9;&#x9;&#x9;&#x9;&#x9;&#x9;C962,737.104,961.104,738,960,738z M450,734h508v-13.516L761.14,572.839H646.86L450,720.484V734z"/>
                        </g>
                    </g>
                    <g>
                        <g>
                            <circle r="144" cy="400" style="fill:#FFE182;" cx="704"/>
                            <path style="fill:#1E1E1E;" d="M704,546c-80.505,0-146-65.495-146-146s65.495-146,146-146s146,65.495,146,146&#xd;&#xa;&#x9;&#x9;&#x9;&#x9;&#x9;&#x9;S784.505,546,704,546z M704,258c-78.299,0-142,63.701-142,142s63.701,142,142,142s142-63.701,142-142S782.299,258,704,258z"/>
                        </g>
                        <g>
                            <polygon points="704,386.829 638.586,321.414 641.414,318.586 704,381.171 766.586,318.586 &#xd;&#xa;&#x9;&#x9;&#x9;&#x9;&#x9;&#x9;769.414,321.414 &#x9;&#x9;&#x9;&#x9;&#x9;" style="fill:#1E1E1E;"/>
                            <g>
                                <rect x="702" height="128" style="fill:#1E1E1E;" width="4" y="384"/>
                            </g>
                            <g>
                                <rect x="640" height="4" style="fill:#1E1E1E;" width="128" y="398"/>
                            </g>
                            <g>
                                <rect x="640" height="4" style="fill:#1E1E1E;" width="128" y="446"/>
                            </g>
                        </g>
                    </g>
                </g>
            </g>
        </g>
        <g id="&#x53c2;&#x8003;&#x7ebf;_1_" style="display:none;"/>
    </g>
</svg>
