<svg viewBox="0 0 200 179.2" xmlns="http://www.w3.org/2000/svg" xmlns:xlink="http://www.w3.org/1999/xlink" id="图层_1" overflow="hidden"><style>
.MsftOfcThm_Accent2_Fill_v2 {
 fill:#086245; 
}
</style>
<path d="M22 174.3C9.8 174.3 0 164.4 0 152.3L0 22C0 9.9 9.9 0 22 0L152.2 0C164.4 0 174.2 9.9 174.2 22L174.2 79.4C174.2 81.6 172.4 83.4 170.2 83.4 168 83.4 166.2 81.6 166.2 79.4L166.2 22C166.2 14.3 159.9 8 152.2 8L22 8C14.3 8 8 14.3 8 22L8 152.2C8 159.9 14.3 166.2 22 166.2L74.1 166.2C76.3 166.2 78.1 168 78.1 170.2 78.1 172.4 76.3 174.2 74.1 174.2L22 174.2 22 174.3Z" class="MsftOfcThm_Accent2_Fill_v2" stroke="none" stroke-width="1" stroke-linecap="butt" stroke-linejoin="miter" stroke-miterlimit="4" fill="#086245" fill-opacity="1"/><path d="M93.4 120.5 93.4 103.3C93.4 99.3 97.2 96.6 98.6 95.7 108.7 87.9 121.1 83.6 133.8 83.6 147.5 83.6 160.3 88.3 170.4 96.3 173.3 98.8 174.2 100.3 174.2 103L174.2 120.2C174.2 147 157.2 169.5 133.8 177.3 110.5 169.6 93.4 147 93.4 120.5ZM163.5 103.1C154.7 96.4 144.9 92.8 133.8 92.8 122.8 92.8 112.4 96.4 103.7 103L103.1 103.4 103.1 119.2C103.1 139.8 115.5 158.1 133.8 165.9 152.1 158.1 164.5 139.8 164.5 119L163.5 103.1ZM133.2 97.2C136.6 97.2 139.4 99.4 139.4 102.2L139.4 135.2C139.4 137.9 136.6 140.2 133.2 140.2 129.8 140.2 127 138 127 135.2L127 102.2C127 99.5 129.8 97.2 133.2 97.2L133.2 97.2ZM133.7 159.7C129.5 159.7 126.1 156.3 126.1 152.1 126.1 147.9 129.5 144.5 133.7 144.5 137.9 144.5 141.3 147.9 141.3 152.1 141.4 156.2 138 159.7 133.7 159.7Z" class="MsftOfcThm_Accent2_Fill_v2" stroke="none" stroke-width="1" stroke-linecap="butt" stroke-linejoin="miter" stroke-miterlimit="4" fill="#086245" fill-opacity="1"/><path d="M86 103.9C71.7 103.9 60.1 92.3 60.1 78 60.1 63.7 71.7 52 86 52 100.3 52 111.9 63.6 111.9 77.9L103 77.9C103 68.5 95.4 60.9 86 60.9 76.6 60.9 69 68.5 69 77.9 69 87.3 76.6 94.9 86 94.9 86 94.9 86 94.9 86 94.9L86 103.9Z" class="MsftOfcThm_Accent2_Fill_v2" stroke="none" stroke-width="1" stroke-linecap="butt" stroke-linejoin="miter" stroke-miterlimit="4" fill="#086245" fill-opacity="1"/><path d="M86 137.2 75.7 137.2C71.6 137.2 68.3 133.9 68.3 129.8L68.3 121 62 127.3C60.6 128.7 58.8 129.5 56.8 129.5 54.8 129.5 52.9 128.7 51.5 127.3L36.7 112.5C33.8 109.6 33.8 105 36.7 102.1 36.7 102.1 36.7 102.1 36.7 102.1L43 95.8 34.1 95.8C30 95.8 26.7 92.5 26.7 88.4L26.7 67.6C26.7 63.5 30 60.2 34.1 60.2L42.9 60.2 36.6 53.9C33.7 51 33.7 46.4 36.6 43.5 36.6 43.5 36.6 43.5 36.6 43.5L51.4 28.7C52.8 27.3 54.6 26.5 56.6 26.5L56.7 26.5C58.7 26.5 60.5 27.3 61.9 28.7L68.2 35 68.2 26C68.2 21.9 71.5 18.6 75.6 18.6L96.5 18.6C100.6 18.6 103.9 21.9 103.9 26L103.9 34.8 110.2 28.5C111.6 27.1 113.4 26.3 115.4 26.3 117.4 26.3 119.3 27.1 120.7 28.5L135.5 43.3C138.4 46.2 138.4 50.8 135.5 53.7 135.5 53.7 135.5 53.7 135.5 53.7L129 60 137.9 60C142 60 145.3 63.3 145.3 67.4L145.3 78 136.4 78 136.4 69 121.8 69 120.8 66C120.3 64.6 119.7 63.1 119 61.8L117.6 58.9 127.9 48.6 115.3 36 105 46.3 102.1 44.9C100.7 44.2 99.3 43.7 97.9 43.2L94.9 42.2 94.9 27.5 77 27.5 77 42.1 74 43.1C72.6 43.6 71.1 44.2 69.8 44.9L66.9 46.3 56.6 36.1 44 48.7 54.3 59 52.9 61.9C52.2 63.3 51.7 64.7 51.2 66.1L50.2 69.1 35.6 69.1 35.6 87 50.2 87 51.2 90C51.7 91.4 52.3 92.9 53 94.2L54.4 97.1 44.1 107.4 56.7 120 67 109.7 69.9 111.1C71.3 111.8 72.7 112.3 74.1 112.8L77.1 113.8 77.1 128.3 86 128.3 86 137.2Z" class="MsftOfcThm_Accent2_Fill_v2" stroke="none" stroke-width="1" stroke-linecap="butt" stroke-linejoin="miter" stroke-miterlimit="4" fill="#086245" fill-opacity="1"/></svg>