<svg viewBox="0 0 256 256" height="256" width="256" xmlns="http://www.w3.org/2000/svg">
    <defs>
        <style>.cls-1{isolation:isolate;}.cls-2{fill:#3f4d66;}.cls-3{fill:#40cde0;}.cls-4{opacity:0.2;mix-blend-mode:multiply;}.cls-5{fill:#e3e3e3;}.cls-6{fill:#feffff;}.cls-7{fill:#fae480;}</style>
    </defs>
    <title>移动手机银行</title>
    <g transform="matrix(0.27826087,0,0,0.27826087,-14.469565,-14.469563)">
        <g class="cls-1">
            <g id="图层_1" data-name="图层 1">
                <path d="M52,911.25a52.44,52.44,0,0,0,52.45,52.44H435a52.44,52.44,0,0,0,52.45-52.44V837.48H52Z" class="cls-2"/>
                <polygon class="cls-3" points="463.63 180.84 76.1 180.84 76.1 538.48 76.1 580.22 76.1 837.48 463.63 837.48 463.63 580.22 463.63 180.84"/>
                <g class="cls-4">
                    <polygon class="cls-3" points="463.63 180.84 76.1 180.84 463.63 837.48 463.63 580.22 463.63 180.84"/>
                </g>
                <path d="M487.48,112.75A52.44,52.44,0,0,0,435,60.31H104.45A52.44,52.44,0,0,0,52,112.75v68.09H487.48Z" class="cls-2"/>
                <g class="cls-4">
                    <path d="M434.78,963.69a52.44,52.44,0,0,0,52.45-52.44V837.48H269.49V963.69Z" class="cls-2"/>
                </g>
                <g class="cls-4">
                    <path d="M487.23,112.75a52.44,52.44,0,0,0-52.45-52.44H269.49V180.84H487.23Z" class="cls-2"/>
                </g>
                <rect class="cls-2" height="656.64" x="52" y="180.84" width="24.1"/>
                <rect class="cls-2" height="656.64" x="463.38" y="180.84" width="24.1"/>
                <path d="M293.65,130.68H245.33a10.11,10.11,0,0,1,0-20.21h48.32a10.11,10.11,0,0,1,0,20.21Z" class="cls-5"/>
                <path d="M292.42,923.55H247.06a21.11,21.11,0,0,1-21.12-21.11h0a21.11,21.11,0,0,1,21.12-21.12h45.36a21.12,21.12,0,0,1,21.12,21.12h0A21.12,21.12,0,0,1,292.42,923.55Z" class="cls-5"/>
                <path d="M638.19,236.24a13.57,13.57,0,0,1-13.56-13.56V133.29H510.43a13.57,13.57,0,0,1,0-27.13H638.19a13.57,13.57,0,0,1,13.56,13.56v103A13.57,13.57,0,0,1,638.19,236.24Z" class="cls-2"/>
                <polygon class="cls-2" points="564.45 165.7 518.44 119.72 564.45 73.74 525.41 73.74 479.43 119.72 525.41 165.7 564.45 165.7"/>
                <path d="M638.19,869.49H510.43a13.56,13.56,0,1,1,0-27.12h114.2V753a13.56,13.56,0,1,1,27.12,0v103A13.57,13.57,0,0,1,638.19,869.49Z" class="cls-2"/>
                <polygon class="cls-2" points="564.45 901.9 518.44 855.92 564.45 809.94 525.41 809.94 479.43 855.92 525.41 901.9 564.45 901.9"/>
                <path d="M331.53,765.11a13.58,13.58,0,0,1-9.59-4,13.19,13.19,0,0,1-4-9.59,13.71,13.71,0,0,1,4-9.57,19.39,19.39,0,0,1,2.09-1.73,9.38,9.38,0,0,1,2.35-1.17,11.16,11.16,0,0,1,2.53-.81,13.55,13.55,0,1,1,2.62,26.85Z" class="cls-6"/>
                <path d="M221.87,751.54A13.62,13.62,0,0,1,235.52,738h0a13.6,13.6,0,0,1,13.56,13.56h0a13.61,13.61,0,0,1-13.56,13.57h0A13.62,13.62,0,0,1,221.87,751.54Z" class="cls-6"/>
                <path d="M139.42,765.11a13.56,13.56,0,0,1-9.59-4,13.19,13.19,0,0,1-4-9.59,13.49,13.49,0,0,1,4-9.57A13.71,13.71,0,0,1,142,738.26a11.24,11.24,0,0,1,2.52.81,11,11,0,0,1,2.36,1.17A18.35,18.35,0,0,1,149,742a19.27,19.27,0,0,1,1.72,2.07,17.38,17.38,0,0,1,2,4.88,11.69,11.69,0,0,1,.28,2.62,13.59,13.59,0,0,1-13.56,13.57Z" class="cls-6"/>
                <path d="M125.86,639.17a13.54,13.54,0,0,1,13.56-13.56h0A13.55,13.55,0,0,1,153,639.17h0a13.54,13.54,0,0,1-13.56,13.56h0A13.53,13.53,0,0,1,125.86,639.17Zm0-112.38a13.55,13.55,0,0,1,13.56-13.56h0A13.55,13.55,0,0,1,153,526.79h0a13.54,13.54,0,0,1-13.56,13.56h0A13.53,13.53,0,0,1,125.86,526.79Zm0-112.37a13.53,13.53,0,0,1,13.56-13.56h0A13.54,13.54,0,0,1,153,414.42h0A13.55,13.55,0,0,1,139.42,428h0A13.54,13.54,0,0,1,125.86,414.42Z" class="cls-6"/>
                <path d="M139.42,315.61a13.56,13.56,0,0,1-9.59-4,13.18,13.18,0,0,1-4-9.58A13.54,13.54,0,0,1,142,288.76a22.54,22.54,0,0,1,2.52.71,19.59,19.59,0,0,1,2.36,1.28,17.2,17.2,0,0,1,2.08,1.71,13.72,13.72,0,0,1,4,9.59,13.59,13.59,0,0,1-13.56,13.56Z" class="cls-6"/>
                <path d="M244.29,302.05a13.53,13.53,0,0,1,13.56-13.56h0a13.54,13.54,0,0,1,13.56,13.56h0a13.55,13.55,0,0,1-13.56,13.56h0A13.54,13.54,0,0,1,244.29,302.05Z" class="cls-6"/>
                <path d="M376.28,315.61a14.77,14.77,0,0,1-5.24-1,14.18,14.18,0,0,1-4.34-3,13.15,13.15,0,0,1-4-9.58,12.41,12.41,0,0,1,.27-2.63,22.72,22.72,0,0,1,.72-2.53,18.9,18.9,0,0,1,1.27-2.35,14.08,14.08,0,0,1,3.8-3.79,19.75,19.75,0,0,1,2.26-1.28c.9-.26,1.71-.53,2.62-.71a12.9,12.9,0,0,1,5.25,0,22.54,22.54,0,0,1,2.52.71,22.17,22.17,0,0,1,2.36,1.28,18.79,18.79,0,0,1,2.07,1.71,13.53,13.53,0,0,1,0,19.17,14.46,14.46,0,0,1-4.43,3A14,14,0,0,1,376.28,315.61Z" class="cls-6"/>
                <rect class="cls-7" height="306.91" x="361.29" y="414.17" width="73.84"/>
                <rect class="cls-7" height="306.91" x="521.41" y="414.17" width="73.84"/>
                <rect class="cls-7" height="306.91" x="681.53" y="414.17" width="73.84"/>
                <rect class="cls-7" height="306.91" x="841.65" y="414.17" width="73.84"/>
                <polygon class="cls-7" points="776.94 314.6 638.39 215.03 499.84 314.6 470.43 335.74 361.29 414.17 470.43 414.17 638.39 414.17 915.49 414.17 776.94 314.6"/>
                <polygon class="cls-7" points="470.43 721.08 297.2 721.08 297.2 774.59 470.43 774.59 972 774.59 972 721.08 470.43 721.08"/>
                <g class="cls-4">
                    <rect class="cls-7" height="306.91" x="398.21" y="414.17" width="36.92"/>
                </g>
                <g class="cls-4">
                    <rect class="cls-7" height="306.91" x="558.33" y="414.17" width="36.92"/>
                </g>
                <g class="cls-4">
                    <rect class="cls-7" height="306.91" x="718.45" y="414.17" width="36.92"/>
                </g>
                <g class="cls-4">
                    <rect class="cls-7" height="306.91" x="878.57" y="414.17" width="36.92"/>
                </g>
                <g class="cls-4">
                    <polygon class="cls-7" points="776.94 314.6 638.39 215.03 638.39 414.17 915.49 414.17 776.94 314.6"/>
                </g>
                <g class="cls-4">
                    <polygon class="cls-7" points="470.43 747.84 297.2 747.84 297.2 774.59 470.43 774.59 972 774.59 972 747.84 470.43 747.84"/>
                </g>
                <circle class="cls-2" cy="330.56" cx="638.39" r="26.7"/>
            </g>
        </g>
    </g>
</svg>
