<svg width="255" height="255" viewBox="0 0 256 256" xmlns="http://www.w3.org/2000/svg" xmlns:xlink="http://www.w3.org/1999/xlink" overflow="hidden"><style>
.MsftOfcThm_Accent1_Fill_v2 {
 fill:#62A430; 
}
</style>
<defs></defs><defs></defs><g stroke="#000000" stroke-width="1" stroke-linecap="square" stroke-linejoin="bevel" fill="none" fill-rule="evenodd"><g stroke="#000000" stroke-width="1" stroke-linecap="square" stroke-linejoin="bevel" stroke-opacity="1" fill="none" font-family="微软雅黑" font-style="normal" font-weight="400" font-size="12" transform="matrix(0.0666667 0 0 0.0666667 0.933333 0.933333)"></g><g stroke="#000000" stroke-width="1" stroke-linecap="square" stroke-linejoin="bevel" stroke-opacity="1" fill="none" font-family="微软雅黑" font-style="normal" font-weight="400" font-size="12" transform="scale(0.0666667 0.0666667)"></g><g stroke="#000000" stroke-width="1" stroke-linecap="square" stroke-linejoin="bevel" stroke-opacity="1" fill="none" font-family="微软雅黑" font-style="normal" font-weight="400" font-size="12" transform="scale(0.0666667 0.0666667)"></g><g stroke="#000000" stroke-width="1" stroke-linecap="square" stroke-linejoin="bevel" stroke-opacity="1" fill="none" font-family="微软雅黑" font-style="normal" font-weight="400" font-size="12" transform="scale(0.0666667 0.0666667)"></g><g stroke="#000000" stroke-width="1" stroke-linecap="square" stroke-linejoin="bevel" stroke-opacity="1" fill="none" font-family="微软雅黑" font-style="normal" font-weight="400" font-size="12" transform="scale(0.0666667 0.0666667)"></g><g stroke="#000000" stroke-width="1" stroke-linecap="square" stroke-linejoin="bevel" stroke-opacity="1" fill="none" font-family="微软雅黑" font-style="normal" font-weight="400" font-size="12" transform="scale(0.0666667 0.0666667)"></g><g stroke="none" fill="#333333" fill-opacity="1" font-family="Arial" font-style="normal" font-weight="400" font-size="16" transform="matrix(0.18958 0 0 -0.18958 -14.9139 270.311)"><path d="M611.438 628.313 514.238 628.313C499.324 628.313 487.23 640.383 487.23 655.313 487.23 670.234 499.324 682.313 514.238 682.313L611.438 682.313C640.398 682.313 663.969 705.891 663.969 734.844 663.969 749.766 676.063 761.852 690.977 761.852L743.992 761.852C778.098 761.852 807.227 783.551 818.293 813.871L584.918 813.871C570.004 813.871 557.922 825.957 557.922 840.879 557.922 855.813 570.004 867.887 584.918 867.887L850.039 867.887C864.949 867.887 877.051 855.813 877.051 840.879 877.051 767.52 817.355 707.844 743.992 707.844L714.504 707.844C702.523 662.141 660.859 628.313 611.438 628.313Z" class="MsftOfcThm_Accent1_Fill_v2" stroke="none" stroke-width="1" stroke-linecap="square" stroke-linejoin="bevel" stroke-miterlimit="4" fill="#62A430" fill-opacity="1"/></g><g stroke="none" fill="#333333" fill-opacity="1" font-family="Arial" font-style="normal" font-weight="400" font-size="16" transform="matrix(0.18958 0 0 -0.18958 -14.9139 270.311)"><path d="M360.996 368.871C370.629 359.25 386.309 359.27 395.922 368.871L445.605 418.551C455.23 428.172 455.23 443.871 445.59 453.5L224.496 674.59C214.871 684.188 199.211 684.188 189.578 674.59L139.898 624.902C135.242 620.234 132.676 614.043 132.676 607.441 132.676 600.852 135.23 594.656 139.898 589.988L360.996 368.871M378.445 307.691C358.301 307.691 338.152 315.34 322.809 330.68L101.715 551.797C86.8555 566.648 78.668 586.406 78.668 607.441 78.668 628.469 86.8398 648.223 101.699 663.086L151.395 712.773C182.066 743.469 231.988 743.469 262.68 712.773L483.789 491.68C514.457 460.98 514.457 411.059 483.805 380.371L434.105 330.68C418.762 315.34 398.613 307.691 378.445 307.691" class="MsftOfcThm_Accent1_Fill_v2" stroke="none" stroke-width="1" stroke-linecap="square" stroke-linejoin="bevel" stroke-miterlimit="4" fill="#62A430" fill-opacity="1"/></g><g stroke="none" fill="#333333" fill-opacity="1" font-family="Arial" font-style="normal" font-weight="400" font-size="16" transform="matrix(0.18958 0 0 -0.18958 -14.9139 270.311)"><path d="M243.59 666.672C236.684 666.672 229.77 669.316 224.496 674.59 213.949 685.129 213.949 702.219 224.496 712.773L518.945 1007.21C524.004 1012.27 530.879 1015.11 538.031 1015.11L886.406 1015.11C901.316 1015.11 913.406 1003.04 913.406 988.113 913.406 973.184 901.316 961.109 886.406 961.109L549.219 961.109 262.68 674.59C257.406 669.316 250.504 666.672 243.59 666.672Z" class="MsftOfcThm_Accent1_Fill_v2" stroke="none" stroke-width="1" stroke-linecap="square" stroke-linejoin="bevel" stroke-miterlimit="4" fill="#62A430" fill-opacity="1"/></g><g stroke="none" fill="#333333" fill-opacity="1" font-family="Arial" font-style="normal" font-weight="400" font-size="16" transform="matrix(0.18958 0 0 -0.18958 -14.9139 270.311)"><path d="M501.246 456.871C494.336 456.871 487.41 459.512 482.141 464.789 471.609 475.32 471.609 492.41 482.156 502.961 513.613 534.395 555.426 551.719 599.91 551.719 616.508 551.719 633.031 553.992 649.023 558.508 663.363 562.539 678.301 554.172 682.336 539.805 686.371 525.461 678.004 510.527 663.637 506.504 642.887 500.664 621.445 497.711 599.91 497.711 569.848 497.711 541.598 486.012 520.336 464.789 515.063 459.512 508.152 456.871 501.246 456.871Z" class="MsftOfcThm_Accent1_Fill_v2" stroke="none" stroke-width="1" stroke-linecap="square" stroke-linejoin="bevel" stroke-miterlimit="4" fill="#62A430" fill-opacity="1"/></g><g stroke="none" fill="#333333" fill-opacity="1" font-family="Arial" font-style="normal" font-weight="400" font-size="16" transform="matrix(0.18958 0 0 -0.18958 -14.9139 270.311)"><path d="M475.258 430.859C468.344 430.859 461.441 433.512 456.168 438.781 445.613 449.328 445.613 466.422 456.152 476.961L482.141 502.961C492.688 513.508 509.789 513.508 520.336 502.961 530.883 492.41 530.883 475.32 520.355 464.789L494.363 438.781C489.094 433.512 482.164 430.859 475.258 430.859Z" class="MsftOfcThm_Accent1_Fill_v2" stroke="none" stroke-width="1" stroke-linecap="square" stroke-linejoin="bevel" stroke-miterlimit="4" fill="#62A430" fill-opacity="1"/></g><g stroke="none" fill="#333333" fill-opacity="1" font-family="Arial" font-style="normal" font-weight="400" font-size="16" transform="matrix(0.18958 0 0 -0.18958 -14.9139 270.311)"><path d="M656.523 506.816C655.117 506.816 653.699 506.926 652.273 507.129 637.539 509.48 627.484 523.301 629.809 538.02 641.949 615.039 660.309 684.641 684.359 744.863 689.887 758.707 705.598 765.543 719.465 759.922 733.313 754.387 740.051 738.672 734.527 724.824 711.949 668.328 694.664 602.645 683.152 529.629 681.059 516.309 669.574 506.816 656.523 506.816Z" class="MsftOfcThm_Accent1_Fill_v2" stroke="none" stroke-width="1" stroke-linecap="square" stroke-linejoin="bevel" stroke-miterlimit="4" fill="#62A430" fill-opacity="1"/></g><g stroke="none" fill="#333333" fill-opacity="1" font-family="Arial" font-style="normal" font-weight="400" font-size="16" transform="matrix(0.18958 0 0 -0.18958 -14.9139 270.311)"><path d="M1015.49 215.859C946.73 215.859 881.105 227.859 820.43 251.512 777.141 268.289 730.883 270.141 690.41 256.609L670.691 249.879C651.531 243.629 631.262 248.52 617.313 262.57 603.434 276.57 598.73 296.898 605.023 315.621L605.625 317.582C611.488 335.039 614.531 352.941 614.895 371.469 614.895 373.91 615.059 444.469 629.809 538.02 632.125 552.754 645.93 562.715 660.684 560.508 675.414 558.164 685.473 544.336 683.152 529.629 669.086 440.359 668.895 371.629 668.895 370.949 668.422 346.871 664.602 324.012 657.488 302.441L673.145 307.762C725.766 325.281 784.961 323.16 839.988 301.859 894.453 280.629 953.469 269.871 1015.49 269.871 1077.71 269.871 1136.73 280.629 1190.92 301.84 1246.97 323.48 1304.59 325.602 1357.69 307.82L1373.55 302.41C1366.4 325.039 1362.75 347.48 1362.29 370.422 1362.29 375.551 1359.19 826.746 1123.09 930.855 1113.26 926.82 1102.78 924.719 1092.14 924.719L939.055 924.719C928.418 924.719 917.922 926.82 908.098 930.855 861.777 910.449 821.152 875.113 787.207 825.645 778.801 813.301 762.004 810.16 749.68 818.652 737.371 827.063 734.234 843.891 742.676 856.176 785.566 918.699 838.379 962.324 899.688 985.766 907.742 988.879 916.738 987.926 923.945 983.258 928.633 980.254 933.711 978.715 939.055 978.715L1092.14 978.715C1097.48 978.715 1102.57 980.254 1107.25 983.258 1114.48 987.926 1123.51 988.879 1131.53 985.766 1413.07 877.668 1416.3 391.602 1416.3 370.949 1416.66 353.051 1419.67 335.059 1425.21 318.031L1425.77 316.738C1432.35 296.641 1427.49 276.359 1413.55 262.43 1399.62 248.539 1379.3 243.609 1360.63 249.789L1340.42 256.66C1299.55 270.262 1254.55 268.512 1210.5 251.488 1150.12 227.859 1084.48 215.859 1015.49 215.859Z" class="MsftOfcThm_Accent1_Fill_v2" stroke="none" stroke-width="1" stroke-linecap="square" stroke-linejoin="bevel" stroke-miterlimit="4" fill="#62A430" fill-opacity="1"/></g><g stroke="none" fill="#333333" fill-opacity="1" font-family="Arial" font-style="normal" font-weight="400" font-size="16" transform="matrix(0.18958 0 0 -0.18958 -14.9139 270.311)"><path d="M1015.81 423.539C977.473 423.539 941.465 439.73 920.32 467.602 911.301 479.461 913.621 496.43 925.496 505.449 937.395 514.441 954.324 512.168 963.328 500.254 974.121 486.059 998.496 473.801 1028.7 478.57 1051.59 482.16 1070.29 496.352 1074.17 513.098 1076.47 523.066 1074.27 532.527 1067.59 541.172 1057.37 554.441 1038.34 563.066 1017.93 563.645 953.547 565.52 903.738 606.121 902.078 658.105 901.348 681.758 910.574 704.746 928.086 722.813 949.668 745.102 981.555 757.859 1015.55 757.859 1051.7 757.859 1084.8 743.762 1106.39 719.133 1116.23 707.922 1115.11 690.852 1103.89 681.016 1092.68 671.211 1075.58 672.313 1065.78 683.523 1054.61 696.262 1035.84 703.855 1015.55 703.855 996.367 703.855 978.176 696.895 966.863 685.215 961.746 679.941 955.715 671.23 956.063 659.785 956.758 637.539 985.234 618.633 1019.51 617.645 1056.25 616.543 1090.21 600.305 1110.36 574.16 1126.92 552.676 1132.75 526.648 1126.78 500.906 1117.92 462.672 1081.87 432.238 1037.11 425.199 1029.97 424.09 1022.84 423.539 1015.81 423.539Z" class="MsftOfcThm_Accent1_Fill_v2" stroke="none" stroke-width="1" stroke-linecap="square" stroke-linejoin="bevel" stroke-miterlimit="4" fill="#62A430" fill-opacity="1"/></g><g stroke="none" fill="#333333" fill-opacity="1" font-family="Arial" font-style="normal" font-weight="400" font-size="16" transform="matrix(0.18958 0 0 -0.18958 -14.9139 270.311)"><path d="M1015.55 703.855C1000.63 703.855 988.547 715.938 988.547 730.867L988.547 781.313C988.547 796.234 1000.63 808.313 1015.55 808.313 1030.46 808.313 1042.55 796.234 1042.55 781.313L1042.55 730.867C1042.55 715.938 1030.46 703.855 1015.55 703.855Z" class="MsftOfcThm_Accent1_Fill_v2" stroke="none" stroke-width="1" stroke-linecap="square" stroke-linejoin="bevel" stroke-miterlimit="4" fill="#62A430" fill-opacity="1"/></g><g stroke="none" fill="#333333" fill-opacity="1" font-family="Arial" font-style="normal" font-weight="400" font-size="16" transform="matrix(0.18958 0 0 -0.18958 -14.9139 270.311)"><path d="M1015.55 373.039C1000.63 373.039 988.547 385.121 988.547 400.039L988.547 450.52C988.547 465.441 1000.63 477.52 1015.55 477.52 1030.46 477.52 1042.55 465.441 1042.55 450.52L1042.55 400.039C1042.55 385.121 1030.46 373.039 1015.55 373.039Z" class="MsftOfcThm_Accent1_Fill_v2" stroke="none" stroke-width="1" stroke-linecap="square" stroke-linejoin="bevel" stroke-miterlimit="4" fill="#62A430" fill-opacity="1"/></g><g stroke="none" fill="#333333" fill-opacity="1" font-family="Arial" font-style="normal" font-weight="400" font-size="16" transform="matrix(0.18958 0 0 -0.18958 -14.9139 270.311)"><path d="M939.055 1039.69C924.121 1039.69 911.953 1027.54 911.953 1012.58L911.953 1005.84C911.953 996.602 916.492 988.141 924.094 983.18 928.633 980.254 933.711 978.715 939.055 978.715L1092.14 978.715C1097.48 978.715 1102.57 980.254 1107.25 983.258 1114.7 988.141 1119.23 996.602 1119.23 1005.84L1119.23 1012.58C1119.23 1027.54 1107.08 1039.69 1092.14 1039.69L939.055 1039.69M1092.14 924.719 939.055 924.719C923.398 924.719 908.086 929.246 894.727 937.848 871.648 952.906 857.961 978.277 857.961 1005.84L857.961 1012.58C857.961 1057.3 894.336 1093.7 939.055 1093.7L1092.14 1093.7C1136.87 1093.7 1173.24 1057.3 1173.24 1012.58L1173.24 1005.84C1173.24 978.277 1159.54 952.906 1136.61 937.926 1123.11 929.246 1107.78 924.719 1092.14 924.719" class="MsftOfcThm_Accent1_Fill_v2" stroke="none" stroke-width="1" stroke-linecap="square" stroke-linejoin="bevel" stroke-miterlimit="4" fill="#62A430" fill-opacity="1"/></g><g stroke="none" fill="#333333" fill-opacity="1" font-family="Arial" font-style="normal" font-weight="400" font-size="16" transform="matrix(0.18958 0 0 -0.18958 -14.9139 270.311)"><path d="M1092.08 1039.69C1088.45 1039.69 1084.76 1040.43 1081.21 1041.98 1067.56 1048 1061.38 1063.93 1067.39 1077.59L1123.52 1205.04C1086.77 1192.98 1046.42 1199.63 1015.56 1222.18 984.746 1199.61 944.434 1192.98 907.637 1205.02L963.77 1077.59C969.773 1063.93 963.594 1048 949.949 1041.98 936.316 1035.94 920.344 1042.15 914.348 1055.8L829.719 1247.91C825.188 1258.23 827.512 1270.25 835.559 1278.14 843.613 1286 855.684 1288.03 865.891 1283.25L917.07 1259.26C943.816 1246.78 975.879 1253.71 995.012 1276.26 1000.13 1282.33 1007.66 1285.82 1015.6 1285.82L1015.61 1285.82C1023.54 1285.82 1031.09 1282.3 1036.22 1276.23 1055.25 1253.71 1087.29 1246.7 1114.07 1259.26L1165.26 1283.25C1175.47 1288.03 1187.55 1286 1195.6 1278.11 1203.65 1270.25 1205.97 1258.23 1201.44 1247.91L1116.82 1055.8C1112.36 1045.7 1102.47 1039.69 1092.08 1039.69Z" class="MsftOfcThm_Accent1_Fill_v2" stroke="none" stroke-width="1" stroke-linecap="square" stroke-linejoin="bevel" stroke-miterlimit="4" fill="#62A430" fill-opacity="1"/></g><g stroke="#000000" stroke-width="1" stroke-linecap="square" stroke-linejoin="bevel" stroke-opacity="1" fill="none" font-family="微软雅黑" font-style="normal" font-weight="400" font-size="12" transform="scale(0.0666667 0.0666667)"></g><g stroke="#000000" stroke-width="1" stroke-linecap="square" stroke-linejoin="bevel" stroke-opacity="1" fill="none" font-family="微软雅黑" font-style="normal" font-weight="400" font-size="12" transform="scale(0.0666667 0.0666667)"></g><g stroke="#000000" stroke-width="1" stroke-linecap="square" stroke-linejoin="bevel" stroke-opacity="1" fill="none" font-family="微软雅黑" font-style="normal" font-weight="400" font-size="12" transform="scale(0.0666667 0.0666667)"></g><g stroke="#000000" stroke-width="1" stroke-linecap="square" stroke-linejoin="bevel" stroke-opacity="1" fill="none" font-family="微软雅黑" font-style="normal" font-weight="400" font-size="12" transform="scale(0.0666667 0.0666667)"></g><g stroke="#000000" stroke-width="1" stroke-linecap="square" stroke-linejoin="bevel" stroke-opacity="1" fill="none" font-family="微软雅黑" font-style="normal" font-weight="400" font-size="12" transform="scale(0.0666667 0.0666667)"></g><g stroke="#000000" stroke-width="1" stroke-linecap="square" stroke-linejoin="bevel" stroke-opacity="1" fill="none" font-family="微软雅黑" font-style="normal" font-weight="400" font-size="12" transform="scale(0.0666667 0.0666667)"></g><g stroke="#000000" stroke-width="1" stroke-linecap="square" stroke-linejoin="bevel" stroke-opacity="1" fill="none" font-family="微软雅黑" font-style="normal" font-weight="400" font-size="12" transform="matrix(0.0666667 0 0 0.0666667 0.933333 0.933333)"></g></g></svg>