<?xml version="1.0" encoding="UTF-8" standalone="yes"?><svg xmlns="http://www.w3.org/2000/svg" xmlns:xlink="http://www.w3.org/1999/xlink" version="1.2" baseProfile="tiny" x="0" y="0" width="200" height="170" viewBox="0 0 1202 1024"><defs/><defs/><path fill="#e7b775" fill-opacity="1" stroke="none" stroke-width="1" stroke-dashoffset="1" d="M 422.957 890.435 L 66.7826 890.435 C 29.8996 890.435 -1e-06 860.535 -1e-06 823.652 L 0 66.7826 C 0 29.8996 29.8996 -1e-06 66.7826 -1e-06 L 1135.3 0 C 1172.19 0 1202.09 29.8996 1202.09 66.7826 L 1202.09 823.652 C 1202.09 860.535 1172.19 890.435 1135.3 890.435 L 779.13 890.435 L 779.13 979.478 L 890.435 979.478 C 902.729 979.481 912.693 989.45 912.691 1001.74 C 912.688 1014.03 902.725 1024 890.435 1024 L 311.652 1024 C 299.358 1024 289.393 1014.03 289.396 1001.73 C 289.399 989.444 299.361 979.481 311.652 979.478 L 422.957 979.478 L 422.957 890.435 M 467.478 890.435 L 467.478 979.478 L 734.609 979.478 L 734.609 890.435 L 467.478 890.435 M 1157.57 716.978 L 1157.57 66.7826 C 1157.57 54.4883 1147.6 44.5217 1135.3 44.5217 L 66.7826 44.5217 C 54.4883 44.5217 44.5217 54.4883 44.5217 66.7826 L 44.5217 716.978 L 1157.57 716.978 M 1157.57 761.5 L 44.5217 761.5 L 44.5217 823.652 C 44.5217 835.946 54.4883 845.913 66.7826 845.913 L 1135.3 845.913 C 1147.6 845.913 1157.57 835.946 1157.57 823.652 L 1157.57 761.5 M 926.119 285.028 L 799.165 361.227 C 808.62 396.929 787.342 433.535 751.641 442.989 C 746.083 444.461 740.358 445.21 734.609 445.217 C 698.071 445.221 668.313 415.86 667.826 379.325 L 515.495 335.805 C 502.925 348.842 485.588 356.197 467.478 356.174 C 457.283 356.174 447.644 353.903 438.984 349.807 L 288.612 457.238 C 294.268 493.685 269.307 527.816 232.86 533.471 C 196.413 539.127 162.282 514.166 156.627 477.719 C 150.971 441.272 175.932 407.141 212.379 401.486 C 232.187 398.412 252.328 404.398 267.242 417.792 L 407.062 317.907 C 391.338 284.544 405.637 244.751 439 229.026 C 472.363 213.302 512.156 227.601 527.881 260.964 C 532.852 271.512 534.975 283.178 534.038 294.801 L 682.14 337.096 C 694.797 321.011 714.141 311.63 734.609 311.652 C 749.301 311.652 762.88 316.394 773.921 324.43 L 912.807 241.107 C 914.888 204.283 946.428 176.119 983.252 178.2 C 1020.08 180.281 1048.24 211.821 1046.16 248.645 C 1044.08 285.469 1012.54 313.634 975.714 311.552 C 956.084 310.443 937.94 300.739 926.119 285.028 M 222.609 489.739 C 234.903 489.742 244.872 479.777 244.874 467.483 C 244.877 455.189 234.912 445.22 222.618 445.217 C 222.615 445.217 222.612 445.217 222.609 445.217 C 210.314 445.22 200.35 455.189 200.353 467.483 C 200.355 479.774 210.318 489.737 222.609 489.739 M 467.478 311.652 C 479.773 311.655 489.741 301.69 489.744 289.396 C 489.746 277.102 479.782 267.133 467.488 267.13 C 467.485 267.13 467.481 267.13 467.478 267.13 C 455.184 267.133 445.22 277.102 445.222 289.396 C 445.225 301.687 455.188 311.65 467.478 311.652 M 734.609 400.696 C 746.903 400.698 756.872 390.734 756.874 378.439 C 756.877 366.145 746.912 356.177 734.618 356.174 C 734.615 356.174 734.612 356.174 734.609 356.174 C 722.314 356.176 712.35 366.145 712.352 378.439 C 712.355 390.73 722.318 400.693 734.609 400.696 M 979.478 267.13 C 991.773 267.133 1001.74 257.169 1001.74 244.874 C 1001.75 232.58 991.782 222.611 979.488 222.609 C 979.484 222.609 979.481 222.609 979.478 222.609 C 967.184 222.611 957.219 232.58 957.222 244.874 C 957.225 257.165 967.188 267.128 979.478 267.13 M 445.217 606.609 C 432.923 606.606 422.959 596.637 422.961 584.343 C 422.964 572.052 432.927 562.09 445.217 562.087 L 467.478 562.087 C 479.773 562.09 489.737 572.058 489.734 584.353 C 489.732 596.643 479.769 606.606 467.478 606.609 L 445.217 606.609 M 556.522 606.609 C 544.227 606.606 534.263 596.637 534.266 584.343 C 534.268 572.052 544.231 562.09 556.522 562.087 L 578.783 562.087 C 591.077 562.09 601.041 572.058 601.039 584.353 C 601.036 596.643 591.073 606.606 578.783 606.609 L 556.522 606.609 M 667.826 606.609 C 655.532 606.606 645.567 596.637 645.57 584.343 C 645.573 572.052 655.535 562.09 667.826 562.087 L 690.087 562.087 C 702.381 562.09 712.346 572.058 712.343 584.353 C 712.341 596.643 702.378 606.606 690.087 606.609 L 667.826 606.609 M 779.13 606.609 C 766.836 606.606 756.872 596.637 756.874 584.343 C 756.877 572.052 766.84 562.09 779.13 562.087 L 801.391 562.087 C 813.686 562.09 823.65 572.058 823.647 584.353 C 823.645 596.643 813.682 606.606 801.391 606.609 L 779.13 606.609 M 890.435 606.609 C 878.14 606.606 868.176 596.637 868.179 584.343 C 868.181 572.052 878.144 562.09 890.435 562.087 L 912.696 562.087 C 924.99 562.09 934.954 572.058 934.952 584.353 C 934.949 596.643 924.986 606.606 912.696 606.609 L 890.435 606.609 M 1001.74 606.609 C 989.445 606.606 979.48 596.637 979.483 584.343 C 979.486 572.052 989.448 562.09 1001.74 562.087 L 1024 562.087 C 1036.29 562.09 1046.26 572.058 1046.26 584.353 C 1046.25 596.643 1036.29 606.606 1024 606.609 L 1001.74 606.609"/></svg>
