<svg width="255" height="255" viewBox="0 0 256 256" xmlns="http://www.w3.org/2000/svg" xmlns:xlink="http://www.w3.org/1999/xlink" overflow="hidden"><style>
.MsftOfcThm_Accent1_Fill_v2 {
 fill:#62A430; 
}
</style>
<defs><linearGradient x1="0" y1="0.5" x2="1" y2="0.5" gradientUnits="userSpaceOnUse" spreadMethod="pad" id="wps{abee1bfc-960b-4a4e-913a-76038b53d414}_solid@Accent1_0.00@Accent1_0.00"><stop offset="0" stop-color="#5B9BD5" stop-opacity="1"/><stop offset="1" stop-color="#5B9BD5" stop-opacity="1"/></linearGradient></defs><defs></defs><g stroke="#000000" stroke-width="1" stroke-linecap="square" stroke-linejoin="bevel" fill="none" fill-rule="evenodd"><g stroke="#000000" stroke-width="1" stroke-linecap="square" stroke-linejoin="bevel" stroke-opacity="1" fill="none" font-family="微软雅黑" font-style="normal" font-weight="400" font-size="12" transform="matrix(0.0666667 0 0 0.0666667 0.933333 0.933333)"></g><g stroke="#000000" stroke-width="1" stroke-linecap="square" stroke-linejoin="bevel" stroke-opacity="1" fill="none" font-family="微软雅黑" font-style="normal" font-weight="400" font-size="12" transform="scale(0.0666667 0.0666667)"></g><g stroke="#000000" stroke-width="1" stroke-linecap="square" stroke-linejoin="bevel" stroke-opacity="1" fill="none" font-family="微软雅黑" font-style="normal" font-weight="400" font-size="12" transform="scale(0.0666667 0.0666667)"></g><g stroke="#000000" stroke-width="1" stroke-linecap="square" stroke-linejoin="bevel" stroke-opacity="1" fill="none" font-family="微软雅黑" font-style="normal" font-weight="400" font-size="12" transform="scale(0.0666667 0.0666667)"></g><g stroke="#000000" stroke-width="1" stroke-linecap="square" stroke-linejoin="bevel" stroke-opacity="1" fill="none" font-family="微软雅黑" font-style="normal" font-weight="400" font-size="12" transform="scale(0.0666667 0.0666667)"></g><g stroke="#000000" stroke-width="1" stroke-linecap="square" stroke-linejoin="bevel" stroke-opacity="1" fill="none" font-family="微软雅黑" font-style="normal" font-weight="400" font-size="12" transform="scale(0.0666667 0.0666667)"></g><g stroke="#000000" stroke-width="1" stroke-linecap="butt" stroke-linejoin="miter" stroke-miterlimit="4" stroke-opacity="1" fill="#000000" fill-opacity="1" font-family="Arial" font-style="normal" font-weight="400" font-size="16" transform="matrix(1.23045 0 0 1.23045 -29.5308 -29.5308)"></g><g stroke="none" fill="#333333" fill-opacity="1" font-family="Arial" font-style="normal" font-weight="400" font-size="16" transform="matrix(1.23045 0 0 1.23045 -29.5308 -29.5308)"><path d="M228.53 173.07 27.47 173.07C25.5536 173.07 24 171.516 24 169.6L24 51.73C24 50.8106 24.3659 49.929 25.0169 49.2799 25.668 48.6307 26.5506 48.2673 27.47 48.27L228.53 48.27C229.449 48.2673 230.332 48.6307 230.983 49.2799 231.634 49.929 232 50.8106 232 51.73L232 169.6C232 171.516 230.446 173.07 228.53 173.07M30.93 166.13 225.07 166.13 225.07 55.2 30.93 55.2 30.93 166.13" class="MsftOfcThm_Accent1_Fill_v2" stroke="none" stroke-width="1" stroke-linecap="square" stroke-linejoin="bevel" stroke-miterlimit="4" fill="#62A430" fill-opacity="1"/></g><g stroke="none" fill="#333333" fill-opacity="1" font-family="Arial" font-style="normal" font-weight="400" font-size="16" transform="matrix(1.23045 0 0 1.23045 -29.5308 -29.5308)"><path d="M138.4 207.73 117.6 207.73C115.687 207.73 114.136 206.183 114.13 204.27L114.13 169.6C114.135 167.686 115.686 166.135 117.6 166.13L138.4 166.13C140.314 166.135 141.865 167.686 141.87 169.6L141.87 204.27C141.864 206.183 140.313 207.73 138.4 207.73M121.07 200.8 134.93 200.8 134.93 173.07 121.07 173.07 121.07 200.8" class="MsftOfcThm_Accent1_Fill_v2" stroke="none" stroke-width="1" stroke-linecap="square" stroke-linejoin="bevel" stroke-miterlimit="4" fill="#62A430" fill-opacity="1"/></g><g stroke="none" fill="#333333" fill-opacity="1" font-family="Arial" font-style="normal" font-weight="400" font-size="16" transform="matrix(1.23045 0 0 1.23045 -29.5308 -29.5308)"><path d="M173.07 207.73 82.93 207.73C81.0886 207.631 79.6462 206.109 79.6462 204.265 79.6462 202.421 81.0886 200.899 82.93 200.8L173.07 200.8C174.911 200.899 176.354 202.421 176.354 204.265 176.354 206.109 174.911 207.631 173.07 207.73Z" class="MsftOfcThm_Accent1_Fill_v2" stroke="none" stroke-width="1" stroke-linecap="square" stroke-linejoin="bevel" stroke-miterlimit="4" fill="#62A430" fill-opacity="1"/></g><g stroke="none" fill="#333333" fill-opacity="1" font-family="Arial" font-style="normal" font-weight="400" font-size="16" transform="matrix(1.23045 0 0 1.23045 -29.5308 -29.5308)"><path d="M192.13 154C190.729 153.997 189.467 153.152 188.931 151.857 188.395 150.562 188.691 149.072 189.68 148.08L200.08 137.68C201.433 136.327 203.627 136.327 204.98 137.68 206.333 139.033 206.333 141.227 204.98 142.58L194.58 153C193.93 153.648 193.048 154.008 192.13 154Z" class="MsftOfcThm_Accent1_Fill_v2" stroke="none" stroke-width="1" stroke-linecap="square" stroke-linejoin="bevel" stroke-miterlimit="4" fill="#62A430" fill-opacity="1"/></g><g stroke="none" fill="#333333" fill-opacity="1" font-family="Arial" font-style="normal" font-weight="400" font-size="16" transform="matrix(1.23045 0 0 1.23045 -29.5308 -29.5308)"><path d="M176.53 148.8C175.129 148.797 173.867 147.952 173.331 146.657 172.795 145.362 173.091 143.872 174.08 142.88L194.88 122.08C196.233 120.727 198.427 120.727 199.78 122.08 201.133 123.433 201.133 125.627 199.78 126.98L179 147.78C178.35 148.428 177.468 148.788 176.55 148.78" class="MsftOfcThm_Accent1_Fill_v2" stroke="none" stroke-width="1" stroke-linecap="square" stroke-linejoin="bevel" stroke-miterlimit="4" fill="#62A430" fill-opacity="1"/></g><g stroke="#000000" stroke-width="1" stroke-linecap="butt" stroke-linejoin="miter" stroke-miterlimit="4" stroke-opacity="1" fill="#000000" fill-opacity="1" font-family="Arial" font-style="normal" font-weight="400" font-size="16" transform="matrix(1.23045 0 0 1.23045 -29.5308 -29.5308)"></g><g stroke="#000000" stroke-width="1" stroke-linecap="butt" stroke-linejoin="miter" stroke-miterlimit="4" stroke-opacity="1" fill="#000000" fill-opacity="1" font-family="Arial" font-style="normal" font-weight="400" font-size="16" transform="scale(0.99974 0.99974)"></g><g stroke="#000000" stroke-width="1" stroke-linecap="butt" stroke-linejoin="miter" stroke-miterlimit="4" stroke-opacity="1" fill="#000000" fill-opacity="1" font-family="Arial" font-style="normal" font-weight="400" font-size="16" transform="scale(0.0666667 0.0666667)"></g><g stroke="#000000" stroke-width="1" stroke-linecap="square" stroke-linejoin="bevel" stroke-opacity="1" fill="none" font-family="微软雅黑" font-style="normal" font-weight="400" font-size="12" transform="scale(0.0666667 0.0666667)"></g><g stroke="#000000" stroke-width="1" stroke-linecap="square" stroke-linejoin="bevel" stroke-opacity="1" fill="none" font-family="微软雅黑" font-style="normal" font-weight="400" font-size="12" transform="scale(0.0666667 0.0666667)"></g><g stroke="#000000" stroke-width="1" stroke-linecap="square" stroke-linejoin="bevel" stroke-opacity="1" fill="none" font-family="微软雅黑" font-style="normal" font-weight="400" font-size="12" transform="scale(0.0666667 0.0666667)"></g><g stroke="#000000" stroke-width="1" stroke-linecap="square" stroke-linejoin="bevel" stroke-opacity="1" fill="none" font-family="微软雅黑" font-style="normal" font-weight="400" font-size="12" transform="scale(0.0666667 0.0666667)"></g><g stroke="#000000" stroke-width="1" stroke-linecap="square" stroke-linejoin="bevel" stroke-opacity="1" fill="none" font-family="微软雅黑" font-style="normal" font-weight="400" font-size="12" transform="scale(0.0666667 0.0666667)"></g><g stroke="#000000" stroke-width="1" stroke-linecap="square" stroke-linejoin="bevel" stroke-opacity="1" fill="none" font-family="微软雅黑" font-style="normal" font-weight="400" font-size="12" transform="scale(0.0666667 0.0666667)"></g><g stroke="#000000" stroke-width="1" stroke-linecap="square" stroke-linejoin="bevel" stroke-opacity="1" fill="none" font-family="微软雅黑" font-style="normal" font-weight="400" font-size="12" transform="matrix(0.0666667 0 0 0.0666667 0.933333 0.933333)"></g></g></svg>