<?xml version="1.0" encoding="UTF-8" standalone="yes"?><svg id="svg2" xmlns="http://www.w3.org/2000/svg" xmlns:xlink="http://www.w3.org/1999/xlink" version="1.2" baseProfile="tiny" x="0" y="0" width="256" height="256" viewBox="0 0 256 256"><defs/><defs id="defs6"/><g transform="matrix(0.716416,0,0,0.716416,-15.1542,-15.4966)"><g id="g10" transform="matrix(1.33333,0,0,-1.33333,0,400)"><g id="g12" transform="matrix(0.1,0,0,0.1,0,0)"><path id="path14" fill="#f3ae2b" fill-opacity="1" fill-rule="nonzero" stroke="#075a40" d="M 876.277 1190.36 C 876.277 1263.92 935.906 1323.54 1009.47 1323.54 L 1620.04 1323.54 L 1620.04 1388.6 L 583.594 1388.6 L 583.594 1168.35 L 876.277 1168.35 L 876.277 1190.36 Z"/><path id="path16" fill="#f3ae2b" fill-opacity="1" fill-rule="nonzero" stroke="#075a40" d="M 1620.04 2253.12 L 583.594 2253.12 L 583.594 2473.37 L 1620.04 2473.37 L 1620.04 2253.12 Z"/><path id="path18" fill="none" stroke="#075a40" stroke-width="30" stroke-linejoin="miter" stroke-linecap="butt" stroke-miterlimit="10" stroke-opacity="1" d="M 876.277 1043.51 L 583.594 1043.51"/><path id="path20" fill="none" stroke="#075a40" stroke-width="30" stroke-linejoin="miter" stroke-linecap="butt" stroke-miterlimit="10" stroke-opacity="1" d="M 1620.04 2598.22 L 583.594 2598.22"/><path id="path22" fill="none" stroke="#075a40" stroke-width="30" stroke-linejoin="miter" stroke-linecap="butt" stroke-miterlimit="10" stroke-opacity="1" d="M 876.27 687.832 L 615.766 687.832 C 526.137 687.832 453.48 760.488 453.48 850.121 L 453.48 2660.48 C 453.48 2750.11 526.137 2822.77 615.766 2822.77 L 1587.87 2822.77 C 1677.5 2822.77 1750.16 2750.11 1750.16 2660.48 L 1750.16 1323.55"/><path id="path24" fill="none" stroke="#075a40" stroke-width="30" stroke-linejoin="miter" stroke-linecap="butt" stroke-miterlimit="10" stroke-opacity="1" d="M 973.324 2709.27 L 1230.31 2709.27"/><path id="path26" fill="#4facbf" fill-opacity="1" fill-rule="nonzero" stroke="#075a40" d="M 2543.82 277.43 L 1169.16 277.43 L 1169.16 380.281 L 2543.82 380.281 L 2543.82 277.43 Z"/><path id="path28" fill="#f3ae2b" fill-opacity="1" fill-rule="nonzero" stroke="#075a40" d="M 1213.28 1125.31 C 1213.28 1077.35 1174.4 1038.47 1126.45 1038.47 C 1078.49 1038.47 1039.6 1077.35 1039.6 1125.31 C 1039.6 1173.27 1078.49 1212.15 1126.45 1212.15 C 1174.4 1212.15 1213.28 1173.27 1213.28 1125.31 Z"/><path id="path30" fill="#4facbf" fill-opacity="1" fill-rule="nonzero" stroke="#075a40" d="M 1261.81 1212.15 C 1248.48 1212.15 1235.89 1209.05 1224.6 1203.68 C 1241.79 1182.18 1252.12 1154.97 1252.12 1125.31 C 1252.12 1095.64 1241.79 1068.44 1224.6 1046.94 C 1235.89 1041.56 1248.48 1038.47 1261.81 1038.47 C 1309.77 1038.47 1348.65 1077.35 1348.65 1125.31 C 1348.65 1173.27 1309.77 1212.15 1261.81 1212.15 Z"/><path id="path32" fill="none" stroke="#075a40" stroke-width="30" stroke-linejoin="round" stroke-linecap="round" stroke-miterlimit="10" stroke-opacity="1" d="M 1036.11 668.43 L 1194.13 668.43"/><path id="path34" fill="none" stroke="#075a40" stroke-width="30" stroke-linejoin="round" stroke-linecap="round" stroke-miterlimit="10" stroke-opacity="1" d="M 1335.1 668.43 L 1493.12 668.43"/><path id="path36" fill="none" stroke="#075a40" stroke-width="30" stroke-linejoin="round" stroke-linecap="round" stroke-miterlimit="10" stroke-opacity="1" d="M 1634.09 668.43 L 1792.12 668.43"/><path id="path38" fill="none" stroke="#075a40" stroke-width="30" stroke-linejoin="round" stroke-linecap="round" stroke-miterlimit="10" stroke-opacity="1" d="M 1933.1 668.43 L 2091.11 668.43"/><path id="path40" fill="none" stroke="#075a40" stroke-width="30" stroke-linejoin="round" stroke-linecap="round" stroke-miterlimit="10" stroke-opacity="1" d="M 2189.6 465.641 L 937.617 465.641 C 903.738 465.641 876.277 493.109 876.277 526.98 L 876.277 1262.21 C 876.277 1296.08 903.738 1323.54 937.617 1323.54 L 2189.6 1323.54 C 2223.48 1323.54 2250.94 1296.08 2250.94 1262.21 L 2250.94 526.98 C 2250.94 493.109 2223.48 465.641 2189.6 465.641 Z"/><path id="path42" fill="none" stroke="#075a40" stroke-width="30" stroke-linejoin="round" stroke-linecap="round" stroke-miterlimit="10" stroke-opacity="1" d="M 2250.95 1030.67 L 2451.49 1030.67 C 2502.48 1030.67 2543.82 989.352 2543.82 938.359 L 2543.82 265.09 C 2543.82 214.102 2502.48 172.762 2451.49 172.762 L 1261.47 172.762 C 1210.49 172.762 1169.16 214.102 1169.16 265.09 L 1169.16 465.648"/><path id="path44" fill="#4facbf" fill-opacity="1" fill-rule="nonzero" stroke="#075a40" d="M 2068.33 1038.47 L 1879.79 1038.47 C 1867.2 1038.47 1857 1048.67 1857 1061.26 L 1857 1189.36 C 1857 1201.94 1867.2 1212.15 1879.79 1212.15 L 2068.33 1212.15 C 2080.91 1212.15 2091.11 1201.94 2091.11 1189.36 L 2091.11 1061.26 C 2091.11 1048.67 2080.91 1038.47 2068.33 1038.47 Z"/><path id="path46" fill="#363e53" fill-opacity="1" fill-rule="nonzero" stroke="#075a40" d="M 892.309 1929.32 C 894.348 1925.93 895.367 1921.28 895.367 1915.49 C 895.367 1910.55 894.645 1906.21 893.223 1902.58 C 891.863 1899.08 889.766 1896.22 886.816 1893.82 C 883.789 1891.38 879.734 1889.48 874.773 1888.16 C 869.602 1886.78 863.152 1886.1 855.563 1886.1 L 811.5 1886.1 L 811.5 1942.47 L 854.652 1942.47 C 860.465 1942.47 865.996 1942.1 871.234 1941.36 C 876.133 1940.68 880.461 1939.31 884.082 1937.29 C 887.559 1935.36 890.254 1932.75 892.309 1929.32 M 934.297 1962.08 C 929.883 1967.74 924.586 1972.49 918.539 1976.18 C 912.621 1979.79 906.051 1982.75 898.969 1985 C 891.93 1987.23 884.426 1988.8 876.598 1989.71 C 868.84 1990.56 860.93 1991.02 852.828 1991.02 L 759.594 1991.02 L 759.594 1750.48 L 811.5 1750.48 L 811.5 1837.7 L 854.801 1837.7 C 885.23 1837.7 908.598 1844.27 924.242 1857.25 C 940.145 1870.42 948.207 1890.22 948.207 1916.11 C 948.207 1925.88 946.973 1934.66 944.563 1942.19 C 942.102 1949.8 938.645 1956.48 934.297 1962.08"/><path id="path48" fill="#363e53" fill-opacity="1" fill-rule="nonzero" stroke="#075a40" d="M 1079.67 1862.27 L 1100.18 1918.93 L 1121.85 1862.27 L 1079.67 1862.27 M 1076.6 1991.02 L 984.234 1750.48 L 1039.4 1750.48 L 1063.54 1816.76 L 1138.62 1816.76 L 1163.96 1750.48 L 1221.66 1750.48 L 1123.75 1991.02 L 1076.6 1991.02"/><path id="path50" fill="#363e53" fill-opacity="1" fill-rule="nonzero" stroke="#075a40" d="M 1407.66 1991.02 L 1349.1 1900.71 L 1290.19 1991.02 L 1227.24 1991.02 L 1323.06 1850.93 L 1323.06 1750.48 L 1374.97 1750.48 L 1374.97 1850.93 L 1470.64 1991.02 L 1407.66 1991.02 Z"/></g></g></g></svg>
