<?xml version="1.0" encoding="UTF-8" standalone="yes"?><svg xmlns="http://www.w3.org/2000/svg" xmlns:xlink="http://www.w3.org/1999/xlink" version="1.2" baseProfile="tiny" x="0" y="0" width="255" height="255" viewBox="0 0 256 256"><defs><linearGradient id="wps{7eb137a4-0bc4-4d43-b39b-8b15d6960e9c}_solid@Background1_0.00@Background1_0.00" x1="0" y1="0.5" x2="1" y2="0.5" spreadMethod="pad" gradientUnits="userSpaceOnUse"><stop offset="0" stop-color="#ffffff" stop-opacity="1"/><stop offset="1" stop-color="#ffffff" stop-opacity="1"/></linearGradient></defs><defs/><g fill="none" fill-rule="evenodd" stroke="#000000" stroke-width="1" stroke-linejoin="bevel" stroke-linecap="square"><g fill="none" font-family="微软雅黑" font-size="12" font-style="normal" font-weight="400" stroke="#000000" stroke-width="1" stroke-linejoin="bevel" stroke-linecap="square" stroke-opacity="1" transform="matrix(0.0666667,0,0,0.0666667,0.933333,0.933333)"/><g fill="none" font-family="微软雅黑" font-size="12" font-style="normal" font-weight="400" stroke="#000000" stroke-width="1" stroke-linejoin="bevel" stroke-linecap="square" stroke-opacity="1" transform="matrix(0.0666667,0,0,0.0666667,0,0)"/><g fill="none" font-family="微软雅黑" font-size="12" font-style="normal" font-weight="400" stroke="#000000" stroke-width="1" stroke-linejoin="bevel" stroke-linecap="square" stroke-opacity="1" transform="matrix(0.0666667,0,0,0.0666667,0,0)"/><g fill="none" font-family="微软雅黑" font-size="12" font-style="normal" font-weight="400" stroke="#000000" stroke-width="1" stroke-linejoin="bevel" stroke-linecap="square" stroke-opacity="1" transform="matrix(0.0666667,0,0,0.0666667,0,0)"/><g fill="none" font-family="微软雅黑" font-size="12" font-style="normal" font-weight="400" stroke="#000000" stroke-width="1" stroke-linejoin="bevel" stroke-linecap="square" stroke-opacity="1" transform="matrix(0.0666667,0,0,0.0666667,0,0)"/><g fill="none" font-family="微软雅黑" font-size="12" font-style="normal" font-weight="400" stroke="#000000" stroke-width="1" stroke-linejoin="bevel" stroke-linecap="square" stroke-opacity="1" transform="matrix(0.0666667,0,0,0.0666667,0,0)"/><g fill="#333333" fill-opacity="1" font-family="Arial" font-size="16" font-style="normal" font-weight="400" stroke="none" transform="matrix(0.333247,0,0,0.333247,-53.3194,-42.6556)"><path fill="url(#wps{7eb137a4-0bc4-4d43-b39b-8b15d6960e9c}_solid@Background1_0.00@Background1_0.00)" vector-effect="none" d="M 646.287 884.176 C 589.494 892.672 537.078 895.141 537.078 895.141 L 533.772 876.177 C 534.292 882.729 535.506 888.925 537.078 895.141 C 525.899 895.828 514.386 896 503.021 896 C 447.303 896 395.226 891.006 349.289 882.037 C 348.412 882.373 348.072 882.551 347.536 882.902 C 247.788 863.415 179.488 826.874 176.16 784.119 L 176 784.119 L 176 773.774 C 183.155 737.921 179.667 708.618 191.543 686.199 C 229.97 613.45 349.81 634.652 408.855 585.522 C 414.974 580.35 420.912 574.827 425.457 567.943 L 425.457 506.561 C 418.998 505.009 413.4 501.394 408.855 496.216 C 394.711 482.08 384.044 456.749 368.856 437.786 C 355.401 421.919 339.503 417.276 333.741 400.379 C 330.769 390.886 329.197 379.692 329.557 368.996 C 330.254 350.903 336.352 333.142 352.951 324.528 C 352.951 304.528 352.436 284.878 352.436 266.943 C 352.772 235.912 354.35 208.494 365.013 188.334 C 372.704 173.51 384.399 162.123 403.435 155.927 C 405.007 155.239 406.761 155.239 408.855 154.547 C 441.179 145.582 479.085 149.375 510.872 128 L 529.743 128 C 552.287 130.753 553.504 157.657 574.107 165.228 C 578.652 167.295 583.893 168.001 588.619 168.001 C 595.955 168.001 602.768 166.78 609.923 166.78 C 615.701 166.78 621.799 167.646 627.737 171.78 C 664.605 196.952 644.162 274.533 646.612 327.615 C 657.295 336 668.119 344.752 672 358.934 C 675.881 368 675.881 400.379 668.969 409.317 C 662.057 418.255 646.202 425.357 637.889 435.243 C 618.9 457.824 607.606 488.1 583.553 505.365 C 562.972 580.81 599.476 597.852 651.597 609.226 C 610.901 642.18 584.889 692.523 584.889 748.936 C 584.889 802.856 608.653 851.23 646.287 884.176 M 764.8 896 C 683.504 896 617.6 830.157 617.6 748.936 C 617.6 667.715 683.504 601.872 764.8 601.872 C 846.096 601.872 912 667.715 912 748.936 C 912 830.157 846.096 896 764.8 896 M 706.415 667.234 C 705.02 667.234 703.654 667.638 702.483 668.396 C 699.131 670.568 698.173 675.046 700.345 678.398 L 734.369 730.922 C 735.702 732.98 737.987 734.222 740.439 734.222 L 767.777 734.222 C 768.977 734.222 770.157 733.924 771.213 733.354 C 774.728 731.456 776.039 727.069 774.141 723.554 L 745.788 671.031 C 744.526 668.692 742.082 667.234 739.424 667.234 L 706.415 667.234 M 765.463 741.287 C 741.489 741.287 722.055 761.289 722.055 785.963 C 722.055 810.636 741.489 830.638 765.463 830.638 C 789.438 830.638 808.873 810.636 808.873 785.963 C 808.873 761.289 789.438 741.287 765.463 741.287 M 779.514 810.145 L 765.204 799.231 L 750.633 809.735 L 755.844 791.698 L 742.069 780.011 L 759.6 779.776 L 765.66 762.05 L 771.283 779.942 L 788.801 780.674 L 774.747 791.966 L 779.514 810.145 M 828.997 678.827 C 829.946 677.571 830.459 676.04 830.459 674.466 C 830.459 670.472 827.221 667.234 823.227 667.234 L 783.979 667.234 C 781.447 667.234 779.1 668.558 777.79 670.724 L 767.505 687.734 C 766.218 689.864 766.116 692.507 767.236 694.73 L 781.906 723.849 C 782.404 724.837 783.122 725.698 784.005 726.365 C 787.191 728.773 791.727 728.142 794.135 724.956 L 828.997 678.827"/></g><g fill="none" font-family="微软雅黑" font-size="12" font-style="normal" font-weight="400" stroke="#000000" stroke-width="1" stroke-linejoin="bevel" stroke-linecap="square" stroke-opacity="1" transform="matrix(0.0666667,0,0,0.0666667,0,0)"/><g fill="none" font-family="微软雅黑" font-size="12" font-style="normal" font-weight="400" stroke="#000000" stroke-width="1" stroke-linejoin="bevel" stroke-linecap="square" stroke-opacity="1" transform="matrix(0.0666667,0,0,0.0666667,0,0)"/><g fill="none" font-family="微软雅黑" font-size="12" font-style="normal" font-weight="400" stroke="#000000" stroke-width="1" stroke-linejoin="bevel" stroke-linecap="square" stroke-opacity="1" transform="matrix(0.0666667,0,0,0.0666667,0,0)"/><g fill="none" font-family="微软雅黑" font-size="12" font-style="normal" font-weight="400" stroke="#000000" stroke-width="1" stroke-linejoin="bevel" stroke-linecap="square" stroke-opacity="1" transform="matrix(0.0666667,0,0,0.0666667,0,0)"/><g fill="none" font-family="微软雅黑" font-size="12" font-style="normal" font-weight="400" stroke="#000000" stroke-width="1" stroke-linejoin="bevel" stroke-linecap="square" stroke-opacity="1" transform="matrix(0.0666667,0,0,0.0666667,0,0)"/><g fill="none" font-family="微软雅黑" font-size="12" font-style="normal" font-weight="400" stroke="#000000" stroke-width="1" stroke-linejoin="bevel" stroke-linecap="square" stroke-opacity="1" transform="matrix(0.0666667,0,0,0.0666667,0,0)"/><g fill="none" font-family="微软雅黑" font-size="12" font-style="normal" font-weight="400" stroke="#000000" stroke-width="1" stroke-linejoin="bevel" stroke-linecap="square" stroke-opacity="1" transform="matrix(0.0666667,0,0,0.0666667,0.933333,0.933333)"/></g></svg>
