<?xml version="1.0" standalone="no"?><!DOCTYPE svg PUBLIC "-//W3C//DTD SVG 1.1//EN" "http://www.w3.org/Graphics/SVG/1.1/DTD/svg11.dtd"><svg t="1768890444928" class="icon" viewBox="0 0 1024 1024" version="1.1" xmlns="http://www.w3.org/2000/svg" p-id="8266" xmlns:xlink="http://www.w3.org/1999/xlink" width="200" height="200"><path d="M503.85 302.62a160.94 160.94 0 0 0-160-132.69c-88.42 0.84-160.09 73.77-159.37 162.2a160.51 160.51 0 0 0 54.62 119.5 16.87 16.87 0 0 1 2 2.1l123.31 150.2 154.35 187.92 149.79-191.52 99.26-126.9a161.49 161.49 0 0 0 50.46-64.51l0.08-0.1a160.5 160.5 0 0 0 13-67.52c-2.12-85.7-71.95-155.21-157.66-156.84a161 161 0 0 0-158.61 118.76z" fill="#ffffff" p-id="8267"></path><path d="M518.76 807.85a16 16 0 0 1-12.37-5.85L228.81 463.88a1.83 1.83 0 0 0-0.24-0.23 177.22 177.22 0 0 1-60.06-131.39c-0.8-97.4 77.81-177.4 175.21-178.33A177 177 0 0 1 511 268.48a176.78 176.78 0 0 1 159.49-100.05h3.43a177 177 0 0 1 159.5 245.71 14.76 14.76 0 0 1-0.83 1.93 177.56 177.56 0 0 1-53.42 68.77L531.36 801.71a16 16 0 0 1-12.36 6.14z m-173.3-621.93H344c-79.79 0.77-144.17 66.3-143.52 146.07a145.1 145.1 0 0 0 49.2 107.63 33.27 33.27 0 0 1 3.83 4l264.95 322.65 236.75-302.69a15.87 15.87 0 0 1 2.91-2.88 145.61 145.61 0 0 0 45.44-58.08l0.05-0.12a145 145 0 0 0-130.3-202h-2.81a144.73 144.73 0 0 0-140 107 16 16 0 0 1-16.3 11.8l-11.2-0.7a16 16 0 0 1-14.9-13.19 144.35 144.35 0 0 0-142.64-119.49z" fill="#ffffff" p-id="8268"></path><path d="M593.7 394.05a93.87 93.87 0 0 0-93.29-77.38c-51.56 0.5-93.35 43-92.93 94.59a93.6 93.6 0 0 0 31.85 69.68 10.54 10.54 0 0 1 1.19 1.22l71.91 87.59 90 109.58 87.35-111.68 57.87-74A94.13 94.13 0 0 0 777 456v-0.06a93.41 93.41 0 0 0 7.56-39.36c-1.23-50-42-90.51-91.93-91.46a93.87 93.87 0 0 0-92.45 69.25z" fill="#ffffff" p-id="8269"></path><path d="M602.65 701.72L429.9 491.28a107.82 107.82 0 1 1 168.43-127.85A107.89 107.89 0 0 1 796.2 442h9.51l-16.56 21.3a108.3 108.3 0 0 1-31.58 40.38z m-101.32-371h-0.78a79.83 79.83 0 0 0-52 139.76 23.21 23.21 0 0 1 2.76 2.85l150.81 183.61L737.7 483.61l1.43-1.1a80.18 80.18 0 0 0 25-31.81l0.11-0.25a79.85 79.85 0 1 0-150.44-52.39l-3 10.92-28.95-1.54-1.94-10.95a79.52 79.52 0 0 0-78.58-65.82z m-71.24 160.73z" fill="#ffffff" p-id="8270"></path><path d="M518.76 807.85a16 16 0 0 1-12.37-5.85L228.81 463.88a1.83 1.83 0 0 0-0.24-0.23 177.22 177.22 0 0 1-60.06-131.39c-0.8-97.4 77.81-177.4 175.21-178.33A177 177 0 0 1 511 268.48a176.78 176.78 0 0 1 159.49-100.05h3.43a177 177 0 0 1 159.5 245.71 14.76 14.76 0 0 1-0.83 1.93 177.56 177.56 0 0 1-53.42 68.77L531.36 801.71a16 16 0 0 1-12.36 6.14z m-173.3-621.93H344c-79.79 0.77-144.17 66.3-143.52 146.07a145.1 145.1 0 0 0 49.2 107.63 33.27 33.27 0 0 1 3.83 4l264.95 322.65 236.75-302.69a15.87 15.87 0 0 1 2.91-2.88 145.61 145.61 0 0 0 45.44-58.08l0.05-0.12a145 145 0 0 0-130.3-202h-2.81a144.73 144.73 0 0 0-140 107 16 16 0 0 1-16.3 11.8l-11.2-0.7a16 16 0 0 1-14.9-13.19 144.35 144.35 0 0 0-142.64-119.49zM473.8 973.86a16 16 0 0 1-16-16v-106l-194.74-236.2a16 16 0 1 1 24.69-20.35L486.15 836a16 16 0 0 1 3.65 10.18v111.68a16 16 0 0 1-16 16zM558.5 973.86a16 16 0 0 1-16-16V846.14a16 16 0 0 1 3.65-10.14l198.39-240.69a16 16 0 0 1 24.69 20.35L574.5 851.88v106a16 16 0 0 1-16 15.98z" fill="#ffffff" p-id="8271"></path></svg>