<?xml version="1.0" standalone="no"?><!DOCTYPE svg PUBLIC "-//W3C//DTD SVG 1.1//EN" "http://www.w3.org/Graphics/SVG/1.1/DTD/svg11.dtd"><svg t="1768890325972" class="icon" viewBox="0 0 1024 1024" version="1.1" xmlns="http://www.w3.org/2000/svg" p-id="5253" xmlns:xlink="http://www.w3.org/1999/xlink" width="200" height="200"><path d="M801.92 472.64a27.712 27.712 0 0 1-20.48-8.064 27.712 27.712 0 0 1-8-20.416V115.84c0-4.032-2.048-6.08-6.08-6.08H179.84c-4.032 0-6.08 2.048-6.08 6.08v725.76c0 4.032 2.048 6.08 6.08 6.08h328.32c8.32 0 15.104 2.688 20.48 8 5.312 5.376 8 12.16 8 20.48 0 19.008-9.472 28.48-28.48 28.48h-345.6a44.096 44.096 0 0 1-32.32-13.44 44.096 44.096 0 0 1-13.44-32.32V98.56c0-12.608 4.48-23.36 13.44-32.32 8.96-8.96 19.712-13.44 32.32-13.44h622.08c12.608 0 23.36 4.48 32.32 13.44 8.96 8.96 13.44 19.712 13.44 32.32v345.6c0 8.32-2.688 15.104-8.064 20.48a27.712 27.712 0 0 1-20.416 8z m-527.04-190.08a19.2 19.2 0 0 1-19.84-19.84v-17.28a19.2 19.2 0 0 1 19.84-19.84h397.44c13.248 0 19.84 6.592 19.84 19.84v17.28c0 13.248-6.592 19.84-19.84 19.84h-397.44z m397.44 138.24h-397.44a19.2 19.2 0 0 1-19.84-19.84v-17.28a19.2 19.2 0 0 1 19.84-19.84h397.44a19.2 19.2 0 0 1 19.84 19.84v17.28c0 13.248-6.592 19.84-19.84 19.84z m73.792 517.376l-4.672 2.112-4.672-2.112a347.648 347.648 0 0 1-148.096-125.568 333.12 333.12 0 0 1-57.152-188.736c0-10.88 1.216-24.704 3.584-41.344l1.344-9.6h13.184c80 0 140.8-33.344 182.272-100.096l9.408-15.104 9.6 14.976c19.328 30.336 44.8 54.4 76.416 72.32 32.896 18.56 68.16 27.904 105.92 27.904h13.312l1.28 9.792 0.512 4.16c1.984 15.872 3.008 28.224 3.008 36.992a333.12 333.12 0 0 1-57.152 188.736 347.648 347.648 0 0 1-148.096 125.568z m-4.672-396.8c-37.312 49.28-88.128 74.688-152.32 76.352-0.448 5.76-0.64 12.992-0.64 21.696 0 51.2 14.592 98.24 43.84 140.992 27.52 40.32 63.936 71.04 109.12 92.096a265.536 265.536 0 0 0 109.12-92.096 244.48 244.48 0 0 0 43.84-140.992c0-8.704-0.192-16-0.64-21.76-64.192-1.6-115.008-27.008-152.32-76.288z m-90.88 183.68a19.072 19.072 0 0 1-5.888-13.952c0-5.376 1.984-10.048 5.888-13.952l12.16-12.096c9.28-9.28 18.56-9.28 27.904 0l35.264 35.264 83.648-83.648a19.072 19.072 0 0 1 13.952-5.888c5.44 0 10.112 1.984 14.016 5.888l12.096 12.16a19.072 19.072 0 0 1 5.824 13.888c0 5.44-1.92 10.112-5.824 14.016l-111.872 111.872-1.664 0.768c-9.408 4.736-17.728 3.456-24.96-3.84l-60.544-60.416z" p-id="5254" fill="#ffffff"></path></svg>