<?xml version="1.0" encoding="UTF-8" standalone="yes"?><svg fill="none" xmlns="http://www.w3.org/2000/svg" xmlns:xlink="http://www.w3.org/1999/xlink" version="1.2" baseProfile="tiny" x="0" y="0" width="256" height="256" viewBox="0 0 256 256"><defs/><defs/><defs/><g id="รฅยยรฉยยขรฆยยง_10741943730.รฆยยรฅยยรฅยฎยขรฆยยท" clip-path="url(#clip0_11_99434)"><g id="Group"><g id="Group_2"><g id="Group_3"><path id="Vector" fill="#62a531" fill-opacity="1" clip-rule="evenodd" d="M 178.595 149.151 C 163.511 159.383 153.599 176.667 153.599 196.267 C 153.599 211.097 159.274 224.602 168.57 234.729 L 0 234.729 C 0 187.341 29.6983 146.937 71.3813 131.347 C 55.4428 119.539 45.1003 100.524 45.1003 79.0765 C 45.1003 43.2582 73.9463 14.2217 109.529 14.2217 C 145.113 14.2217 173.959 43.2582 173.959 79.0765 C 173.959 100.524 163.616 119.539 147.677 131.347 C 158.983 135.575 169.406 141.629 178.595 149.151 M 210.489 241.779 C 185.354 241.779 164.977 221.402 164.977 196.267 C 164.977 171.132 185.354 150.756 210.489 150.756 C 235.624 150.756 256 171.132 256 196.267 C 256 221.402 235.624 241.779 210.489 241.779 M 210.489 182.937 C 205.282 177.954 196.842 177.954 191.637 182.937 C 186.432 187.92 186.432 195.997 191.637 200.98 L 206.555 215.258 C 208.755 217.363 212.222 217.363 214.421 215.258 L 229.34 200.98 C 234.546 195.997 234.546 187.92 229.34 182.937 C 224.134 177.954 215.694 177.954 210.489 182.937"/></g></g></g></g><defs><clipPath id="clip0_11_99434" clipPathUnits="userSpaceOnUse"><rect fill="#ffffff" x="0" y="0" width="256" height="256"/></clipPath></defs></svg>
