<?xml version="1.0" encoding="UTF-8" standalone="yes"?><svg id="Icons_FlyingMoney" xmlns="http://www.w3.org/2000/svg" xmlns:xlink="http://www.w3.org/1999/xlink" version="1.2" baseProfile="tiny" x="0" y="0" width="96" height="96" viewBox="0 0 96 96"><defs/><path fill="#ffffff" fill-opacity="1" stroke="none" stroke-width="1" stroke-linejoin="miter" stroke-linecap="butt" stroke-miterlimit="4" d="M 46.894 40.323 C 43.094 37.014 37.894 36.8 35.274 39.843 C 32.654 42.886 33.607 48.036 37.404 51.343 C 41.201 54.65 46.404 54.866 49.024 51.823 C 51.644 48.78 50.69 43.631 46.894 40.323 Z"/><path fill="#ffffff" fill-opacity="1" stroke="none" stroke-width="1" stroke-linejoin="miter" stroke-linecap="butt" stroke-miterlimit="4" d="M 53.66 25.3 C 52.2108 24.1238 50.0827 24.344 48.905 25.792 C 47.9382 27.3942 48.4355 29.4757 50.022 30.468 C 51.4712 31.6442 53.5993 31.424 54.777 29.976 C 55.7438 28.3738 55.2465 26.2923 53.66 25.3 Z"/><path fill="#ffffff" fill-opacity="1" stroke="none" stroke-width="1" stroke-linejoin="miter" stroke-linecap="butt" stroke-miterlimit="4" d="M 37.529 61.925 C 36.1528 60.6637 34.0149 60.7564 32.753 62.132 C 31.6943 63.6746 32.0677 65.7812 33.592 66.866 C 34.9682 68.1273 37.1061 68.0346 38.368 66.659 C 39.4278 65.1166 39.0543 63.0092 37.529 61.925 Z"/><path fill="#ffffff" fill-opacity="1" stroke="none" stroke-width="1" stroke-linejoin="miter" stroke-linecap="butt" stroke-miterlimit="4" d="M 84.081 59.558 C 76.791 53.069 76.663 49.152 71.476 47.55 C 67.146 46.213 63.125 48.377 59.06 51.465 C 59.8137 49.8138 60.6686 48.2108 61.62 46.665 C 67.561 36.971 79.805 27.841 79.805 27.841 L 48.365 5 C 38.8123 11.2446 31.3722 20.2329 27.022 30.784 C 26.956 30.944 26.896 31.093 26.832 31.249 C 26.792 28.432 26.174 25.961 24.315 24.149 C 21.142 21.049 18.415 22.69 11.062 20.209 C 8.124 19.218 4.971 17.731 3.62 14.865 C 2.02 17.765 1.282 22.63 2.929 25.323 C 4.539 28.009 9.129 29.055 9.129 29.055 C 9.129 29.055 6.381 30.555 7.28 33.421 C 7.811 35.115 10.108 37.154 14.38 37.134 C 12.937 38.343 12.443 39.791 13.68 40.818 C 15.719 42.506 20.302 41.579 20.302 41.579 C 20.8112 42.6892 21.6012 43.6474 22.594 44.359 C 21.393 49.491 19.3279 54.3814 16.487 58.821 C 14.9499 61.3278 12.8824 63.4676 10.43 65.09 L 39.087 90.667 C 39.087 90.667 47.542 87.59 51.893 75.2 C 53.3186 71.0574 54.5262 66.8429 55.511 62.574 C 55.8782 62.457 56.2381 62.3184 56.589 62.159 C 56.589 62.159 59.36 67.79 61.674 68.87 C 63.474 69.71 64.648 68.219 64.92 65.945 C 67.666 70.911 70.832 72.465 73.476 72.178 C 77.008 71.794 76.461 66.865 76.461 66.865 C 76.461 66.865 80.505 71.21 84.254 71.365 C 88.033 71.559 92.139 67.946 94.004 64.511 C 90.245 64.739 86.993 62.151 84.081 59.558 M 46.232 73.209 C 45.4833 75.3921 44.4483 77.4662 43.154 79.377 L 37.048 80.805 L 22.847 68.13 L 22.121 61.079 C 25.126 56.1984 27.3018 50.8537 28.56 45.262 C 29.5583 41.1008 30.8961 37.0285 32.56 33.086 C 35.1718 26.8614 38.9724 21.2058 43.749 16.436 L 51.803 14.917 L 65.333 24.747 L 65.833 32.13 C 62.2965 35.5605 59.1653 39.3855 56.501 43.53 C 52.338 50.323 51.069 55.489 49.601 61.471 C 48.6837 65.4398 47.5592 69.3578 46.232 73.209"/></svg>
