<?xml version="1.0" encoding="UTF-8" standalone="yes"?><svg id="图层_1" xmlns="http://www.w3.org/2000/svg" xmlns:xlink="http://www.w3.org/1999/xlink" version="1.2" baseProfile="tiny" x="0" y="0" width="256" height="256" viewBox="0 0 256 256"><defs/><defs/><g transform="matrix(0.27527,0,0,0.27527,-12.8328,-12.9543)"><g id="Layer_1"><g class="cls-1"><polygon fill="#686868" points="488.393,487.312 444.99,478.22 436.783,482.989 480.186,492.082 523.499,533.055 531.706,528.285 488.393,487.312"/><polygon fill="#3d3d3d" points="523.499,533.055 531.706,528.285 531.687,535.023 523.48,539.792 523.499,533.055"/><polygon fill="#4f4d4d" points="523.5,533.054 523.483,539.792 480.146,505.954 436.758,489.733 436.791,482.996 480.178,492.079 523.5,533.054"/></g><g class="cls-1"><polygon fill="#686868" points="480.06,487.314 523.458,478.2 531.668,482.966 488.27,492.08 444.977,533.074 436.767,528.308 480.06,487.314"/><polygon fill="#3d3d3d" points="444.977,533.074 436.767,528.308 436.789,535.046 445,539.812 444.977,533.074"/><polygon fill="#4f4d4d" points="444.976,533.074 444.996,539.812 488.317,505.952 531.697,489.71 531.661,482.972 488.277,492.077 444.976,533.074"/></g><g class="cls-1"><path fill="#686868" d="M 494.559 396.277 C 488.939 399.543 479.794 399.543 474.136 396.277 C 471.291 394.634 469.869 392.477 469.875 390.324 L 469.675 495.124 C 469.669 497.277 471.089 499.434 473.936 501.077 C 479.592 504.343 488.736 504.343 494.358 501.077 C 497.15 499.455 498.547 497.33 498.558 495.204 L 498.758 390.404 C 498.749 392.531 497.351 394.654 494.559 396.277 Z"/><path fill="#4f4d4d" d="M 494.493 384.448 C 500.15 387.713 500.18 393.011 494.559 396.277 C 488.938 399.543 479.794 399.543 474.136 396.277 C 468.478 393.011 468.452 387.716 474.073 384.449 C 479.694 381.182 488.836 381.182 494.493 384.448 Z"/></g><g class="cls-1"><path fill="#4f4d4d" d="M 569.212 359.63 L 490.249 405.519 C 483.849 409.239 473.414 409.247 466.956 405.519 L 387.476 359.631 C 384.229 357.756 382.609 355.296 382.616 352.839 L 382.54 379.685 C 382.533 382.141 384.152 384.602 387.4 386.477 L 466.88 432.364 C 473.337 436.093 483.772 436.084 490.173 432.364 L 569.135 386.476 C 572.323 384.624 573.919 382.202 573.926 379.776 L 574 352.932 C 574 355.357 572.4 357.779 569.212 359.63 Z"/><path fill="#bfbfbf" d="M 569.136 346.138 C 575.594 349.867 575.628 355.902 569.212 359.63 L 490.249 405.519 C 483.849 409.239 473.414 409.247 466.956 405.519 L 387.476 359.631 C 381.018 355.903 380.999 349.859 387.401 346.139 L 466.363 300.251 C 472.779 296.522 483.199 296.522 489.656 300.251 L 569.136 346.138 Z"/></g><g class="cls-1"><path fill="#686868" d="M 592.682 177.787 L 513.2 131.9 C 509.95 130.024 507.008 129.848 504.884 131.083 L 481.675 144.57 C 483.8 143.336 486.741 143.511 489.991 145.388 L 569.471 191.275 C 575.929 195.004 581.138 204.027 581.118 211.448 L 580.858 339.458 C 580.848 343.138 579.547 345.731 577.448 346.951 L 600.659 333.463 C 602.759 332.243 604.059 329.649 604.069 325.97 L 604.328 197.96 C 604.349 190.539 599.14 181.515 592.682 177.787 Z"/><path fill="#4f4d4d" d="M 569.471 191.275 C 575.929 195.004 581.138 204.027 581.118 211.448 L 580.858 339.458 C 580.838 346.858 575.594 349.867 569.136 346.138 L 489.656 300.25 C 483.199 296.522 477.989 287.481 478.01 280.078 L 478.269 152.068 C 478.29 144.648 483.534 141.659 489.991 145.388 L 569.471 191.275 Z"/></g><path fill="#55b8e8" d="M 474.149 160.312 C 443.422 152.441 401.858 249.904 387.749 285.62 L 386.949 292.44 C 390.688 296.254 394.135 299.671 396.988 302.301 C 417.978 321.648 467.853 229.325 481.327 195.969 C 494.801 162.613 474.149 160.312 474.149 160.312 Z"/><path fill="#ffffff" d="M 491.765 222.282 C 491.765 222.282 528.833 220.899 543.216 173.242 L 499.385 161.574 C 499.385 161.574 473.768 192.16 491.765 222.282 Z"/><path fill="#7bd3f7" d="M 571.4 204.917 C 573.87 186.351 543.22 173.242 543.22 173.242 L 491.769 222.282 C 491.769 222.282 484.737 191.122 499.389 161.574 C 478.67 159.15 457.728 155.661 446.738 178.228 C 434.286 203.799 427.338 338.959 431.027 349.751 C 434.716 360.543 447.714 387.451 488.888 382.651 C 567.456 373.485 551.174 356.871 571.4 204.917 Z"/><path fill="#55b8e8" d="M 554.167 184.17 C 554.167 184.17 574.516 179.934 572.08 215.825 C 569.644 251.716 550.943 354.972 524.98 343.109 C 499.017 331.246 420.734 336.869 420.734 336.869 C 420.734 336.869 419.748 315.136 433.034 310.955 C 433.034 310.955 508.469 295.735 516.358 303.717 C 516.353 303.717 515.488 186.7 554.167 184.17 Z"/><path fill="#e5ae70" d="M 538.046 153.084 L 532.814 175.217 L 516.787 179.317 L 509.321 171.565 L 502.603 171.082 C 502.603 171.082 498.892 167.813 500.772 158.771 C 502.652 149.729 503.372 146.389 503.95 141.408 C 504.528 136.427 520.206 134.808 521.22 134.925 C 522.234 135.042 543.3 117.135 538.046 153.084 Z"/><path fill="#e8e8e8" d="M 538.046 153.084 C 533.171 167.33 509.321 171.568 509.321 171.568 C 507.855 178.514 507.503 185.649 508.28 192.706 C 522.753 195.158 543.216 173.242 543.216 173.242 L 538.046 153.084 Z"/><path fill="#e8e8e8" d="M 509.321 171.568 C 509.321 171.568 495.18 177.62 493.505 188.142 C 493.505 188.142 490.964 177.735 500.772 158.774 C 500.772 158.774 501.3 168.686 509.321 171.568 Z"/><path fill="#fdc281" d="M 489.759 110.481 C 489.759 110.481 489.427 159.914 510.259 160.453 C 531.091 160.992 536.268 152.861 542.028 145.131 C 545.034 141.221 547.772 137.111 550.223 132.831 L 553.732 102.842 L 521.602 81.561 C 521.602 81.561 475.831 76.479 489.759 110.481 Z"/><g class="cls-1"><polygon fill="#686868" points="674.537,588.986 631.134,579.893 622.927,584.663 666.33,593.756 709.643,634.729 717.85,629.959 674.537,588.986"/><polygon fill="#3d3d3d" points="709.643,634.729 717.85,629.959 717.831,636.696 709.624,641.466 709.643,634.729"/><polygon fill="#4f4d4d" points="709.643,634.728 709.627,641.466 666.289,607.627 622.902,591.407 622.934,584.669 666.322,593.753 709.643,634.728"/></g><g class="cls-1"><polygon fill="#686868" points="666.204,588.988 709.602,579.874 717.812,584.64 674.414,593.754 631.12,634.748 622.911,629.982 666.204,588.988"/><polygon fill="#3d3d3d" points="631.12,634.748 622.911,629.982 622.933,636.72 631.143,641.485 631.12,634.748"/><polygon fill="#4f4d4d" points="631.12,634.747 631.14,641.485 674.461,607.626 717.841,591.384 717.804,584.646 674.421,593.751 631.12,634.747"/></g><g class="cls-1"><path fill="#686868" d="M 680.7 497.951 C 675.08 501.217 665.934 501.217 660.277 497.951 C 657.432 496.307 656.01 494.151 656.016 491.996 L 655.816 596.796 C 655.81 598.949 657.231 601.106 660.077 602.749 C 665.734 606.015 674.877 606.015 680.5 602.749 C 683.292 601.126 684.689 599.003 684.695 596.875 L 684.9 492.075 C 684.893 494.205 683.5 496.329 680.7 497.951 Z"/><path fill="#4f4d4d" d="M 680.636 486.122 C 686.294 489.388 686.323 494.685 680.703 497.951 C 675.083 501.217 665.937 501.217 660.28 497.951 C 654.623 494.685 654.597 489.388 660.217 486.122 C 665.837 482.856 674.98 482.856 680.636 486.122 Z"/></g><g class="cls-1"><path fill="#4f4d4d" d="M 755.355 461.305 L 676.393 507.193 C 669.993 510.913 659.557 510.921 653.1 507.193 L 573.62 461.306 C 570.372 459.43 568.753 456.97 568.76 454.513 L 568.684 481.359 C 568.677 483.814 570.296 486.275 573.544 488.151 L 653.023 534.038 C 659.481 537.767 669.915 537.758 676.317 534.038 L 755.279 488.15 C 758.467 486.297 760.063 483.876 760.07 481.45 L 760.145 454.605 C 760.138 457.031 758.543 459.452 755.355 461.305 Z"/><path fill="#bfbfbf" d="M 755.28 447.812 C 761.738 451.541 761.771 457.576 755.355 461.305 L 676.393 507.193 C 669.993 510.913 659.557 510.921 653.1 507.193 L 573.62 461.306 C 567.162 457.577 567.143 451.533 573.544 447.813 L 652.507 401.925 C 658.923 398.196 669.342 398.196 675.8 401.925 L 755.28 447.812 Z"/></g><g class="cls-1"><path fill="#686868" d="M 778.826 279.461 L 699.346 233.573 C 696.096 231.697 693.154 231.521 691.03 232.756 L 667.819 246.245 C 669.944 245.01 672.886 245.186 676.135 247.062 L 755.615 292.95 C 762.073 296.678 767.282 305.701 767.261 313.122 L 767 441.132 C 766.99 444.812 765.689 447.406 763.59 448.625 L 786.8 435.136 C 788.9 433.917 790.2 431.323 790.21 427.643 L 790.469 299.633 C 790.493 292.212 785.283 283.189 778.826 279.461 Z"/><path fill="#4f4d4d" d="M 755.615 292.95 C 762.073 296.678 767.282 305.701 767.261 313.122 L 767 441.132 C 766.979 448.532 761.736 451.541 755.278 447.812 L 675.8 401.925 C 669.342 398.196 664.133 389.156 664.153 381.752 L 664.413 253.743 C 664.433 246.321 669.677 243.333 676.135 247.062 L 755.615 292.95 Z"/></g><path fill="#589441" d="M 660.293 261.986 C 629.566 254.115 588.002 351.578 573.893 387.293 L 573.093 394.114 C 576.832 397.929 580.278 401.345 583.132 403.974 C 604.128 423.322 654 331 667.477 297.642 C 680.954 264.284 660.293 261.986 660.293 261.986 Z"/><path fill="#ffffff" d="M 677.909 323.956 C 677.909 323.956 714.977 322.572 729.36 274.915 L 685.528 263.248 C 685.528 263.248 659.912 293.834 677.909 323.956 Z"/><path fill="#80bc41" d="M 757.539 306.591 C 760.01 288.025 729.36 274.915 729.36 274.915 L 677.909 323.956 C 677.909 323.956 670.877 292.796 685.528 263.248 C 664.81 260.823 643.867 257.334 632.878 279.903 C 620.425 305.472 613.478 440.633 617.166 451.425 C 620.854 462.217 633.854 489.125 675.028 484.325 C 753.6 475.159 737.317 458.545 757.539 306.591 Z"/><path fill="#589441" d="M 740.311 285.844 C 740.311 285.844 760.659 281.607 758.224 317.5 C 755.789 353.393 737.087 456.646 711.124 444.784 C 685.161 432.922 606.878 438.543 606.878 438.543 C 606.878 438.543 605.892 416.81 619.178 412.629 C 619.178 412.629 694.612 397.409 702.502 405.391 C 702.5 405.391 701.632 288.376 740.311 285.844 Z"/><path fill="#e5ae70" d="M 724.19 254.757 L 718.957 276.891 L 702.931 281 L 695.465 273.246 L 688.747 272.763 C 688.747 272.763 685.036 269.494 686.916 260.453 C 688.796 251.412 689.511 248.07 690.094 243.09 C 690.677 238.11 706.351 236.49 707.364 236.607 C 708.377 236.724 729.446 218.809 724.19 254.757 Z"/><path fill="#e8e8e8" d="M 724.19 254.757 C 719.314 269.004 695.465 273.241 695.465 273.241 C 693.999 280.187 693.647 287.323 694.423 294.38 C 708.897 296.831 729.36 274.915 729.36 274.915 L 724.19 254.757 Z"/><path fill="#e8e8e8" d="M 695.465 273.241 C 695.465 273.241 681.324 279.295 679.649 289.816 C 679.649 289.816 677.108 279.408 686.916 260.448 C 686.916 260.448 687.441 270.359 695.465 273.241 Z"/><path fill="#fdc281" d="M 675.9 212.155 C 675.9 212.155 675.568 261.588 696.4 262.126 C 712.963 262.554 723.413 258.814 736.363 234.505 L 739.873 204.517 L 707.743 183.236 C 707.743 183.236 661.975 178.152 675.9 212.155 Z"/><g class="cls-1"><polygon fill="#686868" points="860.681,690.66 817.278,681.567 809.07,686.337 852.473,695.43 895.786,736.402 903.994,731.633 860.681,690.66"/><polygon fill="#3d3d3d" points="895.786,736.402 903.994,731.633 903.975,738.37 895.767,743.14 895.786,736.402"/><polygon fill="#4f4d4d" points="895.787,736.402 895.77,743.14 852.433,709.302 809.045,693.081 809.078,686.343 852.466,695.427 895.787,736.402"/></g><g class="cls-1"><polygon fill="#686868" points="852.348,690.662 895.746,681.548 903.956,686.314 860.557,695.428 817.264,736.422 809.054,731.656 852.348,690.662"/><polygon fill="#3d3d3d" points="817.264,736.422 809.054,731.656 809.077,738.393 817.287,743.159 817.264,736.422"/><polygon fill="#4f4d4d" points="817.263,736.422 817.284,743.159 860.605,709.299 903.985,693.057 903.948,686.32 860.565,695.425 817.263,736.422"/></g><g class="cls-1"><path fill="#686868" d="M 866.846 599.625 C 861.227 602.891 852.081 602.891 846.424 599.625 C 843.578 597.982 842.158 595.825 842.164 593.672 L 841.959 698.472 C 841.953 700.626 843.374 702.783 846.22 704.426 C 851.877 707.692 861.02 707.692 866.643 704.426 C 869.435 702.804 870.832 700.68 870.838 698.552 L 871.043 593.752 C 871.036 595.878 869.638 598 866.846 599.625 Z"/><path fill="#4f4d4d" d="M 866.78 587.795 C 872.437 591.062 872.467 596.359 866.846 599.625 C 861.225 602.891 852.081 602.891 846.424 599.625 C 840.767 596.359 840.741 591.064 846.361 587.798 C 851.981 584.532 861.123 584.529 866.78 587.795 Z"/></g><g class="cls-1"><path fill="#4f4d4d" d="M 941.5 562.978 L 862.538 608.867 C 856.138 612.586 845.702 612.596 839.244 608.867 L 759.765 562.979 C 756.517 561.104 754.898 558.643 754.905 556.187 L 754.828 583.032 C 754.821 585.489 756.441 587.949 759.689 589.825 L 839.168 635.712 C 845.626 639.441 856.06 639.432 862.461 635.712 L 941.424 589.824 C 944.612 587.972 946.207 585.55 946.214 583.124 L 946.29 556.278 C 946.282 558.7 944.686 561.126 941.5 562.978 Z"/><path fill="#bfbfbf" d="M 941.424 549.487 C 947.881 553.215 947.916 559.25 941.499 562.978 L 862.537 608.867 C 856.137 612.586 845.701 612.596 839.243 608.867 L 759.764 562.979 C 753.306 559.251 753.287 553.207 759.688 549.487 L 838.651 503.6 C 845.067 499.871 855.486 499.871 861.944 503.6 L 941.424 549.487 Z"/></g><g class="cls-1"><path fill="#686868" d="M 964.969 381.134 L 885.49 335.247 C 882.24 333.371 879.297 333.196 877.174 334.43 L 853.963 347.918 C 856.087 346.684 859.03 346.86 862.279 348.735 L 941.759 394.623 C 948.216 398.352 953.426 407.375 953.405 414.796 L 953.146 542.806 C 953.136 546.486 951.835 549.079 949.736 550.299 L 972.947 536.811 C 975.047 535.59 976.347 532.998 976.357 529.317 L 976.615 401.307 C 976.637 393.887 971.427 384.863 964.969 381.134 Z"/><path fill="#4f4d4d" d="M 941.759 394.623 C 948.216 398.352 953.426 407.375 953.405 414.796 L 953.146 542.806 C 953.125 550.206 947.881 553.215 941.424 549.487 L 861.944 503.6 C 855.486 499.871 850.277 490.831 850.297 483.427 L 850.557 355.417 C 850.577 347.996 855.821 345.008 862.279 348.736 L 941.759 394.623 Z"/></g><path fill="#f6d341" d="M 846.437 363.66 C 815.711 355.789 774.146 453.252 760.037 488.967 L 759.237 495.788 C 762.976 499.603 766.423 503.018 769.276 505.649 C 790.272 525 840.147 432.672 853.62 399.317 C 867.093 365.962 846.437 363.66 846.437 363.66 Z"/><path fill="#ffffff" d="M 864.053 425.63 C 864.053 425.63 901.121 424.247 915.505 376.59 L 871.672 364.922 C 871.672 364.922 846.055 395.507 864.053 425.63 Z"/><path fill="#a57859" d="M 943.683 408.264 C 946.154 389.7 915.5 376.59 915.5 376.59 L 864.049 425.63 C 864.049 425.63 857.016 394.47 871.668 364.922 C 850.95 362.497 830.007 359.009 819.018 381.576 C 806.565 407.146 799.618 542.307 803.306 553.099 C 806.994 563.891 820 590.8 861.172 586 C 939.743 576.833 923.461 560.219 943.683 408.264 Z"/><path fill="#f6d341" d="M 926.455 387.518 C 926.455 387.518 946.803 383.282 944.367 419.174 C 941.931 455.066 923.231 558.32 897.267 546.458 C 871.303 534.596 793.02 540.218 793.02 540.218 C 793.02 540.218 792.035 518.484 805.32 514.303 C 805.32 514.303 880.754 499.083 888.643 507.066 C 888.64 507.066 887.776 390.05 926.455 387.518 Z"/><path fill="#e5ae70" d="M 910.333 356.432 L 905.1 378.564 L 889.073 382.664 L 881.608 374.911 L 874.89 374.428 C 874.89 374.428 871.179 371.159 873.058 362.118 C 874.937 353.077 875.658 349.736 876.236 344.754 C 876.814 339.772 892.494 338.154 893.507 338.272 C 894.52 338.39 915.589 320.482 910.333 356.432 Z"/><path fill="#e8e8e8" d="M 910.333 356.432 C 905.458 370.678 881.609 374.915 881.609 374.915 C 880.142 381.861 879.79 388.997 880.567 396.054 C 895.042 398.505 915.505 376.59 915.505 376.59 L 910.333 356.432 Z"/><path fill="#e8e8e8" d="M 881.609 374.915 C 881.609 374.915 867.468 380.968 865.793 391.491 C 865.793 391.491 863.252 381.082 873.059 362.122 C 873.059 362.122 873.584 372.033 881.609 374.915 Z"/><path fill="#fdc281" d="M 926 306.165 L 922.508 336.2 C 920.002 340.403 917.287 344.477 914.371 348.406 C 908.558 356.155 903.327 364.293 882.595 363.712 C 861.67 363.324 861.088 307.84 861.088 307.84 C 847.137 273.74 893.833 284.856 893.833 284.856 L 926 306.165 Z"/><path fill="#3f7337" d="M 707.622 854.21 L 706.616 863.848 L 749.309 860.348 L 749.889 847.732 L 723.431 737.072 C 723.431 728.96 720.089 721.207 714.191 715.637 C 708.293 710.068 700.361 707.175 692.263 707.639 L 603.2 725.365 L 605.592 786.055 L 680.176 758.208 L 707.622 854.21 Z"/><path fill="#3d3d3d" d="M 707.622 854.21 C 707.622 854.21 744.756 868.15 749.889 847.729 C 749.889 847.729 791.845 838.811 790.608 848.123 C 789.369 857.458 762.328 868.944 753.065 870.183 C 745.29 871.278 737.705 873.444 730.524 876.619 C 726.848 878.441 704.946 883.741 704.547 875.519 C 704.151 867.267 707.622 854.21 707.622 854.21 Z"/><path fill="#d1a62d" d="M 309.152 627.478 L 308.145 637.117 L 350.839 633.617 L 351.418 621 L 324.961 510.338 C 324.962 502.225 321.621 494.471 315.723 488.9 C 309.825 483.33 301.892 480.436 293.793 480.9 L 204.728 498.629 L 207.119 559.319 L 281.7 531.476 L 309.152 627.478 Z"/><path fill="#14a0db" d="M 508.386 740.844 L 507.381 750.483 L 550.074 746.983 L 550.654 734.367 L 524.2 623.7 C 524.2 615.588 520.858 607.835 514.96 602.265 C 509.062 596.696 501.131 593.802 493.032 594.266 L 403.964 612 L 406.355 672.69 L 480.938 644.843 L 508.386 740.844 Z"/><g class="cls-1"><polygon fill="#4f4d4d" points="172.31,383.604 172.151,560.567 183.091,566.936 183.249,389.974 172.31,383.604"/><path fill="#3d3d3d" d="M 183.249 389.974 L 183.091 566.936 C 245.679 502.83 319.281 457.628 406.463 437.972 L 406.622 327.261 L 183.249 389.974 Z"/></g><g class="cls-1"><polygon fill="#4f4d4d" points="352.294,495.778 352.136,672.741 363.075,679.11 363.234,502.148 352.294,495.778"/><polygon fill="#3d3d3d" points="363.234,502.148 363.075,679.11 586.448,550.146 586.606,439.435 363.234,502.148"/></g><g class="cls-1"><polygon fill="#4f4d4d" points="532.279,607.952 532.12,784.915 543.059,791.284 543.218,614.322 532.279,607.952"/><polygon fill="#3d3d3d" points="543.218,614.322 543.059,791.284 766.432,662.32 766.591,551.609 543.218,614.322"/></g><path fill="#3d3d3d" d="M 931.051 615.475 L 930.976 771.509 C 900.199 829.535 834.807 867.537 734.8 885.514 L 734.874 729.48 C 834.899 711.493 900.291 673.492 931.051 615.475 Z"/><polygon fill="#4f4d4d" points="724.161,701.531 724.162,879.371 734.801,885.514 734.875,707.717 724.161,701.531"/><g class="cls-1"><path fill="#b8512b" d="M 963.417 597.023 L 963.327 611.66 C 926.207 681.647 847.336 727.482 726.713 749.165 L 726.802 734.528 C 847.446 712.834 926.318 666.999 963.417 597.023 Z"/><polygon fill="#b8512b" points="726.803,734.528 726.713,749.165 136.603,409.149 136.693,394.513 726.803,734.528"/><path fill="#cc673a" d="M 963.417 597.023 C 926.296 667.008 847.424 712.843 726.8 734.528 L 136.693 394.513 C 173.814 324.598 252.685 278.765 373.307 257.013 L 963.417 597.023 Z"/></g><path fill="#d1a62d" d="M 237.332 492.286 C 237.332 484.174 233.99 476.42 228.092 470.851 C 222.195 465.281 214.263 462.387 206.164 462.851 L 130.627 477.888 L 130.627 537.113 L 194.075 513.423 L 221.523 609.423 L 220.517 619.061 L 263.211 615.561 L 263.791 602.944 L 237.332 492.286 Z"/><path fill="#3d3d3d" d="M 221.524 609.426 C 221.524 609.426 258.658 623.365 263.791 602.944 C 263.791 602.944 305.746 594.027 304.509 603.344 C 303.27 612.678 276.229 624.164 266.967 625.403 C 259.192 626.498 251.606 628.664 244.425 631.839 C 240.749 633.662 218.847 638.961 218.449 630.739 C 218.052 622.483 221.524 609.426 221.524 609.426 Z"/><path fill="#3d3d3d" d="M 309.152 627.478 C 309.152 627.478 346.287 641.418 351.419 620.997 C 351.419 620.997 393.375 612.079 392.138 621.391 C 390.898 630.726 363.858 642.212 354.596 643.452 C 346.821 644.547 339.235 646.712 332.053 649.887 C 328.378 651.709 306.476 657.009 306.077 648.787 C 305.68 640.535 309.152 627.478 309.152 627.478 Z"/><path fill="#4f4d4d" d="M 166.2 719.91 C 161.518 727.279 169.324 735.085 176.693 730.403 C 177.22 730.062 177.669 729.612 178.01 729.085 C 182.692 721.717 174.886 713.91 167.518 718.593 C 166.991 718.934 166.541 719.383 166.2 719.91 Z"/><path fill="#4f4d4d" d="M 107.5 696.1 C 102.818 703.469 110.624 711.275 117.993 706.593 C 118.52 706.252 118.968 705.803 119.309 705.276 C 123.991 697.908 116.185 690.101 108.816 694.784 C 108.289 695.125 107.841 695.573 107.5 696.1 Z"/><path fill="#4f4d4d" d="M 224.919 696.1 C 220.237 703.469 228.043 711.275 235.412 706.593 C 235.939 706.252 236.388 705.803 236.729 705.276 C 241.411 697.908 233.605 690.101 226.237 694.784 C 225.71 695.125 225.26 695.573 224.919 696.1 Z"/><path fill="#4f4d4d" d="M 129.557 658.6 C 124.875 665.969 132.681 673.775 140.049 669.093 C 140.576 668.752 141.025 668.303 141.366 667.776 C 146.049 660.407 138.242 652.601 130.874 657.283 C 130.347 657.624 129.898 658.073 129.557 658.6 Z"/><path fill="#4f4d4d" d="M 202.867 658.6 C 198.185 665.969 205.991 673.775 213.359 669.093 C 213.886 668.752 214.335 668.303 214.676 667.776 C 219.358 660.407 211.552 652.601 204.183 657.283 C 203.656 657.624 203.208 658.073 202.867 658.6 Z"/><g class="cls-1"><path fill="#6d6d6d" d="M 128.657 656.532 L 128.632 647.994 C 128.691 649.021 129.22 649.964 130.066 650.55 L 159.912 674.45 L 159.936 682.988 L 130.09 659.088 C 129.244 658.502 128.715 657.559 128.657 656.532 Z"/><path fill="#6d6d6d" d="M 214.586 659.089 L 184.474 682.989 L 184.45 674.451 L 214.562 650.551 C 215.428 649.96 215.969 648.998 216.024 647.951 L 216.048 656.489 C 215.993 657.536 215.452 658.498 214.586 659.089 Z"/><path fill="#6d6d6d" d="M 106.452 689.115 C 107.732 691.421 112.006 692.685 115.992 691.933 L 164.551 682.805 L 164.575 691.343 L 116.016 700.471 C 112.03 701.223 107.757 699.959 106.477 697.653 C 106.243 697.245 106.117 696.784 106.111 696.314 L 106.087 687.776 C 106.093 688.246 106.218 688.707 106.452 689.115 Z"/><path fill="#6d6d6d" d="M 171.942 716.741 C 173.813 716.779 175.662 716.335 177.312 715.454 C 178.559 714.892 179.412 713.709 179.55 712.348 L 179.716 682.807 L 228.17 691.933 C 230.79 692.46 233.511 692.082 235.888 690.861 C 236.649 690.454 237.289 689.851 237.74 689.115 C 237.987 688.696 238.119 688.22 238.122 687.734 L 238.146 696.272 C 238.142 696.758 238.011 697.234 237.765 697.653 C 237.313 698.389 236.673 698.992 235.911 699.399 C 233.535 700.621 230.813 700.999 228.194 700.471 L 179.741 691.344 L 179.574 720.886 C 179.436 722.247 178.583 723.431 177.336 723.992 C 175.685 724.874 173.836 725.317 171.965 725.279 C 167.777 725.279 164.395 723.311 164.406 720.886 L 164.382 712.348 C 164.371 714.773 167.754 716.739 171.942 716.741 Z"/><path fill="#aeaeaf" d="M 130.864 644.866 C 128.264 646.366 127.855 648.779 130.064 650.55 L 159.91 674.45 L 111.351 683.578 C 110.291 683.763 109.269 684.124 108.328 684.647 C 106.369 685.778 105.548 687.489 106.45 689.115 C 107.73 691.421 112.004 692.685 115.99 691.933 L 164.549 682.805 L 164.38 712.348 C 164.369 714.773 167.752 716.739 171.94 716.741 C 173.811 716.779 175.66 716.335 177.31 715.454 C 178.557 714.892 179.41 713.709 179.548 712.348 L 179.714 682.807 L 228.168 691.933 C 230.788 692.461 233.509 692.083 235.886 690.861 C 236.647 690.454 237.287 689.851 237.738 689.115 C 239.047 686.807 236.881 684.33 232.901 683.579 L 184.448 674.452 L 214.56 650.552 C 217.031 648.589 216.296 645.842 212.916 644.416 C 209.731 643.155 206.159 643.317 203.101 644.86 C 202.828 645.017 202.566 645.193 202.319 645.388 L 172.125 669.353 L 142.363 645.388 C 139.914 643.426 135.172 642.988 131.777 644.416 C 131.463 644.547 131.159 644.697 130.864 644.866 Z"/></g><path fill="#6d6d6d" d="M 182.169 572.8 L 182.169 676.8 C 182.169 679.168 177.63 681.141 172.104 681.141 C 166.578 681.141 162.04 679.168 162.04 676.8 L 162.04 572.8 L 182.169 572.8 Z"/><g class="cls-1"><path fill="#4f4d4d" d="M 182.338 577.336 C 187.963 580.584 187.993 585.851 182.404 589.099 C 176.815 592.347 167.722 592.346 162.097 589.099 C 156.472 585.852 156.445 580.586 162.033 577.338 C 167.621 574.09 176.713 574.088 182.338 577.336 Z"/></g><g class="cls-1"><path fill="#4f4d4d" d="M 256.633 552.66 L 178.118 598.288 C 171.753 601.988 161.378 601.995 154.957 598.288 L 75.928 552.661 C 72.698 550.796 71.088 548.35 71.095 545.907 L 71.019 572.6 C 71.012 575.042 72.619 577.489 75.852 579.354 L 154.881 624.982 C 161.302 628.689 171.681 628.682 178.042 624.982 L 256.558 579.354 C 259.727 577.513 261.314 575.104 261.321 572.693 L 261.4 546 C 261.389 548.41 259.8 550.818 256.633 552.66 Z"/><path fill="#bfbfbf" d="M 256.558 539.244 C 262.979 542.952 263.013 548.952 256.633 552.66 L 178.118 598.288 C 171.753 601.988 161.378 601.996 154.957 598.288 L 75.928 552.661 C 69.507 548.953 69.487 542.944 75.852 539.245 L 154.367 493.617 C 160.747 489.909 171.108 489.909 177.529 493.617 L 256.558 539.244 Z"/></g><path fill="#fcc080" d="M 141.791 385.336 L 144.053 350.847 L 161.3 295.164 L 204.342 291.344 C 204.342 291.344 210.496 376.229 188.213 366.904 C 187.168 366.467 186.113 367.689 186.113 368.822 L 186.113 395.513 L 141.791 385.336 Z"/><path fill="#e8e8e8" d="M 139.8 376.653 C 160.869 381.591 182.267 380.603 188.85 380.274 L 187.369 369.579 C 187.369 369.579 164.504 370.498 141.789 363.914 C 141.791 363.914 140.954 375.006 139.8 376.653 Z"/><path fill="#a57859" d="M 235.773 521.964 C 233.784 478.783 242.141 410.329 223.436 402.364 C 204.536 394.006 193.188 386.245 193.188 386.245 L 191 379.882 C 191 379.882 164.335 382.668 138.863 376.3 C 138.863 376.3 138.824 376.351 138.75 376.441 C 136.633 379.017 133.026 379.806 130.027 378.348 C 121.505 374.248 102.752 368.203 97.877 391.36 C 93.522 410.832 104.228 474.28 108.019 505.625 C 110.536 526.445 121.846 545.774 140.137 556.036 C 163.215 568.984 166.463 587.002 192.93 577.391 L 193.13 577.391 C 197.507 575.601 250.769 543.591 259.924 539.609 C 259.923 539.609 236.172 528.93 235.773 521.964 Z"/><g class="cls-1"><path fill="#686868" d="M 160.638 446.46 L 81.609 400.833 C 78.377 398.967 75.452 398.792 73.339 400.02 L 50.261 413.432 C 52.373 412.205 55.298 412.379 58.529 414.245 L 137.558 459.872 C 143.98 463.579 149.158 472.552 149.139 479.93 L 148.881 607.215 C 148.871 610.874 147.581 613.453 145.491 614.666 L 168.57 601.253 C 170.657 600.041 171.95 597.462 171.961 593.803 L 172.218 466.518 C 172.239 459.14 167.059 450.167 160.638 446.46 Z"/><path fill="#4f4d4d" d="M 137.558 459.872 C 143.98 463.579 149.158 472.552 149.139 479.93 L 148.881 607.215 C 148.86 614.577 143.646 617.565 137.225 613.858 L 58.2 568.23 C 51.778 564.523 46.6 555.53 46.619 548.172 L 46.877 420.888 C 46.898 413.509 52.112 410.537 58.533 414.245 L 137.558 459.872 Z"/></g><g class="cls-1"><path fill="#686868" d="M 101.108 593.785 L 84.643 603.292 C 83.9083 603.824 82.9431 603.916 82.121 603.533 L 121.621 626.488 C 122.443 626.871 123.408 626.778 124.143 626.246 L 140.608 616.74 L 101.108 593.785 Z"/><path fill="#686868" d="M 112.668 628.786 L 112.534 532.631 L 73.034 509.677 L 73.168 605.832 C 73.179 609.432 74.45 611.954 76.499 613.145 L 116 636.1 C 113.95 634.909 112.678 632.382 112.668 628.786 Z"/><polygon fill="#cececf" points="112.535,532.632 73.036,509.678 80.95,505.108 120.449,528.062 112.535,532.632"/><path fill="#3d3d3d" d="M 120.449 528.062 L 120.583 624.217 C 120.589 626.46 122.191 627.373 124.143 626.246 L 140.607 616.746 L 149.139 620.971 L 124.169 635.3 C 117.852 638.947 112.689 636.045 112.669 628.786 L 112.536 532.632 L 120.449 528.062 Z"/></g><path fill="#14a0db" d="M 436.567 605.652 C 436.567 597.54 433.225 589.787 427.328 584.217 C 421.43 578.647 413.499 575.753 405.4 576.217 L 329.863 591.254 L 329.863 650.479 L 393.31 626.789 L 420.759 722.789 L 419.752 732.427 L 462.445 728.927 L 463.025 716.31 L 436.567 605.652 Z"/><path fill="#3d3d3d" d="M 420.759 722.792 C 420.759 722.792 457.893 736.731 463.025 716.31 C 463.025 716.31 504.982 707.393 503.745 716.71 C 502.506 726.044 475.465 737.53 466.202 738.769 C 458.427 739.863 450.841 742.027 443.66 745.2 C 439.985 747.023 418.083 752.322 417.683 744.095 C 417.287 735.849 420.759 722.792 420.759 722.792 Z"/><path fill="#3d3d3d" d="M 508.387 740.844 C 508.387 740.844 545.522 754.784 550.654 734.363 C 550.654 734.363 592.61 725.445 591.373 734.757 C 590.133 744.092 563.093 755.578 553.831 756.817 C 546.056 757.912 538.47 760.078 531.289 763.253 C 527.613 765.075 505.71 770.375 505.312 762.153 C 504.915 753.9 508.387 740.844 508.387 740.844 Z"/><path fill="#4f4d4d" d="M 365.434 833.276 C 360.752 840.644 368.558 848.451 375.927 843.768 C 376.455 843.427 376.903 842.979 377.244 842.451 C 381.926 835.082 374.12 827.276 366.751 831.959 C 366.224 832.3 365.775 832.749 365.434 833.276 Z"/><path fill="#4f4d4d" d="M 306.739 809.466 C 302.057 816.835 309.863 824.641 317.232 819.959 C 317.758 819.617 318.207 819.168 318.549 818.642 C 323.231 811.273 315.425 803.467 308.056 808.149 C 307.529 808.49 307.08 808.939 306.739 809.466 Z"/><path fill="#4f4d4d" d="M 424.154 809.466 C 419.472 816.835 427.278 824.641 434.647 819.959 C 435.174 819.618 435.623 819.169 435.964 818.642 C 440.646 811.273 432.84 803.467 425.471 808.149 C 424.945 808.491 424.496 808.94 424.154 809.466 Z"/><path fill="#4f4d4d" d="M 328.792 771.961 C 324.11 779.33 331.916 787.136 339.285 782.454 C 339.812 782.113 340.26 781.664 340.601 781.137 C 345.283 773.768 337.477 765.962 330.108 770.644 C 329.581 770.985 329.133 771.434 328.792 771.961 Z"/><path fill="#4f4d4d" d="M 402.1 771.961 C 397.418 779.33 405.224 787.136 412.593 782.454 C 413.12 782.113 413.568 781.664 413.909 781.137 C 418.591 773.768 410.785 765.962 403.416 770.644 C 402.889 770.985 402.441 771.434 402.1 771.961 Z"/><g class="cls-1"><path fill="#6d6d6d" d="M 327.892 769.9 L 327.867 761.362 C 327.926 762.389 328.455 763.332 329.301 763.918 L 359.147 787.818 L 359.171 796.356 L 329.325 772.456 C 328.479 771.87 327.95 770.927 327.892 769.9 Z"/><path fill="#6d6d6d" d="M 413.821 772.455 L 383.709 796.355 L 383.684 787.817 L 413.796 763.917 C 414.662 763.326 415.203 762.364 415.259 761.317 L 415.284 769.855 C 415.228 770.902 414.687 771.864 413.821 772.455 Z"/><path fill="#6d6d6d" d="M 305.688 802.481 C 306.968 804.787 311.241 806.051 315.227 805.299 L 363.786 796.171 L 363.811 804.709 L 315.251 813.837 C 311.265 814.589 306.991 813.325 305.712 811.019 C 305.478 810.611 305.352 810.15 305.346 809.68 L 305.322 801.142 C 305.328 801.612 305.454 802.073 305.688 802.481 Z"/><path fill="#6d6d6d" d="M 371.176 830.107 C 373.047 830.145 374.896 829.702 376.547 828.82 C 377.794 828.258 378.647 827.075 378.785 825.714 L 378.951 796.172 L 427.405 805.299 C 430.025 805.826 432.746 805.448 435.123 804.227 C 435.884 803.819 436.523 803.217 436.975 802.481 C 437.221 802.062 437.353 801.585 437.357 801.099 L 437.381 809.638 C 437.378 810.124 437.246 810.6 437 811.019 C 436.548 811.755 435.908 812.357 435.147 812.765 C 432.77 813.987 430.049 814.365 427.429 813.837 L 378.976 804.71 L 378.809 834.252 C 378.671 835.613 377.818 836.796 376.571 837.358 C 374.921 838.239 373.072 838.682 371.201 838.644 C 367.013 838.644 363.63 836.677 363.641 834.252 L 363.617 825.714 C 363.606 828.139 366.989 830.105 371.176 830.107 Z"/><path fill="#aeaeaf" d="M 330.1 758.232 C 327.5 759.732 327.092 762.145 329.3 763.916 L 359.146 787.816 L 310.587 796.944 C 309.527 797.129 308.505 797.49 307.564 798.013 C 305.605 799.144 304.784 800.855 305.687 802.481 C 306.967 804.787 311.24 806.051 315.226 805.299 L 363.785 796.171 L 363.616 825.714 C 363.605 828.139 366.988 830.105 371.175 830.107 C 373.046 830.145 374.895 829.702 376.546 828.82 C 377.793 828.258 378.646 827.075 378.784 825.714 L 378.95 796.172 L 427.404 805.299 C 430.024 805.826 432.745 805.448 435.122 804.227 C 435.883 803.819 436.522 803.217 436.974 802.481 C 438.283 800.173 436.117 797.695 432.137 796.945 L 383.683 787.818 L 413.795 763.918 C 416.267 761.955 415.532 759.208 412.153 757.782 C 408.968 756.521 405.395 756.683 402.337 758.226 C 402.064 758.383 401.802 758.559 401.554 758.754 L 371.361 782.719 L 341.6 758.753 C 339.151 756.791 334.41 756.353 331.013 757.781 C 330.699 757.912 330.394 758.062 330.1 758.232 Z"/></g><path fill="#6d6d6d" d="M 381.4 686.165 L 381.4 790.165 C 381.4 792.533 376.862 794.506 371.336 794.506 C 365.81 794.506 361.271 792.533 361.271 790.165 L 361.271 686.165 L 381.4 686.165 Z"/><g class="cls-1"><path fill="#4f4d4d" d="M 381.573 690.7 C 387.198 693.948 387.227 699.215 381.639 702.463 C 376.051 705.711 366.957 705.71 361.332 702.463 C 355.707 699.216 355.68 693.95 361.269 690.702 C 366.858 687.454 375.948 687.454 381.573 690.7 Z"/></g><g class="cls-1"><path fill="#4f4d4d" d="M 455.869 666.026 L 377.353 711.654 C 370.988 715.354 360.613 715.361 354.191 711.654 L 275.163 666.027 C 271.933 664.162 270.323 661.715 270.33 659.273 L 270.254 685.966 C 270.248 688.408 271.854 690.855 275.087 692.719 L 354.116 738.347 C 360.538 742.054 370.916 742.047 377.277 738.347 L 455.792 692.719 C 458.962 690.877 460.549 688.469 460.555 686.058 L 460.631 659.364 C 460.624 661.776 459.038 664.184 455.869 666.026 Z"/><path fill="#bfbfbf" d="M 455.793 652.61 C 462.214 656.318 462.248 662.318 455.869 666.026 L 377.353 711.654 C 370.988 715.354 360.613 715.361 354.192 711.654 L 275.163 666.027 C 268.741 662.319 268.722 656.31 275.087 652.611 L 353.6 606.983 C 359.98 603.275 370.34 603.275 376.762 606.983 L 455.793 652.61 Z"/></g><path fill="#fcc080" d="M 341.026 498.7 L 343.288 464.211 L 360.532 408.528 L 403.574 404.708 C 403.574 404.708 409.729 489.593 387.446 480.268 C 386.401 479.831 385.346 481.053 385.346 482.185 L 385.346 508.877 L 341.026 498.7 Z"/><path fill="#e8e8e8" d="M 339.037 490.019 C 360.106 494.957 381.504 493.969 388.087 493.64 L 386.606 482.945 C 386.606 482.945 363.741 483.864 341.026 477.279 C 341.026 477.279 340.189 488.372 339.037 490.019 Z"/><path fill="#7bd3f7" d="M 435.008 635.33 C 433.019 592.149 441.377 523.695 422.671 515.73 C 403.771 507.372 392.423 499.611 392.423 499.611 L 390.235 493.243 C 390.235 493.243 363.57 496.029 338.098 489.661 C 338.098 489.661 338.059 489.712 337.985 489.802 C 335.868 492.378 332.261 493.167 329.262 491.709 C 320.74 487.609 301.988 481.564 297.112 504.721 C 292.757 524.193 303.464 587.641 307.254 618.986 C 309.772 639.806 321.082 659.135 339.372 669.397 C 362.45 682.344 365.698 700.363 392.164 690.752 L 392.364 690.752 C 396.741 688.962 450.004 656.952 459.157 652.97 C 459.157 652.975 435.406 642.3 435.008 635.33 Z"/><path fill="#f6d341" d="M 262.8 489.466 C 254.736 493.693 248.421 497.317 246.568 499.192 C 246.568 499.192 247.301 399.949 214.497 397.802 C 214.497 397.802 197.238 394.209 199.304 424.65 C 201.37 455.091 217.227 542.663 239.248 532.6 C 250.085 527.648 271.661 516.074 290.791 505.593 L 262.8 489.466 Z"/><g class="cls-1"><path fill="#686868" d="M 359.872 559.826 L 280.844 514.2 C 277.612 512.334 274.686 512.159 272.575 513.387 L 249.5 526.8 C 251.613 525.573 254.538 525.747 257.77 527.612 L 336.799 573.24 C 343.22 576.947 348.399 585.919 348.379 593.298 L 348.122 720.583 C 348.111 724.242 346.822 726.821 344.731 728.034 L 367.8 714.619 C 369.888 713.407 371.182 710.828 371.191 707.169 L 371.449 579.884 C 371.474 572.506 366.294 563.533 359.872 559.826 Z"/><path fill="#4f4d4d" d="M 336.794 573.238 C 343.215 576.945 348.394 585.917 348.374 593.296 L 348.117 720.581 C 348.095 727.942 342.882 730.931 336.46 727.224 L 257.431 681.6 C 251.01 677.893 245.831 668.9 245.851 661.542 L 246.108 534.258 C 246.129 526.879 251.343 523.907 257.765 527.614 L 336.794 573.238 Z"/></g><g class="cls-1"><path fill="#686868" d="M 300.344 707.151 L 283.879 716.657 C 283.144 717.19 282.179 717.282 281.356 716.899 L 320.856 739.854 C 321.678 740.237 322.643 740.144 323.378 739.612 L 339.843 730.106 L 300.344 707.151 Z"/><path fill="#686868" d="M 311.9 742.152 L 311.77 646 L 272.27 623.046 L 272.4 719.2 C 272.411 722.8 273.682 725.322 275.732 726.513 L 315.232 749.467 C 313.185 748.275 311.913 745.748 311.9 742.152 Z"/><polygon fill="#cececf" points="311.77,645.998 272.271,623.043 280.185,618.473 319.684,641.428 311.77,645.998"/><path fill="#3d3d3d" d="M 319.684 641.428 L 319.818 737.583 C 319.824 739.826 321.426 740.739 323.378 739.612 L 339.843 730.106 L 348.374 734.332 L 323.4 748.666 C 317.083 752.313 311.92 749.411 311.9 742.152 L 311.77 646 L 319.684 641.428 Z"/></g><path fill="#3f7337" d="M 635.8 719.018 C 635.8 710.906 632.458 703.152 626.56 697.583 C 620.663 692.013 612.731 689.119 604.632 689.583 L 529.1 704.619 L 529.1 763.845 L 592.548 740.155 L 619.996 836.155 L 618.99 845.793 L 661.684 842.293 L 662.264 829.676 L 635.8 719.018 Z"/><path fill="#3d3d3d" d="M 619.993 836.158 C 619.993 836.158 657.129 850.097 662.26 829.676 C 662.26 829.676 704.216 820.758 702.98 830.071 C 701.74 839.406 674.7 850.892 665.438 852.131 C 657.663 853.226 650.077 855.392 642.895 858.567 C 639.22 860.389 617.317 865.689 616.918 857.462 C 616.522 849.215 619.993 836.158 619.993 836.158 Z"/><path fill="#4f4d4d" d="M 564.67 946.641 C 559.988 954.01 567.794 961.816 575.163 957.134 C 575.69 956.793 576.138 956.344 576.479 955.817 C 581.161 948.448 573.355 940.642 565.986 945.324 C 565.459 945.665 565.011 946.114 564.67 946.641 Z"/><path fill="#4f4d4d" d="M 505.974 922.832 C 501.292 930.201 509.098 938.007 516.467 933.324 C 516.994 932.983 517.443 932.535 517.784 932.008 C 522.466 924.639 514.66 916.833 507.291 921.515 C 506.764 921.856 506.315 922.305 505.974 922.832 Z"/><ellipse fill="#4f4d4d" transform="matrix(0.707107,-0.707107,0.707107,0.707107,-471.469,716.613)" cx="629.294" cy="927.42" rx="5.643" ry="7.523"/><path fill="#4f4d4d" d="M 528.027 885.327 C 523.345 892.695 531.151 900.501 538.52 895.819 C 539.047 895.478 539.496 895.03 539.837 894.503 C 544.519 887.134 536.713 879.328 529.344 884.01 C 528.817 884.351 528.368 884.8 528.027 885.327 Z"/><path fill="#4f4d4d" d="M 601.337 885.327 C 596.654 892.695 604.461 900.501 611.829 895.819 C 612.356 895.478 612.806 895.03 613.147 894.503 C 617.829 887.134 610.023 879.328 602.654 884.01 C 602.127 884.351 601.678 884.8 601.337 885.327 Z"/><g class="cls-1"><path fill="#6d6d6d" d="M 527.127 883.264 L 527.103 874.726 C 527.161 875.753 527.69 876.697 528.536 877.282 L 558.382 901.182 L 558.406 909.721 L 528.56 885.821 C 527.714 885.235 527.185 884.292 527.127 883.264 Z"/><path fill="#6d6d6d" d="M 613.056 885.821 L 582.944 909.721 L 582.92 901.184 L 613.032 877.284 C 613.898 876.693 614.439 875.731 614.494 874.684 L 614.518 883.222 C 614.462 884.269 613.922 885.23 613.056 885.821 Z"/><path fill="#6d6d6d" d="M 504.923 915.846 C 506.203 918.153 510.476 919.417 514.462 918.665 L 563.021 909.536 L 563.045 918.075 L 514.486 927.2 C 510.5 927.953 506.227 926.688 504.947 924.382 C 504.713 923.974 504.587 923.514 504.581 923.044 L 504.557 914.506 C 504.562 914.977 504.688 915.438 504.923 915.846 Z"/><path fill="#6d6d6d" d="M 570.411 943.472 C 572.282 943.51 574.131 943.067 575.782 942.186 C 577.029 941.624 577.882 940.441 578.02 939.08 L 578.187 909.538 L 626.64 918.665 C 629.259 919.192 631.98 918.814 634.357 917.593 C 635.119 917.185 635.758 916.583 636.211 915.847 C 636.457 915.428 636.589 914.951 636.592 914.465 L 636.617 923.004 C 636.613 923.49 636.481 923.966 636.235 924.384 C 635.783 925.12 635.143 925.723 634.382 926.131 C 632.005 927.352 629.284 927.73 626.664 927.203 L 578.21 918.076 L 578.044 947.617 C 577.907 948.978 577.054 950.162 575.807 950.724 C 574.156 951.605 572.307 952.048 570.436 952.01 C 566.248 952.01 562.865 950.042 562.876 947.617 L 562.852 939.079 C 562.841 941.505 566.224 943.47 570.411 943.472 Z"/><path fill="#aeaeaf" d="M 529.334 871.6 C 526.734 873.1 526.325 875.513 528.534 877.284 L 558.38 901.184 L 509.821 910.312 C 508.761 910.497 507.739 910.858 506.798 911.381 C 504.839 912.512 504.017 914.222 504.921 915.849 C 506.201 918.155 510.474 919.419 514.46 918.667 L 563.019 909.538 L 562.85 939.081 C 562.839 941.507 566.222 943.472 570.409 943.474 C 572.28 943.512 574.129 943.069 575.78 942.188 C 577.027 941.626 577.88 940.443 578.018 939.082 L 578.185 909.54 L 626.638 918.667 C 629.257 919.194 631.978 918.816 634.355 917.595 C 635.117 917.187 635.756 916.585 636.209 915.849 C 637.518 913.54 635.352 911.063 631.371 910.313 L 582.918 901.186 L 613.03 877.286 C 615.502 875.323 614.766 872.576 611.386 871.15 C 608.201 869.89 604.629 870.051 601.57 871.593 C 601.297 871.75 601.036 871.927 600.788 872.122 L 570.6 896.083 L 540.839 872.118 C 538.389 870.157 533.648 869.718 530.252 871.147 C 529.936 871.278 529.63 871.429 529.334 871.6 Z"/></g><path fill="#6d6d6d" d="M 580.639 799.531 L 580.639 903.531 C 580.639 905.899 576.101 907.872 570.574 907.872 C 565.047 907.872 560.51 905.899 560.51 903.531 L 560.51 799.531 L 580.639 799.531 Z"/><g class="cls-1"><path fill="#4f4d4d" d="M 580.808 804.068 C 586.433 807.315 586.462 812.583 580.874 815.83 C 575.286 819.077 566.192 819.078 560.567 815.83 C 554.942 812.582 554.916 807.317 560.504 804.069 C 566.092 800.821 575.183 800.82 580.808 804.068 Z"/></g><g class="cls-1"><path fill="#4f4d4d" d="M 655.1 779.391 L 576.588 825.02 C 570.223 828.72 559.848 828.727 553.427 825.02 L 474.4 779.393 C 471.17 777.528 469.56 775.081 469.567 772.639 L 469.491 799.331 C 469.484 801.774 471.091 804.221 474.325 806.085 L 553.353 851.713 C 559.775 855.42 570.153 855.413 576.515 851.713 L 655.03 806.085 C 658.199 804.243 659.785 801.835 659.792 799.424 L 659.869 772.73 C 659.86 775.142 658.272 777.55 655.1 779.391 Z"/><path fill="#bfbfbf" d="M 655.028 765.976 C 661.449 769.683 661.483 775.684 655.103 779.392 L 576.588 825.02 C 570.223 828.72 559.848 828.727 553.427 825.02 L 474.4 779.393 C 467.978 775.685 467.959 769.675 474.325 765.976 L 552.84 720.348 C 559.219 716.641 569.579 716.641 576.001 720.348 L 655.028 765.976 Z"/></g><path fill="#fcc080" d="M 540.262 612.068 L 542.524 577.579 L 559.768 521.9 L 602.81 518.08 C 602.81 518.08 608.964 602.965 586.681 593.64 C 585.637 593.203 584.581 594.425 584.581 595.557 L 584.581 622.249 L 540.262 612.068 Z"/><path fill="#e8e8e8" d="M 538.272 603.385 C 559.341 608.322 580.738 607.335 587.322 607.005 L 585.841 596.311 C 585.841 596.311 562.977 597.23 540.262 590.645 C 540.262 590.645 539.424 601.738 538.272 603.385 Z"/><path fill="#80bc41" d="M 634.244 748.7 C 632.254 705.519 640.611 637.065 621.906 629.1 C 603.006 620.742 591.658 612.981 591.658 612.981 L 589.47 606.613 C 589.47 606.613 562.805 609.399 537.333 603.031 C 537.333 603.031 537.294 603.082 537.22 603.172 C 535.104 605.748 531.496 606.537 528.498 605.078 C 519.975 600.978 501.223 594.934 496.348 618.09 C 491.992 637.563 502.699 701.011 506.489 732.356 C 509.007 753.176 520.317 772.505 538.608 782.767 C 561.685 795.714 564.933 813.733 591.4 804.122 C 591.4 804.122 649.239 770.322 658.393 766.339 C 658.393 766.34 634.642 755.662 634.244 748.7 Z"/><path fill="#55b8e8" d="M 460.729 603.513 C 453.286 607.448 447.553 610.785 445.799 612.559 C 446.674 494.203 395.475 492.936 398.535 538.015 C 400.601 568.457 416.462 656.03 438.483 645.968 C 449.083 641.126 469.943 629.953 488.751 619.659 L 460.729 603.513 Z"/><g class="cls-1"><path fill="#686868" d="M 559.108 673.192 L 480.078 627.565 C 476.848 625.699 473.922 625.524 471.81 626.752 L 448.731 640.164 C 450.842 638.937 453.768 639.111 457 640.976 L 536.028 686.6 C 542.45 690.307 547.628 699.279 547.609 706.658 L 547.351 833.943 C 547.342 837.602 546.051 840.18 543.96 841.394 L 567.04 827.981 C 569.127 826.769 570.42 824.19 570.431 820.531 L 570.688 693.246 C 570.709 685.871 565.529 676.9 559.108 673.192 Z"/><path fill="#4f4d4d" d="M 536.028 686.6 C 542.45 690.307 547.628 699.279 547.609 706.658 L 547.351 833.943 C 547.331 841.304 542.117 844.292 535.696 840.586 L 456.666 794.958 C 450.245 791.25 445.066 782.258 445.086 774.9 L 445.343 647.615 C 445.364 640.237 450.578 637.265 457 640.972 L 536.028 686.6 Z"/></g><g class="cls-1"><path fill="#686868" d="M 499.578 820.517 L 483.114 830.023 C 482.379 830.555 481.414 830.648 480.592 830.265 L 520.092 853.22 C 520.914 853.603 521.879 853.51 522.614 852.978 L 539.079 843.472 L 499.578 820.517 Z"/><path fill="#686868" d="M 511.139 855.518 L 511.005 759.363 L 471.505 736.409 L 471.64 832.564 C 471.65 836.164 472.922 838.686 474.97 839.877 L 514.47 862.831 C 512.421 861.641 511.148 859.114 511.139 855.518 Z"/><polygon fill="#cececf" points="511.005,759.364 471.505,736.409 479.42,731.839 518.919,754.794 511.005,759.364"/><path fill="#3d3d3d" d="M 518.919 754.794 L 519.053 850.949 C 519.059 853.191 520.662 854.105 522.614 852.978 L 539.078 843.472 L 547.609 847.697 L 522.639 862.032 C 516.322 865.679 511.159 862.777 511.139 855.518 L 511.006 759.364 L 518.919 754.794 Z"/></g><path fill="#589441" d="M 645.034 725.924 C 645.034 725.924 645.767 626.681 612.962 624.534 C 612.962 624.534 595.704 620.94 597.77 651.381 C 599.836 681.822 615.7 769.4 637.719 759.335 C 648.08 754.6 668.24 743.819 686.71 733.72 L 658.666 717.562 C 651.85 721.2 646.687 724.252 645.034 725.924 Z"/><path fill="#3d3d3d" d="M 608.619 496.949 C 608.619 496.949 611.807 487.775 604.414 489.698 C 604.414 489.698 609.675 485.35 600.096 480.482 C 600.096 480.482 600.953 483.328 597.796 487.772 C 597.796 487.772 596.971 482.711 591.05 478.949 C 590.776 481.204 590.087 483.389 589.018 485.393 C 589.018 485.393 587.797 476.604 582.265 478.845 C 582.265 478.845 584.491 481.495 581.565 483.269 C 581.565 483.269 562.074 482.584 555.943 483.055 C 540.828 484.198 512.259 489.625 524.602 539.695 C 524.602 539.695 528.651 559.382 535.181 568.081 C 538.754 572.999 540.485 579.016 540.072 585.081 C 540 586.056 540.666 586.932 541.624 587.124 C 547.388 588.265 566.048 591.532 575.053 587.965 C 575.371 587.845 575.649 587.637 575.853 587.365 C 576.853 585.997 578.924 580.944 574.13 564.909 C 574.13 564.909 571.223 551.132 580.097 549.138 C 588.991 547.138 593.525 561.655 593.525 561.655 C 593.525 561.655 579.225 510.792 606.088 525.596 C 606.687 525.937 607.422 525.932 608.016 525.583 C 608.61 525.235 608.972 524.595 608.966 523.906 C 608.721 519.129 607.712 514.423 605.978 509.965 C 608.809 507.449 615.253 500.8 608.619 496.949 Z"/><path fill="#3d3d3d" d="M 409.384 383.391 C 409.384 383.391 412.573 374.219 405.179 376.14 C 405.179 376.14 410.439 371.793 400.86 366.925 C 400.86 366.925 401.718 369.771 398.56 374.215 C 398.56 374.215 397.734 369.154 391.813 365.392 C 391.539 367.647 390.85 369.832 389.782 371.836 C 389.782 371.836 388.56 363.047 383.028 365.288 C 383.028 365.288 385.255 367.938 382.328 369.711 C 382.328 369.711 362.837 369.027 356.706 369.498 C 341.592 370.641 313.024 376.068 325.365 426.137 C 325.365 426.137 329.415 445.824 335.945 454.523 C 339.518 459.441 341.249 465.458 340.836 471.523 C 340.765 472.497 341.43 473.373 342.388 473.565 C 348.151 474.705 366.812 477.973 375.816 474.405 C 376.134 474.285 376.412 474.077 376.616 473.805 C 377.616 472.438 379.686 467.385 374.893 451.35 C 374.893 451.35 371.985 437.573 380.86 435.578 C 389.753 433.578 394.287 448.096 394.287 448.096 C 394.287 448.096 379.987 397.233 406.851 412.037 C 407.45 412.378 408.185 412.373 408.78 412.024 C 409.374 411.675 409.736 411.035 409.73 410.346 C 409.484 405.57 408.474 400.864 406.741 396.406 C 409.574 393.891 416.017 387.24 409.384 383.391 Z"/><path fill="#3d3d3d" d="M 210.149 269.834 C 210.149 269.834 213.337 260.661 205.944 262.583 C 205.944 262.583 211.203 258.236 201.625 253.367 C 201.625 253.367 202.482 256.213 199.325 260.657 C 199.325 260.657 198.5 255.596 192.579 251.834 C 192.305 254.089 191.616 256.274 190.547 258.278 C 190.547 258.278 189.326 249.489 183.794 251.73 C 183.794 251.73 186.021 254.381 183.094 256.155 C 183.094 256.155 163.603 255.469 157.471 255.94 C 142.357 257.084 113.789 262.51 126.132 312.58 C 126.132 312.58 130.18 332.267 136.711 340.966 C 140.284 345.884 142.015 351.901 141.602 357.966 C 141.53 358.94 142.195 359.816 143.153 360.008 C 148.917 361.15 167.577 364.417 176.581 360.849 C 176.9 360.73 177.177 360.522 177.381 360.249 C 178.381 358.882 180.452 353.829 175.658 337.794 C 175.658 337.794 172.752 324.016 181.625 322.022 C 190.525 320.022 195.053 334.539 195.053 334.539 C 195.053 334.539 180.753 283.676 207.617 298.481 C 208.216 298.822 208.951 298.817 209.545 298.468 C 210.139 298.119 210.502 297.479 210.495 296.79 C 210.249 292.013 209.241 287.307 207.507 282.849 C 210.338 280.334 216.782 273.682 210.149 269.834 Z"/><path fill="#4f4d4d" d="M 877.955 299.175 C 884.055 301.384 888.068 305.975 896.255 312.163 C 896.255 312.163 904.175 317.692 899.889 332.097 L 904.954 331.152 C 904.954 331.152 910.069 312.273 917.509 321.686 C 924.949 331.099 913.87 349.086 913.87 349.086 C 913.87 349.086 921.951 344.727 925.279 339.65 C 927.373 336.45 937.521 317.084 935.979 299.178 L 877.955 299.175 Z"/><path fill="#3d3d3d" d="M 934.187 318.881 C 941.637 280.109 924.109 275.033 906.487 269.827 C 899.987 267.906 892.003 267.747 885.829 270.293 C 878.836 273.177 872.235 275.511 864.807 275.36 C 857.865 275.22 853.665 278.65 852.883 284.36 C 851.989 290.897 855.795 297.54 861.96 299.34 C 868.584 301.404 875.33 303.052 882.16 304.275 C 888.766 305.331 895.675 304.445 902.133 306.047 C 908.152 307.547 913.833 310.889 919.55 313.747 L 934.187 318.881 Z"/><path fill="#4f4d4d" d="M 691.811 197.5 C 697.911 199.709 701.924 204.3 710.111 210.49 C 710.111 210.49 718.031 216.018 713.746 230.423 L 718.81 229.478 C 718.81 229.478 723.925 210.598 731.366 220.011 C 738.807 229.424 727.727 247.411 727.727 247.411 C 727.727 247.411 735.808 243.053 739.135 237.974 C 741.235 234.774 751.379 215.409 749.835 197.502 L 691.811 197.5 Z"/><path fill="#3d3d3d" d="M 748.043 217.208 C 755.493 178.434 737.964 173.359 720.343 168.153 C 713.843 166.232 705.858 166.073 699.684 168.619 C 692.692 171.504 686.091 173.837 678.663 173.687 C 662.119 173.351 663.531 194.087 675.816 197.67 C 718.016 209.989 700.627 195.68 733.407 212.081 L 748.043 217.208 Z"/><path fill="#4f4d4d" d="M 505.275 96.357 C 511.375 98.566 515.388 103.157 523.575 109.346 C 523.575 109.346 531.495 114.874 527.209 129.279 L 532.274 128.335 C 532.274 128.335 537.389 109.455 544.83 118.868 C 552.271 128.281 541.191 146.268 541.191 146.268 C 541.191 146.268 549.272 141.91 552.599 136.831 C 554.693 133.637 564.842 114.266 563.299 96.36 L 505.275 96.357 Z"/><path fill="#3d3d3d" d="M 561.506 116.064 C 568.957 77.291 551.428 72.215 533.811 67.009 C 527.311 65.088 519.326 64.93 513.153 67.476 C 506.159 70.36 499.559 72.693 492.13 72.543 C 485.189 72.402 480.989 75.832 480.207 81.543 C 479.312 88.081 483.118 94.723 489.284 96.523 C 495.908 98.5874 502.654 100.236 509.484 101.458 C 516.089 102.514 522.999 101.628 529.456 103.231 C 535.475 104.731 541.156 108.073 546.873 110.931 L 561.506 116.064 Z"/></g></g></svg>
