<?xml version="1.0" encoding="UTF-8" standalone="yes"?><svg fill="none" xmlns="http://www.w3.org/2000/svg" xmlns:xlink="http://www.w3.org/1999/xlink" version="1.2" baseProfile="tiny" x="0" y="0" width="256" height="256" viewBox="0 0 256 256"><defs/><defs/><defs/><defs/><g id="รฅยยรฉยยขรฆยยง_10741942172.รคยธยรงยปยฉรคยธยรฉยย"><g id="Group"><g id="Group_2"><g id="Group_3"><path id="Vector" fill="#b0cb3e" fill-opacity="1" clip-rule="evenodd" d="M 33.6836 1.52588e-05 C 34.5729 0.807999 35.4352 1.6566 36.3783 2.42488 C 51.33 14.8328 63.6602 30.0945 72.6496 47.3191 C 81.7377 64.7241 88.0046 83.4607 91.2163 102.831 C 93.5743 116.345 94.6521 129.926 94.4231 143.629 C 94.3692 145.664 94.2209 147.698 94.0997 149.827 L 52.9241 149.827 L 137.66 256 L 222.315 149.855 L 220.564 149.855 L 183.457 149.881 C 182.46 149.881 182.003 149.746 181.894 148.574 C 180.355 133.991 177.312 119.605 172.813 105.646 C 167.625 89.4624 159.869 74.2176 149.84 60.4962 C 139.778 46.8683 127.346 35.1616 113.138 25.9365 C 95.0127 14.1816 74.7179 6.17371 53.4495 2.38425 C 47.9658 1.37404 42.3741 0.943115 36.8364 0.228699 C 36.4592 0.174835 36.0954 0.0803375 35.7451 1.52588e-05 L 33.6836 1.52588e-05 Z"/></g></g></g></g></svg>
