<?xml version="1.0" encoding="UTF-8" standalone="yes"?><svg class="icon" xmlns="http://www.w3.org/2000/svg" xmlns:xlink="http://www.w3.org/1999/xlink" version="1.2" baseProfile="tiny" x="0" y="0" width="200" height="200" viewBox="0 0 1024 1024"><defs/><defs/><path fill="#62a531" fill-opacity="1" d="M 588.5 960.2 L 435.5 960.2 C 410.1 960.2 389.6 939.6 389.6 914.3 C 389.6 888.9 410.2 868.4 435.5 868.4 L 588.6 868.4 C 614 868.4 634.5 889 634.5 914.3 C 634.4 939.6 613.9 960.2 588.5 960.2 M 724.4 152 C 665.7 93.1 594.9 63.8 512 63.8 C 429 63.8 358.2 93.1 299.6 151.8 C 240.9 210.4 211.6 281.2 211.6 364.2 C 211.6 437.7 235 502.7 282 559 C 346.1 623.2 384.4 700.5 396.9 791.3 C 396.9 806.9 403.9 814.7 418 814.7 L 481.3 814.7 L 481.3 558.2 L 372.3 449.1 C 360.3 437.1 360.3 417.8 372.3 405.8 C 384.3 393.8 403.6 393.8 415.6 405.8 L 512 502.2 L 608.4 405.8 C 620.4 393.8 639.7 393.8 651.7 405.8 C 663.7 417.8 663.7 437.1 651.7 449.1 L 542.6 558.2 L 542.6 814.8 L 605.9 814.8 C 620 814.8 627 807 627 791.4 C 630.1 772.7 634.4 754.2 639.9 736.2 C 645.3 718.2 651.2 701.8 657.5 686.9 C 663.8 672 670.8 658 678.6 644.6 C 686.3 631.4 694.2 619.7 702 609.5 C 709.9 599.3 716.4 590.3 721.9 582.5 C 727.3 574.6 732.5 568.4 737.2 563.8 L 741.9 556.8 C 788.8 502.1 812.3 437.9 812.3 364.4 C 812.4 281.4 783.1 210.6 724.4 152"/></svg>
