<?xml version="1.0" encoding="UTF-8" standalone="yes"?><svg xmlns="http://www.w3.org/2000/svg" xmlns:xlink="http://www.w3.org/1999/xlink" version="1.2" baseProfile="tiny" x="0" y="0" width="256" height="256" viewBox="0 0 256 256"><defs/><defs/><defs/><defs/><defs/><defs/><defs/><g transform="matrix(9.56336,0,0,9.56336,-26.3807,-34.572)"><g id="Page-1" fill="none" fill-rule="evenodd" stroke="none" stroke-width="1"><g id="分组-117" fill="#262626" transform="matrix(1,0,0,1,-127,-190)"><g id="chanpinzhanshi" transform="matrix(1,0,0,1,129,196)"><path id="路径" fill="#ffffff" fill-opacity="1" d="M 4.83859 13.6612 L 4.83859 17.6369 C 4.83859 18.0475 5.08959 18.4164 5.47154 18.5671 L 13.8069 21.8562 C 14.0457 21.9504 14.3117 21.9492 14.5496 21.8528 L 22.9267 18.4575 C 23.3041 18.3045 23.5511 17.9379 23.5511 17.5307 L 23.5511 13.5202 L 26.9178 12.0914 C 27.4262 11.8756 27.6634 11.2886 27.4476 10.7802 C 27.399 10.6656 27.3294 10.5611 27.2425 10.4721 L 23.521 6.66211 L 26.9226 3.38463 C 27.3203 3.00143 27.3321 2.36837 26.9489 1.97066 C 26.8123 1.8289 26.637 1.73061 26.4447 1.6881 L 19.3124 0.110549 C 19.0122 0.0441417 18.6981 0.119555 18.4607 0.315038 L 14.4666 3.6045 L 10.1077 0.277999 C 9.88044 0.104583 9.58985 0.0367033 9.3093 0.0915046 L 1.94508 1.53 C 1.40304 1.63588 1.04946 2.16112 1.15534 2.70316 C 1.19368 2.89947 1.29002 3.07977 1.43189 3.22076 L 4.92327 6.69041 L 5.55142 6.69041 L 14.179 3.92048 L 22.8365 6.69041 L 14.6942 10.2332 L 5.55142 6.69041 L 4.90673 6.69041 L 1.0543 10.5115 C 0.662187 10.9004 0.659601 11.5336 1.04853 11.9257 C 1.13727 12.0152 1.24211 12.0871 1.35755 12.1376 L 4.83859 13.6612 Z"/></g></g><g id="IIIII-Copy-15" transform="matrix(1,0,0,1,-128,-192)"/></g></g></svg>
