<?xml version="1.0" encoding="UTF-8" standalone="yes"?><svg fill="none" xmlns="http://www.w3.org/2000/svg" xmlns:xlink="http://www.w3.org/1999/xlink" version="1.2" baseProfile="tiny" x="0" y="0" width="256" height="256" viewBox="0 0 256 256"><defs/><defs/><defs/><g id="รฅยยรฉยยขรฆยยง_10759006912.รฅยฎยรฉยชยรจยฎยฐรฅยฝย" clip-path="url(#clip0_9_39025)"><g id="Group"><g id="Group_2"><g id="Group_3"><path id="Vector" fill="#62a531" fill-opacity="1" d="M 204.662 26.2601 L 188.322 26.2601 L 188.322 61.0867 C 188.322 66.749 183.732 71.3392 178.07 71.3392 L 78.476 71.3392 C 72.8137 71.3392 68.2235 66.749 68.2235 61.0867 L 68.2235 26.2601 L 51.3356 26.2601 C 39.0627 26.2601 29.1133 36.2096 29.1133 48.4825 L 29.1133 233.778 C 29.1133 246.051 39.0627 256 51.3356 256 L 204.662 256 C 216.935 256 226.885 246.051 226.885 233.778 L 226.885 48.4825 C 226.885 36.2096 216.935 26.2601 204.662 26.2601 M 184.82 217.213 L 71.1775 217.213 C 66.9307 217.213 63.4881 213.771 63.4881 209.524 C 63.4881 205.277 66.9307 201.835 71.1775 201.835 L 184.82 201.835 C 189.067 201.835 192.51 205.277 192.51 209.524 C 192.51 213.771 189.067 217.213 184.82 217.213 M 184.82 169.449 L 71.1775 169.449 C 66.9307 169.449 63.4881 166.007 63.4881 161.76 C 63.4881 157.513 66.9307 154.071 71.1775 154.071 L 184.82 154.071 C 189.067 154.071 192.51 157.513 192.51 161.76 C 192.51 166.007 189.067 169.449 184.82 169.449 M 184.82 121.682 L 71.1775 121.682 C 66.9307 121.682 63.4881 118.24 63.4881 113.993 C 63.4881 109.746 66.9307 106.304 71.1775 106.304 L 184.82 106.304 C 189.067 106.304 192.51 109.746 192.51 113.993 C 192.51 118.24 189.067 121.682 184.82 121.682"/></g><g id="Group_4"><path id="Vector_2" fill="#62a531" fill-opacity="1" d="M 155.346 26.2601 C 154.752 11.5881 142.684 0 128.001 0 C 113.317 0 101.249 11.5881 100.655 26.2601 L 79.4805 26.2601 L 79.4805 52.2951 C 79.4805 56.5419 82.9231 59.9845 87.1699 59.9845 L 168.831 59.9845 C 173.078 59.9845 176.521 56.5419 176.521 52.2951 L 176.521 26.2601 L 155.346 26.2601 M 128.001 37.3937 C 121.852 37.3937 116.867 32.4091 116.867 26.2601 C 116.867 20.1112 121.852 15.1265 128.001 15.1265 C 134.15 15.1265 139.134 20.1112 139.134 26.2601 C 139.134 32.4091 134.15 37.3937 128.001 37.3937"/></g></g></g></g><defs><clipPath id="clip0_9_39025" clipPathUnits="userSpaceOnUse"><rect fill="#ffffff" x="0" y="0" width="256" height="256"/></clipPath></defs></svg>
