<?xml version="1.0" encoding="UTF-8" standalone="yes"?><svg id="图层_1" xmlns="http://www.w3.org/2000/svg" xmlns:xlink="http://www.w3.org/1999/xlink" version="1.2" baseProfile="tiny" x="0" y="0" width="256" height="256" viewBox="0 0 256 256"><defs/><defs/><defs><clipPath id="clip-path" clipPathUnits="userSpaceOnUse"><rect class="cls-1" fill="none" x="0" y="0" width="256" height="256"/></clipPath></defs><g class="cls-2" clip-path="url(#clip-path)"><g id="å_é_æ__10758969730.å_"><g id="Group"><g id="Group_2"><g id="Group_3"><path id="Vector" fill="#00b050" fill-opacity="0.2" d="M 232.24 145.11 L 225.58 143.84 L 225.58 138.77 L 195.8 102.34 L 176.8 128 L 168.25 114.69 L 158.11 109.75 L 153 97.9 L 138.42 78.9 L 119.42 97.27 L 119.42 109.76 L 106.42 115.97 L 97.55 130.54 L 67.17 95.05 L 34.53 132.44 L 34.53 145.75 L 20 152.4 L 0 177.11 L 256 177.11 L 232.24 145.11 M 76.67 169.19 L 46.58 169.19 L 72.87 142.26 L 76.67 129.26 L 69.07 103.91 L 97.27 136.55 C 77.63 149.54 76.67 169.19 76.67 169.19 M 175.73 169.19 L 161 151 L 141 167.33 L 126.42 167.33 L 141 141 L 135.3 94.11 L 176.8 149.55 L 183.14 169.2 L 175.73 169.19 M 197.73 138.14 L 197.73 114.06 L 232.58 166.34 L 205.31 166.34 L 212.91 158.73 L 197.73 138.14"/></g></g></g></g></g></svg>
