<?xml version="1.0" encoding="UTF-8" standalone="yes"?><svg id="图层_1" xmlns="http://www.w3.org/2000/svg" xmlns:xlink="http://www.w3.org/1999/xlink" version="1.2" baseProfile="tiny" x="0" y="0" width="256" height="256" viewBox="0 0 256 256"><defs><linearGradient id="wps{427d7691-1710-4f2a-a9dc-bfb88e51f057}@Accent4_0.75@#c00000_0.00@Accent4_-0.15" x1="0" y1="0.5" x2="1" y2="0.5" spreadMethod="pad" gradientUnits="objectBoundingBox" gradientTransform="matrix(0,1,-1,0,1,0)"><stop offset="0" stop-color="#ffefbf" stop-opacity="1"/><stop offset="0.5" stop-color="rgba(192,0,0,0.2)" stop-opacity="0.2"/><stop offset="0.99999" stop-color="#d9a300" stop-opacity="1"/></linearGradient></defs><defs/><defs><clipPath id="clip-path" clipPathUnits="userSpaceOnUse"><rect class="cls-2" fill="none" x="0" y="0" width="256" height="256"/></clipPath><g id="mask0_15_47602"><path fill="url(#wps{427d7691-1710-4f2a-a9dc-bfb88e51f057}@Accent4_0.75@#c00000_0.00@Accent4_-0.15)" d="M 256 0 L 0 0 L 0 256 L 256 256 L 256 0 Z"/></g></defs><g class="cls-3" clip-path="url(#clip-path)"><g class="cls-4"><path fill="url(#wps{427d7691-1710-4f2a-a9dc-bfb88e51f057}@Accent4_0.75@#c00000_0.00@Accent4_-0.15)" d="M 153.18 78.84 C 143.61 69.73 128.74 63.43 115.7 68.5 C 100.6 74.37 98.9 90.15 99 104.3 C 99.09 123.82 99.74 146.78 89.29 164.16 C 80.78 178.32 63.82 184.59 54.37 198.1 C 44.75 211.84 39.87 232.85 53.73 244.97 C 63.33 253.36 79.79 259.28 92.31 253.83 C 110.31 245.99 121.78 230.14 132.44 214.37 C 133.28 213.13 134.12 211.9 134.98 210.68 C 146.21 194.6 158.89 179.75 171.41 164.68 C 196.24 134.62 177.08 101.58 153.18 78.84 M 114.5 56.21 C 126.59 59.49 141.26 44.21 144.89 30.85 C 148.52 17.49 141.66 4 129.57 0.73 C 117.48 -2.54 104.74 5.61 101.11 19 C 97.48 32.39 102.41 52.93 114.5 56.21 M 149.81 64 C 156.75 67.37 166.28 62.07 170.81 52.71 C 175.34 43.35 173.44 33 166.5 29.6 C 159.56 26.2 150.25 31.09 145.7 40.45 C 141.15 49.81 142.88 60.58 149.81 64 M 168.63 83.39 C 174.33 87.27 183.43 83.81 188.63 76.12 C 193.83 68.43 193.48 59.06 187.78 55.19 C 182.08 51.32 173.22 54.41 168 62.1 C 162.78 69.79 162.94 79.47 168.63 83.34 L 168.63 83.39 M 181.14 103.6 C 185.66 107.85 194.24 106.07 199.99 99.97 C 205.74 93.87 206.72 85.48 202.2 81.22 C 197.68 76.96 189.36 78.46 183.62 84.56 C 177.88 90.66 176.62 99.3 181.14 103.55 L 181.14 103.6 M 208.35 105.15 C 204.35 101.42 197.08 102.73 192.04 108.09 C 187 113.45 185.9 121.09 189.87 124.79 C 193.84 128.49 201.37 126.96 206.41 121.61 C 211.45 116.26 212.32 108.84 208.35 105.1 L 208.35 105.15"/></g></g></svg>
