<?xml version="1.0" encoding="UTF-8" standalone="yes"?><svg id="图层_1" xmlns="http://www.w3.org/2000/svg" xmlns:xlink="http://www.w3.org/1999/xlink" version="1.2" baseProfile="tiny" x="0" y="0" width="256" height="256" viewBox="0 0 256 256"><defs/><g transform="matrix(1,0,0,1,4.56e-07,-1.12e-07)"><g transform="matrix(0.300328,0,0,0.300328,-26.3688,-13.71)"><g><g><g id="Layer0_16_FILL"><path fill="#a8f2f3" d="M 95.8 253.5 L 95.8 693.3 L 726.6 693.3 L 726.6 253.5 L 95.8 253.5 M 548.7 649.8 C 543.6 644.7 541 638.5 541 631.1 C 541 623.8 543.6 617.5 548.7 612.4 C 553.8 607.3 560 604.7 567.4 604.7 C 574.7 604.7 581 607.3 586.1 612.4 C 591.2 617.5 593.8 623.7 593.8 631.1 C 593.8 638.4 591.2 644.7 586.1 649.8 C 581 654.9 574.8 657.5 567.4 657.5 C 560 657.5 553.8 654.9 548.7 649.8 M 338.8 538.6 L 338.8 349.2 L 498.9 444 L 338.8 538.6 M 133.7 630.3 L 518.8 630.3 L 133.7 630.3 M 632.8 627.1 L 679.2 627.1 L 632.8 627.1"/><path fill="#ff695a" d="M 338.8 349.2 L 338.8 538.6 L 498.9 444 L 338.8 349.2 M 541 631.1 C 541 638.4 543.6 644.7 548.7 649.8 C 553.8 654.9 560 657.5 567.4 657.5 C 574.7 657.5 581 654.9 586.1 649.8 C 591.2 644.7 593.8 638.5 593.8 631.1 C 593.8 623.8 591.2 617.5 586.1 612.4 C 581 607.3 574.8 604.7 567.4 604.7 C 560.1 604.7 553.8 607.3 548.7 612.4 C 543.6 617.6 541 623.8 541 631.1"/><path fill="#ffd56c" d="M 929.1 560.8 L 762.4 560.8 L 762.4 691.2 L 929.1 691.2 L 929.1 560.8 M 880.2 625.9 L 829.7 654.4 L 829.7 598.7 L 880.2 625.9 M 932.2 250.4 L 760.2 250.4 L 760.2 377.7 L 932.2 377.7 L 932.2 250.4 M 878.1 315.5 L 826.6 341.9 L 826.6 285 L 878.1 315.5 M 929.1 406.1 L 759.2 406.1 L 759.2 534.4 L 929.1 534.4 L 929.1 406.1 M 825.6 440.9 L 880.2 469.2 L 825.6 497.7 L 825.6 440.9"/><path fill="#019fe9" d="M 829.8 654.4 L 880.3 625.9 L 829.8 598.7 L 829.8 654.4 M 826.6 341.9 L 878.1 315.5 L 826.6 285 L 826.6 341.9 M 880.2 469.1 L 825.6 440.8 L 825.6 497.5 L 880.2 469.1"/></g></g><g><path d="M 726.6 701.3 L 95.8 701.3 C 91.4 701.3 87.8 697.7 87.8 693.3 L 87.8 253.5 C 87.8 249.1 91.4 245.5 95.8 245.5 L 726.6 245.5 C 731 245.5 734.6 249.1 734.6 253.5 L 734.6 693.3 C 734.6 697.7 731 701.3 726.6 701.3 M 103.8 685.3 L 718.6 685.3 L 718.6 261.5 L 103.8 261.5 L 103.8 685.3 M 929.1 699.2 L 762.4 699.2 C 758 699.2 754.4 695.6 754.4 691.2 L 754.4 560.8 C 754.4 556.4 758 552.8 762.4 552.8 L 929.1 552.8 C 933.5 552.8 937.1 556.4 937.1 560.8 L 937.1 691.2 C 937.1 695.6 933.5 699.2 929.1 699.2 M 770.4 683.2 L 921.1 683.2 L 921.1 568.8 L 770.4 568.8 L 770.4 683.2 M 567.4 665.5 C 557.9 665.5 549.7 662.1 543.1 655.5 C 536.4 648.8 533.1 640.7 533.1 631.2 C 533.1 621.7 536.5 613.5 543.1 606.9 C 549.8 600.2 557.9 596.9 567.4 596.9 C 576.9 596.9 585.1 600.3 591.7 606.9 C 598.4 613.6 601.7 621.7 601.7 631.2 C 601.7 640.7 598.3 648.9 591.7 655.5 C 585.1 662.1 576.9 665.5 567.4 665.5 M 567.4 612.8 C 562.2 612.8 558 614.5 554.4 618.1 C 550.8 621.7 549.1 625.9 549.1 631.1 C 549.1 636.3 550.8 640.5 554.4 644.1 C 558 647.7 562.2 649.4 567.4 649.4 C 572.6 649.4 576.8 647.7 580.4 644.1 C 584 640.5 585.7 636.3 585.7 631.1 C 585.7 625.9 584 621.7 580.4 618.1 C 576.8 614.5 572.6 612.8 567.4 612.8 M 829.8 662.4 C 828.4 662.4 827 662 825.8 661.3 C 823.3 659.9 821.8 657.2 821.8 654.4 L 821.8 598.7 C 821.8 595.9 823.3 593.3 825.7 591.8 C 828.1 590.4 831.1 590.3 833.6 591.6 L 884.1 618.8 C 886.7 620.2 888.3 622.9 888.3 625.8 C 888.3 628.7 886.8 631.4 884.2 632.8 L 833.7 661.3 C 832.5 662 831.1 662.4 829.8 662.4 M 837.8 612.1 L 837.8 640.7 L 863.7 626.1 L 837.8 612.1 M 518.8 638.3 L 133.7 638.3 C 129.3 638.3 125.7 634.7 125.7 630.3 C 125.7 625.9 129.3 622.3 133.7 622.3 L 518.8 622.3 C 523.2 622.3 526.8 625.9 526.8 630.3 C 526.8 634.7 523.3 638.3 518.8 638.3 M 679.3 635.1 L 632.9 635.1 C 628.5 635.1 624.9 631.5 624.9 627.1 C 624.9 622.7 628.5 619.1 632.9 619.1 L 679.3 619.1 C 683.7 619.1 687.3 622.7 687.3 627.1 C 687.3 631.5 683.7 635.1 679.3 635.1 M 338.8 546.6 C 337.4 546.6 336.1 546.3 334.8 545.5 C 332.3 544.1 330.8 541.4 330.8 538.6 L 330.8 349.2 C 330.8 346.3 332.3 343.7 334.8 342.2 C 337.3 340.8 340.4 340.8 342.8 342.3 L 503 437.1 C 505.4 438.5 506.9 441.2 506.9 444 C 506.9 446.8 505.4 449.4 503 450.9 L 342.9 545.5 C 341.7 546.2 340.3 546.6 338.8 546.6 M 346.8 363.2 L 346.8 524.6 L 483.2 444 L 346.8 363.2 M 929.1 542.4 L 759.2 542.4 C 754.8 542.4 751.2 538.8 751.2 534.4 L 751.2 406.1 C 751.2 401.7 754.8 398.1 759.2 398.1 L 929.1 398.1 C 933.5 398.1 937.1 401.7 937.1 406.1 L 937.1 534.4 C 937.1 538.8 933.5 542.4 929.1 542.4 M 767.2 526.4 L 921.1 526.4 L 921.1 414.1 L 767.2 414.1 L 767.2 526.4 M 825.6 505.6 C 824.2 505.6 822.7 505.2 821.4 504.4 C 819 502.9 817.5 500.4 817.5 497.6 L 817.5 440.9 C 817.5 438.1 819 435.5 821.3 434.1 C 823.7 432.6 826.7 432.5 829.1 433.8 L 883.7 462.1 C 886.4 463.5 888 466.2 888 469.2 C 888 472.2 886.3 474.9 883.7 476.3 L 829.1 504.8 C 828.1 505.3 826.8 505.6 825.6 505.6 M 833.6 454 L 833.6 484.4 L 862.9 469.1 L 833.6 454 M 932.2 385.7 L 760.2 385.7 C 755.8 385.7 752.2 382.1 752.2 377.7 L 752.2 250.4 C 752.2 246 755.8 242.4 760.2 242.4 L 932.2 242.4 C 936.6 242.4 940.2 246 940.2 250.4 L 940.2 377.7 C 940.2 382.1 936.7 385.7 932.2 385.7 M 768.3 369.7 L 924.3 369.7 L 924.3 258.4 L 768.3 258.4 L 768.3 369.7 M 826.6 349.9 C 825.1 349.9 823.7 349.5 822.4 348.7 C 820 347.2 818.6 344.7 818.6 341.9 L 818.6 285 C 818.6 282.1 820.1 279.5 822.6 278 C 825.1 276.6 828.2 276.6 830.6 278.1 L 882.1 308.7 C 884.6 310.2 886.1 312.9 886 315.8 C 885.9 318.7 884.2 321.3 881.6 322.7 L 830.3 349 C 829.1 349.6 827.9 349.9 826.6 349.9 M 834.6 299 L 834.6 328.8 L 861.6 315 L 834.6 299"/></g></g></g></g></svg>
