<?xml version="1.0" encoding="UTF-8" standalone="yes"?><svg class="icon" xmlns="http://www.w3.org/2000/svg" xmlns:xlink="http://www.w3.org/1999/xlink" version="1.2" baseProfile="tiny" x="0" y="0" width="200" height="200" viewBox="0 0 1024 1024"><defs/><defs/><path fill="#62a531" fill-opacity="1" d="M 490.13 565.21 L 114.96 368.7 C 90 352.97 90 317.04 114.96 301.31 L 490.14 104.79 C 503.47 96.39 520.55 96.39 533.88 104.79 L 909.04 301.3 C 934 317.03 934 352.96 909.04 368.69 L 533.87 565.21 C 520.54 573.62 503.46 573.62 490.13 565.21 Z"/><path fill="#62a531" fill-opacity="1" d="M 511.57 765.92 C 498.76 765.92 485.95 762.53 474.66 755.75 L 112.18 566.36 C 96.52 558.18 90.45 538.84 98.64 523.18 C 106.82 507.52 126.16 501.45 141.82 509.64 L 506.41 700.13 L 507.5 700.81 C 510 702.38 513.25 702.36 515.78 700.76 L 516.86 700.08 L 517.99 699.49 L 882.13 508.28 C 897.78 500.06 917.12 506.09 925.34 521.73 C 933.56 537.38 927.53 556.72 911.89 564.94 L 548.7 755.64 C 537.34 762.49 524.45 765.92 511.57 765.92 Z"/><path fill="#62a531" fill-opacity="1" d="M 511.57 960.31 C 498.76 960.31 485.95 956.92 474.66 950.14 L 112.18 760.75 C 96.52 752.57 90.45 733.23 98.64 717.57 C 106.82 701.91 126.16 695.84 141.82 704.03 L 506.41 894.52 L 507.5 895.2 C 510 896.77 513.25 896.75 515.78 895.15 L 516.86 894.47 L 517.99 893.88 L 882.13 702.67 C 897.78 694.45 917.12 700.48 925.34 716.12 C 933.56 731.77 927.53 751.11 911.89 759.33 L 548.7 950.04 C 537.34 956.89 524.45 960.31 511.57 960.31 Z"/></svg>
