<?xml version="1.0" encoding="UTF-8" standalone="yes"?><svg fill="none" xmlns="http://www.w3.org/2000/svg" xmlns:xlink="http://www.w3.org/1999/xlink" version="1.2" baseProfile="tiny" x="0" y="0" width="256" height="256" viewBox="0 0 256 256"><defs/><defs/><defs/><g id="单面性_10740922634.策略"><g id="Group"><g id="Group_2"><g id="Group_3"><path id="Vector" fill="#62a531" fill-opacity="1" clip-rule="evenodd" d="M 121.249 218.6 C 124.284 221.196 128.856 221.059 131.728 218.187 L 177.103 172.812 C 180.12 169.795 180.12 164.904 177.103 161.886 C 174.086 158.871 169.194 158.871 166.177 161.886 L 125.939 202.126 L 99.8988 176.087 C 99.1887 175.377 98.375 174.833 97.5065 174.456 C 94.471 171.98 89.9941 172.155 87.1644 174.985 L 62.2629 199.886 C 59.2459 202.903 59.2459 207.794 62.2629 210.811 C 65.2799 213.829 70.1713 213.829 73.1883 210.811 L 92.9807 191.019 L 118.994 217.032 C 119.666 217.704 120.432 218.226 121.249 218.6 M 89.3983 0 L 230.943 0 C 238.049 0 243.81 5.76107 243.81 12.8677 L 243.81 185.6 L 230.943 185.6 L 230.943 25.6677 C 230.943 18.5611 225.182 12.8 218.075 12.8 L 89.3983 12.8 L 89.3983 0 M 25.0591 25.6 L 205.208 25.6 C 212.313 25.6 218.075 31.3611 218.075 38.4677 L 218.075 243.133 C 218.075 250.238 212.313 256 205.208 256 L 25.0591 256 C 17.9525 256 12.1914 250.238 12.1914 243.133 L 12.1914 38.4677 C 12.1914 31.3611 17.9525 25.6 25.0591 25.6 M 63.6285 64 C 60.0939 64 57.2285 66.8654 57.2285 70.4 C 57.2285 73.9346 60.0939 76.8 63.6285 76.8 L 166.639 76.8 C 170.172 76.8 173.039 73.9346 173.039 70.4 C 173.039 66.8654 170.172 64 166.639 64 L 63.6285 64 M 63.6285 96 C 60.0939 96 57.2285 98.8648 57.2285 102.4 C 57.2285 105.935 60.0939 108.8 63.6285 108.8 L 166.639 108.8 C 170.172 108.8 173.039 105.935 173.039 102.4 C 173.039 98.8648 170.172 96 166.639 96 L 63.6285 96 M 63.6285 128 C 60.0939 128 57.2285 130.865 57.2285 134.4 C 57.2285 137.935 60.0939 140.8 63.6285 140.8 L 115.167 140.8 C 118.701 140.8 121.567 137.935 121.567 134.4 C 121.567 130.865 118.701 128 115.167 128 L 63.6285 128"/></g></g></g></g></svg>
