<?xml version="1.0" encoding="UTF-8" standalone="yes"?><svg id="图层_1" xmlns="http://www.w3.org/2000/svg" xmlns:xlink="http://www.w3.org/1999/xlink" version="1.2" baseProfile="tiny" x="0" y="0" width="256" height="256" viewBox="0 0 256 256"><defs><linearGradient id="SVGID_1_" x1="425.961" y1="-1346.36" x2="1499.93" y2="-1346.36" spreadMethod="pad" gradientUnits="userSpaceOnUse" gradientTransform="matrix(-0.9746,0.2238,0.2238,0.9746,1658.26,1579.77)"><stop offset="0" stop-color="#ffa06a" stop-opacity="1"/><stop offset="0.084211" stop-color="#fa8d60" stop-opacity="1"/><stop offset="0.2614" stop-color="#f06a4e" stop-opacity="1"/><stop offset="0.4415" stop-color="#e84f3f" stop-opacity="1"/><stop offset="0.6233" stop-color="#e23b35" stop-opacity="1"/><stop offset="0.808" stop-color="#df302f" stop-opacity="1"/><stop offset="1" stop-color="#de2c2d" stop-opacity="1"/></linearGradient><linearGradient id="SVGID_2_" x1="442.5" y1="-1147.41" x2="1477.42" y2="-1147.41" spreadMethod="pad" gradientUnits="userSpaceOnUse" gradientTransform="matrix(-0.9746,0.2238,0.2238,0.9746,1658.26,1579.77)"><stop offset="0" stop-color="#ffa06a" stop-opacity="1"/><stop offset="0.084211" stop-color="#fa8d60" stop-opacity="1"/><stop offset="0.2614" stop-color="#f06a4e" stop-opacity="1"/><stop offset="0.4415" stop-color="#e84f3f" stop-opacity="1"/><stop offset="0.6233" stop-color="#e23b35" stop-opacity="1"/><stop offset="0.808" stop-color="#df302f" stop-opacity="1"/><stop offset="1" stop-color="#de2c2d" stop-opacity="1"/></linearGradient><linearGradient id="SVGID_3_" x1="374.17" y1="430.452" x2="1449.76" y2="430.452" spreadMethod="pad" gradientUnits="userSpaceOnUse" gradientTransform="matrix(0.9785,-0.2062,-0.2062,-0.9785,-47.4083,1223.16)"><stop offset="0" stop-color="#ffa06a" stop-opacity="1"/><stop offset="0.084211" stop-color="#fa8d60" stop-opacity="1"/><stop offset="0.2614" stop-color="#f06a4e" stop-opacity="1"/><stop offset="0.4415" stop-color="#e84f3f" stop-opacity="1"/><stop offset="0.6233" stop-color="#e23b35" stop-opacity="1"/><stop offset="0.808" stop-color="#df302f" stop-opacity="1"/><stop offset="1" stop-color="#de2c2d" stop-opacity="1"/></linearGradient></defs><g transform="matrix(0.303569,0,0,0.303569,-27.7462,-27.1239)"><path fill="url(#SVGID_1_)" d="M 683.7 430.5 L 610.5 419.8 L 512 220.1 L 413.4 419.9 L 192.9 452 L 352.5 607.6 L 328.8 745.4 C 390.2 595.4 518.1 475.9 683.7 430.5 Z"/><path fill="url(#SVGID_2_)" d="M 512 716.1 L 702 816 L 665.7 604.4 L 819.4 454.5 L 677.4 433.9 C 517.7 477.6 394.4 592.8 335.3 737.1 L 322 816 L 512 716.1 Z"/><path fill="url(#SVGID_3_)" d="M 512 722.2 L 709.2 827 L 671.5 604.9 L 831 447.6 L 683.6 426 C 517.9 471.9 389.9 592.8 328.6 744.2 L 314.8 827 L 512 722.2 Z"/><path fill="#dd2d2c" d="M 934.7 417.1 L 931.6 416.7 C 931.9 417.5 932.2 418.4 932.5 419.2 L 934.7 417.1 Z"/><path fill="#dd2d2c" d="M 514 109 L 383.4 373.7 L 91.4 416.1 L 302.7 622.1 L 252.8 913 L 300.9 887.7 C 305.4 835 317.9 784 337.5 736.2 L 360.3 603.4 L 206.5 453.5 L 419 422.6 L 514 230.1 L 609 422.6 L 679.5 432.8 C 689.5 430.1 699.5 427.5 709.8 425.4 C 783.6 409.8 857.1 411 926.3 426.1 L 934.5 418.1 C 934.2 417.3 933.9 416.4 933.6 415.6 L 644.6 373.6 L 514 109 Z"/><path fill="#dd2d2c" d="M 708.8 424.5 C 698.6 426.7 688.5 429.2 678.5 431.9 L 820.5 452.5 L 666.8 602.8 L 703 814.8 L 513 714.7 L 323 814.8 L 336.5 735.7 C 316.9 783.6 304.4 834.8 299.9 887.5 L 513 775.3 L 774.2 913 L 724.3 621.5 L 925.3 425.2 C 856.1 410.1 782.7 408.9 708.8 424.5 Z"/></g></svg>
