<?xml version="1.0" encoding="UTF-8" standalone="yes"?><svg id="图层_1" xmlns="http://www.w3.org/2000/svg" xmlns:xlink="http://www.w3.org/1999/xlink" version="1.2" baseProfile="tiny" x="0" y="0" width="256" height="256" viewBox="0 0 256 256"><defs/><defs/><defs/><defs/><defs/><defs/><defs><g id="mask0_11_164029"><g id="clipPath20"><path id="path18" fill="#bfdc98" fill-opacity="1" d="M 188.39 89.55 L 164.87 52.63 L 141.34 15.7 L 141.34 15.18 L 141.34 14.65 L 140.74 14.65 L 136.97 8.74 L 133.2 2.81 C 132.065 1.04148 130.101 -0.0198222 128 0 C 125.92 0.000744998 123.983 1.05952 122.86 2.81 L 119.09 8.74 L 115.32 14.65 L 114.73 14.65 L 114.73 15.18 L 114.73 15.7 L 91.14 52.63 L 67.61 89.55 C 67.3033 90.0481 67.0677 90.5867 66.91 91.15 C 66.7517 91.6926 66.6709 92.2548 66.67 92.82 C 66.6475 94.9165 67.7103 96.8757 69.48 98 C 70.8447 98.8742 72.5015 99.1683 74.0837 98.8173 C 75.6659 98.4664 77.043 97.4992 77.91 96.13 L 95.33 68.73 C 99.89 61.58 111 65.25 110.33 73.73 L 104.8 148.73 L 97.54 247.27 C 97.3704 249.533 98.1505 251.764 99.693 253.428 C 101.235 255.091 103.401 256.038 105.67 256.04 L 119 246.78 C 124.413 243.028 131.587 243.028 137 246.78 L 150.28 256 C 152.551 256.001 154.721 255.056 156.267 253.392 C 157.813 251.728 158.597 249.495 158.43 247.23 L 151.16 148.69 L 145.64 73.69 C 145.01 65.22 156.12 61.55 160.64 68.69 L 178.1 96.09 C 179.425 98.1757 181.88 99.2521 184.312 98.8131 C 186.744 98.3742 188.668 96.5073 189.18 94.09 C 189.518 92.5315 189.235 90.9026 188.39 89.55 Z"/></g></g></defs><g id="å_é_æ__10758957926.æ_ç_å_ä_ç_å_"><g id="Group"><g id="Group_2"><g id="g10"><g id="g12"><g id="g14"><g id="Clip_path_group"><g class="cls-2"><g id="g16"><path id="path28" fill="#bfdc98" fill-opacity="1" d="M 188.39 89.55 L 164.87 52.63 L 141.34 15.7 L 141.34 15.18 L 141.34 14.65 L 140.74 14.65 L 136.97 8.74 L 133.2 2.81 C 132.065 1.04148 130.101 -0.0198222 128 0 C 125.92 0.000744998 123.983 1.05952 122.86 2.81 L 119.09 8.74 L 115.32 14.65 L 114.73 14.65 L 114.73 15.18 L 114.73 15.7 L 91.14 52.63 L 67.61 89.55 C 67.3033 90.0481 67.0677 90.5867 66.91 91.15 C 66.7517 91.6926 66.6709 92.2548 66.67 92.82 C 66.6475 94.9165 67.7103 96.8757 69.48 98 C 70.8447 98.8742 72.5015 99.1683 74.0837 98.8173 C 75.6659 98.4664 77.043 97.4992 77.91 96.13 L 95.33 68.73 C 99.89 61.58 111 65.25 110.33 73.73 L 104.8 148.73 L 97.54 247.27 C 97.3704 249.533 98.1505 251.764 99.693 253.428 C 101.235 255.091 103.401 256.038 105.67 256.04 L 119 246.78 C 124.413 243.028 131.587 243.028 137 246.78 L 150.28 256 C 152.551 256.001 154.721 255.056 156.267 253.392 C 157.813 251.728 158.597 249.495 158.43 247.23 L 151.16 148.69 L 145.64 73.69 C 145.01 65.22 156.12 61.55 160.64 68.69 L 178.1 96.09 C 179.425 98.1757 181.88 99.2521 184.312 98.8131 C 186.744 98.3742 188.668 96.5073 189.18 94.09 C 189.518 92.5315 189.235 90.9026 188.39 89.55 Z"/></g></g></g></g></g></g></g></g></g></svg>
