<?xml version="1.0" encoding="UTF-8" standalone="yes"?><svg class="icon" xmlns="http://www.w3.org/2000/svg" xmlns:xlink="http://www.w3.org/1999/xlink" version="1.2" baseProfile="tiny" x="0" y="0" width="200" height="200" viewBox="0 0 1026 1024"><defs/><defs/><path fill="#62a531" fill-opacity="1" d="M 384 0 L 85.3333 0 C 38.4 0 0 38.4 0 85.3333 L 0 384 C 0 430.933 38.4 469.333 85.3333 469.333 L 384 469.333 C 430.933 469.333 469.333 430.933 469.333 384 L 469.333 85.3333 C 469.333 38.4 430.933 0 384 0 M 384 405.333 L 384 426.667 L 384 405.333 M 384 554.667 L 85.3333 554.667 C 38.4 554.667 0 593.067 0 640 L 0 938.667 C 0 985.6 38.4 1024 85.3333 1024 L 384 1024 C 430.933 1024 469.333 985.6 469.333 938.667 L 469.333 640 C 469.333 593.067 430.933 554.667 384 554.667 M 384 968.533 L 384 981.333 L 384 968.533 M 938.667 554.667 L 640 554.667 C 593.067 554.667 554.667 593.067 554.667 640 L 554.667 938.667 C 554.667 985.6 593.067 1024 640 1024 L 938.667 1024 C 985.6 1024 1024 985.6 1024 938.667 L 1024 640 C 1024 593.067 985.6 554.667 938.667 554.667 M 966.4 151.467 L 936.533 151.467 C 934.4 149.333 932.267 145.067 932.267 142.933 L 949.333 113.067 C 964.267 85.3333 955.733 49.0667 928 32 L 889.6 8.53333 C 876.8 0 861.867 -2.13333 846.933 2.13333 C 832 6.4 819.2 17.0667 810.667 29.8667 L 795.733 57.6 L 787.2 57.6 L 772.267 29.8667 C 763.733 14.9333 750.933 6.4 736 2.13333 C 721.067 -2.13333 706.133 -3.10862e-15 693.333 8.53333 L 654.933 32 C 629.333 49.0667 618.667 85.3333 633.6 113.067 L 650.667 142.933 C 648.533 145.067 646.4 149.333 646.4 151.467 L 616.533 151.467 C 584.533 151.467 558.933 179.2 558.933 211.2 L 558.933 258.133 C 558.933 290.133 584.533 317.867 616.533 317.867 L 646.4 317.867 C 648.533 320 650.667 324.267 650.667 326.4 L 633.6 356.267 C 618.667 384 627.2 420.267 654.933 437.333 L 693.333 460.8 C 701.867 467.2 712.533 469.333 723.2 469.333 C 727.467 469.333 733.867 469.333 738.133 467.2 C 753.067 462.933 765.867 452.267 774.4 439.467 L 789.333 411.733 L 797.867 411.733 L 812.8 439.467 C 821.333 454.4 834.133 462.933 849.067 467.2 C 864 471.467 878.933 469.333 891.733 460.8 L 930.133 437.333 C 955.733 420.267 966.4 384 951.467 356.267 L 934.4 326.4 C 936.533 324.267 938.667 320 938.667 317.867 L 968.533 317.867 C 1000.53 317.867 1026.13 290.133 1026.13 258.133 L 1026.13 211.2 C 1024 179.2 998.4 151.467 966.4 151.467 M 789.333 320 C 742.4 320 704 281.6 704 234.667 C 704 187.733 742.4 149.333 789.333 149.333 C 836.267 149.333 874.667 187.733 874.667 234.667 C 874.667 281.6 836.267 320 789.333 320"/></svg>
